<svg width="58" height="16" viewBox="0 0 58 16" fill="none" xmlns="http://www.w3.org/2000/svg">
<path d="M56.7428 8.70711C57.1333 8.31658 57.1333 7.68342 56.7428 7.29289L50.3788 0.928932C49.9883 0.538408 49.3552 0.538408 48.9646 0.928932C48.5741 1.31946 48.5741 1.95262 48.9646 2.34315L54.6215 8L48.9646 13.6569C48.5741 14.0474 48.5741 14.6805 48.9646 15.0711C49.3552 15.4616 49.9883 15.4616 50.3788 15.0711L56.7428 8.70711ZM0 9H2.00128V7H0V9ZM6.00383 9H10.0064V7H6.00383V9ZM14.0089 9H18.0115V7H14.0089V9ZM22.014 9H26.0166V7H22.014V9ZM30.0191 9H34.0217V7H30.0191V9ZM38.0242 9H42.0268V7H38.0242V9ZM46.0293 9H50.0319V7H46.0293V9ZM54.0344 9H56.0357V7H54.0344V9ZM56.7428 8.70711C57.1333 8.31658 57.1333 7.68342 56.7428 7.29289L50.3788 0.928932C49.9883 0.538408 49.3552 0.538408 48.9646 0.928932C48.5741 1.31946 48.5741 1.95262 48.9646 2.34315L54.6215 8L48.9646 13.6569C48.5741 14.0474 48.5741 14.6805 48.9646 15.0711C49.3552 15.4616 49.9883 15.4616 50.3788 15.0711L56.7428 8.70711ZM0 9H2.00128V7H0V9ZM6.00383 9H10.0064V7H6.00383V9ZM14.0089 9H18.0115V7H14.0089V9ZM22.014 9H26.0166V7H22.014V9ZM30.0191 9H34.0217V7H30.0191V9ZM38.0242 9H42.0268V7H38.0242V9ZM46.0293 9H50.0319V7H46.0293V9ZM54.0344 9H56.0357V7H54.0344V9Z" fill="#9E421B"/>
</svg>
