<svg width="59" height="59" viewBox="0 0 59 59" fill="none" xmlns="http://www.w3.org/2000/svg">
<g clip-path="url(#clip0_1153_62)">
<path d="M39.795 21.0257C39.7094 20.94 39.6078 20.8721 39.4958 20.8258C39.3839 20.7795 39.2639 20.7558 39.1428 20.756C38.9066 20.756 38.6703 20.8459 38.4906 21.0257L26.1052 33.4111L20.5083 27.8141C20.4227 27.7284 20.321 27.6605 20.209 27.6142C20.0971 27.568 19.9772 27.5443 19.856 27.5445C19.6198 27.5445 19.3836 27.6344 19.2038 27.8141L17.9005 29.1174C17.541 29.477 17.541 30.0612 17.9005 30.4207L25.453 37.9732C25.6327 38.153 25.869 38.2428 26.1052 38.2428C26.3414 38.2428 26.5765 38.153 26.7563 37.9732L41.0972 23.6323C41.4567 23.2727 41.4567 22.6885 41.0972 22.329L39.795 21.0257ZM59 29.5C59 25.4092 56.7645 21.641 53.2844 19.6475C54.333 15.7756 53.2498 11.535 50.3574 8.64258C47.465 5.7502 43.2244 4.66699 39.3525 5.71562C37.359 2.23555 33.5908 0 29.5 0C25.4092 0 21.641 2.23555 19.6475 5.71562C15.7756 4.66699 11.535 5.7502 8.64258 8.64258C5.7502 11.535 4.66699 15.7756 5.71562 19.6475C2.23555 21.641 0 25.4092 0 29.5C0 33.5908 2.23555 37.359 5.71562 39.3525C4.66699 43.2244 5.7502 47.465 8.64258 50.3574C11.6963 53.4111 15.9484 54.2869 19.6475 53.2844C21.6525 56.7645 25.4092 59 29.5 59C33.5908 59 37.3475 56.7645 39.3525 53.2844C43.1207 54.31 47.3498 53.365 50.3574 50.3574C53.2498 47.465 54.333 43.2244 53.2844 39.3525C56.7645 37.359 59 33.5908 59 29.5ZM48.5021 37.3705C49.1129 38.7303 51.9016 43.6047 47.7531 47.7531C44.4229 51.0834 41.1271 50.2076 37.3705 48.5021C36.8404 49.8965 35.377 55.3125 29.5 55.3125C23.4963 55.3125 22.0443 49.6084 21.6295 48.5021C17.8729 50.2076 14.5656 51.0604 11.2469 47.7531C7.00625 43.524 9.99082 38.4768 10.4979 37.3705C9.10352 36.8404 3.6875 35.377 3.6875 29.5C3.6875 23.4963 9.3916 22.0443 10.4979 21.6295C9.88711 20.2697 7.09844 15.3953 11.2469 11.2469C15.4875 6.99473 20.5578 10.0139 21.6295 10.4979C22.1596 9.10352 23.623 3.6875 29.5 3.6875C35.5037 3.6875 36.9557 9.3916 37.3705 10.4979C38.7303 9.88711 43.6047 7.09844 47.7531 11.2469C51.9937 15.476 49.0092 20.5232 48.5021 21.6295C49.8965 22.1596 55.3125 23.623 55.3125 29.5C55.3125 35.5037 49.6084 36.9557 48.5021 37.3705Z" fill="black"/>
</g>
<defs>
<clipPath id="clip0_1153_62">
<rect width="59" height="59" fill="white"/>
</clipPath>
</defs>
</svg>
