<svg width="1046" height="487" viewBox="0 0 1046 487" fill="none" xmlns="http://www.w3.org/2000/svg">
<path d="M969 14.5L973.5 0H1046V639.5L0 657.5V639.5L14 613.5H26L52 593.5L78 578L115.5 564L137.5 550H183.5H207.5L237 536L265 514L313 466V436.5L521 400H534.5L567.5 389.5V383.5C571.167 381 581 374 591 366C601 358 606.5 355.667 608 355.5L613 352L620 332.5C622.667 329.167 628.2 322 629 320C629.8 318 633.667 313.167 635.5 311L640 305L644 298.5H647C646.016 289.643 661 294.5 657.5 290.5C654 286.5 655.915 271.937 663 280.5L673 273L676 269L681 263L686.5 257.5L689.5 253V245V236C691.807 232.002 692.193 227.884 696 227V217.5C705.199 197.421 713.437 174.813 717 175.5L719.5 173.5C716.244 168.22 717.718 165.961 723 162.5L726 156.5L733 154.5H736.5V152.5V144L742.5 137C746.699 139.368 753.177 139.43 766.5 139L768.5 132C779.997 132.3 785.614 133.97 802.5 124.5V117L808.5 113L817 110.5C815.479 105.276 813.608 102.849 823.5 92V89.5H828.5C829.911 85.4626 831.303 84.3387 835.5 85.5L843.5 78.5L837.5 70C842.872 66.0668 845.386 63.5168 845.5 56C848.208 53.5848 849.863 53.6686 853 56C855.999 52.0199 858.422 51.5433 863.5 52.5C866.829 48.7067 868.036 49.7492 870 52.5C879.339 56.1051 883.252 50.9535 890 40.5L895 37L900.5 34L907.5 31.5L918 29.5L928.5 21L932 22.5L935 17.5L943.5 19.5C943.917 10.7666 950.219 16.3646 957.5 19.5C959.798 14.5062 961.662 12.4977 969 14.5Z" fill="#DBB687"/>
</svg>
