<svg width="132" height="135" viewBox="0 0 132 135" fill="none" xmlns="http://www.w3.org/2000/svg">
<path d="M4.77643 40.9749C4.07503 72.6307 11.9695 81.4844 41.8886 80.2964V65.897C40.8841 57.119 37.9626 54.499 29.336 53.159C14.2837 50.8713 9.90259 47.7499 4.77643 40.9749Z" fill="#C3911A"/>
<path d="M43.5254 29.8984C54.0371 40.8786 57.6646 46.8797 44.8967 60.9126C41.3424 53.7129 35.0729 50.3899 35.0729 50.3899C35.0729 50.3899 35.8847 41.5287 43.5254 29.8984Z" fill="#C3911A"/>
<path d="M4.77643 40.9749C4.07503 72.6307 11.9695 81.4844 41.8886 80.2964V65.897C40.8841 57.119 37.9626 54.499 29.336 53.159C14.2837 50.8713 9.90259 47.7499 4.77643 40.9749Z" stroke="white"/>
<path d="M43.5254 29.8984C54.0371 40.8786 57.6646 46.8797 44.8967 60.9126C41.3424 53.7129 35.0729 50.3899 35.0729 50.3899C35.0729 50.3899 35.8847 41.5287 43.5254 29.8984Z" stroke="white"/>
<path d="M8.59617 69.7708C0.30667 73.0575 -0.135601 76.9705 4.77684 79.1858C51.4516 90.3787 72.9446 88.7123 107.38 79.1858C113.929 76.4167 108.177 72.4483 97.0103 68.1094" stroke="black" stroke-width="2"/>
<path d="M1.5 75.3125C4.51289 95.6845 7.92227 110.805 32.6087 127.926C48.9817 137.341 70.8124 134.572 81.7278 127.926C93.7347 122.387 105.485 102.383 110.108 76.974" stroke="black" stroke-width="2" stroke-linecap="round"/>
<path d="M66.4453 86.3912L97.0083 45.9623C95.4276 43.8103 93.4633 43.2409 97.0083 39.3164C100.553 35.392 114.508 43.9105 111.198 48.7314C107.889 53.5523 108.199 51.6844 105.741 50.9467L87.1845 84.1759" stroke="black" stroke-width="2"/>
<path d="M77.361 50.9453C55.3852 53.1962 47.3219 58.2687 47.3438 80.2979C59.5506 81.9971 65.331 80.4326 72.4491 70.3291C72.9305 64.3993 74.2323 59.5785 77.361 50.9453Z" fill="#C3911A" stroke="white"/>
<path d="M19.5117 64.2344C25.7006 74.6122 31.2276 77.3736 42.4339 80.2952" stroke="white"/>
<path d="M46.2545 44.2969C48.5382 50.2247 47.7755 54.236 44.6172 62.0192" stroke="white"/>
<path d="M47.8906 81.4029C49.2599 72.5159 51.5609 68.921 57.7144 64.2344" stroke="white"/>
<path d="M9.6875 86.3906C15.2758 109.422 23.7958 116.43 42.4335 125.158" stroke="black"/>
<path fill-rule="evenodd" clip-rule="evenodd" d="M130.49 65.2264L131.49 65.2415C131.495 64.9069 131.498 64.5715 131.498 64.2356C131.498 63.8997 131.495 63.5644 131.49 63.2298L130.49 63.2449L129.49 63.26C129.495 63.5846 129.498 63.9098 129.498 64.2356C129.498 64.5615 129.495 64.8867 129.49 65.2113L130.49 65.2264ZM130.431 61.2746L131.43 61.2293C131.399 60.559 131.359 59.8913 131.308 59.2265L130.311 59.3023L129.314 59.3781C129.363 60.0226 129.402 60.67 129.432 61.32L130.431 61.2746ZM130.132 57.3396L131.126 57.2334C131.055 56.567 130.974 55.9036 130.883 55.2434L129.892 55.3802L128.901 55.5169C128.99 56.1568 129.068 56.7998 129.137 57.4458L130.132 57.3396ZM129.592 53.4297L130.578 53.2625C130.466 52.6033 130.345 51.9475 130.213 51.2953L129.233 51.4929L128.252 51.6905C128.38 52.3225 128.498 52.958 128.606 53.597L129.592 53.4297ZM128.813 49.5627L129.786 49.3348C129.634 48.6832 129.471 48.0355 129.3 47.3917L128.333 47.6497L127.367 47.9077C127.534 48.5315 127.691 49.1591 127.839 49.7906L128.813 49.5627ZM127.795 45.7528L128.753 45.465C128.56 44.8237 128.358 44.1866 128.146 43.554L127.198 43.8715L126.249 44.1891C126.455 44.802 126.651 45.4193 126.837 46.0407L127.795 45.7528ZM126.542 42.012L127.48 41.6651C127.248 41.0376 127.007 40.4147 126.756 39.7966L125.829 40.1725L124.903 40.5485C125.146 41.1473 125.38 41.7508 125.605 42.3589L126.542 42.012ZM125.059 38.3559L125.974 37.9513C125.703 37.34 125.424 36.7338 125.135 36.1328L124.234 36.5656L123.332 36.9984C123.612 37.5807 123.883 38.1682 124.145 38.7605L125.059 38.3559ZM123.352 34.8002L124.24 34.3395C123.932 33.746 123.615 33.1579 123.289 32.5755L122.416 33.0636L121.543 33.5517C121.859 34.116 122.166 34.6858 122.464 35.2609L123.352 34.8002ZM121.427 31.3579L122.284 30.8429C121.94 30.2696 121.587 29.7022 121.225 29.1409L120.385 29.6822L119.544 30.2236C119.894 30.7675 120.236 31.3173 120.57 31.8729L121.427 31.3579ZM119.291 28.0406L120.115 27.4733C119.736 26.923 119.348 26.379 118.953 25.8415L118.147 26.4341L117.342 27.0267C117.725 27.5475 118.1 28.0746 118.468 28.6078L119.291 28.0406ZM116.953 24.863L117.74 24.2457C117.328 23.72 116.907 23.201 116.479 22.6889L115.712 23.3305L114.945 23.972C115.36 24.4682 115.767 24.971 116.167 25.4804L116.953 24.863ZM114.423 21.8374L115.17 21.1723C114.725 20.6732 114.273 20.1813 113.814 19.6967L113.088 20.3848L112.362 21.0729C112.808 21.5424 113.246 22.019 113.676 22.5025L114.423 21.8374ZM111.709 18.9749L112.412 18.2645C111.938 17.7943 111.456 17.3317 110.967 16.8767L110.286 17.6087L109.605 18.3408C110.078 18.7815 110.545 19.2298 111.005 19.6853L111.709 18.9749ZM108.821 16.2877L109.479 15.5347C108.976 15.0952 108.466 14.6636 107.95 14.2401L107.316 15.0134L106.682 15.7867C107.182 16.1969 107.676 16.615 108.163 17.0408L108.821 16.2877ZM105.771 13.7869L106.381 12.9941C105.851 12.5871 105.315 12.1884 104.773 11.7982L104.189 12.6098L103.605 13.4215C104.13 13.7994 104.649 14.1856 105.162 14.5797L105.771 13.7869ZM102.57 11.4831L103.128 10.6535C102.574 10.2807 102.014 9.91664 101.448 9.56134L100.917 10.4083L100.385 11.2552C100.933 11.5993 101.475 11.9519 102.012 12.3128L102.57 11.4831ZM99.2304 9.38668L99.7349 8.52327C99.1585 8.18646 98.5763 7.85859 97.9887 7.53986L97.5119 8.41889L97.0351 9.29792C97.6041 9.60651 98.1677 9.92396 98.7259 10.2501L99.2304 9.38668ZM95.7639 7.50664L96.2124 6.61283C95.6161 6.31364 95.0145 6.0237 94.4078 5.7432L93.9881 6.65089L93.5685 7.55858C94.1558 7.83011 94.7382 8.11079 95.3155 8.40044L95.7639 7.50664ZM92.1847 5.85199L92.575 4.9313C91.961 4.67101 91.3421 4.42025 90.7185 4.17921L90.3579 5.11196L89.9974 6.04471C90.601 6.27801 91.2001 6.52073 91.7944 6.77267L92.1847 5.85199ZM88.5082 4.431L88.8385 3.48713C88.2086 3.26667 87.5741 3.05601 86.9353 2.85534L86.6356 3.80937L86.3359 4.76341C86.9541 4.95762 87.5682 5.1615 88.1779 5.37487L88.5082 4.431ZM84.7471 3.24937L85.0159 2.28617C84.3738 2.10699 83.7276 1.9378 83.0776 1.7788L82.84 2.75016L82.6024 3.72153C83.2315 3.87541 83.8569 4.03915 84.4783 4.21256L84.7471 3.24937ZM80.916 2.31236L81.1221 1.33383C80.4708 1.19663 79.8158 1.06959 79.1573 0.952877L78.9827 1.93753L78.8082 2.92218C79.4456 3.03515 80.0795 3.1581 80.7099 3.29088L80.916 2.31236ZM77.0354 1.62459L77.1781 0.634838C76.5187 0.53972 75.856 0.454914 75.1902 0.380584L75.0792 1.37441L74.9683 2.36824C75.6128 2.44019 76.2543 2.52228 76.8926 2.61435L77.0354 1.62459ZM73.1183 1.18715L73.1974 0.190287C72.5328 0.137499 71.8652 0.0951269 71.1949 0.0633321L71.1476 1.06221L71.1002 2.06109C71.7492 2.09187 72.3956 2.1329 73.0391 2.18401L73.1183 1.18715ZM69.1789 1.00001L69.1947 0.000131901C68.8601 -0.00515785 68.5248 -0.0078125 68.1889 -0.0078125C67.853 -0.0078125 67.5177 -0.00515801 67.183 0.000131418L67.1988 1.00001L67.2147 1.99988C67.5388 1.99476 67.8635 1.99219 68.1889 1.99219C68.5142 1.99219 68.839 1.99476 69.1631 1.99988L69.1789 1.00001ZM65.2302 1.06221L65.1828 0.0633309C64.5126 0.0951255 63.845 0.137497 63.1803 0.190285L63.2595 1.18715L63.3387 2.18401C63.9822 2.1329 64.6286 2.09187 65.2776 2.06108L65.2302 1.06221ZM61.2985 1.37441L61.1876 0.380581C60.5218 0.454911 59.8591 0.539717 59.1996 0.634835L59.3424 1.62459L59.4852 2.61435C60.1235 2.52228 60.7649 2.44019 61.4095 2.36823L61.2985 1.37441ZM57.395 1.93753L57.2205 0.952873C56.562 1.06959 55.907 1.19663 55.2557 1.33383L55.4618 2.31235L55.6679 3.29088C56.2983 3.1581 56.9322 3.03514 57.5695 2.92218L57.395 1.93753ZM53.5378 2.75016L53.3002 1.7788C52.6501 1.9378 52.004 2.10698 51.3619 2.28617L51.6307 3.24936L51.8995 4.21256C52.5209 4.03914 53.1463 3.87541 53.7754 3.72153L53.5378 2.75016ZM49.7422 3.80937L49.4425 2.85534C48.8037 3.05601 48.1692 3.26667 47.5392 3.48713L47.8696 4.431L48.1999 5.37487C48.8096 5.16149 49.4236 4.95761 50.0419 4.7634L49.7422 3.80937ZM46.0198 5.11196L45.6593 4.17921C45.0357 4.42025 44.4168 4.67101 43.8028 4.9313L44.1931 5.85199L44.5834 6.77267C45.1777 6.52072 45.7767 6.27801 46.3803 6.04471L46.0198 5.11196ZM42.3896 6.65089L41.97 5.7432C41.3632 6.0237 40.7616 6.31364 40.1653 6.61284L40.6138 7.50664L41.0623 8.40044C41.6395 8.11079 42.2219 7.83011 42.8093 7.55858L42.3896 6.65089ZM38.8659 8.41889L38.3891 7.53986C37.8014 7.85859 37.2193 8.18646 36.6429 8.52328L37.1474 9.38668L37.6519 10.2501C38.21 9.92396 38.7736 9.60651 39.3426 9.29792L38.8659 8.41889ZM35.4611 10.4083L34.9294 9.56135C34.3634 9.91665 33.8033 10.2808 33.2494 10.6535L33.8076 11.4831L34.3658 12.3128C34.9023 11.9519 35.4447 11.5993 35.9928 11.2552L35.4611 10.4083ZM32.1889 12.6098L31.6047 11.7982C31.0625 12.1884 30.5266 12.5871 29.9972 12.9941L30.6066 13.7869L31.2161 14.5797C31.7288 14.1856 32.2479 13.7994 32.773 13.4215L32.1889 12.6098ZM29.062 15.0134L28.4279 14.2401C27.9114 14.6636 27.4016 15.0952 26.8986 15.5347L27.5566 16.2878L28.2146 17.0408C28.7018 16.615 29.1957 16.1969 29.696 15.7867L29.062 15.0134ZM26.0919 17.6087L25.4106 16.8767C24.9217 17.3317 24.4399 17.7944 23.9653 18.2645L24.6691 18.9749L25.373 19.6853C25.8327 19.2298 26.2995 18.7816 26.7731 18.3408L26.0919 17.6087ZM23.2898 20.3848L22.5642 19.6967C22.1046 20.1813 21.6526 20.6733 21.2081 21.1723L21.9548 21.8374L22.7016 22.5025C23.1322 22.019 23.5702 21.5424 24.0154 21.0729L23.2898 20.3848ZM20.6661 23.3305L19.899 22.6889C19.4707 23.201 19.0502 23.72 18.6376 24.2457L19.4243 24.863L20.211 25.4804C20.6107 24.971 21.0182 24.4682 21.4332 23.972L20.6661 23.3305ZM18.2304 26.4341L17.4249 25.8415C17.0295 26.379 16.6422 26.923 16.2631 27.4733L17.0866 28.0406L17.9102 28.6078C18.2775 28.0746 18.6528 27.5475 19.0359 27.0267L18.2304 26.4341ZM15.9931 29.6822L15.1523 29.1409C14.7908 29.7022 14.4378 30.2696 14.0934 30.8429L14.9506 31.3579L15.8078 31.8729C16.1415 31.3173 16.4836 30.7675 16.8338 30.2236L15.9931 29.6822ZM13.9616 33.0636L13.0888 32.5756C12.7632 33.1579 12.4462 33.746 12.1381 34.3395L13.0257 34.8002L13.9133 35.2609C14.2118 34.6858 14.5189 34.116 14.8345 33.5517L13.9616 33.0636ZM12.144 36.5656L11.2425 36.1328C10.954 36.7338 10.6744 37.34 10.4039 37.9513L11.3184 38.3559L12.2329 38.7605C12.495 38.1682 12.7659 37.5807 13.0455 36.9984L12.144 36.5656ZM10.5483 40.1725L9.62166 39.7966C9.56236 39.9428 9.50358 40.0893 9.44531 40.236L11.0786 41.5502C11.208 41.2149 11.3401 40.8809 11.475 40.5485L10.5483 40.1725ZM93.7448 121.294L93.9469 120.736C94.4062 120.52 94.8624 120.298 95.3155 120.071L95.7639 120.965L96.2124 121.858C95.6161 122.158 95.0145 122.448 94.4078 122.728L93.9881 121.82L93.7448 121.294ZM97.5119 120.052L97.9887 120.931C98.5763 120.613 99.1585 120.285 99.7349 119.948L99.2304 119.085L98.7259 118.221C98.1677 118.547 97.6041 118.865 97.0351 119.173L97.5119 120.052ZM100.917 118.063L101.448 118.91C102.014 118.555 102.574 118.191 103.128 117.818L102.57 116.988L102.012 116.158C101.475 116.519 100.933 116.872 100.385 117.216L100.917 118.063ZM104.189 115.861L104.773 116.673C105.315 116.283 105.851 115.884 106.381 115.477L105.771 114.684L105.162 113.892C104.649 114.286 104.13 114.672 103.605 115.05L104.189 115.861ZM107.316 113.458L107.95 114.231C108.466 113.808 108.976 113.376 109.479 112.937L108.821 112.184L108.163 111.431C107.676 111.856 107.182 112.274 106.682 112.685L107.316 113.458ZM110.286 110.863L110.967 111.595C111.456 111.14 111.938 110.677 112.412 110.207L111.709 109.496L111.005 108.786C110.545 109.241 110.078 109.69 109.605 110.13L110.286 110.863ZM113.088 108.086L113.814 108.775C114.273 108.29 114.725 107.798 115.17 107.299L114.423 106.634L113.676 105.969C113.246 106.452 112.808 106.929 112.362 107.398L113.088 108.086ZM115.712 105.141L116.479 105.782C116.907 105.27 117.328 104.751 117.74 104.226L116.953 103.608L116.167 102.991C115.767 103.5 115.36 104.003 114.945 104.499L115.712 105.141ZM118.147 102.037L118.953 102.63C119.348 102.092 119.736 101.548 120.115 100.998L119.291 100.431L118.468 99.8634C118.1 100.397 117.725 100.924 117.342 101.445L118.147 102.037ZM120.385 98.789L121.225 99.3304C121.587 98.7691 121.94 98.2017 122.284 97.6283L121.427 97.1134L120.57 96.5984C120.236 97.1539 119.894 97.7037 119.544 98.2476L120.385 98.789ZM122.416 95.4076L123.289 95.8957C123.615 95.3133 123.932 94.7253 124.24 94.1317L123.352 93.6711L122.464 93.2104C122.166 93.7855 121.859 94.3553 121.543 94.9196L122.416 95.4076ZM124.234 91.9057L125.135 92.3385C125.424 91.7375 125.703 91.1313 125.974 90.52L125.059 90.1154L124.145 89.7108C123.883 90.3031 123.612 90.8905 123.332 91.4728L124.234 91.9057ZM125.829 88.2987L126.756 88.6746C127.007 88.0566 127.248 87.4337 127.48 86.8062L126.542 86.4593L125.605 86.1124C125.38 86.7205 125.146 87.324 124.903 87.9228L125.829 88.2987ZM127.198 84.5997L128.146 84.9173C128.358 84.2847 128.56 83.6476 128.753 83.0063L127.795 82.7185L126.837 82.4306C126.651 83.052 126.455 83.6692 126.249 84.2822L127.198 84.5997ZM128.333 80.8216L129.3 81.0796C129.471 80.4358 129.634 79.7881 129.786 79.1365L128.812 78.9086L127.839 78.6807C127.691 79.3121 127.534 79.9398 127.367 80.5636L128.333 80.8216ZM129.233 76.9784L130.213 77.1759C130.345 76.5238 130.466 75.868 130.578 75.2088L129.592 75.0415L128.606 74.8743C128.498 75.5132 128.38 76.1488 128.252 76.7808L129.233 76.9784ZM129.892 73.0911L130.883 73.2279C130.974 72.5677 131.055 71.9043 131.126 71.2379L130.132 71.1317L129.137 71.0255C129.068 71.6715 128.99 72.3145 128.901 72.9544L129.892 73.0911ZM130.311 69.169L131.308 69.2448C131.359 68.58 131.399 67.9123 131.43 67.242L130.431 67.1967L129.432 67.1513C129.402 67.8013 129.363 68.4487 129.314 69.0932L130.311 69.169Z" fill="#C3911A"/>
</svg>
