<svg width="110" height="100" viewBox="0 0 110 100" fill="none" xmlns="http://www.w3.org/2000/svg">
<path d="M24.1051 10.4694C46.923 -8.35334 87.0789 -0.621946 102.332 24.2831C117.696 49.3428 97.4311 78.6568 71.5484 89.1099C45.8041 99.0454 18.4769 98.8385 6.0119 82.3569C-6.48922 66.2588 0.964629 29.4003 24.1051 10.4694Z" fill="#EED7C5"/>
<path d="M108.191 83.9731C110.625 88.1892 107.795 94.3805 101.869 97.8015C95.9437 101.223 89.1672 100.578 86.7326 96.3615C84.298 92.1454 87.1287 85.9541 93.0542 82.5331C98.9797 79.112 105.756 79.7569 108.191 83.9731Z" fill="#EED7C5"/>
<path d="M83.6614 74.5537H20.2209C16.6386 74.5537 13.7344 71.6495 13.7344 68.0672V33.3459C13.7344 29.7636 16.6386 26.8594 20.2209 26.8594H83.6614C87.2437 26.8594 90.1479 29.7636 90.1479 33.3459V68.0679C90.1479 71.6502 87.2444 74.5537 83.6614 74.5537Z" fill="white"/>
<path d="M83.6645 75.2083H20.224C16.2876 75.2083 13.0859 72.0067 13.0859 68.071V33.349C13.0859 29.4126 16.2876 26.2109 20.224 26.2109H83.6645C87.6009 26.2109 90.8026 29.4126 90.8026 33.349V68.071C90.8026 72.0067 87.6002 75.2083 83.6645 75.2083ZM20.2232 27.5132C17.0054 27.5132 14.3875 30.1311 14.3875 33.349V68.071C14.3875 71.2881 17.0054 73.906 20.2232 73.906H83.6638C86.8816 73.906 89.4995 71.2881 89.4995 68.071V33.349C89.4995 30.1311 86.8816 27.5132 83.6638 27.5132H20.2232Z" fill="#9E421B"/>
<path d="M30.5302 31.3202H29.7343C27.7356 31.3202 26.1094 29.694 26.1094 27.6952V22.3984C26.1094 20.3997 27.7356 18.7734 29.7343 18.7734H30.5302C32.5289 18.7734 34.1551 20.3997 34.1551 22.3984V27.6952C34.1551 29.694 32.5289 31.3202 30.5302 31.3202ZM29.7343 20.0757C28.4541 20.0757 27.4117 21.1182 27.4117 22.3984V27.6952C27.4117 28.9755 28.4541 30.0179 29.7343 30.0179H30.5302C31.8104 30.0179 32.8528 28.9755 32.8528 27.6952V22.3984C32.8528 21.1182 31.8104 20.0757 30.5302 20.0757H29.7343Z" fill="#9E421B"/>
<path d="M45.4527 31.3202H44.6555C42.6567 31.3202 41.0312 29.694 41.0312 27.6952V22.3984C41.0312 20.3997 42.6567 18.7734 44.6555 18.7734H45.4527C47.4515 18.7734 49.0777 20.3997 49.0777 22.3984V27.6952C49.0777 29.694 47.4507 31.3202 45.4527 31.3202ZM44.6555 20.0757C43.3753 20.0757 42.3335 21.1182 42.3335 22.3984V27.6952C42.3335 28.9755 43.3745 30.0179 44.6555 30.0179H45.4527C46.733 30.0179 47.7754 28.9755 47.7754 27.6952V22.3984C47.7754 21.1182 46.733 20.0757 45.4527 20.0757H44.6555Z" fill="#9E421B"/>
<path d="M60.3746 31.3202H59.5781C57.5794 31.3202 55.9531 29.694 55.9531 27.6952V22.3984C55.9531 20.3997 57.5794 18.7734 59.5781 18.7734H60.3746C62.3734 18.7734 63.9996 20.3997 63.9996 22.3984V27.6952C63.9996 29.694 62.3734 31.3202 60.3746 31.3202ZM59.5781 20.0757C58.2979 20.0757 57.2554 21.1182 57.2554 22.3984V27.6952C57.2554 28.9755 58.2979 30.0179 59.5781 30.0179H60.3746C61.6549 30.0179 62.6973 28.9755 62.6973 27.6952V22.3984C62.6973 21.1182 61.6556 20.0757 60.3746 20.0757H59.5781Z" fill="#9E421B"/>
<path d="M75.2965 31.3202H74.5C72.5012 31.3202 70.875 29.694 70.875 27.6952V22.3984C70.875 20.3997 72.5012 18.7734 74.5 18.7734H75.2965C77.2953 18.7734 78.9215 20.3997 78.9215 22.3984V27.6952C78.9215 29.694 77.2953 31.3202 75.2965 31.3202ZM74.5007 20.0757C73.2205 20.0757 72.178 21.1182 72.178 22.3984V27.6952C72.178 28.9755 73.2205 30.0179 74.5007 30.0179H75.2972C76.5775 30.0179 77.6199 28.9755 77.6199 27.6952V22.3984C77.6199 21.1182 76.5782 20.0757 75.2972 20.0757H74.5007Z" fill="#9E421B"/>
<path d="M31.473 38.6797H19.6094V49.9911H31.473V38.6797Z" fill="#9E421B"/>
<path d="M49.0745 38.6797H37.2109V49.9911H49.0745V38.6797Z" fill="#9E421B"/>
<path d="M66.6761 38.6797H54.8125V49.9911H66.6761V38.6797Z" fill="#9E421B"/>
<path d="M84.2815 38.6797H72.418V49.9911H84.2815V38.6797Z" fill="#9E421B"/>
<path d="M31.473 54.2969H19.6094V65.6083H31.473V54.2969Z" fill="#9E421B"/>
<path d="M49.0745 54.2969H37.2109V65.6083H49.0745V54.2969Z" fill="#9E421B"/>
<path d="M66.6761 54.2969H54.8125V65.6083H66.6761V54.2969Z" fill="#9E421B"/>
<path d="M84.2815 54.2969H72.418V65.6083H84.2815V54.2969Z" fill="#9E421B"/>
</svg>
