<svg width="118" height="126" viewBox="0 0 118 126" fill="none" xmlns="http://www.w3.org/2000/svg">
<path d="M71.8672 69.3512C71.8672 69.3512 81.4713 68.6469 82.7764 69.3512L86.8673 68.6693L81.4127 61.8516H84.14L79.3673 54.3516L74.5945 61.8516L76.64 62.1513L71.8672 69.3512Z" fill="#DEC589"/>
<path d="M76.64 68.6693L71.8672 69.3512L76.64 62.1513L74.5945 61.8516L79.3673 54.3516L84.14 61.8516H81.4127L86.8673 68.6693H82.7764" stroke="#C3911A" stroke-width="1.8"/>
<path d="M86.8693 74.0991C78.1738 87.1459 73.0176 94.8823 62.1442 110.071C61.3444 111.188 60.0519 111.853 58.6779 111.853C57.2361 111.853 55.8919 111.125 55.1047 109.917L32.3812 75.0478C29.0547 69.9432 26.1339 64.4419 25.3214 58.4036C23.772 46.8888 27.8529 39.7549 36.9526 31.9349C41.0718 28.395 45.8539 25.5815 51.1054 24.1952C59.2362 22.0488 64.7996 22.9711 70.2692 25.55C78.6976 29.5241 85.508 36.6663 89.184 45.2289C93.9331 56.291 92.3168 63.3949 87.3666 73.353L86.8693 74.0991Z" stroke="black" stroke-width="1.8"/>
<path d="M57.8672 44.3516H66.8672" stroke="#C3911A" stroke-width="1.8"/>
<path d="M35.8672 51.5823V68.9285V69.3516H71.8672V42.2746L62.2393 36.3516L52.8672 42.2746V51.3516L44.6579 47.7746L35.8672 51.5823Z" fill="white" stroke="#C3911A" stroke-width="1.8"/>
<path d="M40.8672 54.3516H48.8672" stroke="#C3911A" stroke-width="1.8"/>
<path d="M58.8672 69.3516V58.3516H66.8672V69.3516" stroke="#C3911A" stroke-width="1.8"/>
<path d="M52.8672 51.3516V69.3516" stroke="#C3911A" stroke-width="1.8"/>
<path d="M66.8672 69.3512C66.8672 69.3512 73.9101 68.8347 74.8672 69.3512L77.8672 68.8512L73.8672 63.8516H75.8672L72.3672 58.3516L68.8672 63.8516L70.3672 64.0713L66.8672 69.3512Z" fill="#DEC589"/>
<path d="M70.3672 68.8512L66.8672 69.3512L70.3672 64.0713L68.8672 63.8516L72.3672 58.3516L75.8672 63.8516H73.8672L77.8672 68.8512H74.8672" stroke="#C3911A" stroke-width="1.8"/>
<path d="M2 91L5.5 81L16 85" stroke="#C3911A" stroke-width="2" stroke-dasharray="2 2"/>
<path d="M6.5 86.5C47 148.5 93 124.5 116 86.5" stroke="#C3911A" stroke-width="2" stroke-dasharray="2 2"/>
<path d="M116.887 34.0163L113.5 44.0553L102.956 40.1744" stroke="#C3911A" stroke-width="2" stroke-dasharray="2 2"/>
<path d="M111.324 39.0938C70.1246 -22.4436 24.3994 2.0759 1.83124 40.334" stroke="#C3911A" stroke-width="2" stroke-dasharray="2 2"/>
</svg>
