<svg width="118" height="126" viewBox="0 0 118 126" fill="none" xmlns="http://www.w3.org/2000/svg">
<path d="M71.8672 69.3433C71.8672 69.3433 81.4713 68.6391 82.7764 69.3433L86.8673 68.6615L81.4127 61.8438H84.14L79.3673 54.3438L74.5945 61.8438L76.64 62.1435L71.8672 69.3433Z" fill="#DEC589"/>
<path d="M76.64 68.6615L71.8672 69.3433L76.64 62.1435L74.5945 61.8438L79.3673 54.3438L84.14 61.8438H81.4127L86.8673 68.6615H82.7764" stroke="#C3911A" stroke-width="1.8"/>
<path d="M86.8693 74.0913C78.1738 87.1381 73.0176 94.8745 62.1442 110.063C61.3444 111.18 60.0519 111.845 58.6779 111.845C57.2361 111.845 55.8919 111.117 55.1047 109.909L32.3812 75.0399C29.0547 69.9354 26.1339 64.4341 25.3214 58.3958C23.772 46.881 27.8529 39.7471 36.9526 31.9271C41.0718 28.3872 45.8539 25.5737 51.1054 24.1874C59.2362 22.041 64.7996 22.9632 70.2692 25.5422C78.6976 29.5162 85.508 36.6585 89.184 45.2211C93.9331 56.2832 92.3168 63.3871 87.3666 73.3451L86.8693 74.0913Z" stroke="black" stroke-width="1.8"/>
<path d="M57.8672 44.3438H66.8672" stroke="#C3911A" stroke-width="1.8"/>
<path d="M35.8672 51.5745V68.9207V69.3438H71.8672V42.2668L62.2393 36.3438L52.8672 42.2668V51.3438L44.6579 47.7668L35.8672 51.5745Z" fill="white" stroke="#C3911A" stroke-width="1.8"/>
<path d="M40.8672 54.3438H48.8672" stroke="#C3911A" stroke-width="1.8"/>
<path d="M58.8672 69.3438V58.3438H66.8672V69.3438" stroke="#C3911A" stroke-width="1.8"/>
<path d="M52.8672 51.3438V69.3438" stroke="#C3911A" stroke-width="1.8"/>
<path d="M66.8672 69.3433C66.8672 69.3433 73.9101 68.8269 74.8672 69.3433L77.8672 68.8433L73.8672 63.8438H75.8672L72.3672 58.3438L68.8672 63.8438L70.3672 64.0635L66.8672 69.3433Z" fill="#DEC589"/>
<path d="M70.3672 68.8433L66.8672 69.3433L70.3672 64.0635L68.8672 63.8438L72.3672 58.3438L75.8672 63.8438H73.8672L77.8672 68.8433H74.8672" stroke="#C3911A" stroke-width="1.8"/>
<path d="M2 90.9922L5.5 80.9922L16 84.9922" stroke="#C3911A" stroke-width="2" stroke-dasharray="2 2"/>
<path d="M6.5 86.4922C47 148.492 93 124.492 116 86.4922" stroke="#C3911A" stroke-width="2" stroke-dasharray="2 2"/>
<path d="M116.887 34.0085L113.5 44.0475L102.956 40.1666" stroke="#C3911A" stroke-width="2" stroke-dasharray="2 2"/>
<path d="M111.324 39.0859C70.1246 -22.4514 24.3994 2.06809 1.83124 40.3262" stroke="#C3911A" stroke-width="2" stroke-dasharray="2 2"/>
</svg>
