<svg width="113" height="116" viewBox="0 0 113 116" fill="none" xmlns="http://www.w3.org/2000/svg">
<path fill-rule="evenodd" clip-rule="evenodd" d="M111.916 57.4486L112.916 57.4661C112.922 57.1296 112.925 56.7924 112.925 56.4545C112.925 56.1165 112.922 55.7793 112.916 55.4428L111.916 55.4604L110.916 55.4779C110.922 55.8027 110.925 56.1282 110.925 56.4545C110.925 56.7807 110.922 57.1062 110.916 57.431L111.916 57.4486ZM112.703 51.4182C112.762 52.086 112.809 52.7571 112.845 53.4313L111.846 53.484L110.848 53.5367C110.813 52.8861 110.768 52.2385 110.711 51.5943L111.707 51.5063L112.703 51.4182ZM111.497 49.5367L112.49 49.4132C112.407 48.7448 112.312 48.0801 112.205 47.4192L111.218 47.578L110.231 47.7368C110.333 48.3742 110.425 49.0154 110.505 49.6601L111.497 49.5367ZM111.423 43.4639C111.577 44.1167 111.719 44.7738 111.85 45.4352L110.869 45.6292L109.888 45.8233C109.762 45.1855 109.624 44.5518 109.476 43.9223L110.45 43.6931L111.423 43.4639ZM109.961 41.7748L110.926 41.5108C110.748 40.8617 110.559 40.2174 110.359 39.5779L109.405 39.8764L108.45 40.1749C108.643 40.7916 108.825 41.413 108.997 42.0389L109.961 41.7748ZM108.779 37.9968L109.722 37.664C109.498 37.0291 109.263 36.3994 109.018 35.7752L108.087 36.1416L107.157 36.508C107.394 37.11 107.62 37.7172 107.836 38.3295L108.779 37.9968ZM107.329 34.3132L108.246 33.9136C107.977 33.297 107.697 32.6861 107.407 32.0811L106.506 32.5133L105.604 32.9455C105.883 33.5289 106.153 34.1181 106.412 34.7128L107.329 34.3132ZM105.618 30.7428L106.503 30.2785C106.191 29.6827 105.868 29.0932 105.536 28.5101L104.667 29.0058L103.799 29.5014C104.12 30.0638 104.431 30.6324 104.732 31.207L105.618 30.7428ZM103.655 27.3042L104.506 26.7778C104.152 26.2061 103.788 25.6411 103.414 25.0831L102.583 25.6395L101.752 26.1958C102.113 26.734 102.464 27.279 102.805 27.8305L103.655 27.3042ZM101.452 24.0136L102.263 23.428C101.869 22.8831 101.466 22.3454 101.054 21.8153L100.265 22.4293L99.4753 23.0433C99.8731 23.5547 100.262 24.0734 100.642 24.5992L101.452 24.0136ZM99.0212 20.8883L99.7882 20.2466C99.3569 19.7311 98.9165 19.2233 98.4674 18.7237L97.7237 19.3922L96.98 20.0607C97.4133 20.5427 97.8381 21.0326 98.2542 21.5299L99.0212 20.8883ZM96.3739 17.9431L97.0935 17.2486C96.6268 16.7651 96.1516 16.2899 95.6681 15.8233L94.9737 16.5428L94.2792 17.2623C94.7457 17.7126 95.2042 18.171 95.6544 18.6375L96.3739 17.9431ZM93.5246 15.193L94.193 14.4493C93.6934 14.0002 93.1857 13.5599 92.6701 13.1286L92.0285 13.8956L91.3868 14.6625C91.8842 15.0786 92.374 15.5035 92.8561 15.9368L93.5246 15.193ZM90.4874 12.6522L91.1015 11.8629C90.5713 11.4505 90.0337 11.0473 89.4887 10.6537L88.9031 11.4643L88.3176 12.2749C88.8433 12.6547 89.362 13.0436 89.8734 13.4415L90.4874 12.6522ZM87.2773 10.3334L87.8336 9.50239C87.2757 9.12886 86.7107 8.765 86.1389 8.41107L85.6126 9.26134L85.0862 10.1116C85.6377 10.453 86.1827 10.804 86.721 11.1643L87.2773 10.3334ZM83.9109 8.24957L84.4066 7.38104C83.8236 7.04832 83.234 6.72569 82.6382 6.41339L82.174 7.29909L81.7097 8.1848C82.2843 8.486 82.853 8.79718 83.4153 9.1181L83.9109 8.24957ZM80.4034 6.41112L80.8356 5.50935C80.2307 5.2194 79.6198 4.93991 79.0031 4.67111L78.6035 5.5878L78.2039 6.5045C78.7986 6.76372 79.3878 7.03326 79.9712 7.31289L80.4034 6.41112ZM76.7752 4.8296L77.1416 3.89915C76.5173 3.65331 75.8876 3.41828 75.2527 3.19428L74.92 4.13732L74.5873 5.08035C75.1995 5.29635 75.8068 5.52299 76.4088 5.76006L76.7752 4.8296ZM73.0403 3.51198L73.3389 2.55758C72.6994 2.35755 72.055 2.16858 71.4059 1.9909L71.1419 2.95541L70.8779 3.91992C71.5037 4.09126 72.1251 4.27348 72.7418 4.46638L73.0403 3.51198ZM69.2237 2.46719L69.4529 1.49381C68.8001 1.3401 68.1429 1.19773 67.4816 1.0669L67.2875 2.04788L67.0934 3.02887C67.7312 3.15504 68.365 3.29235 68.9945 3.44057L69.2237 2.46719ZM65.3388 1.69854L65.4976 0.711232C64.8366 0.604933 64.1719 0.510106 63.5035 0.42696L63.3801 1.41931L63.2566 2.41166C63.9013 2.49187 64.5425 2.58333 65.18 2.68586L65.3388 1.69854ZM61.4105 1.20985L61.4985 0.213734C60.8308 0.154711 60.1597 0.107312 59.4855 0.0717412L59.4328 1.07035L59.3801 2.06896C60.0307 2.10329 60.6782 2.14902 61.3224 2.20597L61.4105 1.20985ZM57.4564 1.00091L57.474 0.00106912C57.1374 -0.00484374 56.8002 -0.0078125 56.4623 -0.0078125C56.1243 -0.0078125 55.7871 -0.00484388 55.4506 0.00106869L55.4682 1.00091L55.4857 2.00076C55.8105 1.99505 56.1361 1.99219 56.4623 1.99219C56.7885 1.99219 57.114 1.99505 57.4388 2.00076L57.4564 1.00091ZM53.4918 1.07035L53.4391 0.0717401C52.7649 0.107311 52.0938 0.15471 51.426 0.213732L51.5141 1.20985L51.6021 2.20597C52.2464 2.14902 52.8939 2.10329 53.5445 2.06896L53.4918 1.07035ZM47.427 0.71123C48.0879 0.604931 48.7527 0.510104 49.421 0.426958L49.5445 1.41931L49.6679 2.41166C49.0232 2.49186 48.382 2.58333 47.7446 2.68585L47.5858 1.69854L47.427 0.71123ZM45.637 2.04788L45.443 1.06689C44.7817 1.19772 44.1245 1.3401 43.4717 1.49381L43.7009 2.46719L43.9301 3.44057C44.5596 3.29234 45.1933 3.15504 45.8311 3.02887L45.637 2.04788ZM41.7826 2.95541L41.5186 1.99089C40.8696 2.16857 40.2252 2.35754 39.5857 2.55758L39.8842 3.51198L40.1828 4.46638C40.7994 4.27348 41.4208 4.09126 42.0467 3.91992L41.7826 2.95541ZM38.0046 4.13731L37.6719 3.19428C37.0369 3.41828 36.4072 3.65331 35.783 3.89914L36.1494 4.8296L36.5158 5.76005C37.1178 5.52299 37.725 5.29634 38.3373 5.08034L38.0046 4.13731ZM34.321 5.58779L33.9215 4.6711C33.3048 4.9399 32.6939 5.21939 32.0889 5.50934L32.5211 6.41112L32.9533 7.31289C33.5368 7.03325 34.1259 6.76371 34.7206 6.50449L34.321 5.58779ZM30.7506 7.29909L30.2863 6.41339C29.6905 6.72569 29.101 7.04832 28.518 7.38104L29.0136 8.24957L29.5092 9.1181C30.0716 8.79717 30.6402 8.486 31.2148 8.18479L30.7506 7.29909ZM27.312 9.26134L26.7856 8.41106C26.2139 8.76499 25.6489 9.12885 25.0909 9.50238L25.6473 10.3334L26.2036 11.1643C26.7418 10.804 27.2868 10.453 27.8383 10.1116L27.312 9.26134ZM24.0214 11.4643L23.4359 10.6537C22.8909 11.0473 22.3532 11.4505 21.8231 11.8629L22.4371 12.6522L23.0511 13.4415C23.5625 13.0436 24.0812 12.6547 24.607 12.2749L24.0214 11.4643ZM20.8961 13.8955L20.2544 13.1286C19.7389 13.5599 19.2312 14.0002 18.7315 14.4493L19.4 15.193L20.0685 15.9367C20.5505 15.5034 21.0404 15.0786 21.5377 14.6625L20.8961 13.8955ZM17.9509 16.5428L17.2564 15.8232C16.7729 16.2899 16.2977 16.7651 15.8311 17.2486L16.5506 17.943L17.2701 18.6375C17.7204 18.171 18.1788 17.7125 18.6453 17.2623L17.9509 16.5428ZM15.2008 19.3922L14.4571 18.7237C14.008 19.2233 13.5677 19.7311 13.1364 20.2466L13.9034 20.8882L14.6704 21.5299C15.0865 21.0325 15.5113 20.5427 15.9446 20.0606L15.2008 19.3922ZM12.66 22.4293L11.8707 21.8153C11.4583 22.3454 11.0551 22.8831 10.6615 23.428L11.4721 24.0136L12.2827 24.5992C12.6625 24.0734 13.0514 23.5547 13.4493 23.0433L12.66 22.4293ZM10.3412 25.6394L9.5102 25.0831C9.13667 25.6411 8.77281 26.206 8.41888 26.7778L9.26916 27.3041L10.1194 27.8305C10.4608 27.279 10.8118 26.734 11.1721 26.1958L10.3412 25.6394ZM8.25739 29.0058L7.38886 28.5101C7.05614 29.0932 6.73351 29.6827 6.4212 30.2785L7.30691 30.7428L8.19261 31.207C8.49382 30.6324 8.80499 30.0638 9.12591 29.5014L8.25739 29.0058ZM6.41893 32.5133L5.51716 32.0811C5.22721 32.686 4.94772 33.297 4.67892 33.9136L5.59561 34.3132L6.51231 34.7128C6.77153 34.1181 7.04107 33.5289 7.32071 32.9455L6.41893 32.5133ZM4.83741 36.1416L3.90696 35.7751C3.66113 36.3994 3.4261 37.0291 3.2021 37.664L4.14513 37.9967L5.08816 38.3294C5.30416 37.7172 5.53081 37.11 5.76787 36.508L4.83741 36.1416ZM3.51979 39.8764L2.5654 39.5779C2.36536 40.2173 2.17639 40.8617 1.99871 41.5108L2.96322 41.7748L3.92774 42.0389C4.09907 41.413 4.2813 40.7916 4.47419 40.1749L3.51979 39.8764ZM2.47501 43.693L1.50162 43.4639C1.34792 44.1167 1.20554 44.7738 1.07471 45.4351L2.0557 45.6292L3.03668 45.8233C3.16286 45.1855 3.30016 44.5518 3.44839 43.9222L2.47501 43.693ZM1.70636 47.5779L0.719045 47.4192C0.612746 48.0801 0.517918 48.7448 0.434773 49.4132L1.42712 49.5367L2.41948 49.6601C2.49968 49.0154 2.59114 48.3742 2.69367 47.7367L1.70636 47.5779ZM1.21766 51.5063L0.221546 51.4182C0.162523 52.086 0.115125 52.757 0.0795538 53.4313L1.07816 53.4839L2.07678 53.5366C2.1111 52.886 2.15684 52.2385 2.21378 51.5943L1.21766 51.5063ZM0 56.4545C0 56.1165 0.00296876 55.7793 0.00888162 55.4428L1.00873 55.4603L2.00857 55.4779C2.00287 55.8027 2 56.1282 2 56.4545C2 56.7807 2.00287 57.1062 2.00857 57.431L1.00873 57.4486L0.00888119 57.4661C0.00296861 57.1296 0 56.7924 0 56.4545ZM1.07816 59.4249L0.0795526 59.4776C0.115124 60.1518 0.162522 60.8229 0.221545 61.4907L1.21766 61.4026L2.21378 61.3146C2.15683 60.6704 2.1111 60.0229 2.07678 59.3723L1.07816 59.4249ZM0.719042 65.4897C0.612743 64.8288 0.517916 64.1641 0.43477 63.4957L1.42712 63.3722L2.41947 63.2488C2.49968 63.8935 2.59114 64.5347 2.69367 65.1721L1.70635 65.3309L0.719042 65.4897ZM2.05569 67.2797L1.07471 67.4737C1.20553 68.1351 1.34791 68.7922 1.50162 69.445L2.475 69.2158L3.44838 68.9866C3.30016 68.3571 3.16285 67.7234 3.03668 67.0856L2.05569 67.2797ZM2.96322 71.1341L1.99871 71.3981C2.17639 72.0472 2.36536 72.6916 2.56539 73.331L3.51979 73.0325L4.47419 72.734C4.28129 72.1173 4.09907 71.4959 3.92773 70.87L2.96322 71.1341ZM4.14512 74.9122L3.20209 75.2449C3.42609 75.8798 3.66112 76.5095 3.90695 77.1337L4.83741 76.7673L5.76786 76.4009C5.5308 75.7989 5.30416 75.1917 5.08815 74.5794L4.14512 74.9122ZM5.59561 78.5957L4.67891 78.9953C4.94771 79.6119 5.2272 80.2229 5.51715 80.8278L6.41893 80.3956L7.3207 79.9634C7.04107 79.38 6.77153 78.7908 6.5123 78.1961L5.59561 78.5957ZM7.3069 82.1661L6.4212 82.6304C6.7335 83.2262 7.05613 83.8157 7.38885 84.3988L8.25738 83.9031L9.12591 83.4075C8.80499 82.8451 8.49381 82.2765 8.1926 81.7019L7.3069 82.1661ZM9.26915 85.6047L8.41887 86.1311C8.7728 86.7028 9.13666 87.2678 9.51019 87.8258L10.3412 87.2694L11.1721 86.7131C10.8118 86.1749 10.4608 85.6299 10.1194 85.0784L9.26915 85.6047ZM11.4721 88.8953L10.6615 89.4809C11.0551 90.0258 11.4583 90.5635 11.8707 91.0936L12.66 90.4796L13.4493 89.8656C13.0514 89.3542 12.6625 88.8355 12.2827 88.3097L11.4721 88.8953ZM13.9034 92.0206L13.1364 92.6623C13.5677 93.1778 14.008 93.6856 14.4571 94.1852L15.2008 93.5167L15.9446 92.8482C15.5113 92.3662 15.0864 91.8764 14.6703 91.379L13.9034 92.0206ZM16.5506 94.9659L15.8311 95.6603C16.2977 96.1438 16.7729 96.619 17.2564 97.0856L17.9509 96.3661L18.6453 95.6466C18.1788 95.1964 17.7204 94.7379 17.2701 94.2714L16.5506 94.9659ZM19.4 97.7159L18.7315 98.4596C19.2311 98.9087 19.7389 99.349 20.2544 99.7803L20.8961 99.0133L21.5377 98.2464C21.0404 97.8303 20.5505 97.4054 20.0685 96.9722L19.4 97.7159ZM22.4371 100.257L21.8231 101.046C22.3532 101.458 22.8909 101.862 23.4359 102.255L24.0214 101.445L24.607 100.634C24.0812 100.254 23.5625 99.8653 23.0511 99.4674L22.4371 100.257ZM25.6473 102.576L25.0909 103.407C25.6489 103.78 26.2139 104.144 26.7856 104.498L27 104.152V102.268C26.7329 102.096 26.4674 101.921 26.2036 101.745L25.6473 102.576ZM85.7133 103.81L85.4541 102.568C85.8804 102.299 86.3027 102.025 86.7209 101.745L87.2773 102.576L87.8336 103.407C87.2756 103.78 86.7107 104.144 86.1389 104.498L85.7133 103.81ZM88.9031 101.445L89.4887 102.255C90.0336 101.862 90.5713 101.458 91.1014 101.046L90.4874 100.257L89.8734 99.4674C89.362 99.8653 88.8433 100.254 88.3176 100.634L88.9031 101.445ZM92.0285 99.0134L92.6701 99.7803C93.1857 99.349 93.6934 98.9087 94.193 98.4596L93.5245 97.7159L92.8561 96.9722C92.374 97.4055 91.8842 97.8303 91.3868 98.2464L92.0285 99.0134ZM94.9737 96.3661L95.6681 97.0857C96.1516 96.619 96.6268 96.1438 97.0935 95.6603L96.3739 94.9659L95.6544 94.2714C95.2042 94.7379 94.7457 95.1964 94.2792 95.6466L94.9737 96.3661ZM97.7237 93.5167L98.4674 94.1852C98.9165 93.6856 99.3568 93.1779 99.7881 92.6623L99.0212 92.0207L98.2542 91.379C97.8381 91.8764 97.4133 92.3662 96.98 92.8483L97.7237 93.5167ZM100.265 90.4796L101.054 91.0936C101.466 90.5635 101.869 90.0258 102.263 89.4809L101.452 88.8953L100.642 88.3097C100.262 88.8355 99.8731 89.3542 99.4753 89.8656L100.265 90.4796ZM102.583 87.2695L103.414 87.8258C103.788 87.2678 104.152 86.7029 104.506 86.1311L103.655 85.6048L102.805 85.0784C102.464 85.6299 102.113 86.1749 101.752 86.7131L102.583 87.2695ZM104.667 83.9031L105.536 84.3988C105.868 83.8157 106.191 83.2262 106.503 82.6304L105.618 82.1661L104.732 81.7019C104.431 82.2765 104.12 82.8451 103.799 83.4075L104.667 83.9031ZM106.506 80.3956L107.407 80.8278C107.697 80.2229 107.977 79.6119 108.246 78.9953L107.329 78.5957L106.412 78.1961C106.153 78.7908 105.883 79.38 105.604 79.9634L106.506 80.3956ZM108.087 76.7673L109.018 77.1338C109.263 76.5095 109.498 75.8798 109.722 75.2449L108.779 74.9122L107.836 74.5795C107.62 75.1917 107.394 75.7989 107.157 76.4009L108.087 76.7673ZM109.405 73.0325L110.359 73.3311C110.559 72.6916 110.748 72.0472 110.926 71.3981L109.961 71.1341L108.997 70.87C108.825 71.4959 108.643 72.1173 108.45 72.734L109.405 73.0325ZM110.45 69.2159L111.423 69.4451C111.577 68.7923 111.719 68.1351 111.85 67.4738L110.869 67.2797L109.888 67.0856C109.762 67.7234 109.624 68.3571 109.476 68.9867L110.45 69.2159ZM111.218 65.331L112.205 65.4898C112.312 64.8288 112.407 64.1641 112.49 63.4957L111.497 63.3722L110.505 63.2488C110.425 63.8935 110.333 64.5347 110.231 65.1722L111.218 65.331ZM111.707 61.4026L112.703 61.4907C112.762 60.823 112.809 60.1519 112.845 59.4776L111.846 59.425L110.848 59.3723C110.813 60.0229 110.768 60.6704 110.711 61.3146L111.707 61.4026Z" fill="#C3911A"/>
<path d="M49.3863 60.9922C42.312 56.8154 38.8366 53.8334 42.4381 35.7297L46.7139 42.7172C47.7094 30.5758 50.8046 25.7409 57.4033 17.9922C57.0011 27.2074 58.2193 34.3418 60.5 36.4922C62.0685 33.682 61.8783 29.0616 63.2481 23.3672C66.4986 28.3039 67.7856 31.8204 70.7651 42.7172C72.5 51.9922 70.1114 57.3122 64.5 59.4922" stroke="black" stroke-width="1.5"/>
<path d="M36.754 111.56C36.754 115.494 25.6718 115.494 25.9993 111.023C27.3002 93.2533 28.1706 84.423 30.2761 72.9793C30.2926 72.8896 30.3226 72.7994 30.363 72.7177C34.2577 64.8349 37.9913 63.7754 45.0186 63.1917C45.237 63.1735 45.4613 63.2312 45.6466 63.3482C53.9281 68.5784 58.5771 67.198 66.6054 63.2918C66.7749 63.2093 66.9726 63.1752 67.16 63.1962C79.9837 64.6363 81.3258 68.8899 82.9993 76.0697L86.7635 110.485C86.7635 115.994 75.4995 115.494 74.9333 111.56L72.2446 86.8244L72.7627 113.767C72.7735 114.327 72.3227 114.787 71.7629 114.787H40.4427C39.8904 114.787 39.4427 114.339 39.4427 113.787V86.8244L36.754 111.56Z" stroke="black" stroke-width="1.5"/>
<path d="M49.1209 61.0133C47.4508 56.1792 47.5922 53.4656 48.0454 48.6453L51.2718 52.9472C50.1191 44.7447 50.8143 41.9107 52.885 37.8906C53.9477 45.7715 54.8643 48.6081 57.1869 50.2585C59.0808 47.7083 59.7616 45.2497 60.4133 40.5793C65.4123 47.4432 65.4677 51.6911 64.7152 59.4001" stroke="#C3911A" stroke-width="1.5" stroke-linecap="round"/>
</svg>
