<svg width="67" height="52" viewBox="0 0 67 52" fill="none" xmlns="http://www.w3.org/2000/svg">
<path d="M5.93779 46.8672C2.07435 42.7658 0 38.1631 0 30.7017C0 17.5788 9.21191 5.8143 22.6147 0L25.9623 5.16604C13.4551 11.9333 11.0107 20.7106 10.0337 26.2456C12.0474 25.2042 14.6834 24.8378 17.2677 25.0774C24.034 25.7048 29.367 31.2593 29.367 38.1631C29.367 45.4118 23.4906 51.2881 16.2418 51.2881C12.2179 51.2881 8.36985 49.4487 5.93779 46.8672ZM43.4377 46.8672C39.5745 42.7658 37.5 38.1631 37.5 30.7017C37.5 17.5788 46.7119 5.8143 60.1147 0L63.4624 5.16604C50.955 11.9333 48.5107 20.7106 47.5335 26.2456C49.5472 25.2042 52.1835 24.8378 54.7676 25.0774C61.5341 25.7048 66.867 31.2593 66.867 38.1631C66.867 45.4118 60.9907 51.2881 53.742 51.2881C49.7179 51.2881 45.87 49.4487 43.4377 46.8672Z" fill="#9E421B"/>
</svg>
