<svg width="67" height="51" viewBox="0 0 67 51" fill="none" xmlns="http://www.w3.org/2000/svg">
<path d="M60.2521 4.37179C64.0724 8.42745 66.1238 12.9792 66.1238 20.3576C66.1238 33.3346 57.0143 44.9684 43.7604 50.7181L40.4499 45.6095C52.8183 38.9175 55.2354 30.2374 56.2018 24.7643C54.2105 25.7941 51.6035 26.156 49.0481 25.9194C42.3568 25.299 37.0831 19.8058 37.0831 12.9792C37.0831 5.81096 42.8941 0 50.0623 0C54.0417 0 57.8468 1.81875 60.2521 4.37179ZM23.1687 4.37179C26.9891 8.42745 29.0405 12.9792 29.0405 20.3576C29.0405 33.3346 19.931 44.9684 6.67708 50.7181L3.36668 45.6095C15.7349 38.9175 18.1522 30.2374 19.1184 24.7643C17.127 25.7941 14.5202 26.156 11.9647 25.9194C5.27351 25.299 0 19.8058 0 12.9792C0 5.81096 5.81096 0 12.9792 0C16.9584 0 20.7637 1.81875 23.1687 4.37179Z" fill="#9E421B"/>
</svg>
