<svg width="117" height="101" viewBox="0 0 117 101" fill="none" xmlns="http://www.w3.org/2000/svg">
<path d="M116.258 68.3304C112.024 96.2254 80.5223 105.766 53.8353 97.7774C26.9709 89.7495 20.7656 66.5475 32.5026 42.6487C44.4712 19.2062 64.0189 1.9621 83.3645 5.739C102.492 9.22125 120.652 40.1531 116.258 68.3304Z" fill="#EED7C5"/>
<path d="M32.5856 28.8937C37.0698 19.5928 35.3399 9.46628 28.7219 6.27553C22.1038 3.08478 13.1036 8.03803 8.61939 17.3389C4.13517 26.6398 5.86501 36.7663 12.4831 39.9571C19.1012 43.1478 28.1013 38.1946 32.5856 28.8937Z" fill="#EED7C5"/>
<path d="M21.1088 57.381C17.6964 54.1797 15.625 49.9958 15.625 45.4131C15.625 35.3514 25.5887 27.1953 37.8793 27.1953C50.17 27.1953 60.1337 35.3514 60.1337 45.4131C60.1337 55.474 50.17 63.6308 37.8793 63.6308C33.8578 63.6308 30.0892 62.753 26.8337 61.2257C23.3741 63.639 18.7845 66.828 18.7845 66.828L21.1088 57.381Z" fill="white"/>
<path d="M18.7855 67.4315C18.6655 67.4315 18.5456 67.3958 18.4422 67.3253C18.2345 67.182 18.1366 66.9258 18.1969 66.6812L20.4375 57.574C16.9402 54.1774 15.0195 49.8701 15.0195 45.4101C15.0195 35.0312 25.2744 26.5859 37.8803 26.5859C50.4848 26.5859 60.7403 35.0305 60.7403 45.4101C60.7403 55.7897 50.4855 64.2329 37.8803 64.2329C34.0403 64.2329 30.2511 63.4332 26.8963 61.9182C23.4751 64.3041 19.1308 67.3232 19.1308 67.3232C19.0273 67.3951 18.9061 67.4315 18.7855 67.4315ZM37.8796 27.7988C25.9425 27.7988 16.231 35.6993 16.231 45.4101C16.231 49.6406 18.1112 53.7334 21.5236 56.9361C21.6839 57.0861 21.7497 57.3102 21.6976 57.5226L19.7571 65.4108C21.3728 64.2877 24.1808 62.3335 26.4879 60.7253C26.6654 60.6033 26.895 60.5814 27.0916 60.6739C30.3635 62.2095 34.0945 63.0208 37.8796 63.0208C49.816 63.0208 59.5275 55.1209 59.5275 45.4101C59.5275 35.6986 49.816 27.7988 37.8796 27.7988Z" fill="#9E421B"/>
<path d="M97.5296 66.6973C101.665 62.8176 104.175 57.747 104.175 52.194C104.175 40.0014 92.1013 30.1172 77.2069 30.1172C62.3124 30.1172 50.2383 40.0014 50.2383 52.194C50.2383 64.3867 62.3124 74.2709 77.2069 74.2709C82.0801 74.2709 86.647 73.2075 90.5925 71.3567C94.7846 74.2812 100.347 78.1458 100.347 78.1458L97.5296 66.6973Z" fill="white"/>
<path d="M100.347 78.7492C100.227 78.7492 100.105 78.7129 100.001 78.641C100.001 78.641 94.6869 74.9477 90.5318 72.0499C86.4657 73.8986 81.8666 74.8737 77.2078 74.8737C62.0036 74.8737 49.6328 64.6983 49.6328 52.1911C49.6328 39.6832 62.003 29.5078 77.2078 29.5078C92.4127 29.5078 104.783 39.6832 104.783 52.1911C104.783 57.5844 102.449 62.7913 98.2027 66.8903L100.936 77.9976C100.996 78.2422 100.898 78.4985 100.691 78.6417C100.587 78.7136 100.467 78.7492 100.347 78.7492ZM90.5928 70.748C90.7154 70.748 90.836 70.785 90.9395 70.857C93.8722 72.903 97.475 75.4088 99.3744 76.7299L96.9413 66.8396C96.8892 66.6271 96.9556 66.4031 97.116 66.253C101.279 62.3487 103.57 57.3555 103.57 52.1918C103.57 40.3527 91.7432 30.7206 77.2071 30.7206C62.671 30.7206 50.8443 40.3527 50.8443 52.1918C50.8443 64.0302 62.671 73.6622 77.2071 73.6622C81.8118 73.6622 86.3513 72.6741 90.3351 70.8063C90.418 70.7665 90.5057 70.748 90.5928 70.748Z" fill="#9E421B"/>
<path d="M88.8224 53.1807C88.8224 54.5833 87.6849 55.7208 86.2823 55.7208C84.8796 55.7208 83.7422 54.5833 83.7422 53.1807C83.7422 51.7781 84.8796 50.6406 86.2823 50.6406C87.6856 50.6406 88.8224 51.7781 88.8224 53.1807Z" fill="#9E421B"/>
<path d="M77.212 55.7208C78.6148 55.7208 79.752 54.5836 79.752 53.1807C79.752 51.7779 78.6148 50.6406 77.212 50.6406C75.8091 50.6406 74.6719 51.7779 74.6719 53.1807C74.6719 54.5836 75.8091 55.7208 77.212 55.7208Z" fill="#9E421B"/>
<path d="M68.1377 55.7208C69.5406 55.7208 70.6778 54.5836 70.6778 53.1807C70.6778 51.7779 69.5406 50.6406 68.1377 50.6406C66.7349 50.6406 65.5977 51.7779 65.5977 53.1807C65.5977 54.5836 66.7349 55.7208 68.1377 55.7208Z" fill="#9E421B"/>
<path d="M46.957 45.9844C46.957 47.0807 46.0683 47.9688 44.9727 47.9688C43.8763 47.9688 42.9883 47.08 42.9883 45.9844C42.9883 44.888 43.877 44 44.9727 44C46.0683 44 46.957 44.8887 46.957 45.9844Z" fill="#9E421B"/>
<path d="M37.8828 47.9688C38.9788 47.9688 39.8672 47.0803 39.8672 45.9844C39.8672 44.8884 38.9788 44 37.8828 44C36.7869 44 35.8984 44.8884 35.8984 45.9844C35.8984 47.0803 36.7869 47.9688 37.8828 47.9688Z" fill="#9E421B"/>
<path d="M32.7773 45.9844C32.7773 47.0807 31.8886 47.9688 30.793 47.9688C29.6966 47.9688 28.8086 47.08 28.8086 45.9844C28.8086 44.888 29.6973 44 30.793 44C31.8893 44 32.7773 44.8887 32.7773 45.9844Z" fill="#9E421B"/>
</svg>
