<svg width="149" height="149" viewBox="0 0 149 149" fill="none" xmlns="http://www.w3.org/2000/svg">
<path d="M97.0413 114.992H93.6148C93.0238 114.992 92.5618 114.483 92.6196 113.894L94.3724 96.0514C94.4174 95.5928 94.1433 95.1629 93.7085 95.0102L92.2099 94.4838C91.8167 94.3457 91.5499 93.9686 91.5424 93.5519C91.2428 76.9122 93.1228 71.1381 97.8528 66.492C98.4695 65.8863 99.4706 66.3636 99.4447 67.2276L98.0408 114.022C98.0246 114.563 97.5819 114.992 97.0413 114.992Z" fill="#C3911A"/>
<path d="M65.479 114.992H61L62.6539 84.7983C62.6684 84.533 62.5732 84.2697 62.3976 84.0703C56.3148 77.1613 56.7079 72.77 62.5531 64.5655C62.6331 64.4531 62.737 64.3548 62.8586 64.2897C63.6576 63.8619 64.1774 63.9251 64.9692 64.2908C65.1097 64.3557 65.2329 64.4598 65.3259 64.5835C71.558 72.8592 71.3017 77.1717 66.079 84.102C65.9425 84.283 65.8674 84.5074 65.8721 84.7341L66.4788 113.971C66.4904 114.532 66.0394 114.992 65.479 114.992Z" fill="#C3911A"/>
<path d="M81.9836 114.992H79.0646C78.4921 114.992 78.0365 114.512 78.0659 113.941L79.5188 85.7625C79.5426 85.3014 79.2458 84.8883 78.8099 84.7359C77.3262 84.2173 76.6176 83.6741 75.7767 82.789C75.6046 82.6077 75.5117 82.3656 75.5117 82.1157V78.3838L76.7022 65.4042L77.1476 77.5434C77.1648 78.0124 77.55 78.3838 78.0194 78.3838C78.4825 78.3838 78.865 78.0218 78.8904 77.5593L79.5593 65.4042L80.0006 77.4326C80.0201 77.9635 80.4561 78.3838 80.9874 78.3838C81.519 78.3838 81.9553 77.9628 81.9742 77.4315L82.4165 64.9922L83.0924 77.6642C83.1139 78.0677 83.4473 78.3838 83.8514 78.3838C84.2502 78.3838 84.5813 78.0755 84.6096 77.6776L85.5117 64.9922V82.1763C85.5117 82.3894 85.4447 82.5978 85.3144 82.7663C84.6735 83.5954 83.9644 84.2856 82.9278 84.7224C82.5003 84.9025 82.1875 85.3042 82.2004 85.7679L82.9832 113.964C82.9988 114.527 82.5467 114.992 81.9836 114.992Z" fill="#C3911A"/>
<path fill-rule="evenodd" clip-rule="evenodd" d="M127.311 95.4078L128.242 95.7726C128.363 95.4647 128.481 95.1551 128.597 94.844C128.713 94.5329 128.826 94.2214 128.936 93.9095L127.993 93.5762L127.051 93.2428C126.944 93.5441 126.835 93.8451 126.723 94.1457C126.611 94.4463 126.496 94.7454 126.38 95.0429L127.311 95.4078ZM128.61 91.7332L129.564 92.0347C129.764 91.402 129.953 90.768 130.13 90.1332L129.167 89.8642L128.204 89.5952C128.032 90.2083 127.85 90.8205 127.657 91.4317L128.61 91.7332ZM129.658 87.9809L130.63 88.217C130.786 87.5744 130.931 86.931 131.064 86.2873L130.085 86.0844L129.106 85.8816C128.977 86.5032 128.837 87.1243 128.687 87.7448L129.658 87.9809ZM131.735 82.3812C131.646 83.0338 131.545 83.6864 131.433 84.3389L130.448 84.1698L129.462 84.0007C129.57 83.3708 129.667 82.7408 129.753 82.1109L130.744 82.246L131.735 82.3812ZM130.973 80.315L131.968 80.4161C132.035 79.7575 132.091 79.0991 132.135 78.4414L131.137 78.3746L130.139 78.3079C130.097 78.9428 130.043 79.5782 129.979 80.214L130.973 80.315ZM131.233 76.4304L132.233 76.4627C132.254 75.802 132.264 75.142 132.263 74.4832L131.263 74.4853L130.263 74.4873C130.264 75.1232 130.254 75.7602 130.234 76.3981L131.233 76.4304ZM131.225 72.5394L132.225 72.5029C132.201 71.842 132.165 71.1824 132.118 70.5245L131.121 70.5952L130.123 70.666C130.169 71.3011 130.203 71.9377 130.226 72.5758L131.225 72.5394ZM130.95 68.6567L131.945 68.5518C131.875 67.8947 131.795 67.2395 131.703 66.5866L130.713 66.7255L129.723 66.8644C129.811 67.4947 129.889 68.1273 129.956 68.7616L130.95 68.6567ZM130.409 64.8021L131.394 64.6294C131.28 63.9785 131.155 63.3302 131.019 62.6846L130.041 62.8909L129.062 63.0971C129.193 63.7204 129.314 64.3464 129.424 64.9748L130.409 64.8021ZM129.607 60.9936L130.578 60.7542C130.42 60.1127 130.251 59.4743 130.071 58.8393L129.109 59.1117L128.146 59.384C128.32 59.9972 128.483 60.6137 128.636 61.2331L129.607 60.9936ZM128.547 57.2478L129.499 56.9429C129.298 56.3139 129.086 55.6886 128.863 55.0672L127.922 55.4043L126.98 55.7414C127.195 56.3415 127.4 56.9453 127.594 57.5527L128.547 57.2478ZM127.234 53.583L128.164 53.2141C127.92 52.6003 127.666 51.9908 127.402 51.3857L126.485 51.7859L125.569 52.1862C125.824 52.7705 126.07 53.3591 126.305 53.9519L127.234 53.583ZM125.676 50.0154L126.579 49.5844C126.294 48.9886 125.999 48.3977 125.694 47.8119L124.807 48.2733L123.92 48.7348C124.214 49.3005 124.499 49.8712 124.774 50.4465L125.676 50.0154ZM123.88 46.5618L124.751 46.0705C124.427 45.4956 124.092 44.9261 123.749 44.3623L122.895 44.8829L122.041 45.4035C122.373 45.948 122.696 46.498 123.009 47.0531L123.88 46.5618ZM121.853 43.2382L122.689 42.6889C122.326 42.1374 121.954 41.5918 121.572 41.0524L120.756 41.6299L119.94 42.2074C120.308 42.7283 120.667 43.2551 121.018 43.7876L121.853 43.2382ZM119.605 40.0605L120.401 39.4555C120.002 38.9302 119.594 38.4113 119.176 37.8991L118.401 38.5309L117.626 39.1628C118.029 39.6573 118.424 40.1583 118.809 40.6655L119.605 40.0605ZM117.145 37.0429L117.899 36.385C117.465 35.8884 117.022 35.3988 116.57 34.9164L115.84 35.5998L115.11 36.2832C115.546 36.7489 115.974 37.2215 116.392 37.7009L117.145 37.0429ZM114.486 34.2021L115.193 33.4941C114.726 33.0283 114.25 32.5699 113.766 32.1192L113.084 32.851L112.403 33.5829C112.87 34.0179 113.329 34.4604 113.78 34.9101L114.486 34.2021ZM111.638 31.5494L112.293 30.7945C111.796 30.3624 111.291 29.9381 110.777 29.5219L110.147 30.2988L109.518 31.0758C110.014 31.4775 110.502 31.8871 110.982 32.3042L111.638 31.5494ZM108.614 29.0995L109.216 28.3014C108.69 27.9042 108.156 27.5153 107.614 27.1349L107.04 27.9533L106.465 28.7718C106.988 29.139 107.504 29.5143 108.012 29.8977L108.614 29.0995ZM105.429 26.8635L105.975 26.0258C105.424 25.6661 104.865 25.3149 104.298 24.9727L103.781 25.8286L103.264 26.6845C103.811 27.015 104.351 27.3539 104.883 27.7012L105.429 26.8635ZM102.096 24.8498L102.583 23.9766C102.009 23.6562 101.428 23.3446 100.84 23.0421L100.383 23.9314L99.9252 24.8207C100.493 25.1128 101.054 25.4136 101.608 25.723L102.096 24.8498ZM98.6367 23.0708L99.0635 22.1665C98.4675 21.8852 97.8647 21.613 97.2552 21.3503L96.8593 22.2686L96.4634 23.1868C97.0521 23.4406 97.6342 23.7035 98.2099 23.9752L98.6367 23.0708ZM95.0619 21.5292L95.4268 20.5981C95.1188 20.4775 94.8093 20.3592 94.4982 20.2432C94.187 20.1273 93.8755 20.0142 93.5637 19.9039L93.2304 20.8467L92.897 21.7895C93.1983 21.8961 93.4992 22.0053 93.7999 22.1174C94.1005 22.2294 94.3996 22.3437 94.6971 22.4603L95.0619 21.5292ZM91.3874 20.2297L91.6889 19.2762C91.0561 19.0761 90.4222 18.8875 89.7874 18.7102L89.5184 19.6733L89.2494 20.6365C89.8624 20.8077 90.4747 20.9899 91.0859 21.1832L91.3874 20.2297ZM87.6351 19.1817L87.8712 18.2099C87.2285 18.0538 86.5852 17.9091 85.9414 17.7758L85.7386 18.755L85.5358 19.7342C86.1573 19.8629 86.7785 20.0026 87.399 20.1534L87.6351 19.1817ZM83.8239 18.3926L83.9931 17.407C83.3406 17.295 82.688 17.1946 82.0354 17.1056L81.9002 18.0964L81.765 19.0872C82.395 19.1731 83.025 19.2701 83.6548 19.3782L83.8239 18.3926ZM78.0956 16.7055C78.7533 16.7495 79.4116 16.8049 80.0703 16.8718L79.9692 17.8667L79.8682 18.8616C79.2324 18.797 78.597 18.7435 77.9621 18.7011L78.0288 17.7033L78.0956 16.7055ZM76.0846 17.6068L76.1169 16.6074C75.4561 16.586 74.7962 16.576 74.1374 16.5774L74.1394 17.5774L74.1415 18.5774C74.7774 18.5761 75.4144 18.5857 76.0522 18.6063L76.0846 17.6068ZM72.1935 17.6148L72.1571 16.6155C71.4961 16.6396 70.8366 16.675 70.1787 16.7216L70.2494 17.7191L70.3201 18.7166C70.9552 18.6716 71.5919 18.6374 72.2299 18.6141L72.1935 17.6148ZM68.3109 17.8901L68.206 16.8956C67.5489 16.9649 66.8937 17.0454 66.2408 17.137L66.3796 18.1273L66.5185 19.1176C67.1489 19.0292 67.7814 18.9515 68.4158 18.8845L68.3109 17.8901ZM64.4563 18.4307L64.2836 17.4457C63.6327 17.5598 62.9844 17.6849 62.3388 17.821L62.545 18.7995L62.7512 19.778C63.3745 19.6466 64.0005 19.5258 64.6289 19.4157L64.4563 18.4307ZM60.6478 19.2332L60.4084 18.2623C59.7669 18.4205 59.1285 18.5896 58.4935 18.7693L58.7658 19.7315L59.0382 20.6937C59.6514 20.5201 60.2679 20.3569 60.8873 20.2041L60.6478 19.2332ZM56.902 20.2936L56.597 19.3412C55.968 19.5426 55.3427 19.7546 54.7214 19.9771L55.0585 20.9186L55.3956 21.86C55.9957 21.6452 56.5995 21.4404 57.2069 21.2459L56.902 20.2936ZM53.2372 21.6059L52.8683 20.6764C52.2545 20.92 51.6449 21.174 51.0399 21.4382L51.4401 22.3546L51.8403 23.271C52.4246 23.0159 53.0133 22.7706 53.6061 22.5353L53.2372 21.6059ZM49.6696 23.1639L49.2385 22.2616C48.6428 22.5462 48.0519 22.8409 47.466 23.1457L47.9275 24.0328L48.3889 24.92C48.9547 24.6257 49.5254 24.3411 50.1007 24.0662L49.6696 23.1639ZM46.216 24.9603L45.7247 24.0893C45.1498 24.4136 44.5803 24.7477 44.0164 25.0916L44.5371 25.9454L45.0577 26.7991C45.6022 26.4671 46.1522 26.1445 46.7073 25.8313L46.216 24.9603ZM42.8924 26.987L42.343 26.1514C41.7916 26.514 41.246 26.8861 40.7066 27.2677L41.2841 28.0841L41.8616 28.9005C42.3824 28.532 42.9092 28.1727 43.4418 27.8226L42.8924 26.987ZM39.7146 29.2349L39.1097 28.4386C38.5844 28.8378 38.0655 29.2461 37.5533 29.6636L38.1851 30.4388L38.8169 31.2139C39.3114 30.8108 39.8124 30.4165 40.3196 30.0311L39.7146 29.2349ZM36.6971 31.6946L36.0391 30.9416C35.5426 31.3754 35.053 31.8182 34.5706 32.2697L35.254 32.9998L35.9373 33.7299C36.4031 33.294 36.8757 32.8665 37.3551 32.4477L36.6971 31.6946ZM33.8562 34.3538L33.1482 33.6476C32.6825 34.1146 32.2241 34.5901 31.7733 35.0742L32.5052 35.7556L33.237 36.4371C33.6721 35.9699 34.1146 35.5108 34.5642 35.06L33.8562 34.3538ZM31.2035 37.2026L30.4487 36.5467C30.0166 37.044 29.5923 37.5496 29.176 38.0632L29.953 38.6928L30.7299 39.3223C31.1317 38.8265 31.5413 38.3386 31.9584 37.8585L31.2035 37.2026ZM28.7537 40.2261L27.9555 39.6237C27.5584 40.1498 27.1695 40.6839 26.7891 41.2257L27.6075 41.8003L28.4259 42.3749C28.7931 41.8519 29.1685 41.3364 29.5519 40.8285L28.7537 40.2261ZM26.5176 43.4108L25.6799 42.8647C25.3202 43.4164 24.9691 43.9756 24.6268 44.5422L25.4828 45.0593L26.3387 45.5764C26.6691 45.0294 27.0081 44.4895 27.3553 43.9569L26.5176 43.4108ZM24.5039 46.7443L23.6308 46.2569C23.3103 46.831 22.9988 47.4121 22.6963 48.0002L23.5856 48.4576L24.4749 48.9149C24.7669 48.347 25.0678 47.7859 25.3771 47.2317L24.5039 46.7443ZM22.725 50.2034L21.8207 49.7766C21.5394 50.3727 21.2672 50.9755 21.0044 51.5849L21.9227 51.9808L22.841 52.3767C23.0948 51.7881 23.3577 51.2059 23.6293 50.6302L22.725 50.2034ZM19.8974 54.3419C20.0133 54.0308 20.1316 53.7213 20.2523 53.4133L21.1834 53.7782L22.1144 54.143C21.9979 54.4406 21.8835 54.7396 21.7715 55.0402C21.6595 55.3409 21.5502 55.6419 21.4437 55.9431L20.5009 55.6098L19.5581 55.2764C19.6684 54.9646 19.7815 54.6531 19.8974 54.3419ZM19.8839 57.4527L18.9304 57.1512C18.7303 57.784 18.5416 58.4179 18.3643 59.0527L19.3275 59.3217L20.2906 59.5907C20.4618 58.9777 20.644 58.3654 20.8373 57.7542L19.8839 57.4527ZM18.8358 61.205L17.8641 60.9689C17.708 61.6116 17.5633 62.2549 17.4299 62.8987L18.4092 63.1015L19.3884 63.3043C19.5171 62.6828 19.6568 62.0617 19.8076 61.4411L18.8358 61.205ZM18.0467 65.0162L17.0611 64.8471C16.9492 65.4995 16.8488 66.1522 16.7597 66.8047L17.7506 66.9399L18.7414 67.0751C18.8273 66.4451 18.9243 65.8151 19.0323 65.1853L18.0467 65.0162ZM17.5208 68.8709L16.526 68.7699C16.4591 69.4285 16.4037 70.0868 16.3597 70.7446L17.3575 70.8113L18.3552 70.878C18.3977 70.2432 18.4512 69.6077 18.5157 68.972L17.5208 68.8709ZM17.261 72.7556L16.2615 72.7232C16.2401 73.384 16.2302 74.0439 16.2315 74.7027L17.2315 74.7007L18.2315 74.6986C18.2302 74.0627 18.2398 73.4257 18.2605 72.7879L17.261 72.7556ZM17.269 76.6466L16.2696 76.683C16.2937 77.344 16.3292 78.0036 16.3758 78.6615L17.3733 78.5907L18.3708 78.52C18.3258 77.8849 18.2916 77.2482 18.2683 76.6102L17.269 76.6466ZM17.5442 80.5292L16.5497 80.6341C16.6191 81.2912 16.6996 81.9464 16.7911 82.5994L17.7814 82.4605L18.7718 82.3216C18.6833 81.6912 18.6056 81.0587 18.5387 80.4243L17.5442 80.5292ZM18.0848 84.3839L17.0999 84.5566C17.214 85.2074 17.3391 85.8558 17.4752 86.5013L18.4537 86.2951L19.4322 86.0889C19.3008 85.4656 19.18 84.8396 19.0698 84.2112L18.0848 84.3839ZM18.8874 88.1923L17.9165 88.4318C18.0747 89.0732 18.2438 89.7116 18.4235 90.3467L19.3857 90.0743L20.3479 89.8019C20.1743 89.1887 20.0111 88.5723 19.8583 87.9529L18.8874 88.1923ZM19.9477 91.9382L18.9954 92.2431C19.1968 92.8721 19.4088 93.4974 19.6313 94.1188L20.5727 93.7816L21.5142 93.4445C21.2993 92.8445 21.0946 92.2406 20.9001 91.6332L19.9477 91.9382ZM21.26 95.603L20.3306 95.9718C20.5742 96.5856 20.8281 97.1952 21.0924 97.8002L22.0088 97.4L22.9252 96.9998C22.67 96.4155 22.4248 95.8268 22.1895 95.2341L21.26 95.603ZM22.8181 99.1705L21.9157 99.6016C22.2004 100.197 22.4951 100.788 22.7998 101.374L23.687 100.913L24.5742 100.451C24.2799 99.8854 23.9952 99.3147 23.7204 98.7394L22.8181 99.1705ZM24.6145 102.624L23.7435 103.115C24.0678 103.69 24.4019 104.26 24.7457 104.824L25.5995 104.303L26.4533 103.782C26.1213 103.238 25.7986 102.688 25.4855 102.133L24.6145 102.624ZM26.6412 105.948L25.8056 106.497C26.1682 107.049 26.5403 107.594 26.9218 108.134L27.7382 107.556L28.5546 106.979C28.1862 106.458 27.8269 105.931 27.4768 105.398L26.6412 105.948ZM28.889 109.125L28.0928 109.73C28.4919 110.256 28.9003 110.775 29.3178 111.287L30.0929 110.655L30.868 110.023C30.4649 109.529 30.0706 109.028 29.6853 108.52L28.889 109.125ZM31.3488 112.143L30.5958 112.801C31.0296 113.298 31.4723 113.787 31.9239 114.27L32.654 113.586L33.384 112.903C32.9481 112.437 32.5207 111.964 32.1019 111.485L31.3488 112.143ZM34.008 114.984L33.3018 115.692C33.7687 116.158 34.2443 116.616 34.7283 117.067L35.4098 116.335L36.0913 115.603C35.624 115.168 35.165 114.726 34.7142 114.276L34.008 114.984ZM36.8568 117.637L36.2009 118.391C36.6982 118.824 37.2037 119.248 37.7174 119.664L38.3469 118.887L38.9765 118.11C38.4807 117.708 37.9927 117.299 37.5127 116.882L36.8568 117.637ZM39.8803 120.086L39.2778 120.885C39.804 121.282 40.338 121.671 40.8799 122.051L41.4545 121.233L42.0291 120.414C41.5061 120.047 40.9906 119.672 40.4827 119.288L39.8803 120.086ZM43.065 122.322L42.5188 123.16C43.0706 123.52 43.6298 123.871 44.1964 124.213L44.2057 124.198L44.2401 121.889C44.0293 121.755 43.8197 121.621 43.6111 121.485L43.065 122.322ZM113.064 115.998L111.988 115.981C112.179 115.808 112.368 115.633 112.557 115.456L113.064 115.998ZM114.638 114.832L115.346 115.538C115.812 115.071 116.27 114.596 116.721 114.112L115.989 113.43L115.257 112.749C114.822 113.216 114.38 113.675 113.93 114.126L114.638 114.832ZM117.291 111.983L118.046 112.639C118.478 112.142 118.902 111.636 119.318 111.123L118.541 110.493L117.764 109.864C117.363 110.359 116.953 110.847 116.536 111.327L117.291 111.983ZM119.741 108.96L120.539 109.562C120.936 109.036 121.325 108.502 121.705 107.96L120.887 107.386L120.068 106.811C119.701 107.334 119.326 107.85 118.942 108.357L119.741 108.96ZM121.977 105.775L122.814 106.321C123.174 105.77 123.525 105.21 123.867 104.644L123.012 104.127L122.156 103.61C121.825 104.157 121.486 104.696 121.139 105.229L121.977 105.775ZM123.99 102.442L124.864 102.929C125.184 102.355 125.496 101.774 125.798 101.186L124.909 100.728L124.019 100.271C123.727 100.839 123.427 101.4 123.117 101.954L123.99 102.442ZM125.769 98.9825L126.674 99.4094C126.955 98.8133 127.227 98.2105 127.49 97.6011L126.572 97.2051L125.653 96.8092C125.399 97.3979 125.137 97.9801 124.865 98.5557L125.769 98.9825Z" fill="#C3911A"/>
<path d="M34.4945 77.3811L45.1703 114.27C45.2941 114.698 45.6857 114.992 46.1309 114.992H109.779C110.236 114.992 110.635 114.682 110.748 114.239L114.717 98.6854L117.981 77.3811C119.817 59.9592 117.803 56.6408 97.0373 59.5306C96.4818 59.608 95.955 59.201 95.8602 58.6482C92.2877 37.8222 60.5675 43.2531 58.1946 58.6724C58.1103 59.2204 57.6269 59.642 57.0737 59.6034C39.4564 58.3711 30.3749 60.0052 34.4945 77.3811Z" stroke="black" stroke-width="1.5"/>
<rect x="47.2617" y="115.742" width="63.5" height="13.5" stroke="black" stroke-width="1.5"/>
</svg>
