<svg width="116" height="120" viewBox="0 0 116 120" fill="none" xmlns="http://www.w3.org/2000/svg">
<path fill-rule="evenodd" clip-rule="evenodd" d="M114.992 58.9695L115.992 58.9863C115.997 58.6556 116 58.3242 116 57.9922C116 57.6602 115.997 57.3288 115.992 56.9981L114.992 57.0149L113.992 57.0317C113.997 57.3512 114 57.6714 114 57.9922C114 58.313 113.997 58.6332 113.992 58.9527L114.992 58.9695ZM114.927 55.0724L115.925 55.0221C115.892 54.3592 115.847 53.6994 115.792 53.0426L114.795 53.1268L113.799 53.211C113.852 53.8453 113.896 54.4826 113.928 55.1228L114.927 55.0724ZM114.598 51.1904L115.591 51.0723C115.513 50.4156 115.424 49.7622 115.325 49.1124L114.336 49.2643L113.348 49.4161C113.444 50.0435 113.53 50.6743 113.605 51.3084L114.598 51.1904ZM114.589 45.2182C114.733 45.8608 114.867 46.5074 114.99 47.1579L114.007 47.3436L113.025 47.5292C112.906 46.9013 112.777 46.2771 112.637 45.6568L113.613 45.4375L114.589 45.2182ZM113.154 43.5478L114.122 43.2951C113.954 42.6546 113.776 42.0184 113.588 41.3866L112.63 41.6725L111.671 41.9583C111.853 42.5681 112.025 43.1822 112.187 43.8005L113.154 43.5478ZM112.041 39.8169L112.989 39.4983C112.778 38.8716 112.557 38.2497 112.326 37.6329L111.39 37.9839L110.453 38.335C110.677 38.9304 110.89 39.5307 111.093 40.1356L112.041 39.8169ZM110.675 36.1735L111.599 35.7905C111.346 35.1795 111.082 34.5738 110.809 33.9736L109.899 34.3882L108.989 34.8028C109.253 35.3822 109.507 35.9668 109.751 36.5566L110.675 36.1735ZM109.062 32.6314L109.957 32.1859C109.662 31.5943 109.358 31.0085 109.045 30.4286L108.165 30.9045L107.286 31.3804C107.588 31.9403 107.882 32.5058 108.166 33.0769L109.062 32.6314ZM107.209 29.2081L108.072 28.7024C107.738 28.1323 107.394 27.5684 107.041 27.011L106.196 27.5459L105.351 28.0808C105.692 28.619 106.024 29.1634 106.346 29.7138L107.209 29.2081ZM105.127 25.9196L105.954 25.3562C105.581 24.8103 105.2 24.2711 104.81 23.7388L104.003 24.33L103.197 24.9212C103.574 25.4352 103.942 25.9558 104.301 26.4829L105.127 25.9196ZM102.826 22.7797L103.612 22.1614C103.204 21.6423 102.787 21.1304 102.361 20.6258L101.597 21.2704L100.832 21.9151C101.243 22.4023 101.646 22.8967 102.04 23.3979L102.826 22.7797ZM100.317 19.8037L101.059 19.1335C100.616 18.6434 100.165 18.1609 99.7065 17.6862L98.9875 18.3812L98.2685 19.0762C98.7116 19.5346 99.147 20.0006 99.5744 20.4739L100.317 19.8037ZM97.611 17.0047L98.306 16.2857C97.8313 15.8268 97.3488 15.376 96.8587 14.9334L96.1885 15.6756L95.5183 16.4178C95.9916 16.8452 96.4576 17.2806 96.916 17.7237L97.611 17.0047ZM94.7218 14.3956L95.3664 13.6311C94.8618 13.2057 94.3499 12.7887 93.8308 12.3803L93.2125 13.1663L92.5942 13.9523C93.0955 14.3466 93.5899 14.7493 94.0771 15.1601L94.7218 14.3956ZM91.6622 11.9889L92.2534 11.1823C91.7211 10.7922 91.1819 10.4108 90.636 10.0386L90.0726 10.8648L89.5092 11.691C90.0363 12.0504 90.557 12.4186 91.071 12.7954L91.6622 11.9889ZM88.4463 9.79595L88.9811 8.95103C88.4237 8.59815 87.8599 8.25451 87.2898 7.92033L86.7841 8.78302L86.2784 9.64572C86.8288 9.96836 87.3732 10.3002 87.9114 10.6409L88.4463 9.79595ZM85.0877 7.82716L85.5636 6.94767C84.9837 6.63388 84.3979 6.32968 83.8063 6.03529L83.3608 6.93056L82.9153 7.82583C83.4864 8.11003 84.0519 8.4037 84.6118 8.70665L85.0877 7.82716ZM81.604 6.09356L82.0186 5.18354C81.4183 4.91011 80.8127 4.64661 80.2017 4.39326L79.8186 5.31698L79.4356 6.24071C80.0253 6.48527 80.61 6.73963 81.1894 7.00358L81.604 6.09356ZM78.0083 4.60247L78.3593 3.66612C77.7424 3.43483 77.1206 3.21374 76.4939 3.00307L76.1752 3.95094L75.8566 4.89881C76.4615 5.10216 77.0617 5.31556 77.6572 5.53882L78.0083 4.60247ZM74.3197 3.36247L74.6055 2.4042C73.9738 2.21577 73.3376 2.03781 72.697 1.87053L72.4444 2.83808L72.1917 3.80562C72.81 3.96709 73.4241 4.13887 74.0338 4.32075L74.3197 3.36247ZM70.5547 2.37911L70.774 1.40345C70.1314 1.25902 69.4847 1.12525 68.8343 1.00234L68.6486 1.98496L68.4629 2.96757C69.0909 3.08622 69.7151 3.21535 70.3354 3.35477L70.5547 2.37911ZM66.7279 1.65607L66.8797 0.667664C66.2299 0.567831 65.5766 0.478782 64.9198 0.400707L64.8018 1.39371L64.6837 2.38672C65.3178 2.46211 65.9487 2.54809 66.576 2.64447L66.7279 1.65607ZM62.8653 1.19686L62.9495 0.200415C62.2928 0.144911 61.6329 0.100351 60.9701 0.0669182L60.9197 1.06565L60.8693 2.06438C61.5095 2.09667 62.1469 2.13971 62.7811 2.19331L62.8653 1.19686ZM58.9773 1.00039L58.9941 0.000534677C58.6634 -0.00502272 58.332 -0.0078125 58 -0.0078125C57.668 -0.0078125 57.3366 -0.00502244 57.0059 0.000535511L57.0227 1.00039L57.0395 2.00025C57.359 1.99488 57.6792 1.99219 58 1.99219C58.3208 1.99219 58.641 1.99488 58.9605 2.00025L58.9773 1.00039ZM55.0803 1.06565L55.0299 0.0669207C54.3671 0.100354 53.7072 0.144915 53.0504 0.200419L53.1346 1.19687L53.2188 2.19331C53.8531 2.13971 54.4904 2.09667 55.1306 2.06438L55.0803 1.06565ZM51.1982 1.39372L51.0801 0.400711C50.4234 0.478787 49.77 0.567836 49.1202 0.667669L49.2721 1.65607L49.4239 2.64447C50.0513 2.54809 50.6821 2.46211 51.3162 2.38672L51.1982 1.39372ZM47.3514 1.98496L47.1657 1.00235C46.5152 1.12526 45.8686 1.25902 45.226 1.40346L45.4453 2.37912L45.6646 3.35478C46.2849 3.21535 46.9091 3.08622 47.537 2.96758L47.3514 1.98496ZM41.3945 2.4042C42.0262 2.21577 42.6624 2.03781 43.3029 1.87053L43.5556 2.83808L43.8083 3.80563C43.19 3.9671 42.5759 4.13887 41.9661 4.32076L41.6803 3.36248L41.3945 2.4042ZM39.8247 3.95094L39.5061 3.00307C38.8794 3.21375 38.2575 3.43483 37.6407 3.66612L37.9917 4.60247L38.3428 5.53882C38.9383 5.31556 39.5385 5.10216 40.1434 4.89881L39.8247 3.95094ZM36.1814 5.31699L35.7983 4.39326C35.1873 4.64661 34.5816 4.91011 33.9814 5.18354L34.396 6.09356L34.8106 7.00358C35.39 6.73963 35.9747 6.48527 36.5644 6.24071L36.1814 5.31699ZM32.6392 6.93056L32.1937 6.03529C31.6021 6.32968 31.0163 6.63388 30.4364 6.94767L30.9123 7.82716L31.3882 8.70665C31.9481 8.4037 32.5136 8.11003 33.0847 7.82583L32.6392 6.93056ZM29.2159 8.78302L28.7102 7.92033C28.1401 8.25451 27.5763 8.59815 27.0188 8.95103L27.5537 9.79596L28.0886 10.6409C28.6268 10.3002 29.1712 9.96837 29.7216 9.64572L29.2159 8.78302ZM25.9274 10.8648L25.364 10.0386C24.8181 10.4109 24.2789 10.7922 23.7466 11.1823L24.3378 11.9889L24.929 12.7954C25.443 12.4186 25.9637 12.0504 26.4908 11.691L25.9274 10.8648ZM22.7875 13.1663L22.1692 12.3803C21.6501 12.7887 21.1382 13.2057 20.6336 13.6311L21.2782 14.3956L21.9229 15.1601C22.4101 14.7493 22.9045 14.3466 23.4058 13.9523L22.7875 13.1663ZM19.8115 15.6756L19.1413 14.9334C18.6512 15.376 18.1687 15.8268 17.694 16.2857L18.389 17.0047L19.084 17.7237C19.5424 17.2806 20.0084 16.8452 20.4817 16.4178L19.8115 15.6756ZM17.0125 18.3812L16.2935 17.6862C15.8346 18.1609 15.3838 18.6434 14.9412 19.1335L15.6834 19.8037L16.4256 20.4739C16.853 20.0006 17.2884 19.5346 17.7315 19.0762L17.0125 18.3812ZM14.4034 21.2704L13.6389 20.6258C13.2135 21.1304 12.7965 21.6423 12.3882 22.1614L13.1741 22.7797L13.9601 23.398C14.3544 22.8967 14.7571 22.4023 15.1679 21.9151L14.4034 21.2704ZM11.9967 24.33L11.1901 23.7388C10.8 24.2711 10.4187 24.8103 10.0464 25.3562L10.8726 25.9196L11.6988 26.4829C12.0583 25.9558 12.4264 25.4352 12.8032 24.9212L11.9967 24.33ZM9.80376 27.5459L8.95884 27.011C8.60596 27.5685 8.26232 28.1323 7.92814 28.7024L8.79083 29.2081L9.65353 29.7138C9.97618 29.1634 10.308 28.619 10.6487 28.0808L9.80376 27.5459ZM7.83497 30.9045L6.95548 30.4286C6.64169 31.0085 6.33749 31.5943 6.0431 32.1859L6.93837 32.6314L7.83364 33.0769C8.11784 32.5058 8.41152 31.9403 8.71446 31.3804L7.83497 30.9045ZM6.10137 34.3882L5.19135 33.9736C4.91792 34.5738 4.65442 35.1795 4.40107 35.7905L5.32479 36.1735L6.24852 36.5566C6.49308 35.9668 6.74744 35.3822 7.01139 34.8028L6.10137 34.3882ZM4.61028 37.9839L3.67393 37.6329C3.44264 38.2497 3.22155 38.8716 3.01088 39.4983L3.95875 39.8169L4.90662 40.1356C5.10997 39.5307 5.32337 38.9305 5.54663 38.335L4.61028 37.9839ZM3.37029 41.6725L2.41201 41.3867C2.22358 42.0184 2.04562 42.6546 1.87834 43.2952L2.84589 43.5478L3.81344 43.8005C3.97491 43.1822 4.14668 42.5681 4.32856 41.9583L3.37029 41.6725ZM2.38692 45.4375L1.41126 45.2182C1.26683 45.8608 1.13306 46.5075 1.01016 47.1579L1.99277 47.3436L2.97538 47.5293C3.09403 46.9013 3.22316 46.2771 3.36258 45.6568L2.38692 45.4375ZM1.66388 49.2643L0.675476 49.1125C0.575643 49.7623 0.486595 50.4156 0.408519 51.0723L1.40153 51.1904L2.39453 51.3085C2.46992 50.6743 2.5559 50.0435 2.65228 49.4162L1.66388 49.2643ZM1.20468 53.1269L0.208228 53.0426C0.152724 53.6994 0.108164 54.3593 0.0747307 55.0221L1.07346 55.0725L2.07219 55.1229C2.10448 54.4826 2.14752 53.8453 2.20112 53.2111L1.20468 53.1269ZM0 57.9922C0 57.6602 0.00278978 57.3288 0.00834718 56.9981L1.00821 57.0149L2.00806 57.0317C2.0027 57.3512 2 57.6714 2 57.9922C2 58.313 2.0027 58.6332 2.00807 58.9527L1.00821 58.9695L0.00834801 58.9863C0.00279006 58.6556 0 58.3242 0 57.9922ZM1.07346 60.9119L0.0747332 60.9623C0.108167 61.6251 0.152727 62.285 0.208232 62.9418L1.20468 62.8576L2.20113 62.7734C2.14753 62.1391 2.10449 61.5018 2.07219 60.8615L1.07346 60.9119ZM1.40153 64.794L0.408524 64.9121C0.486599 65.5688 0.575648 66.2221 0.675481 66.8719L1.66388 66.7201L2.65229 66.5682C2.5559 65.9409 2.46993 65.3101 2.39454 64.6759L1.40153 64.794ZM1.99278 68.6408L1.01016 68.8265C1.13307 69.477 1.26684 70.1236 1.41127 70.7662L2.38693 70.5469L3.36259 70.3276C3.22317 69.7073 3.09404 69.0831 2.97539 68.4551L1.99278 68.6408ZM2.84589 72.4366L1.87834 72.6892C2.04562 73.3298 2.22358 73.966 2.41201 74.5977L3.37029 74.3119L4.32857 74.026C4.14669 73.4163 3.97491 72.8022 3.81344 72.1839L2.84589 72.4366ZM3.95875 76.1674L3.01089 76.4861C3.22156 77.1128 3.44264 77.7346 3.67393 78.3515L4.61028 78.0005L5.54663 77.6494C5.32338 77.0539 5.10997 76.4537 4.90662 75.8488L3.95875 76.1674ZM5.3248 79.8108L4.40107 80.1939C4.65443 80.8048 4.91792 81.4105 5.19135 82.0107L6.10137 81.5962L7.01139 81.1816C6.74744 80.6022 6.49309 80.0175 6.24852 79.4278L5.3248 79.8108ZM6.93837 83.353L6.0431 83.7985C6.33749 84.3901 6.64169 84.9759 6.95548 85.5558L7.83497 85.0799L8.71446 84.604C8.41152 84.0441 8.11784 83.4786 7.83364 82.9075L6.93837 83.353ZM8.79084 86.7763L7.92814 87.282C8.26233 87.8521 8.60597 88.4159 8.95885 88.9733L9.80377 88.4385L10.6487 87.9036C10.308 87.3654 9.97618 86.821 9.65353 86.2706L8.79084 86.7763ZM10.8726 90.0648L10.0464 90.6282C10.4187 91.1741 10.8 91.7133 11.1901 92.2456L11.9967 91.6544L12.8032 91.0632C12.4264 90.5492 12.0583 90.0285 11.6988 89.5014L10.8726 90.0648ZM13.1741 93.2047L12.3882 93.823C12.7965 94.342 13.2135 94.854 13.6389 95.3586L14.4034 94.7139L15.168 94.0693C14.7571 93.5821 14.3544 93.0877 13.9601 92.5864L13.1741 93.2047ZM15.6834 96.1807L14.9412 96.8509C15.3838 97.341 15.8346 97.8235 16.2935 98.2982L17.0125 97.6032L17.7315 96.9082C17.2884 96.4497 16.853 95.9838 16.4256 95.5105L15.6834 96.1807ZM18.389 98.9797L17.694 99.6987C18.1687 100.158 18.6512 100.608 19.1413 101.051L19.8115 100.309L20.4817 99.5666C20.0084 99.1392 19.5425 98.7038 19.084 98.2607L18.389 98.9797ZM21.2782 101.589L20.6336 102.353C21.1382 102.779 21.6501 103.196 22.1692 103.604L22.7875 102.818L23.4058 102.032C22.9045 101.638 22.4101 101.235 21.9229 100.824L21.2782 101.589ZM24.3378 103.996L23.7466 104.802C24.2789 105.192 24.8181 105.574 25.364 105.946L25.9274 105.12L26.4908 104.293C25.9637 103.934 25.443 103.566 24.929 103.189L24.3378 103.996ZM27.5537 106.188L27.0189 107.033C27.5763 107.386 28.1401 107.73 28.7102 108.064L29.2159 107.201L29.7216 106.339C29.1712 106.016 28.6268 105.684 28.0886 105.343L27.5537 106.188ZM30.9123 108.157L30.4364 109.037C31.0163 109.35 31.6021 109.655 32.1937 109.949L32.6392 109.054L33.0541 108.22L33.0421 108.137C32.4855 107.86 31.9341 107.573 31.3882 107.278L30.9123 108.157ZM57.4788 115.99L58.1048 113.992C58.3906 113.992 58.6758 113.989 58.9605 113.984L58.9773 114.984L58.9941 115.984C58.6634 115.989 58.332 115.992 58 115.992C57.8261 115.992 57.6524 115.991 57.4788 115.99ZM60.9197 114.919L60.9701 115.917C61.6329 115.884 62.2928 115.839 62.9496 115.784L62.8654 114.788L62.7812 113.791C62.1469 113.845 61.5096 113.888 60.8694 113.92L60.9197 114.919ZM64.8018 114.591L64.9199 115.584C65.5766 115.506 66.23 115.417 66.8798 115.317L66.7279 114.328L66.5761 113.34C65.9487 113.436 65.3179 113.522 64.6838 113.598L64.8018 114.591ZM68.6486 113.999L68.8343 114.982C69.4848 114.859 70.1314 114.725 70.774 114.581L70.5547 113.605L70.3354 112.63C69.7151 112.769 69.0909 112.898 68.463 113.017L68.6486 113.999ZM72.4444 113.146L72.6971 114.114C73.3376 113.947 73.9738 113.769 74.6055 113.58L74.3197 112.622L74.0339 111.664C73.4241 111.846 72.81 112.017 72.1917 112.179L72.4444 113.146ZM76.1753 112.033L76.4939 112.981C77.1206 112.771 77.7425 112.55 78.3593 112.318L78.0083 111.382L77.6572 110.446C77.0617 110.669 76.4615 110.882 75.8566 111.086L76.1753 112.033ZM79.8186 110.667L80.2017 111.591C80.8127 111.338 81.4184 111.074 82.0186 110.801L81.604 109.891L81.1894 108.981C80.61 109.245 80.0253 109.499 79.4356 109.744L79.8186 110.667ZM83.3608 109.054L83.8063 109.949C84.3979 109.655 84.9837 109.35 85.5636 109.037L85.0877 108.157L84.6118 107.278C84.0519 107.581 83.4864 107.874 82.9153 108.159L83.3608 109.054ZM86.7841 107.201L87.2898 108.064C87.8599 107.73 88.4237 107.386 88.9812 107.033L88.4463 106.188L87.9114 105.343C87.3732 105.684 86.8288 106.016 86.2784 106.339L86.7841 107.201ZM90.0726 105.12L90.636 105.946C91.1819 105.574 91.7211 105.192 92.2534 104.802L91.6622 103.996L91.071 103.189C90.557 103.566 90.0363 103.934 89.5092 104.293L90.0726 105.12ZM93.2125 102.818L93.8308 103.604C94.3499 103.196 94.8618 102.779 95.3664 102.353L94.7218 101.589L94.0771 100.824C93.5899 101.235 93.0955 101.638 92.5942 102.032L93.2125 102.818ZM96.1885 100.309L96.8587 101.051C97.3488 100.608 97.8313 100.158 98.306 99.6987L97.611 98.9797L96.916 98.2607C96.4576 98.7038 95.9916 99.1392 95.5183 99.5666L96.1885 100.309ZM98.9875 97.6032L99.7065 98.2982C100.165 97.8235 100.616 97.341 101.059 96.8509L100.317 96.1807L99.5744 95.5105C99.147 95.9838 98.7116 96.4497 98.2685 96.9082L98.9875 97.6032ZM101.597 94.7139L102.361 95.3586C102.787 94.854 103.204 94.3421 103.612 93.823L102.826 93.2047L102.04 92.5864C101.646 93.0877 101.243 93.582 100.832 94.0693L101.597 94.7139ZM105.954 90.6282C105.581 91.1741 105.2 91.7133 104.81 92.2456L104.003 91.6544L103.197 91.0632C103.574 90.5492 103.942 90.0285 104.301 89.5014L105.127 90.0648L105.954 90.6282ZM106.196 88.4384L107.041 88.9733C107.394 88.4159 107.738 87.8521 108.072 87.282L107.209 86.7763L106.346 86.2706C106.024 86.8209 105.692 87.3653 105.351 87.9036L106.196 88.4384ZM108.165 85.0799L109.045 85.5558C109.358 84.9759 109.663 84.3901 109.957 83.7985L109.062 83.353L108.166 82.9075C107.882 83.4786 107.588 84.0441 107.286 84.604L108.165 85.0799ZM109.899 81.5962L110.809 82.0107C111.082 81.4105 111.346 80.8048 111.599 80.1939L110.675 79.8108L109.751 79.4278C109.507 80.0175 109.253 80.6022 108.989 81.1816L109.899 81.5962ZM111.39 78.0004L112.326 78.3515C112.557 77.7346 112.778 77.1127 112.989 76.4861L112.041 76.1674L111.093 75.8488C110.89 76.4537 110.677 77.0539 110.453 77.6494L111.39 78.0004ZM112.63 74.3119L113.588 74.5977C113.776 73.966 113.954 73.3298 114.122 72.6892L113.154 72.4365L112.187 72.1839C112.025 72.8021 111.853 73.4163 111.671 74.026L112.63 74.3119ZM113.613 70.5469L114.589 70.7662C114.733 70.1236 114.867 69.4769 114.99 68.8264L114.007 68.6408L113.025 68.4551C112.906 69.0831 112.777 69.7073 112.637 70.3276L113.613 70.5469ZM114.336 66.7201L115.325 66.8719C115.424 66.2221 115.513 65.5687 115.591 64.912L114.598 64.794L113.605 64.6759C113.53 65.31 113.444 65.9409 113.348 66.5682L114.336 66.7201ZM114.795 62.8575L115.792 62.9417C115.847 62.285 115.892 61.6251 115.925 60.9623L114.927 60.9119L113.928 60.8615C113.896 61.5017 113.852 62.1391 113.799 62.7733L114.795 62.8575Z" fill="#C3911A"/>
<path d="M37.2594 58.5984V36.1885L48.343 39.3857C52.852 40.6864 57.6367 40.6864 62.1457 39.3857L73.2293 36.1885V58.5984C73.2293 68.5312 65.1772 76.5834 55.2444 76.5834C45.3115 76.5834 37.2594 68.5312 37.2594 58.5984Z" fill="#F5F3EF" stroke="black" stroke-width="1.8"/>
<path d="M45.8008 52.6972C45.8008 50.7416 47.3861 49.1562 49.3417 49.1562C51.2973 49.1562 52.8826 50.7416 52.8826 52.6972H45.8008Z" fill="#C3911A"/>
<path d="M62.3504 61.0071C62.3402 63.6697 60.1736 65.8199 57.511 65.8098L55.3399 65.8015C52.6773 65.7914 50.5271 63.6247 50.5372 60.9621L62.3504 61.0071Z" fill="#C3911A"/>
<path d="M58.7852 52.6972C58.7852 50.7416 60.3705 49.1562 62.3261 49.1562C64.2817 49.1562 65.867 50.7416 65.867 52.6972H58.7852Z" fill="#C3911A"/>
<path d="M63.2281 84.569V62.8903L77.6041 59.3751C80.3558 58.7023 83.2316 58.7236 85.973 59.4372L99.1981 62.8795V84.569C99.1981 94.5019 91.1459 102.554 81.2131 102.554C71.2803 102.554 63.2281 94.5019 63.2281 84.569Z" fill="#F5F3EF" stroke="black" stroke-width="1.8"/>
<path d="M77.2683 69.2244C78.6497 71.068 78.275 73.6823 76.4314 75.0637C74.5878 76.4451 71.9735 76.0704 70.5921 74.2268L77.2683 69.2244Z" fill="#C3911A"/>
<path d="M74.7597 90.2015C74.8212 87.0656 77.4133 84.5733 80.5492 84.6348L83.1063 84.685C86.2423 84.7465 88.7346 87.3386 88.673 90.4745L84.3344 89.4255C82.6389 89.0156 80.8746 88.9803 79.1641 89.3219L74.7597 90.2015Z" fill="#C3911A"/>
<path d="M92.4193 72.5585C91.4995 74.6706 89.0417 75.6372 86.9296 74.7174C84.8175 73.7976 83.8509 71.3398 84.7707 69.2276L92.4193 72.5585Z" fill="#C3911A"/>
<path d="M22.697 91.9138C27.2624 94.5352 27.4262 97.3204 25.0593 103.763C24.4479 107.501 25.1385 109.496 29.0032 113.243C33.7277 116.205 35.8973 116.186 39.8234 117.39C44.8347 118.22 47.815 118.339 53.997 116.798C57.3858 115.432 59.2195 114.976 63.4461 109.688C65.2242 106.944 66.2162 105.373 66.9895 98.431C67.0474 94.9403 66.9895 93.0988 63.4461 86.5815C61.575 83.4471 59.9192 81.2492 54.6041 76.5094C49.1257 72.4042 46.3362 70.5847 35.1154 69.9922C27.4231 70.2381 22.1228 70.2975 17.3982 77.1019C16.2105 78.8125 15.3446 80.6568 16.6586 85.989C17.7067 87.7665 19.0374 89.7878 22.697 91.9138Z" fill="#F5F3EF" stroke="black" stroke-width="1.8"/>
<path d="M20.9908 91.6666C25.7313 94.3972 26.3867 97.1645 23.9289 103.876C23.2941 107.77 24.5333 110.142 28.5462 114.045C33.4519 117.131 35.7047 117.111 39.7813 118.365C44.9847 119.229 48.0793 119.354 54.4984 117.748C58.0172 116.325 59.9212 115.85 64.3098 110.342C66.1561 107.483 67.1862 105.847 67.989 98.616C68.0492 94.9799 67.9891 93.0615 64.3098 86.2727C62.3669 83.0077 60.6477 80.7183 55.1288 75.781C49.4403 71.5047 46.5438 69.6094 34.8928 68.9922C26.9056 69.2483 21.402 69.3103 16.4963 76.3981C15.263 78.18 14.2787 80.8796 15.7024 86.434C16.9411 88.5693 17.1909 89.452 20.9908 91.6666Z" stroke="#F5F3EF"/>
<circle cx="26.4787" cy="82.7952" r="4.13109" fill="#C3911A"/>
<circle cx="38.8691" cy="81.0253" r="3.54093" fill="#C3911A"/>
<circle cx="49.4941" cy="85.7441" r="3.54093" fill="#C3911A"/>
<circle cx="57.7558" cy="96.3691" r="3.54093" fill="#C3911A"/>
<circle cx="35.3306" cy="105.807" r="4.72124" fill="#C3911A"/>
</svg>
