<svg width="95" height="101" viewBox="0 0 95 101" fill="none" xmlns="http://www.w3.org/2000/svg">
<path d="M60.6521 79.9535C36.7446 97.2814 11.5952 83.4867 2.6853 60.2183C-6.29415 36.8049 8.09869 16.0096 33.162 6.48594C58.0041 -2.55705 82.3445 -2.15932 90.3566 13.257C98.4718 28.3167 84.8684 62.5277 60.6521 79.9535Z" fill="#EED7C5"/>
<path d="M83.8066 92.3189C89.8699 87.8011 92.6691 81.2986 90.0588 77.7953C87.4485 74.292 80.417 75.1144 74.3537 79.6322C68.2903 84.1501 65.4911 90.6525 68.1015 94.1558C70.7118 97.6592 77.7432 96.8367 83.8066 92.3189Z" fill="#EED7C5"/>
<path d="M46.5987 70.3536C62.5379 70.3536 75.4591 57.4324 75.4591 41.4932C75.4591 25.5541 62.5379 12.6328 46.5987 12.6328C30.6595 12.6328 17.7383 25.5541 17.7383 41.4932C17.7383 57.4324 30.6595 70.3536 46.5987 70.3536Z" fill="white"/>
<path d="M46.5967 71.0755C30.2856 71.0755 17.0156 57.8056 17.0156 41.4937C17.0156 25.1833 30.2856 11.9141 46.5967 11.9141C62.9079 11.9141 76.1778 25.184 76.1778 41.4937C76.1778 57.8056 62.9079 71.0755 46.5967 71.0755ZM46.5967 13.3547C31.0803 13.3547 18.4563 25.9772 18.4563 41.4944C18.4563 57.0117 31.0803 69.6357 46.5967 69.6357C62.1132 69.6357 74.7372 57.0109 74.7372 41.4944C74.7372 25.978 62.1139 13.3547 46.5967 13.3547Z" fill="#9E421B"/>
<path d="M69.6911 59.537C69.6014 59.537 69.5102 59.5206 69.4212 59.4847C62.5127 56.6954 54.621 55.2211 46.5999 55.2211C38.5789 55.2211 30.688 56.6954 23.7786 59.4847C23.4116 59.6327 22.9922 59.4548 22.8419 59.087C22.6924 58.7177 22.8711 58.2975 23.2404 58.1495C30.3187 55.2914 38.3958 53.7812 46.5999 53.7812C54.8034 53.7812 62.882 55.2914 69.9602 58.1495C70.3296 58.2975 70.5083 58.7177 70.3587 59.087C70.2458 59.3658 69.9767 59.537 69.6911 59.537Z" fill="#9E421B"/>
<path d="M46.5989 29.2221C38.3932 29.2221 30.3161 27.7119 23.2401 24.8561C22.8708 24.7081 22.6928 24.2879 22.8416 23.9186C22.9911 23.5508 23.4105 23.3729 23.7791 23.5209C30.6839 26.3079 38.5756 27.7822 46.5981 27.7822C54.6207 27.7822 62.5123 26.3079 69.4172 23.5209C69.788 23.3729 70.2059 23.5508 70.3547 23.9186C70.5035 24.2879 70.3255 24.7081 69.9562 24.8561C62.8816 27.7119 54.8046 29.2221 46.5989 29.2221Z" fill="#9E421B"/>
<path d="M46.5983 70.9611C38.0398 70.9611 31.0781 57.7174 31.0781 41.4376C31.0781 25.1571 38.0405 11.9141 46.5983 11.9141C55.1569 11.9141 62.1201 25.1578 62.1201 41.4376C62.1201 57.7181 55.1569 70.9611 46.5983 70.9611ZM46.5983 13.3547C38.8345 13.3547 32.518 25.9533 32.518 41.4376C32.518 56.9227 38.8345 69.5205 46.5983 69.5205C54.3622 69.5205 60.6794 56.9219 60.6794 41.4376C60.6794 25.9525 54.3622 13.3547 46.5983 13.3547Z" fill="#9E421B"/>
<path d="M46.5988 71.0805C46.2011 71.0805 45.8789 70.7583 45.8789 70.3606V12.5246C45.8789 12.1269 46.2019 11.8047 46.5988 11.8047C46.9966 11.8047 47.3188 12.1276 47.3188 12.5246V70.3606C47.3195 70.7583 46.9966 71.0805 46.5988 71.0805Z" fill="#9E421B"/>
<path d="M75.4571 42.2211H17.7356C17.3379 42.2211 17.0156 41.8982 17.0156 41.5012C17.0156 41.1035 17.3386 40.7812 17.7356 40.7812H75.4571C75.8549 40.7812 76.1771 41.1042 76.1771 41.5012C76.1771 41.8982 75.8541 42.2211 75.4571 42.2211Z" fill="#9E421B"/>
</svg>
