<svg width="118" height="117" viewBox="0 0 118 117" fill="none" xmlns="http://www.w3.org/2000/svg">
<path d="M15.5 115.57H33.5" stroke="black" stroke-width="1.5"/>
<path d="M36.5 115.57H43.5" stroke="black" stroke-width="1.5"/>
<path d="M45.5 115.57H104.5M113 115.57H104.5M23 115.07C23.526 111.831 25.0964 110.742 31 110.57H99C103.573 111.39 104.351 112.68 104.5 115.57" stroke="black" stroke-width="1.5"/>
<path fill-rule="evenodd" clip-rule="evenodd" d="M116.217 60.1706L117.217 60.1874C117.222 59.8532 117.225 59.5183 117.225 59.1828C117.225 58.8473 117.222 58.5124 117.217 58.1782L116.217 58.195L115.217 58.2118C115.222 58.5348 115.225 58.8585 115.225 59.1828C115.225 59.5071 115.222 59.8308 115.217 60.1538L116.217 60.1706ZM116.151 56.2317L117.149 56.1813C117.116 55.5115 117.071 54.8447 117.015 54.1809L116.018 54.2652L115.022 54.3494C115.076 54.9906 115.119 55.6349 115.152 56.2821L116.151 56.2317ZM115.819 52.3079L116.812 52.1898C116.733 51.5262 116.643 50.8659 116.542 50.2093L115.554 50.3611L114.566 50.513C114.663 51.1472 114.75 51.7849 114.826 52.426L115.819 52.3079ZM115.222 48.4198L116.204 48.2341C116.08 47.5768 115.945 46.9233 115.799 46.2739L114.823 46.4932L113.847 46.7125C113.988 47.3396 114.119 47.9706 114.239 48.6054L115.222 48.4198ZM114.359 44.5832L115.327 44.3305C115.158 43.6832 114.978 43.0403 114.787 42.4019L113.829 42.6877L112.871 42.9736C113.055 43.59 113.228 44.2109 113.392 44.8359L114.359 44.5832ZM113.234 40.8122L114.182 40.4936C113.969 39.8603 113.746 39.2319 113.512 38.6085L112.576 38.9595L111.64 39.3106C111.865 39.9126 112.081 40.5194 112.287 41.1309L113.234 40.8122ZM111.854 37.1297L112.777 36.7467C112.521 36.1292 112.255 35.5172 111.979 34.9106L111.069 35.3252L110.159 35.7397C110.426 36.3255 110.683 36.9166 110.93 37.5128L111.854 37.1297ZM110.223 33.5495L111.118 33.104C110.821 32.5061 110.513 31.9141 110.196 31.3281L109.317 31.804L108.437 32.28C108.743 32.8459 109.04 33.4177 109.328 33.995L110.223 33.5495ZM108.35 30.0894L109.213 29.5837C108.875 29.0076 108.528 28.4378 108.172 27.8745L107.327 28.4094L106.482 28.9443C106.826 29.4884 107.162 30.0387 107.488 30.5951L108.35 30.0894ZM106.246 26.7655L107.072 26.2022C106.696 25.6505 106.311 25.1056 105.917 24.5677L105.11 25.1589L104.304 25.7501C104.684 26.2697 105.057 26.7961 105.42 27.3289L106.246 26.7655ZM103.92 23.5919L104.706 22.9736C104.293 22.4491 103.872 21.9317 103.442 21.4218L102.678 22.0665L101.913 22.7111C102.328 23.2037 102.735 23.7034 103.134 24.2102L103.92 23.5919ZM101.384 20.584L102.126 19.9138C101.679 19.4185 101.223 18.9309 100.759 18.4512L100.04 19.1462L99.3214 19.8412C99.7694 20.3046 100.21 20.7757 100.642 21.2542L101.384 20.584ZM98.6491 17.7549L99.3441 17.0359C98.8644 16.5722 98.3768 16.1166 97.8815 15.6693L97.2113 16.4115L96.5411 17.1537C97.0196 17.5858 97.4907 18.0259 97.9541 18.4739L98.6491 17.7549ZM95.7288 15.1178L96.3735 14.3533C95.8636 13.9233 95.3462 13.5019 94.8217 13.0893L94.2034 13.8753L93.5851 14.6612C94.0918 15.0598 94.5916 15.4669 95.0842 15.8823L95.7288 15.1178ZM92.6364 12.6852L93.2276 11.8786C92.6897 11.4843 92.1448 11.099 91.5931 10.7228L91.0298 11.549L90.4664 12.3752C90.9992 12.7386 91.5256 13.1108 92.0452 13.4917L92.6364 12.6852ZM89.3859 10.4687L89.9208 9.62376C89.3575 9.26715 88.7877 8.91989 88.2116 8.58217L87.7059 9.44487L87.2002 10.3076C87.7566 10.6337 88.3069 10.9692 88.851 11.3136L89.3859 10.4687ZM85.9912 8.47873L86.4672 7.59924C85.8812 7.28214 85.2891 6.97473 84.6913 6.67723L84.2458 7.5725L83.8003 8.46777C84.3776 8.75508 84.9494 9.05196 85.5153 9.35822L85.9912 8.47873ZM82.4701 6.7265L82.8847 5.81648C82.2781 5.54017 81.666 5.27389 81.0486 5.01786L80.6656 5.94158L80.2825 6.86531C80.8787 7.11255 81.4698 7.36969 82.0556 7.63652L82.4701 6.7265ZM78.8358 5.21939L79.1868 4.28304C78.5634 4.04931 77.935 3.82589 77.3017 3.61299L76.983 4.56086L76.6644 5.50873C77.2759 5.71431 77.8827 5.93004 78.4847 6.15574L78.8358 5.21939ZM75.1075 3.96607L75.3934 3.0078C74.755 2.81738 74.1121 2.63754 73.4647 2.46849L73.2121 3.43604L72.9594 4.40359C73.5844 4.56683 74.2053 4.74048 74.8217 4.92435L75.1075 3.96607ZM71.3021 2.97214L71.5214 1.99649C70.872 1.85053 70.2185 1.71535 69.5612 1.59114L69.3755 2.57375L69.1899 3.55637C69.8247 3.67632 70.4557 3.80686 71.0828 3.9478L71.3021 2.97214ZM67.4342 2.24133L67.586 1.25293C66.9294 1.15204 66.2691 1.06205 65.6054 0.98315L65.4874 1.97616L65.3693 2.96916C66.0104 3.04538 66.6481 3.1323 67.2823 3.22973L67.4342 2.24133ZM63.5301 1.77719L63.6143 0.780743C62.9506 0.724652 62.2838 0.679621 61.614 0.645835L61.5636 1.64457L61.5132 2.6433C62.1604 2.67594 62.8047 2.71945 63.4459 2.77364L63.5301 1.77719ZM59.6003 1.57861L59.6171 0.578749C59.2829 0.573132 58.948 0.570312 58.6125 0.570312C58.277 0.570312 57.9421 0.573132 57.6079 0.578749L57.6247 1.57861L57.6415 2.57847C57.9645 2.57304 58.2882 2.57031 58.6125 2.57031C58.9368 2.57031 59.2605 2.57304 59.5835 2.57847L59.6003 1.57861ZM55.6614 1.64457L55.611 0.645835C54.9412 0.679621 54.2743 0.724652 53.6106 0.780743L53.6948 1.77719L53.7791 2.77364C54.4202 2.71945 55.0645 2.67594 55.7118 2.6433L55.6614 1.64457ZM51.7376 1.97616L51.6195 0.98315C50.9559 1.06205 50.2956 1.15204 49.639 1.25293L49.7908 2.24133L49.9427 3.22973C50.5769 3.13229 51.2146 3.04538 51.8557 2.96916L51.7376 1.97616ZM47.8495 2.57376L47.6638 1.59114C47.0064 1.71535 46.353 1.85053 45.7036 1.99649L45.9229 2.97214L46.1422 3.9478C46.7693 3.80686 47.4003 3.67632 48.0351 3.55637L47.8495 2.57376ZM44.0129 3.43604L43.7602 2.46849C43.1129 2.63754 42.47 2.81738 41.8316 3.0078L42.1174 3.96608L42.4033 4.92435C43.0197 4.74048 43.6405 4.56683 44.2656 4.40359L44.0129 3.43604ZM40.2419 4.56086L39.9233 3.61299C39.29 3.82589 38.6616 4.04931 38.0382 4.28305L38.3892 5.2194L38.7403 6.15574C39.3423 5.93005 39.9491 5.71431 40.5606 5.50873L40.2419 4.56086ZM36.5594 5.94159L36.1763 5.01786C35.5589 5.27389 34.9468 5.54017 34.3403 5.81649L34.7549 6.72651L35.1694 7.63653C35.7552 7.36969 36.3462 7.11255 36.9424 6.86531L36.5594 5.94159ZM32.9792 7.5725L32.5336 6.67723C31.9358 6.97473 31.3438 7.28214 30.7578 7.59925L31.2337 8.47874L31.7096 9.35822C32.2756 9.05197 32.8474 8.75508 33.4247 8.46777L32.9792 7.5725ZM29.5191 9.44487L29.0134 8.58218C28.4373 8.91989 27.8675 9.26716 27.3042 9.62376L27.8391 10.4687L28.3739 11.3136C28.918 10.9692 29.4684 10.6337 30.0248 10.3076L29.5191 9.44487ZM26.1952 11.549L25.6318 10.7228C25.0802 11.099 24.5353 11.4843 23.9974 11.8786L24.5886 12.6852L25.1798 13.4917C25.6994 13.1108 26.2257 12.7386 26.7586 12.3752L26.1952 11.549ZM23.0216 13.8753L22.4033 13.0893C21.8788 13.5019 21.3614 13.9233 20.8515 14.3533L21.4961 15.1178L22.1408 15.8823C22.6334 15.4669 23.1331 15.0598 23.6399 14.6612L23.0216 13.8753ZM20.0137 16.4115L19.3435 15.6693C18.8482 16.1166 18.3606 16.5722 17.8809 17.0359L18.5759 17.7549L19.2709 18.4739C19.7343 18.0259 20.2054 17.5858 20.6839 17.1537L20.0137 16.4115ZM17.1846 19.1462L16.4656 18.4512C16.0018 18.9309 15.5463 19.4185 15.099 19.9138L15.8412 20.584L16.5834 21.2542C17.0154 20.7757 17.4556 20.3046 17.9036 19.8412L17.1846 19.1462ZM14.5475 22.0665L13.783 21.4218C13.353 21.9317 12.9316 22.4491 12.519 22.9736L13.3049 23.5919L14.0909 24.2102C14.4895 23.7034 14.8966 23.2037 15.312 22.7111L14.5475 22.0665ZM12.1148 25.1589L11.3083 24.5677C10.914 25.1056 10.5287 25.6505 10.1525 26.2022L10.9787 26.7655L11.8049 27.3289C12.1683 26.7961 12.5405 26.2697 12.9214 25.7501L12.1148 25.1589ZM9.89837 28.4094L9.05345 27.8745C8.69684 28.4378 8.34957 29.0076 8.01186 29.5837L8.87455 30.0894L9.73725 30.5951C10.0634 30.0387 10.3988 29.4884 10.7433 28.9443L9.89837 28.4094ZM7.90842 31.804L7.02893 31.3281C6.71183 31.9141 6.40442 32.5061 6.10692 33.104L7.00218 33.5495L7.89745 33.995C8.18476 33.4177 8.48165 32.8459 8.78791 32.28L7.90842 31.804ZM6.15619 35.3252L5.24617 34.9106C4.96985 35.5172 4.70358 36.1292 4.44755 36.7467L5.37127 37.1297L6.295 37.5128C6.54223 36.9166 6.79937 36.3255 7.06621 35.7397L6.15619 35.3252ZM4.64908 38.9595L3.71273 38.6085C3.479 39.2319 3.25558 39.8603 3.04268 40.4936L3.99055 40.8122L4.93842 41.1309C5.14399 40.5194 5.35973 39.9126 5.58543 39.3106L4.64908 38.9595ZM3.39576 42.6878L2.43748 42.4019C2.24706 43.0403 2.06723 43.6832 1.89818 44.3306L2.86573 44.5832L3.83328 44.8359C3.99651 44.2109 4.17017 43.59 4.35404 42.9736L3.39576 42.6878ZM2.40183 46.4932L1.42617 46.2739C1.28021 46.9233 1.14503 47.5768 1.02083 48.2341L2.00344 48.4198L2.98606 48.6054C3.106 47.9706 3.23655 47.3396 3.37749 46.7125L2.40183 46.4932ZM1.67102 50.3611L0.682616 50.2093C0.581728 50.8659 0.491738 51.5262 0.412838 52.1899L1.40584 52.3079L2.39885 52.426C2.47506 51.7849 2.56198 51.1472 2.65942 50.513L1.67102 50.3611ZM1.20688 54.2652L0.21043 54.1809C0.15434 54.8447 0.109309 55.5115 0.0755225 56.1813L1.07425 56.2317L2.07298 56.2821C2.10563 55.6349 2.14914 54.9906 2.20333 54.3494L1.20688 54.2652ZM0 59.1828C0 58.8473 0.00281952 58.5124 0.00843617 58.1782L1.00829 58.195L2.00815 58.2118C2.00273 58.5348 2 58.8585 2 59.1828C2 59.5071 2.00273 59.8308 2.00815 60.1538L1.00829 60.1706L0.00843617 60.1874C0.00281952 59.8532 0 59.5183 0 59.1828ZM1.07425 62.1339L0.0755223 62.1843C0.109309 62.8541 0.15434 63.521 0.210431 64.1847L1.20688 64.1005L2.20333 64.0162C2.14914 63.375 2.10563 62.7308 2.07298 62.0835L1.07425 62.1339ZM1.40584 66.0577L0.412838 66.1758C0.491738 66.8394 0.581727 67.4997 0.682615 68.1563L1.67102 68.0045L2.65942 67.8526C2.56198 67.2184 2.47506 66.5807 2.39885 65.9396L1.40584 66.0577ZM2.00344 69.9458L1.02083 70.1315C1.14503 70.7888 1.28021 71.4423 1.42617 72.0917L2.40183 71.8724L3.37749 71.6531C3.23655 71.026 3.106 70.395 2.98606 69.7602L2.00344 69.9458ZM2.86573 73.7824L1.89818 74.0351C2.06723 74.6824 2.24706 75.3253 2.43749 75.9637L3.39576 75.6779L4.35404 75.392C4.17017 74.7756 3.99651 74.1548 3.83328 73.5297L2.86573 73.7824ZM3.99055 77.5534L3.04268 77.872C3.25558 78.5053 3.479 79.1337 3.71273 79.7571L4.64908 79.4061L5.58543 79.055C5.35973 78.453 5.144 77.8462 4.93842 77.2347L3.99055 77.5534ZM5.37127 81.2359L4.44755 81.619C4.70358 82.2364 4.96986 82.8484 5.24617 83.455L6.15619 83.0404L7.06621 82.6259C6.79938 82.0401 6.54224 81.4491 6.295 80.8529L5.37127 81.2359ZM7.00219 84.8161L6.10692 85.2617C6.40442 85.8595 6.71183 86.4515 7.02893 87.0375L7.90842 86.5616L8.78791 86.0856C8.48165 85.5197 8.18477 84.9479 7.89746 84.3706L7.00219 84.8161ZM8.87456 88.2762L8.01187 88.7819C8.34958 89.358 8.69685 89.9278 9.05345 90.4911L9.89837 89.9562L10.7433 89.4213C10.3988 88.8773 10.0634 88.3269 9.73725 87.7705L8.87456 88.2762ZM10.9787 91.6001L10.1525 92.1635C10.5287 92.7151 10.914 93.26 11.3083 93.7979L12.1148 93.2067L12.9214 92.6155C12.5405 92.0959 12.1683 91.5696 11.8049 91.0367L10.9787 91.6001ZM13.3049 94.7737L12.519 95.392C12.9316 95.9165 13.353 96.4339 13.783 96.9438L14.5475 96.2992L15.312 95.6545C14.8966 95.1619 14.4895 94.6622 14.0909 94.1554L13.3049 94.7737ZM16.4656 99.9144C16.0019 99.4347 15.5463 98.9471 15.099 98.4518L15.8412 97.7816L16.5834 97.1114C17.0154 97.5899 17.4556 98.061 17.9036 98.5244L17.1846 99.2194L16.4656 99.9144ZM18.5759 100.611L17.8809 101.33C18.3606 101.793 18.8482 102.249 19.3435 102.696L20.0137 101.954L20.6839 101.212C20.2054 100.78 19.7343 100.34 19.2709 99.8917L18.5759 100.611ZM21.4961 103.248L20.8515 104.012C21.3614 104.442 21.8788 104.864 22.4033 105.276L23.0216 104.49L23.6399 103.704C23.1331 103.306 22.6334 102.899 22.1408 102.483L21.4961 103.248ZM24.5886 105.68L23.9974 106.487C24.5353 106.881 25.0802 107.267 25.6318 107.643L26.1952 106.817L26.7586 105.99C26.2257 105.627 25.6994 105.255 25.1798 104.874L24.5886 105.68ZM27.8391 107.897L27.3042 108.742C27.535 108.888 27.767 109.033 28 109.176V107.643L27.8391 107.897ZM87.7317 108.965L88 108.07L87.9244 107.626C88.2352 107.438 88.5441 107.246 88.851 107.052L89.3859 107.897L89.9208 108.742C89.3575 109.098 88.7877 109.446 88.2116 109.783L87.7317 108.965ZM91.0298 106.817L91.5931 107.643C92.1448 107.267 92.6897 106.881 93.2276 106.487L92.6364 105.68L92.0452 104.874C91.5256 105.255 90.9992 105.627 90.4664 105.99L91.0298 106.817ZM94.2034 104.49L94.8217 105.276C95.3462 104.864 95.8636 104.442 96.3735 104.012L95.7288 103.248L95.0842 102.483C94.5916 102.899 94.0919 103.306 93.5851 103.704L94.2034 104.49ZM97.2113 101.954L97.8815 102.696C98.3768 102.249 98.8644 101.793 99.3441 101.33L98.6491 100.611L97.9541 99.8917C97.4907 100.34 97.0196 100.78 96.5411 101.212L97.2113 101.954ZM100.04 99.2194L100.759 99.9144C101.223 99.4347 101.679 98.9471 102.126 98.4518L101.384 97.7816L100.642 97.1114C100.21 97.5899 99.7694 98.061 99.3214 98.5244L100.04 99.2194ZM102.678 96.2992L103.442 96.9438C103.872 96.4339 104.293 95.9165 104.706 95.392L103.92 94.7737L103.134 94.1554C102.735 94.6622 102.328 95.1619 101.913 95.6545L102.678 96.2992ZM105.11 93.2067L105.917 93.7979C106.311 93.26 106.696 92.7151 107.072 92.1635L106.246 91.6001L105.42 91.0367C105.057 91.5695 104.684 92.0959 104.304 92.6155L105.11 93.2067ZM107.327 89.9562L108.172 90.4911C108.528 89.9278 108.875 89.358 109.213 88.7819L108.35 88.2762L107.488 87.7705C107.162 88.3269 106.826 88.8772 106.482 89.4213L107.327 89.9562ZM109.317 86.5616L110.196 87.0375C110.513 86.4515 110.821 85.8595 111.118 85.2616L110.223 84.8161L109.328 84.3706C109.04 84.9479 108.743 85.5197 108.437 86.0856L109.317 86.5616ZM111.069 83.0404L111.979 83.455C112.255 82.8484 112.521 82.2364 112.777 81.6189L111.854 81.2359L110.93 80.8528C110.683 81.4491 110.426 82.0401 110.159 82.6259L111.069 83.0404ZM112.576 79.4061L113.512 79.7571C113.746 79.1337 113.969 78.5053 114.182 77.872L113.234 77.5534L112.287 77.2347C112.081 77.8462 111.865 78.453 111.64 79.055L112.576 79.4061ZM113.829 75.6779L114.787 75.9637C114.978 75.3253 115.158 74.6824 115.327 74.0351L114.359 73.7824L113.392 73.5297C113.228 74.1547 113.055 74.7756 112.871 75.392L113.829 75.6779ZM114.823 71.8724L115.799 72.0917C115.945 71.4423 116.08 70.7888 116.204 70.1315L115.222 69.9458L114.239 69.7602C114.119 70.395 113.988 71.026 113.847 71.6531L114.823 71.8724ZM116.812 66.1758C116.733 66.8394 116.643 67.4997 116.542 68.1563L115.554 68.0045L114.566 67.8526C114.663 67.2184 114.75 66.5807 114.826 65.9396L115.819 66.0577L116.812 66.1758ZM116.018 64.1005L117.015 64.1847C117.071 63.521 117.116 62.8541 117.149 62.1843L116.151 62.1339L115.152 62.0835C115.119 62.7308 115.076 63.375 115.022 64.0162L116.018 64.1005Z" fill="#C3911A"/>
<path d="M28 110.57C33.4724 84.2598 37.3865 75.0123 45.5 66.0703M51.5 64.5703C43.5333 77.6589 40.401 88.8656 37.5 110.57" stroke="black" stroke-width="1.5"/>
<path d="M51 63.0703L55.358 76.1443C55.4483 76.4153 55.6502 76.6347 55.9128 76.7472L57.9693 77.6286C58.5185 77.864 58.7401 78.5252 58.4437 79.0439L57.1994 81.2214C57.0714 81.4453 57.0349 81.71 57.0975 81.9601L57.4034 83.184C57.621 84.0545 58.7796 84.216 59.2077 83.4275C64.8251 73.0807 64.1601 67.9894 56 61.5703" stroke="black" stroke-width="1.5"/>
<path d="M47 61.5737L35.4084 62.5397C35.1467 62.5615 34.8869 62.4795 34.6852 62.3114L32.7682 60.7139C32.3439 60.3603 31.7134 60.4177 31.3598 60.8419L29.7998 62.7139C29.6099 62.9419 29.3284 63.0737 29.0316 63.0737H27.4073C26.5174 63.0737 26.076 62.0006 26.7171 61.3834C35.5293 52.9007 40.5169 51.3607 48 57.0737" stroke="black" stroke-width="1.5"/>
<path d="M49 57.0703L46.6003 45.5517C46.537 45.2481 46.6182 44.9324 46.82 44.697L48.7434 42.453C49.1416 41.9884 49.033 41.2784 48.5142 40.9542L45.8259 39.274C45.6161 39.1429 45.4624 38.9386 45.3944 38.7007L45.2516 38.2008C44.9955 37.3044 45.9946 36.5874 46.7512 37.132C55.4996 43.4293 58.5653 48.7993 53 59.0703" stroke="black" stroke-width="1.5"/>
<path d="M55.5 61.5721L68.5642 62.0558C68.8421 62.066 69.1117 61.9602 69.3083 61.7636L70.71 60.3619C71.1314 59.9405 71.8256 59.9789 72.1979 60.4443L73.1605 61.6475C73.3722 61.9121 73.7036 62.0515 74.0408 62.0178L76.0081 61.8211C76.9069 61.7312 77.233 60.5906 76.5134 60.0446C67.3158 53.0664 61.2688 50.1115 53 59.0723" stroke="black" stroke-width="1.5"/>
<circle cx="49" cy="59.5703" r="3" fill="#C3911A" stroke="black" stroke-width="1.5"/>
<circle cx="48" cy="64.5703" r="3" fill="#C3911A" stroke="black" stroke-width="1.5"/>
<circle cx="53" cy="61.5703" r="3" fill="#C3911A" stroke="black" stroke-width="1.5"/>
<rect x="59.75" y="89.3203" width="28.5" height="20.5" rx="3.25" stroke="black" stroke-width="1.5"/>
<path d="M70 88.5703V87.0703C70 85.9657 70.8954 85.0703 72 85.0703H76.5C77.6046 85.0703 78.5 85.9657 78.5 87.0703V89.0703" stroke="black" stroke-width="1.5"/>
<path d="M60 98.5703H88.5" stroke="black" stroke-width="1.5"/>
<rect x="66.75" y="96.3203" width="2.5" height="6.5" rx="1.25" fill="#F5F3EF" stroke="black" stroke-width="1.5"/>
<rect x="79.75" y="96.3203" width="2.5" height="6.5" rx="1.25" fill="#F5F3EF" stroke="black" stroke-width="1.5"/>
</svg>
