<svg width="130" height="115" viewBox="0 0 130 115" fill="none" xmlns="http://www.w3.org/2000/svg">
<path fill-rule="evenodd" clip-rule="evenodd" d="M123.59 59.5988L124.584 59.4887C124.547 59.1545 124.507 58.8199 124.465 58.485C124.422 58.1501 124.376 57.8163 124.328 57.4835L123.338 57.6269L122.349 57.7702C122.395 58.092 122.439 58.4147 122.481 58.7385C122.522 59.0622 122.561 59.3857 122.596 59.7088L123.59 59.5988ZM123.022 55.6757L124.006 55.4992C123.887 54.835 123.757 54.1752 123.617 53.52L122.639 53.7298L121.661 53.9396C121.797 54.5727 121.923 55.2103 122.038 55.8522L123.022 55.6757ZM122.191 51.8016L123.161 51.5587C122.997 50.9064 122.823 50.2589 122.639 49.6164L121.678 49.8923L120.717 50.1682C120.895 50.7889 121.063 51.4144 121.221 52.0446L122.191 51.8016ZM121.395 45.7838C121.624 46.4132 121.842 47.0482 122.05 47.6884L121.099 47.9971L120.147 48.3058C119.947 47.6874 119.736 47.0741 119.515 46.4661L120.455 46.125L121.395 45.7838ZM119.749 44.2777L120.676 43.9045C120.425 43.28 120.164 42.6613 119.892 42.0485L118.978 42.4534L118.064 42.8584C118.326 43.4503 118.578 44.0479 118.821 44.651L119.749 44.2777ZM118.136 38.4252C118.448 39.0176 118.752 39.6163 119.045 40.2211L118.145 40.6573L117.245 41.0936C116.962 40.5094 116.669 39.9312 116.367 39.359L117.251 38.8921L118.136 38.4252ZM116.297 37.1579L117.165 36.6608C116.831 36.0773 116.487 35.5004 116.134 34.9303L115.284 35.4568L114.434 35.9834C114.775 36.5341 115.107 37.0913 115.43 37.6549L116.297 37.1579ZM114.213 33.7924L115.044 33.237C114.671 32.6783 114.289 32.1267 113.898 31.5823L113.086 32.1658L112.274 32.7494C112.652 33.2753 113.021 33.8081 113.381 34.3478L114.213 33.7924ZM111.437 28.3937C111.865 28.9104 112.284 29.4348 112.694 29.9667L111.903 30.5777L111.111 31.1886C110.715 30.6748 110.31 30.1682 109.896 29.669L110.667 29.0314L111.437 28.3937ZM109.379 27.5284L110.127 26.8649C109.681 26.3623 109.227 25.8676 108.765 25.3811L108.04 26.0697L107.315 26.7584C107.761 27.2285 108.2 27.7064 108.631 28.192L109.379 27.5284ZM106.652 24.6575L107.353 23.9446C106.875 23.4737 106.388 23.0111 105.894 22.557L105.217 23.2934L104.541 24.0297C105.018 24.4684 105.488 24.9154 105.951 25.3704L106.652 24.6575ZM103.737 21.9787L104.388 21.2198C103.879 20.7825 103.362 20.354 102.838 19.9344L102.213 20.7149L101.588 21.4954C102.094 21.9009 102.594 22.315 103.086 22.7375L103.737 21.9787ZM100.647 19.5037L101.245 18.7024C100.707 18.3008 100.163 17.9083 99.6112 17.5251L99.0405 18.3462L98.4697 19.1673C99.0025 19.5376 99.5288 19.9169 100.049 20.305L100.647 19.5037ZM97.3958 17.244L97.9383 16.404C97.3746 16.0399 96.8046 15.6853 96.2285 15.3404L95.7148 16.1984L95.2011 17.0563C95.7578 17.3896 96.3086 17.7323 96.8533 18.084L97.3958 17.244ZM93.999 15.2103L94.4832 14.3354C93.8961 14.0105 93.3032 13.6954 92.7046 13.3903L92.2505 14.2813L91.7964 15.1722C92.3746 15.4669 92.9475 15.7714 93.5148 16.0853L93.999 15.2103ZM90.472 13.4126L90.8955 12.5067C90.2879 12.2226 89.6749 11.9487 89.0569 11.6851L88.6646 12.605L88.2723 13.5248C88.8693 13.7794 89.4615 14.0441 90.0485 14.3185L90.472 13.4126ZM86.83 11.8593L87.1906 10.9266C86.5654 10.6849 85.9353 10.4536 85.3008 10.2329L84.9723 11.1774L84.6438 12.1219C85.2568 12.3351 85.8654 12.5585 86.4694 12.792L86.83 11.8593ZM83.0921 10.5595L83.388 9.60423C82.7474 9.40581 82.1026 9.21811 81.4538 9.04132L81.1909 10.0061L80.928 10.971C81.5547 11.1417 82.1775 11.323 82.7962 11.5147L83.0921 10.5595ZM79.2724 9.51868L79.502 8.54539C78.85 8.39161 78.1943 8.24877 77.5352 8.11705L77.3392 9.09766L77.1433 10.0783C77.7799 10.2055 78.4132 10.3435 79.0428 10.492L79.2724 9.51868ZM75.3914 8.74318L75.5535 7.75641C74.8921 7.64777 74.2275 7.55027 73.5599 7.4641L73.4319 8.45587L73.3039 9.44765C73.9487 9.53087 74.5906 9.62503 75.2293 9.72996L75.3914 8.74318ZM71.4664 8.23643L71.5603 7.24085C70.8936 7.17799 70.2242 7.1264 69.5523 7.08627L69.4927 8.08449L69.4331 9.08271C70.082 9.12147 70.7286 9.1713 71.3725 9.23202L71.4664 8.23643ZM67.5126 8.00027L67.538 7.00059C66.8698 6.98364 66.1994 6.97802 65.527 6.9839L65.5357 7.98386L65.5445 8.98382C66.1941 8.97814 66.8418 8.98357 67.4873 8.99994L67.5126 8.00027ZM63.5568 8.03487L63.514 7.03579C62.8445 7.06444 62.1732 7.10453 61.5005 7.15623L61.5771 8.15329L61.6537 9.15035C62.3039 9.10039 62.9526 9.06165 63.5996 9.03396L63.5568 8.03487ZM59.6091 8.33783L59.499 7.3439C59.1648 7.38091 58.8302 7.4208 58.4953 7.46359C58.1605 7.50637 57.8266 7.55189 57.4938 7.60011L57.6372 8.58978L57.7806 9.57944C58.1023 9.53283 58.425 9.48883 58.7488 9.44746C59.0726 9.40609 59.396 9.36753 59.7191 9.33175L59.6091 8.33783ZM55.686 8.90598L55.5095 7.92169C54.8453 8.04082 54.1855 8.17079 53.5303 8.3114L53.7401 9.28914L53.9499 10.2669C54.5831 10.131 55.2207 10.0054 55.8626 9.89027L55.686 8.90598ZM51.812 9.73734L51.569 8.7673C50.9167 8.93067 50.2693 9.10467 49.6268 9.28909L49.9027 10.2503L50.1786 11.2115C50.7992 11.0333 51.4247 10.8652 52.0549 10.7074L51.812 9.73734ZM48.0074 10.8296L47.6987 9.87849C47.0585 10.0863 46.4236 10.3045 45.7941 10.533L46.1353 11.473L46.4765 12.413C47.0844 12.1923 47.6977 11.9815 48.3161 11.7808L48.0074 10.8296ZM44.2881 12.1796L43.9148 11.2518C43.2903 11.5031 42.6716 11.7646 42.0588 12.036L42.4638 12.9503L42.8688 13.8646C43.4606 13.6025 44.0582 13.35 44.6613 13.1073L44.2881 12.1796ZM40.6677 13.7832L40.2314 12.8833C39.6266 13.1765 39.0279 13.4797 38.4355 13.7924L38.9025 14.6767L39.3694 15.561C39.9415 15.259 40.5197 14.9662 41.1039 14.683L40.6677 13.7832ZM37.1682 15.6309L36.6711 14.7632C36.0876 15.0974 35.5107 15.4412 34.9406 15.7943L35.4672 16.6445L35.9937 17.4946C36.5444 17.1535 37.1016 16.8215 37.6652 16.4986L37.1682 15.6309ZM33.8027 17.7153L33.2473 16.8837C32.6886 17.2569 32.137 17.6391 31.5926 18.0303L32.1762 18.8424L32.7597 19.6545C33.2856 19.2766 33.8185 18.9073 34.3581 18.5469L33.8027 17.7153ZM30.588 20.0254L29.977 19.2337C29.4451 19.6442 28.9207 20.0635 28.404 20.4912L29.0417 21.2615L29.6794 22.0318C30.1785 21.6186 30.6851 21.2136 31.199 20.817L30.588 20.0254ZM27.5387 22.5494L26.8752 21.8013C26.3726 22.2471 25.878 22.7011 25.3914 23.1632L26.08 23.8883L26.7687 24.6134C27.2388 24.1669 27.7167 23.7282 28.2023 23.2976L27.5387 22.5494ZM24.6678 25.276L23.9549 24.5747C23.484 25.0534 23.0214 25.54 22.5674 26.0341L23.3037 26.7107L24.04 27.3873C24.4787 26.9099 24.9257 26.4398 25.3807 25.9772L24.6678 25.276ZM21.989 28.191L21.2301 27.5398C20.7929 28.0493 20.3643 28.5661 19.9447 29.0901L20.7252 29.7152L21.5058 30.3403C21.9112 29.834 22.3253 29.3346 22.7479 28.8423L21.989 28.191ZM19.514 31.2813L18.7127 30.683C18.3111 31.2209 17.9186 31.7656 17.5354 32.317L18.3565 32.8877L19.1777 33.4584C19.5479 32.9257 19.9272 32.3993 20.3153 31.8796L19.514 31.2813ZM17.2543 34.5323L16.4143 33.9898C16.0502 34.5535 15.6956 35.1236 15.3507 35.6997L16.2087 36.2134L17.0667 36.727C17.3999 36.1704 17.7426 35.6196 18.0944 35.0749L17.2543 34.5323ZM15.2207 37.9292L14.3457 37.445C14.0208 38.0321 13.7057 38.625 13.4007 39.2235L14.2916 39.6776L15.1825 40.1318C15.4773 39.5535 15.7817 38.9806 16.0956 38.4134L15.2207 37.9292ZM13.4229 41.4561L12.517 41.0326C12.233 41.6403 11.959 42.2532 11.6955 42.8712L12.6153 43.2635L13.5351 43.6559C13.7898 43.0588 14.0544 42.4667 14.3288 41.8796L13.4229 41.4561ZM11.8697 45.0981L10.9369 44.7375C10.6952 45.3628 10.4639 45.9928 10.2432 46.6274L11.1877 46.9558L12.1322 47.2843C12.3454 46.6714 12.5688 46.0628 12.8024 45.4588L11.8697 45.0981ZM10.5698 48.8361L9.61456 48.5402C9.41614 49.1808 9.22844 49.8256 9.05165 50.4744L10.0165 50.7373L10.9813 51.0002C11.1521 50.3735 11.3333 49.7507 11.525 49.1319L10.5698 48.8361ZM9.529 52.6557L8.55571 52.4262C8.40194 53.0781 8.2591 53.7338 8.12738 54.393L9.10799 54.5889L10.0886 54.7849C10.2158 54.1483 10.3538 53.515 10.5023 52.8853L9.529 52.6557ZM8.75351 56.5367L7.76673 56.3746C7.65809 57.036 7.5606 57.7006 7.47443 58.3682L8.4662 58.4962L9.45797 58.6242C9.5412 57.9795 9.63536 57.3376 9.74028 56.6988L8.75351 56.5367ZM8.24676 60.4617L7.25117 60.3679C7.18831 61.0346 7.13673 61.704 7.09659 62.3758L8.09481 62.4355L9.09303 62.4951C9.1318 61.8461 9.18163 61.1995 9.24234 60.5556L8.24676 60.4617ZM8.01059 64.4155L7.01091 64.3902C6.99396 65.0584 6.98834 65.7288 6.99423 66.4012L7.99419 66.3924L8.99415 66.3837C8.98846 65.7341 8.99389 65.0864 9.01027 64.4409L8.01059 64.4155ZM8.0452 68.3714L7.04611 68.4141C7.07477 69.0836 7.11486 69.7549 7.16655 70.4277L8.16361 70.3511L9.16067 70.2745C9.11072 69.6243 9.07197 68.9756 9.04429 68.3286L8.0452 68.3714ZM7.47391 73.4328C7.43113 73.0979 7.39124 72.7634 7.35423 72.4291L8.34815 72.3191L9.34208 72.209C9.37785 72.5321 9.41642 72.8556 9.45778 73.1793C9.49915 73.5031 9.54315 73.8259 9.58977 74.1476L8.6001 74.291L7.61044 74.4344C7.56221 74.1016 7.5167 73.7677 7.47391 73.4328ZM8.91631 76.2421L7.93201 76.4187C8.05114 77.0829 8.18112 77.7426 8.32173 78.3979L9.29947 78.188L10.2772 77.9782C10.1413 77.3451 10.0157 76.7075 9.9006 76.0656L8.91631 76.2421ZM9.74766 80.1162L8.77762 80.3592C8.94099 81.0114 9.11499 81.6589 9.29941 82.3014L10.2606 82.0255L11.2218 81.7496C11.0436 81.1289 10.8755 80.5034 10.7177 79.8732L9.74766 80.1162ZM10.84 83.9208L9.88881 84.2295C10.0966 84.8697 10.3148 85.5046 10.5433 86.1341L11.4833 85.7929L12.4233 85.4517C12.2026 84.8437 11.9918 84.2304 11.7911 83.6121L10.84 83.9208ZM12.1899 87.6401L11.2622 88.0134C11.5134 88.6378 11.7749 89.2565 12.0463 89.8694L12.9606 89.4644L13.875 89.0594C13.6128 88.4675 13.3603 87.8699 13.1176 87.2668L12.1899 87.6401ZM13.7935 91.2605L12.8936 91.6967C13.1869 92.3016 13.49 92.9003 13.8027 93.4926L14.687 93.0257L15.5713 92.5588C15.2693 91.9867 14.9765 91.4084 14.6933 90.8243L13.7935 91.2605ZM15.6412 94.76L14.7735 95.257C15.1077 95.8405 15.4515 96.4174 15.8046 96.9875L16.6548 96.461L17.5049 95.9344C17.1639 95.3838 16.8318 94.8265 16.509 94.2629L15.6412 94.76ZM17.7256 98.1254L16.894 98.6808C17.2672 99.2395 17.6495 99.7911 18.0407 100.336L18.8527 99.752L19.6648 99.1685C19.2869 98.6426 18.9176 98.1097 18.5572 97.57L17.7256 98.1254ZM114.403 99.6009C114.02 100.152 113.627 100.697 113.226 101.235L112.424 100.637L111.623 100.038C112.011 99.5185 112.391 98.9921 112.761 98.4594L113.582 99.0301L114.403 99.6009ZM114.684 97.3855L115.524 97.928C115.888 97.3643 116.243 96.7943 116.588 96.2181L115.73 95.7045L114.872 95.1908C114.539 95.7475 114.196 96.2983 113.844 96.843L114.684 97.3855ZM116.718 93.9887L117.593 94.4729C117.918 93.8858 118.233 93.2928 118.538 92.6943L117.647 92.2402L116.756 91.7861C116.461 92.3643 116.157 92.9372 115.843 93.5045L116.718 93.9887ZM118.516 90.4617L119.421 90.8852C119.706 90.2775 119.979 89.6646 120.243 89.0466L119.323 88.6543L118.403 88.262C118.149 88.859 117.884 89.4512 117.61 90.0382L118.516 90.4617ZM120.069 86.8197L121.002 87.1803C121.243 86.555 121.475 85.925 121.695 85.2904L120.751 84.962L119.806 84.6335C119.593 85.2465 119.37 85.8551 119.136 86.4591L120.069 86.8197ZM121.369 83.0818L122.324 83.3776C122.522 82.7371 122.71 82.0923 122.887 81.4434L121.922 81.1805L120.957 80.9177C120.786 81.5443 120.605 82.1672 120.413 82.7859L121.369 83.0818ZM122.409 79.2621L123.383 79.4917C123.537 78.8397 123.679 78.184 123.811 77.5249L122.83 77.3289L121.85 77.1329C121.723 77.7696 121.585 78.4028 121.436 79.0325L122.409 79.2621ZM123.185 75.3811L124.172 75.5432C124.28 74.8818 124.378 74.2172 124.464 73.5496L123.472 73.4216L122.481 73.2936C122.397 73.9383 122.303 74.5802 122.198 75.219L123.185 75.3811ZM123.692 71.4561L124.687 71.55C124.75 70.8833 124.802 70.2139 124.842 69.542L123.844 69.4824L122.845 69.4227C122.807 70.0717 122.757 70.7183 122.696 71.3622L123.692 71.4561ZM123.928 67.5023L124.928 67.5277C124.945 66.8594 124.95 66.189 124.944 65.5166L123.944 65.5254L122.944 65.5341C122.95 66.1838 122.945 66.8314 122.928 67.4769L123.928 67.5023ZM123.893 63.5465L124.892 63.5037C124.864 62.8342 124.824 62.1629 124.772 61.4901L123.775 61.5667L122.778 61.6433C122.828 62.2936 122.867 62.9423 122.894 63.5892L123.893 63.5465Z" fill="#C3911A"/>
<path d="M45.0163 62.482L65.6026 46.6011C65.7917 46.4552 66.0288 46.3809 66.2671 46.3975C71.2607 46.745 72.9189 48.7237 74.8491 53.4906C74.8676 53.5362 74.8899 53.5819 74.915 53.6243C79.46 61.299 88.0583 64.3446 91.0439 66.733C94.0377 69.1281 89.4333 71.5971 87.4513 71.5231C85.7313 71.459 74.2367 62.8266 70.9528 59.8602C70.473 59.4268 69.5786 59.3082 69.0534 59.6853C65.0745 62.5423 62.6603 64.5795 59.7885 67.8634C59.2924 68.4307 59.5983 69.315 60.3357 69.4702L70.0135 71.5077C70.0625 71.518 70.1146 71.5247 70.1646 71.5277C76.8243 71.9335 75.538 74.8943 74.8867 79.2435C74.8804 79.2855 74.872 79.3257 74.8605 79.3665C74.531 80.5357 69.43 98.6037 67.692 102.659C65.8957 106.85 59.3094 106.85 61.1056 100.863C62.6288 95.785 66.3051 82.0955 67.3874 78.0517C67.5475 77.4534 67.1278 76.86 66.5111 76.8026C60.2489 76.22 57.1415 75.8844 52.7229 75.1157C39.7814 72.4049 40.7373 67.384 44.8742 62.616C44.9168 62.5669 44.9649 62.5217 45.0163 62.482Z" stroke="black" stroke-width="1.5"/>
<circle cx="79.2438" cy="42.7867" r="6.43519" stroke="black" stroke-width="1.5"/>
<circle cx="36.1331" cy="93.0824" r="18.4105" stroke="black" stroke-width="1.5"/>
<circle cx="94.8128" cy="93.0824" r="18.4105" stroke="black" stroke-width="1.5"/>
</svg>
