<svg width="20" height="19" viewBox="0 0 20 19" fill="none" xmlns="http://www.w3.org/2000/svg">
<mask id="mask0_4274_180" style="mask-type:luminance" maskUnits="userSpaceOnUse" x="0" y="0" width="20" height="19">
<path d="M19.4219 0H0.421875V19H19.4219V0Z" fill="white"/>
</mask>
<g mask="url(#mask0_4274_180)">
<path d="M19.42 7.57712C19.4042 7.07711 19.0005 6.67463 18.5001 6.65752L18.3684 6.65593C18.0612 6.65593 17.2084 6.68569 16.1539 6.8909C15.9652 5.46591 15.5829 4.45417 15.5513 4.37342C15.4576 4.1318 15.2689 3.93928 15.0294 3.84016C14.9129 3.79203 14.7895 3.76794 14.6659 3.76794C14.5354 3.76794 14.4053 3.79485 14.2834 3.84836C14.2138 3.87908 13.4465 4.22487 12.4892 4.89873C11.6504 3.30274 10.6798 2.27389 10.6085 2.19949C10.429 2.01201 10.181 1.90625 9.92204 1.90625C9.66296 1.90625 9.41499 2.01201 9.23578 2.19915C9.16453 2.27356 8.19268 3.304 7.35352 4.90155C6.39845 4.22958 5.63025 3.87871 5.56089 3.84802C5.43898 3.79451 5.30881 3.76761 5.17837 3.76761C5.05487 3.76761 4.93138 3.79166 4.81485 3.83982C4.57546 3.93894 4.38702 4.1318 4.29298 4.37308C4.26162 4.45383 3.8794 5.46524 3.6907 6.89057C2.63558 6.68506 1.7831 6.65593 1.47595 6.65593L1.34358 6.65752C0.843571 6.67463 0.439489 7.07711 0.42368 7.57712C0.417965 7.7551 0.316954 11.969 2.93768 14.59C5.332 16.9843 9.08923 17.1056 9.81813 17.1056L9.91569 17.1043C9.91756 17.1043 9.91952 17.1056 9.92138 17.1056C9.92325 17.1056 9.92521 17.1043 9.92708 17.1043L10.0246 17.1056C10.7536 17.1056 14.5109 16.9843 16.9051 14.59C19.5267 11.9693 19.4257 7.7554 19.42 7.57712ZM14.6659 4.71764C14.6659 4.71764 15.0466 5.7145 15.2204 7.11352C14.6701 7.26774 14.0981 7.47485 13.5304 7.75191C13.3832 7.04479 13.1624 6.38202 12.9024 5.77592C13.8726 5.07292 14.6659 4.71764 14.6659 4.71764ZM5.178 4.71764C5.178 4.71764 5.97124 5.07103 6.94213 5.77403C6.68151 6.38202 6.45986 7.04735 6.31261 7.75699C5.74484 7.4799 5.17388 7.26964 4.62321 7.11511C4.79704 5.71547 5.178 4.71764 5.178 4.71764ZM3.60987 13.9184C1.24943 11.558 1.37327 7.60722 1.37327 7.60722C1.37327 7.60722 1.40904 7.60625 1.47554 7.60625C1.97332 7.60625 4.19189 7.68541 6.15805 8.74465C6.13527 8.99451 6.12195 9.24815 6.12195 9.50591C6.12195 12.4303 7.70907 14.9007 8.6182 16.0771C7.25626 15.9153 5.11246 15.421 3.60987 13.9184ZM9.94286 16.1335C9.92447 16.1274 9.90645 16.1217 9.88301 16.1132C9.54859 15.7487 7.07198 12.9307 7.07198 9.50595C7.07198 5.83325 9.92194 2.85599 9.92194 2.85599C9.92194 2.85599 12.7719 5.83325 12.7719 9.50595C12.7719 13.0301 10.155 15.9061 9.94286 16.1335ZM16.2343 13.9184C14.7318 15.421 12.588 15.9153 11.226 16.0771C12.1348 14.9007 13.722 12.4304 13.722 9.50595C13.722 9.24659 13.7086 8.99135 13.6852 8.73994C15.6514 7.68166 17.8709 7.60596 18.3683 7.60596C18.4349 7.60596 18.4706 7.60692 18.4706 7.60692C18.4706 7.60692 18.5944 11.558 16.2343 13.9184Z" fill="#9C4322"/>
<mask id="mask1_4274_180" style="mask-type:luminance" maskUnits="userSpaceOnUse" x="0" y="1" width="20" height="17">
<path d="M19.42 7.57712C19.4042 7.07711 19.0005 6.67463 18.5001 6.65752L18.3684 6.65593C18.0612 6.65593 17.2084 6.68569 16.1539 6.8909C15.9652 5.46591 15.5829 4.45417 15.5513 4.37342C15.4576 4.1318 15.2689 3.93928 15.0294 3.84016C14.9129 3.79203 14.7895 3.76794 14.6659 3.76794C14.5354 3.76794 14.4053 3.79485 14.2834 3.84836C14.2138 3.87908 13.4465 4.22487 12.4892 4.89873C11.6504 3.30274 10.6798 2.27389 10.6085 2.19949C10.429 2.01201 10.181 1.90625 9.92204 1.90625C9.66296 1.90625 9.41499 2.01201 9.23578 2.19915C9.16453 2.27356 8.19268 3.304 7.35352 4.90155C6.39845 4.22958 5.63025 3.87871 5.56089 3.84802C5.43898 3.79451 5.30881 3.76761 5.17837 3.76761C5.05487 3.76761 4.93138 3.79166 4.81485 3.83982C4.57546 3.93894 4.38702 4.1318 4.29298 4.37308C4.26162 4.45383 3.8794 5.46524 3.6907 6.89057C2.63558 6.68506 1.7831 6.65593 1.47595 6.65593L1.34358 6.65752C0.843571 6.67463 0.439489 7.07711 0.42368 7.57712C0.417965 7.7551 0.316954 11.969 2.93768 14.59C5.332 16.9843 9.08923 17.1056 9.81813 17.1056L9.91569 17.1043C9.91756 17.1043 9.91952 17.1056 9.92138 17.1056C9.92325 17.1056 9.92521 17.1043 9.92708 17.1043L10.0246 17.1056C10.7536 17.1056 14.5109 16.9843 16.9051 14.59C19.5267 11.9693 19.4257 7.7554 19.42 7.57712ZM14.6659 4.71764C14.6659 4.71764 15.0466 5.7145 15.2204 7.11352C14.6701 7.26774 14.0981 7.47485 13.5304 7.75191C13.3832 7.04479 13.1624 6.38202 12.9024 5.77592C13.8726 5.07292 14.6659 4.71764 14.6659 4.71764ZM5.178 4.71764C5.178 4.71764 5.97124 5.07103 6.94213 5.77403C6.68151 6.38202 6.45986 7.04735 6.31261 7.75699C5.74484 7.4799 5.17388 7.26964 4.62321 7.11511C4.79704 5.71547 5.178 4.71764 5.178 4.71764ZM3.60987 13.9184C1.24943 11.558 1.37327 7.60722 1.37327 7.60722C1.37327 7.60722 1.40904 7.60625 1.47554 7.60625C1.97332 7.60625 4.19189 7.68541 6.15805 8.74465C6.13527 8.99451 6.12195 9.24815 6.12195 9.50591C6.12195 12.4303 7.70907 14.9007 8.6182 16.0771C7.25626 15.9153 5.11246 15.421 3.60987 13.9184ZM9.94286 16.1335C9.92447 16.1274 9.90645 16.1217 9.88301 16.1132C9.54859 15.7487 7.07198 12.9307 7.07198 9.50595C7.07198 5.83325 9.92194 2.85599 9.92194 2.85599C9.92194 2.85599 12.7719 5.83325 12.7719 9.50595C12.7719 13.0301 10.155 15.9061 9.94286 16.1335ZM16.2343 13.9184C14.7318 15.421 12.588 15.9153 11.226 16.0771C12.1348 14.9007 13.722 12.4304 13.722 9.50595C13.722 9.24659 13.7086 8.99135 13.6852 8.73994C15.6514 7.68166 17.8709 7.60596 18.3683 7.60596C18.4349 7.60596 18.4706 7.60692 18.4706 7.60692C18.4706 7.60692 18.5944 11.558 16.2343 13.9184Z" fill="white"/>
</mask>
<g mask="url(#mask1_4274_180)">
<path d="M18.5002 6.64971L18.53 5.65022L18.5203 5.64989L18.5107 5.64978L18.5002 6.64971ZM18.3684 6.64812L18.379 5.64812H18.3684V6.64812ZM16.154 6.88309L15.2296 7.02355L15.3659 8.05282L16.3208 7.86698L16.154 6.88309ZM15.5513 4.36561L14.6892 4.74934L14.6905 4.75274L15.5513 4.36561ZM14.2835 3.84055L13.9294 2.91524L13.9279 2.9159L14.2835 3.84055ZM12.4892 4.89092L11.6757 5.3815L12.1662 6.3149L13.002 5.7266L12.4892 4.89092ZM7.35355 4.89374L6.84098 5.72955L7.67686 6.31766L8.16724 5.38408L7.35355 4.89374ZM5.56092 3.84021L5.91739 2.91597L5.91497 2.91491L5.56092 3.84021ZM4.29302 4.36527L3.43144 3.98005L3.43099 3.98123L4.29302 4.36527ZM3.69073 6.88276L3.52369 7.86662L4.47881 8.05265L4.61511 7.02316L3.69073 6.88276ZM1.47598 6.64812V5.64805L1.46547 5.64818L1.47598 6.64812ZM1.34361 6.64971L1.33311 5.64977L1.32345 5.64989L1.31381 5.65022L1.34361 6.64971ZM9.81816 17.0977V18.0978L9.82946 18.0976L9.81816 17.0977ZM9.91572 17.0964V16.0964L9.90443 16.0965L9.91572 17.0964ZM9.92711 17.0964L9.93841 16.0964H9.92711V17.0964ZM10.0247 17.0977L10.0134 18.0977H10.0247V17.0977ZM14.666 4.70983L15.5301 4.33129L15.1739 3.39842L14.3058 3.78724L14.666 4.70983ZM15.2205 7.10571L15.4568 8.07315L16.2547 7.84953L16.1459 6.97377L15.2205 7.10571ZM13.5304 7.7441L12.6192 7.96179L12.8698 9.16534L13.9175 8.65411L13.5304 7.7441ZM12.9025 5.76811L12.3794 4.93982L11.7236 5.41498L12.0541 6.1856L12.9025 5.76811ZM5.17803 4.70983L5.53657 3.78651L4.66938 3.40018L4.31387 4.33132L5.17803 4.70983ZM6.94216 5.76622L7.79063 6.18347L8.12101 5.41273L7.46504 4.93776L6.94216 5.76622ZM6.31264 7.74918L5.92553 8.65917L6.97405 9.17088L7.22402 7.96614L6.31264 7.74918ZM4.62325 7.1073L3.69778 6.97545L3.58907 7.85085L4.38664 8.07466L4.62325 7.1073ZM1.3733 7.59941L1.3498 6.59973L0.469744 6.62346L0.440205 7.56585L1.3733 7.59941ZM6.15808 8.73684L7.08728 8.83406L7.14952 8.1516L6.57759 7.84348L6.15808 8.73684ZM8.61823 16.0692L8.51532 17.0631L10.8089 17.3355L9.33743 15.4315L8.61823 16.0692ZM9.94289 16.1256L9.67009 17.0819L10.2066 17.2575L10.6032 16.8325L9.94289 16.1256ZM9.88305 16.1053L9.21711 16.8062L9.37264 16.9757L9.5827 17.0521L9.88305 16.1053ZM9.92198 2.84818L10.5738 2.13229L9.92198 1.45131L9.27012 2.13229L9.92198 2.84818ZM11.2261 16.0692L10.5067 15.4317L9.03584 17.3356L11.3289 17.0631L11.2261 16.0692ZM13.6852 8.73213L13.266 7.8386L12.6924 8.14735L12.7563 8.83155L13.6852 8.73213ZM18.4707 7.59911L19.4037 7.56556L19.3742 6.62317L18.4942 6.59943L18.4707 7.59911ZM20.3531 7.53539C20.3187 6.4482 19.463 5.68212 18.53 5.65022L18.4704 7.6492C18.4823 7.64961 18.4909 7.65217 18.4965 7.65465C18.5025 7.6573 18.5051 7.65985 18.505 7.65978C18.5049 7.65968 18.5008 7.65552 18.4962 7.64515C18.4913 7.63398 18.4875 7.61911 18.487 7.60324L20.3531 7.53539ZM18.5107 5.64978L18.379 5.64812L18.3579 7.64805L18.4896 7.64965L18.5107 5.64978ZM18.3684 5.64812C18.0178 5.64812 17.1077 5.68112 15.9871 5.8992L16.3208 7.86698C17.3092 7.67463 18.1048 7.64812 18.3684 7.64812V5.64812ZM17.0784 6.74263C16.8749 5.20692 16.4637 4.10973 16.4121 3.97847L14.6905 4.75274C14.6903 4.75236 14.6919 4.7564 14.6952 4.76507C14.6984 4.77342 14.7028 4.78534 14.7084 4.80071C14.7195 4.83143 14.7351 4.87544 14.754 4.93173C14.7919 5.04438 14.8431 5.20533 14.8992 5.40663C15.0119 5.8103 15.1431 6.37002 15.2296 7.02355L17.0784 6.74263ZM16.4135 3.98187C16.2162 3.47316 15.8289 3.09122 15.3661 2.89961L14.6929 4.76508C14.7001 4.76806 14.7021 4.77064 14.7007 4.76925C14.6993 4.76777 14.694 4.76168 14.6892 4.74934L16.4135 3.98187ZM15.3661 2.89961C15.1406 2.80649 14.9025 2.76013 14.666 2.76013V4.76013C14.6764 4.76013 14.6853 4.76194 14.6929 4.76508L15.3661 2.89961ZM14.666 2.76013C14.416 2.76013 14.1654 2.81166 13.9294 2.91524L14.6375 4.76586C14.6453 4.76242 14.6551 4.76013 14.666 4.76013V2.76013ZM13.9279 2.9159C13.8225 2.9624 12.9981 3.33605 11.9764 4.05525L13.002 5.7266C13.8948 5.09806 14.6051 4.78014 14.639 4.7652L13.9279 2.9159ZM13.3028 4.40035C12.4033 2.68897 11.3644 1.58439 11.2603 1.47566L9.9568 2.90769C9.99517 2.94777 10.8974 3.90089 11.6757 5.3815L13.3028 4.40035ZM11.2603 1.47566C10.8997 1.09911 10.415 0.898438 9.92207 0.898438V2.89844C9.93318 2.89844 9.94261 2.90077 9.94943 2.90367C9.95615 2.90656 9.95802 2.90898 9.9568 2.90769L11.2603 1.47566ZM9.92207 0.898438C9.42921 0.898438 8.94455 1.09894 8.58412 1.47527L9.88753 2.90742C9.88594 2.909 9.88771 2.90661 9.89453 2.9037C9.90134 2.90078 9.91087 2.89844 9.92207 2.89844V0.898438ZM8.58412 1.47527C8.47995 1.58405 7.4397 2.69036 6.53987 4.4034L8.16724 5.38408C8.94572 3.90203 9.84925 2.94744 9.88753 2.90742L8.58412 1.47527ZM7.86614 4.05793C6.84885 3.3422 6.02487 2.96353 5.91739 2.91597L5.20445 4.76445C5.20391 4.76421 5.20442 4.76444 5.20445 4.76445C5.20498 4.76469 5.2065 4.76537 5.20747 4.7658C5.20942 4.76668 5.21212 4.7679 5.21555 4.76948C5.22243 4.77262 5.232 4.77704 5.24412 4.78272C5.26836 4.79409 5.30244 4.81037 5.34535 4.83155C5.43123 4.87392 5.55193 4.93562 5.6996 5.01661C5.99551 5.17889 6.39643 5.41678 6.84098 5.72955L7.86614 4.05793ZM5.91497 2.91491C5.67897 2.81132 5.42838 2.7598 5.1784 2.7598V4.7598C5.1893 4.7598 5.19964 4.76237 5.20747 4.7658L5.91497 2.91491ZM5.1784 2.7598C4.94209 2.7598 4.70447 2.80577 4.47873 2.89908L5.15103 4.76495C5.15834 4.76193 5.16772 4.7598 5.1784 4.7598V2.7598ZM4.47873 2.89908C4.01483 3.09115 3.62867 3.474 3.43144 3.98005L5.15458 4.75049C5.15012 4.76195 5.14525 4.76749 5.14403 4.76874C5.14285 4.76994 5.14434 4.76772 5.15103 4.76495L4.47873 2.89908ZM3.43099 3.98123C3.38132 4.10913 2.96981 5.20564 2.76636 6.74236L4.61511 7.02316C4.78906 5.70923 5.14199 4.78291 5.15504 4.74931L3.43099 3.98123ZM3.85776 5.89889C2.7361 5.68042 1.82621 5.64805 1.47598 5.64805V7.64812C1.74006 7.64812 2.5351 7.67407 3.52369 7.86662L3.85776 5.89889ZM1.46547 5.64818L1.33311 5.64977L1.35412 7.64965L1.48649 7.64805L1.46547 5.64818ZM1.31381 5.65022C0.381362 5.68212 -0.474989 6.44794 -0.509373 7.53547L1.35678 7.60369C1.35627 7.61969 1.35244 7.63412 1.34749 7.6453C1.3429 7.65569 1.33877 7.65982 1.33873 7.65986C1.33871 7.65988 1.34138 7.6573 1.34742 7.65463C1.35306 7.65214 1.36155 7.64961 1.37342 7.6492L1.31381 5.65022ZM-0.509373 7.53547C-0.513851 7.67494 -0.540196 8.86639 -0.214025 10.3839C0.110812 11.8952 0.804316 13.8166 2.30054 15.313L3.57488 13.8512C2.45038 12.7266 1.88403 11.2305 1.60562 9.93525C1.32854 8.64612 1.35554 7.6422 1.35678 7.60369L-0.509373 7.53547ZM2.30054 15.313C3.66383 16.6763 5.37839 17.3616 6.79198 17.712C8.21442 18.0646 9.41222 18.0978 9.81816 18.0978V16.0977C9.49522 16.0977 8.44996 16.0701 7.21298 15.7635C5.96714 15.4547 4.60591 14.8822 3.57488 13.8512L2.30054 15.313ZM9.82946 18.0976L9.92702 18.0964L9.90443 16.0965L9.80696 16.0978L9.82946 18.0976ZM9.91572 18.0964C9.86764 18.0964 9.82535 18.0924 9.79052 18.0874C9.75589 18.0823 9.72676 18.0759 9.70519 18.0705C9.68372 18.0652 9.66673 18.0601 9.65702 18.057C9.65197 18.0555 9.64796 18.0542 9.64572 18.0534C9.64357 18.0527 9.6418 18.0521 9.64236 18.0523C9.64245 18.0523 9.64301 18.0525 9.64367 18.0528C9.64441 18.053 9.64563 18.0534 9.64703 18.0538C9.64973 18.0547 9.65422 18.0562 9.65963 18.0579C9.67027 18.0611 9.68792 18.0664 9.70995 18.0719C9.73227 18.0774 9.76168 18.0838 9.79659 18.0888C9.8317 18.0938 9.8738 18.0977 9.92142 18.0977V16.0977C9.96857 16.0977 10.0102 16.1016 10.0448 16.1065C10.0793 16.1115 10.1082 16.1177 10.13 16.1231C10.1516 16.1285 10.1688 16.1336 10.1789 16.1368C10.1841 16.1384 10.1883 16.1397 10.1909 16.1405C10.1932 16.1413 10.1951 16.1419 10.1948 16.1418C10.1946 16.1418 10.194 16.1416 10.1938 16.1415C10.1931 16.1413 10.1922 16.1409 10.1909 16.1405C10.1883 16.1397 10.1841 16.1384 10.1789 16.1368C10.1687 16.1336 10.151 16.1282 10.1291 16.1228C10.107 16.1172 10.0775 16.1108 10.0423 16.1056C10.007 16.1005 9.96427 16.0964 9.91572 16.0964V18.0964ZM9.92142 18.0977C9.96997 18.0977 10.0127 18.0937 10.048 18.0885C10.0832 18.0834 10.1127 18.0769 10.1348 18.0714C10.1567 18.0659 10.1741 18.0607 10.1844 18.0575C10.1896 18.0559 10.1939 18.0545 10.1965 18.0536C10.1978 18.0532 10.1988 18.0529 10.1994 18.0527C10.1993 18.0528 10.1998 18.0525 10.1994 18.0527C10.1995 18.0527 10.2004 18.0524 10.2004 18.0523C10.2007 18.0522 10.1988 18.0528 10.1965 18.0536C10.1939 18.0545 10.1896 18.0559 10.1844 18.0575C10.1741 18.0607 10.1567 18.0659 10.1348 18.0714C10.1131 18.0768 10.085 18.0827 10.0505 18.0876C10.0159 18.0926 9.97426 18.0964 9.92702 18.0964L9.92711 16.0964C9.8795 16.0964 9.83739 16.1003 9.80229 16.1054C9.76737 16.1104 9.73796 16.1168 9.71574 16.1223C9.69361 16.1277 9.67597 16.133 9.66533 16.1363C9.65991 16.138 9.65543 16.1394 9.65272 16.1403C9.65132 16.1408 9.6502 16.1411 9.64945 16.1414C9.64871 16.1416 9.64815 16.1418 9.64805 16.1418C9.64749 16.142 9.64936 16.1414 9.65141 16.1407C9.65375 16.14 9.65776 16.1387 9.66271 16.1371C9.67251 16.1341 9.68951 16.129 9.71089 16.1236C9.73255 16.1182 9.76158 16.1118 9.79622 16.1068C9.83114 16.1017 9.87334 16.0977 9.92142 16.0977V18.0977ZM9.91572 18.0964L10.0134 18.0977L10.036 16.0978L9.93841 16.0964L9.91572 18.0964ZM10.0247 18.0977C10.4306 18.0977 11.6284 18.0646 13.0509 17.712C14.4645 17.3616 16.179 16.6764 17.5423 15.3131L16.2682 13.8511C15.2371 14.8821 13.8758 15.4547 12.6299 15.7635C11.393 16.0701 10.3477 16.0977 10.0247 16.0977V18.0977ZM17.5423 15.3131C19.039 13.8168 19.7326 11.8956 20.0576 10.3842C20.3839 8.86661 20.3576 7.67471 20.3531 7.53539L18.487 7.60324C18.4882 7.64219 18.5152 8.64635 18.238 9.93539C17.9595 11.2306 17.393 12.7266 16.2682 13.8511L17.5423 15.3131ZM14.666 4.70983C13.8018 5.08837 13.8017 5.08823 13.8017 5.08808C13.8016 5.0878 13.8013 5.08685 13.8012 5.08669C13.8011 5.08654 13.8011 5.08636 13.8012 5.08669C13.8013 5.08698 13.8016 5.08793 13.8025 5.09007C13.8041 5.09435 13.807 5.10229 13.8111 5.11375C13.8193 5.13667 13.8322 5.1736 13.8488 5.2234C13.882 5.3231 13.9295 5.47376 13.9826 5.66628C14.0891 6.05268 14.2158 6.6002 14.295 7.23765L16.1459 6.97377C16.0513 6.2122 15.9007 5.56178 15.7734 5.1C15.7096 4.86843 15.6511 4.68243 15.6075 4.5515C15.5857 4.48598 15.5676 4.43411 15.5542 4.39705C15.5476 4.37851 15.5422 4.36367 15.5382 4.35267C15.5361 4.34716 15.5343 4.34262 15.533 4.33905C15.5324 4.33726 15.5318 4.33572 15.5313 4.33443C15.5311 4.33378 15.5308 4.3332 15.5306 4.33267C15.5307 4.3329 15.5305 4.33241 15.5306 4.33267C15.5306 4.33255 15.5301 4.33135 15.5301 4.33129C15.53 4.33113 15.5301 4.33129 14.666 4.70983ZM14.9842 6.13827C14.3894 6.30491 13.7663 6.53013 13.1433 6.83409L13.9175 8.65411C14.4301 8.40395 14.9506 8.21496 15.4568 8.07315L14.9842 6.13827ZM14.4416 7.5264C14.2783 6.74202 14.0347 6.01235 13.7508 5.35062L12.0541 6.1856C12.2902 6.73607 12.488 7.33194 12.6192 7.96179L14.4416 7.5264ZM13.4256 6.5964C13.8743 6.2713 14.2824 6.02646 14.5763 5.86395C14.7228 5.7829 14.84 5.72291 14.9183 5.68416C14.9575 5.6648 14.9869 5.65079 15.0052 5.64215C15.0144 5.63783 15.0208 5.63486 15.0244 5.63324C15.0262 5.63242 15.0272 5.63195 15.0275 5.63181C15.0274 5.63185 15.0266 5.63218 15.0265 5.63223C15.0265 5.63222 15.0264 5.63226 15.0265 5.63223C15.0264 5.63228 15.0262 5.63242 14.666 4.70983C14.3058 3.78724 14.306 3.78718 14.3058 3.78724C14.3059 3.7872 14.3058 3.78726 14.3058 3.78724C14.3056 3.78732 14.3049 3.78762 14.3048 3.78771C14.3043 3.78789 14.3039 3.78809 14.3034 3.78832C14.3024 3.78877 14.3012 3.7893 14.2998 3.78993C14.2971 3.79118 14.2936 3.79279 14.2893 3.79475C14.2807 3.79867 14.2692 3.80402 14.2547 3.81079C14.226 3.82432 14.1857 3.84356 14.1354 3.86849C14.0347 3.91833 13.8928 3.99109 13.7198 4.08674C13.3746 4.27762 12.9009 4.56193 12.3794 4.93982L13.4256 6.5964ZM5.17803 4.70983C4.81949 5.63315 4.81938 5.6331 4.81927 5.63305C4.81905 5.63295 4.81835 5.63264 4.81823 5.63259C4.81809 5.63253 4.818 5.63248 4.81823 5.63259C4.81852 5.63272 4.81943 5.63313 4.82118 5.63393C4.8247 5.63553 4.83112 5.63848 4.84028 5.64277C4.8586 5.65135 4.8879 5.66527 4.92698 5.68452C5.00521 5.72307 5.12227 5.78278 5.26878 5.86355C5.56256 6.0255 5.97053 6.26974 6.41929 6.59468L7.46504 4.93776C6.94291 4.55969 6.46882 4.27574 6.12326 4.08525C5.95009 3.98979 5.80816 3.91723 5.7073 3.86754C5.65685 3.84268 5.61659 3.8235 5.58775 3.81001C5.57333 3.80326 5.56175 3.79793 5.55317 3.79401C5.54887 3.79205 5.54534 3.79045 5.54256 3.7892C5.54118 3.78858 5.53999 3.78804 5.53899 3.78759C5.53848 3.78737 5.53804 3.78716 5.53763 3.78698C5.53751 3.78692 5.53657 3.78651 5.17803 4.70983ZM6.0937 5.34897C5.80934 6.01236 5.56465 6.74478 5.40126 7.53222L7.22402 7.96614C7.35513 7.33431 7.55376 6.73607 7.79063 6.18347L6.0937 5.34897ZM6.69975 6.83919C6.07959 6.53653 5.45787 6.30776 4.85985 6.13995L4.38664 8.07466C4.88995 8.21589 5.41016 8.40765 5.92553 8.65917L6.69975 6.83919ZM5.54872 7.23916C5.62791 6.60143 5.75466 6.05354 5.86125 5.66682C5.91434 5.47414 5.96192 5.32334 5.99515 5.22354C6.01175 5.17369 6.02472 5.13671 6.03295 5.11376C6.03705 5.10229 6.03998 5.09434 6.04156 5.09005C6.04236 5.08791 6.04282 5.08668 6.04293 5.08639C6.04305 5.08606 6.04298 5.08624 6.04293 5.08639C6.04287 5.08655 6.04268 5.08704 6.04257 5.08732C6.04252 5.08747 6.04219 5.08834 5.17803 4.70983C4.31387 4.33132 4.31394 4.33116 4.31387 4.33132C4.31392 4.33121 4.31385 4.33138 4.31387 4.33132C4.31378 4.33156 4.31344 4.33244 4.31335 4.3327C4.31314 4.33323 4.31293 4.33381 4.31268 4.33446C4.31219 4.33575 4.3116 4.3373 4.31093 4.33908C4.3096 4.34265 4.3079 4.3472 4.30585 4.3527C4.30177 4.36371 4.29634 4.37857 4.28969 4.39712C4.27641 4.4342 4.25826 4.48612 4.23642 4.55168C4.19279 4.68271 4.13426 4.86885 4.0704 5.10058C3.94305 5.56269 3.7924 6.21353 3.69778 6.97545L5.54872 7.23916ZM4.24704 13.1795C3.25958 12.1921 2.76134 10.8356 2.51815 9.65447C2.39828 9.07227 2.34527 8.55589 2.3224 8.18727C2.311 8.0036 2.30719 7.85838 2.30614 7.76214C2.30562 7.71406 2.30579 7.67836 2.30604 7.65635C2.30616 7.64536 2.3063 7.6378 2.30639 7.63384C2.30643 7.63186 2.30646 7.63078 2.30646 7.63063C2.30647 7.63024 2.30646 7.63055 2.30646 7.63063C2.30645 7.63082 2.30643 7.63154 2.30642 7.63185C2.30642 7.63178 2.30642 7.63201 2.30642 7.63185C2.30641 7.63215 2.30639 7.63296 1.3733 7.59941C0.440205 7.56585 0.440216 7.5655 0.440205 7.56585C0.440201 7.56599 0.440168 7.56705 0.44016 7.56733C0.440143 7.56788 0.440125 7.56849 0.440106 7.56916C0.440067 7.57051 0.440022 7.5721 0.439973 7.57393C0.439877 7.5776 0.439763 7.58222 0.439644 7.58779C0.439404 7.59893 0.43914 7.61384 0.438932 7.63235C0.438517 7.66937 0.43833 7.72085 0.439032 7.78542C0.440434 7.91445 0.445393 8.09632 0.459267 8.31991C0.486938 8.76581 0.550493 9.38463 0.694723 10.0851C0.979731 11.4694 1.59979 13.2685 2.97278 14.6414L4.24704 13.1795ZM1.3733 7.59941C1.3968 8.59909 1.39678 8.59909 1.39676 8.59909C1.39678 8.59909 1.39675 8.59909 1.39676 8.59909C1.39658 8.59909 1.39562 8.59912 1.39571 8.59912C1.3959 8.59912 1.39662 8.5991 1.39787 8.59907C1.40038 8.59902 1.40501 8.59893 1.41168 8.59884C1.42503 8.59865 1.44653 8.59844 1.47558 8.59844V6.59844C1.43811 6.59844 1.40848 6.59872 1.38731 6.59901C1.37673 6.59916 1.36826 6.59931 1.36198 6.59944C1.35885 6.59951 1.35625 6.59957 1.35421 6.59961C1.3532 6.59964 1.35232 6.59966 1.35158 6.59968C1.35122 6.59969 1.3501 6.59973 1.3498 6.59973C1.34978 6.59974 1.3498 6.59973 1.3733 7.59941ZM1.47558 8.59844C1.92996 8.59844 3.97053 8.67769 5.73857 9.6302L6.57759 7.84348C4.41333 6.67751 2.01675 6.59844 1.47558 6.59844V8.59844ZM5.22889 8.63963C5.20358 8.91707 5.18836 9.20345 5.18836 9.4981H7.0556C7.0556 9.27723 7.06702 9.05633 7.08728 8.83406L5.22889 8.63963ZM5.18836 9.4981C5.18836 12.7819 6.95246 15.4819 7.89905 16.7068L9.33743 15.4315C8.46574 14.3036 7.0556 12.0629 7.0556 9.4981H5.18836ZM8.72116 15.0752C7.41371 14.9199 5.52312 14.4556 4.24704 13.1795L2.97278 14.6414C4.70188 16.3705 7.09888 16.8948 8.51532 17.0631L8.72116 15.0752ZM10.2157 15.1692C10.1905 15.1609 10.1896 15.1607 10.1834 15.1585L9.5827 17.0521C9.62331 17.0669 9.6586 17.0782 9.67009 17.0819L10.2157 15.1692ZM10.5489 15.4044C10.4118 15.2549 9.76252 14.5218 9.15238 13.4342C8.53789 12.3389 8.00563 10.9596 8.00563 9.49814H6.13839C6.13839 11.4613 6.84445 13.2034 7.55187 14.4643C8.26365 15.7331 9.01989 16.5912 9.21711 16.8062L10.5489 15.4044ZM8.00563 9.49814C8.00563 7.92906 8.61956 6.45612 9.28545 5.33145C9.6137 4.77706 9.94252 4.32769 10.1879 4.01861C10.3103 3.86452 10.4109 3.74653 10.4791 3.66907C10.5131 3.63037 10.5389 3.60189 10.5552 3.58418C10.5633 3.57533 10.5691 3.56918 10.5722 3.5658C10.5738 3.56411 10.5748 3.56312 10.575 3.56283C10.575 3.56292 10.5743 3.56363 10.5742 3.56368C10.574 3.56386 10.5738 3.56406 9.92198 2.84818C9.27012 2.13229 9.27035 2.13206 9.27012 2.13229C9.27003 2.13239 9.26937 2.13308 9.26919 2.13327C9.26884 2.13364 9.26843 2.13406 9.268 2.13453C9.26711 2.13546 9.26604 2.13657 9.26481 2.13787C9.26236 2.14047 9.25921 2.1438 9.2554 2.14785C9.24779 2.15596 9.23752 2.16698 9.22479 2.18083C9.19932 2.20853 9.16393 2.2476 9.12004 2.29749C9.03233 2.3972 8.91032 2.5405 8.76548 2.72291C8.47652 3.08684 8.09282 3.61133 7.70856 4.26034C6.94944 5.54248 6.13839 7.39452 6.13839 9.49814H8.00563ZM9.92198 2.84818C9.27012 3.56406 9.26994 3.56386 9.26976 3.56368C9.26985 3.56378 9.26971 3.56363 9.26976 3.56368C9.26957 3.56349 9.26913 3.56302 9.26903 3.56291C9.26889 3.56276 9.26884 3.56271 9.26903 3.56291C9.26931 3.5632 9.27016 3.56411 9.27175 3.5658C9.27492 3.56918 9.28067 3.57533 9.28881 3.58418C9.30509 3.60189 9.33093 3.63037 9.36498 3.66907C9.43313 3.74653 9.53378 3.86452 9.65608 4.01861C9.90153 4.32769 10.2304 4.77706 10.5585 5.33145C11.2245 6.45612 11.8383 7.92906 11.8383 9.49814H13.7056C13.7056 7.39452 12.8945 5.54248 12.1354 4.26034C11.7511 3.61133 11.3675 3.08684 11.0785 2.72291C10.9336 2.5405 10.8116 2.3972 10.724 2.29749C10.6801 2.2476 10.6447 2.20853 10.6192 2.18083C10.6065 2.16698 10.5962 2.15596 10.5886 2.14785C10.5848 2.1438 10.5817 2.14047 10.5792 2.13787C10.5779 2.13657 10.5769 2.13546 10.576 2.13453C10.5755 2.13406 10.5751 2.13364 10.5748 2.13327C10.5749 2.13337 10.5746 2.13308 10.5748 2.13327C10.5746 2.13304 10.5738 2.13229 9.92198 2.84818ZM11.8383 9.49814C11.8383 11.0031 11.2754 12.4186 10.6413 13.525C10.0123 14.6226 9.35911 15.3366 9.28253 15.4187L10.6032 16.8325C10.7388 16.6872 11.5002 15.8495 12.2327 14.5712C12.9602 13.3018 13.7056 11.5172 13.7056 9.49814H11.8383ZM15.5973 13.1795C14.3212 14.4556 12.4306 14.9199 11.1231 15.0753L11.3289 17.0631C12.7454 16.8948 15.1424 16.3705 16.8715 14.6414L15.5973 13.1795ZM11.9453 16.7067C12.8914 15.482 14.6556 12.782 14.6556 9.49814H12.7884C12.7884 12.063 11.3782 14.3036 10.5067 15.4317L11.9453 16.7067ZM14.6556 9.49814C14.6556 9.20217 14.6404 8.91358 14.6143 8.63271L12.7563 8.83155C12.777 9.05351 12.7884 9.2754 12.7884 9.49814H14.6556ZM14.1044 9.62565C15.8718 8.67435 17.9127 8.59815 18.3683 8.59815V6.59815C17.8292 6.59815 15.4309 6.67335 13.266 7.8386L14.1044 9.62565ZM18.3683 8.59815C18.3974 8.59815 18.4189 8.59836 18.4323 8.59854C18.4389 8.59864 18.4436 8.59872 18.4461 8.59878C18.4473 8.5988 18.4481 8.59882 18.4483 8.59882C18.4484 8.59882 18.4484 8.59883 18.4483 8.59882L18.4472 8.5988C18.4471 8.5988 18.4471 8.5988 18.4707 7.59911C18.4942 6.59943 18.4942 6.59943 18.4942 6.59943C18.4939 6.59942 18.4927 6.59939 18.4923 6.59938C18.4917 6.59936 18.4907 6.59934 18.4897 6.59932C18.4877 6.59927 18.4851 6.59921 18.482 6.59915C18.4757 6.59902 18.4672 6.59886 18.4567 6.59871C18.4355 6.59842 18.4059 6.59815 18.3683 6.59815V8.59815ZM18.4707 7.59911C17.5375 7.63266 17.5375 7.63236 17.5375 7.63206C17.5375 7.63222 17.5375 7.63199 17.5375 7.63206C17.5375 7.63175 17.5375 7.63099 17.5375 7.6308C17.5375 7.63072 17.5375 7.63041 17.5375 7.6308C17.5375 7.63096 17.5375 7.63156 17.5376 7.63354C17.5376 7.6375 17.5378 7.64506 17.5379 7.65606C17.5382 7.67807 17.5384 7.71378 17.5378 7.76186C17.5368 7.85811 17.5329 8.00335 17.5215 8.18704C17.4987 8.55569 17.4456 9.07212 17.3259 9.65436C17.0827 10.8356 16.5846 12.1921 15.5973 13.1795L16.8715 14.6414C18.2443 13.2684 18.8643 11.4693 19.1493 10.0849C19.2935 9.38441 19.357 8.76556 19.3847 8.31964C19.3986 8.09604 19.4035 7.91416 19.4049 7.78513C19.4056 7.72056 19.4054 7.66908 19.405 7.63206C19.4048 7.61354 19.4046 7.59863 19.4043 7.5875C19.4042 7.58193 19.4041 7.5773 19.404 7.57364C19.4039 7.57181 19.4039 7.57022 19.4038 7.56887C19.4038 7.5682 19.4038 7.56758 19.4038 7.56703C19.4039 7.56717 19.4038 7.56676 19.4038 7.56703C19.4038 7.56668 19.4037 7.56556 18.4707 7.59911Z" fill="#9C4322"/>
</g>
</g>
</svg>
