<svg width="21" height="19" viewBox="0 0 21 19" fill="none" xmlns="http://www.w3.org/2000/svg">
<g clip-path="url(#clip0_2251_356)">
<path d="M19.7855 6.64971C20.3214 6.66682 20.7538 7.0693 20.7708 7.56931L16.068 3.83234C16.3245 3.93146 16.5266 4.12398 16.627 4.3656C16.6569 4.43668 16.9776 5.22901 17.1919 6.38955C17.189 6.39008 17.186 6.39061 17.1831 6.39114L17.2725 6.88309L17.7675 6.81286C17.767 6.80922 17.7665 6.80558 17.766 6.80194C18.6634 6.6696 19.3648 6.64811 19.6444 6.64811M19.7855 6.64971L19.6444 6.64811M19.7855 6.64971L19.7711 7.09938L19.7665 7.09927L19.7664 7.09927L19.7663 7.09926L19.766 7.09926L19.7653 7.09924L19.7632 7.09919L19.7564 7.09905L19.7324 7.09867C19.7118 7.0984 19.6822 7.09814 19.6444 7.09814V6.64811M19.7855 6.64971L19.7804 7.09962L20.2378 7.11114L20.25 7.47511C20.1924 7.30846 20.0212 7.1592 19.774 7.14961L19.7652 7.14951M19.6444 6.64811L19.6393 7.09815M15.6787 4.70983C15.5704 4.45078 15.5228 4.33721 15.502 4.28743C15.502 4.28742 15.502 4.28742 15.502 4.28741L15.6787 4.70983ZM15.6787 4.70983C16.1415 4.52056 16.1415 4.52064 16.1415 4.52072L16.1416 4.5209L16.1418 4.52134L16.1423 4.52249L16.1436 4.52589L16.1481 4.53701L16.1634 4.57622C16.1762 4.60974 16.1943 4.65789 16.2162 4.71947C16.2601 4.84259 16.3199 5.01976 16.3853 5.24157C16.5161 5.6845 16.671 6.3092 16.7682 7.03973L16.821 7.43625C16.8291 7.4344 16.8371 7.43257 16.8452 7.43074L16.7774 6.95332C16.5831 5.58368 16.1893 4.61466 16.166 4.55917L16.1653 4.55747C16.1553 4.53339 16.1428 4.50983 16.1278 4.48715L16.1415 4.52056L15.6787 4.70983ZM19.7652 7.14951V7.14951Z" fill="#C3911A" stroke="#C3911A"/>
</g>
<defs>
<clipPath id="clip0_2251_356">
<rect width="20.3509" height="19" fill="white" transform="translate(0.421875)"/>
</clipPath>
</defs>
</svg>
