<svg width="20" height="20" viewBox="0 0 20 20" fill="none" xmlns="http://www.w3.org/2000/svg">
<g clip-path="url(#clip0_3750_2060)">
<path d="M19.4981 8.06931C19.4823 7.5693 19.0785 7.16682 18.5782 7.14971M19.4981 8.06931L15.6294 4.8656C15.6573 4.93665 15.9565 5.72849 16.1566 6.8884C16.1499 6.88969 16.1432 6.89099 16.1365 6.89229L16.232 7.38309L16.7277 7.31744C16.7268 7.31058 16.7259 7.30373 16.725 7.29689C17.5474 7.16905 18.1889 7.14811 18.4465 7.14811M19.4981 8.06931C19.5038 8.24758 19.6048 12.4614 16.9832 15.0822L19.4981 8.06931ZM18.5782 7.14971L18.4465 7.14811M18.5782 7.14971L18.5728 7.59958L15.1644 5.04932C15.1644 5.04934 15.1644 5.04936 15.1644 5.04938C15.2112 5.03155 15.2112 5.03159 15.2112 5.03163L15.2113 5.03181L15.2114 5.03223L15.2119 5.03336L15.2131 5.03671L15.2172 5.04773L15.2314 5.08672C15.2434 5.12009 15.2602 5.16807 15.2806 5.22947C15.3215 5.35224 15.3771 5.52897 15.4381 5.75028C15.5542 6.17164 15.6908 6.75769 15.7817 7.44274C15.7861 7.47627 15.7905 7.51004 15.7947 7.54404L15.8423 7.92669C16.0046 7.88759 16.1634 7.8531 16.3176 7.82268C17.3349 7.62197 18.1512 7.59843 18.441 7.59815L18.4465 7.14811M18.5782 7.14971L18.5629 7.59931L18.5622 7.59929L18.5621 7.59929L18.562 7.59929L18.5617 7.59928L18.561 7.59926L18.559 7.59921L18.5524 7.59906L18.5295 7.59868C18.51 7.5984 18.4821 7.59814 18.4465 7.59814V7.14811M15.1076 4.33234C14.991 4.28421 14.8675 4.26013 14.744 4.26013C14.6136 4.26013 14.4834 4.28703 14.3615 4.34055M15.1076 4.33234L3.84423 6.88806C4.04426 5.72793 4.34351 4.93632 4.3711 4.86527C4.46514 4.62398 4.65358 4.43113 4.89297 4.33201M15.1076 4.33234L15.0227 4.53786L14.5423 4.75233L14.3615 4.34055M15.1076 4.33234L15.0226 4.5376L15.0224 4.53727L14.744 4.66197L14.543 4.752L14.3615 4.34055M14.3615 4.34055C14.3023 4.36666 13.7393 4.62029 12.9841 5.10943C12.9927 5.12566 13.0013 5.14195 13.0099 5.15829L12.5673 5.39092L12.2795 4.98206C12.2946 4.97141 12.3097 4.96084 12.3247 4.95035C11.5516 3.60747 10.7511 2.75899 10.6866 2.69167C10.5071 2.5042 10.2591 2.39844 10.0001 2.39844C9.74109 2.39844 9.49313 2.5042 9.31389 2.69134C9.24943 2.75866 8.44773 3.60861 7.6741 4.95311C7.68914 4.9636 7.70423 4.97417 7.71936 4.98481L7.43164 5.39374L6.98899 5.16123C6.99761 5.14482 7.00625 5.12847 7.01489 5.11218C6.26118 4.62341 5.69793 4.36628 5.63901 4.34021C5.51711 4.2867 5.38693 4.2598 5.25649 4.2598C5.13299 4.2598 5.00949 4.28384 4.89297 4.33201M4.89297 4.33201L4.9786 4.53882L4.97732 4.53825L4.97843 4.53874L4.89297 4.33201ZM5.25612 5.20983C5.00622 5.11442 4.89 5.07007 4.83595 5.04947C4.83596 5.04946 4.83597 5.04944 4.83598 5.04942L5.25612 5.20983ZM5.25612 5.20983C5.36526 4.96485 5.41587 4.85128 5.43936 4.79864C5.43935 4.79863 5.43933 4.79862 5.43931 4.79862L5.25612 5.20983ZM1.45139 8.09941L1.43925 7.64953L1.43928 7.64953L1.45139 8.09941ZM1.45139 8.09941L1.00155 8.08531L1.00155 8.08536C1.00155 8.08538 1.00155 8.0854 1.00155 8.08543C1.05921 8.08716 1.1835 8.09101 1.45139 8.09941ZM10.3252 3.03714C10.3251 3.03711 10.3251 3.03708 10.3251 3.03705L10.0001 3.34817M10.3252 3.03714L9.67502 3.03715C9.67505 3.03713 9.67507 3.0371 9.67509 3.03708L10.0001 3.34817M10.3252 3.03714C10.2834 3.07703 10.1935 3.16299 10.0001 3.34817M10.3252 3.03714L9.67501 3.03717C9.71679 3.07706 9.80667 3.16303 10.0001 3.34817M9.85568 17.0976C9.82099 17.0974 9.78073 17.0969 9.73528 17.0959L9.69156 17.0393L9.79012 17.0752C9.81686 17.0849 9.8401 17.0926 9.85568 17.0976ZM18.9984 8.08502C18.9984 8.08506 18.9984 8.0851 18.9984 8.08515C18.9406 8.08689 18.8163 8.09072 18.5487 8.09911L18.9984 8.08502ZM14.5602 4.79941C14.5602 4.7994 14.5602 4.7994 14.5602 4.79939L14.5602 4.79941ZM18.4436 7.64811L18.4465 7.64815L18.5608 7.64953L18.4436 7.64811Z" fill="#9C4322" stroke="#9C4322"/>
</g>
<defs>
<clipPath id="clip0_3750_2060">
<rect width="19" height="19" fill="white" transform="translate(0.5 0.5)"/>
</clipPath>
</defs>
</svg>
