<svg width="116" height="117" viewBox="0 0 116 117" fill="none" xmlns="http://www.w3.org/2000/svg">
<path d="M33.0273 82.6641C40.7861 83.8539 44.0464 85.0676 48.7447 87.7616C56.0366 89.8116 60.5635 90.1886 68.7101 90.7352C73.7443 92.7086 74.0849 94.6825 74.2324 98.3815H79.7547L96.3217 87.7616C103.451 85.8595 106.092 90.3104 101.844 93.7087C97.5961 97.1071 88.2506 106.877 88.2506 106.877C83.7196 111.599 80.8226 112.345 75.5068 112.824L52.5679 115.798C44.9571 114.734 40.6734 113.086 33.0273 109.851" stroke="black" stroke-width="1.7"/>
<path d="M44.0742 98.3828L46.623 100.507C59.6684 99.5775 65.6366 99.1351 74.6594 98.3828" stroke="black" stroke-width="1.7"/>
<rect x="17.7367" y="78.4203" width="10.1942" height="33.1331" rx="2.15" stroke="black" stroke-width="1.7"/>
<path d="M29.346 43.9449C31.1365 42.2213 33.9853 42.2757 35.7088 44.0663L40.5195 49.0642L32.3163 56.9601L27.5056 51.9622C25.7821 50.1716 25.8365 47.3229 27.6271 45.5994L29.346 43.9449Z" stroke="black"/>
<path d="M42.9701 61.8633C41.1534 63.5592 38.3058 63.4612 36.6099 61.6444L31.8764 56.5733L40.1996 48.8041L44.9331 53.8751C46.629 55.6919 46.531 58.5395 44.7142 60.2353L42.9701 61.8633Z" fill="#C3911A" stroke="black"/>
<path d="M78.2666 58.5178C79.9791 60.3189 79.9072 63.1673 78.1061 64.8797L73.0788 69.6597L65.2334 61.4082L70.2608 56.6283C72.0619 54.9158 74.9102 54.9876 76.6227 56.7888L78.2666 58.5178Z" stroke="black"/>
<path d="M60.2608 72.0323C58.5761 70.2052 58.6916 67.3583 60.5188 65.6736L65.6188 60.9713L73.3368 69.3421L68.2368 74.0444C66.4096 75.729 63.5627 75.6135 61.878 73.7864L60.2608 72.0323Z" fill="#C3911A" stroke="black"/>
<path d="M66.2854 16.3006C68.7704 16.3414 70.7517 18.389 70.7108 20.8739L70.5968 27.81L59.2125 27.6228L59.3266 20.6868C59.3674 18.2018 61.415 16.2205 63.8999 16.2613L66.2854 16.3006Z" stroke="black"/>
<path d="M63.3024 38.6122C60.8184 38.5332 58.8687 36.4556 58.9476 33.9715L59.1679 27.038L70.548 27.3996L70.3277 34.3331C70.2487 36.8172 68.1711 38.7669 65.687 38.688L63.3024 38.6122Z" fill="#C3911A" stroke="black"/>
<path fill-rule="evenodd" clip-rule="evenodd" d="M114.879 58.9119L115.878 58.9287C115.884 58.5983 115.887 58.2673 115.887 57.9355C115.887 57.6038 115.884 57.2728 115.878 56.9424L114.879 56.9592L113.879 56.976C113.884 57.2952 113.887 57.615 113.887 57.9355C113.887 58.2561 113.884 58.5759 113.879 58.8951L114.879 58.9119ZM114.813 55.0187L115.812 54.9683C115.779 54.3062 115.734 53.6469 115.679 52.9908L114.682 53.075L113.686 53.1592C113.739 53.7928 113.782 54.4295 113.815 55.0691L114.813 55.0187ZM114.486 51.1405L115.479 51.0224C115.401 50.3663 115.312 49.7136 115.212 49.0645L114.223 49.2163L113.235 49.3682C113.331 49.9949 113.417 50.6251 113.493 51.2585L114.486 51.1405ZM113.895 47.2975L114.878 47.1118C114.755 46.462 114.621 45.816 114.477 45.174L113.501 45.3933L112.526 45.6126C112.665 46.2323 112.794 46.8559 112.912 47.4832L113.895 47.2975ZM113.043 43.5055L114.01 43.2528C113.843 42.6129 113.665 41.9773 113.477 41.3462L112.519 41.6321L111.561 41.9179C111.742 42.527 111.914 43.1405 112.075 43.7582L113.043 43.5055ZM112.216 37.5961C112.447 38.2124 112.668 38.8336 112.879 39.4597L111.931 39.7783L110.983 40.097C110.78 39.4927 110.567 38.8931 110.344 38.2982L111.28 37.9472L112.216 37.5961ZM110.566 36.1386L111.49 35.7555C111.237 35.1452 110.974 34.5401 110.7 33.9404L109.79 34.355L108.88 34.7696C109.144 35.3484 109.398 35.9325 109.642 36.5216L110.566 36.1386ZM108.954 32.5999L109.85 32.1544C109.555 31.5634 109.252 30.9782 108.938 30.3989L108.059 30.8748L107.179 31.3507C107.482 31.91 107.775 32.475 108.059 33.0455L108.954 32.5999ZM106.937 26.9847C107.289 27.5415 107.632 28.1048 107.966 28.6743L107.104 29.1801L106.241 29.6858C105.919 29.1359 105.587 28.5921 105.247 28.0544L106.092 27.5195L106.937 26.9847ZM105.024 25.8948L105.85 25.3314C105.478 24.7861 105.097 24.2474 104.708 23.7156L103.901 24.3068L103.094 24.898C103.471 25.4115 103.839 25.9316 104.198 26.4582L105.024 25.8948ZM102.725 22.758L103.511 22.1398C103.103 21.6212 102.686 21.1097 102.261 20.6057L101.497 21.2503L100.732 21.8949C101.143 22.3817 101.545 22.8756 101.939 23.3763L102.725 22.758ZM100.218 19.785L100.96 19.1148C100.518 18.6252 100.068 18.1432 99.6091 17.6689L98.8901 18.3639L98.1711 19.0589C98.6138 19.5169 99.0488 19.9824 99.4757 20.4552L100.218 19.785ZM97.515 16.9888L98.21 16.2698C97.7358 15.8114 97.2537 15.361 96.7641 14.9188L96.0939 15.661L95.4237 16.4032C95.8965 16.8302 96.362 17.2651 96.82 17.7078L97.515 16.9888ZM94.6286 14.3823L95.2732 13.6178C94.7692 13.1928 94.2577 12.7762 93.7392 12.3682L93.1209 13.1542L92.5026 13.9402C93.0034 14.3341 93.4972 14.7364 93.984 15.1468L94.6286 14.3823ZM91.5721 11.9779L92.1633 11.1714C91.6315 10.7816 91.0928 10.4007 90.5475 10.0288L89.9841 10.855L89.4207 11.6812C89.9473 12.0403 90.4674 12.4081 90.9809 12.7845L91.5721 11.9779ZM88.3594 9.78721L88.8943 8.94229C88.3374 8.58975 87.7741 8.24645 87.2046 7.91259L86.6989 8.77529L86.1931 9.63798C86.743 9.9603 87.2868 10.2918 87.8245 10.6321L88.3594 9.78721ZM85.0041 7.82037L85.48 6.94088C84.9007 6.6274 84.3155 6.3235 83.7245 6.02939L83.279 6.92466L82.8334 7.81993C83.404 8.10384 83.9689 8.39722 84.5282 8.69986L85.0041 7.82037ZM81.5239 6.08849L81.9385 5.17847C81.3388 4.90531 80.7337 4.64207 80.1234 4.38896L79.7403 5.31269L79.3573 6.23641C79.9464 6.48073 80.5305 6.73483 81.1093 6.99851L81.5239 6.08849ZM77.9317 4.59889L78.2828 3.66254C77.6665 3.43147 77.0453 3.2106 76.4192 3.00013L76.1006 3.948L75.7819 4.89587C76.3862 5.09902 76.9858 5.3122 77.5807 5.53524L77.9317 4.59889ZM74.2468 3.36013L74.5327 2.40185C73.9016 2.2136 73.266 2.03582 72.6261 1.8687L72.3734 2.83625L72.1207 3.8038C72.7384 3.9651 73.3519 4.1367 73.961 4.3184L74.2468 3.36013ZM70.4856 2.37774L70.7049 1.40208C70.0629 1.25779 69.4169 1.12415 68.7671 1.00136L68.5814 1.98398L68.3957 2.96659C69.023 3.08512 69.6466 3.21412 70.2663 3.3534L70.4856 2.37774ZM66.6626 1.65541L66.8145 0.667009C66.1653 0.567273 65.5126 0.478311 64.8565 0.400311L64.7384 1.39332L64.6204 2.38633C65.2538 2.46164 65.884 2.54753 66.5107 2.64382L66.6626 1.65541ZM62.8039 1.19666L62.8881 0.200215C62.232 0.144765 61.5728 0.100248 60.9106 0.0668477L60.8602 1.06558L60.8098 2.06431C61.4494 2.09657 62.0861 2.13956 62.7197 2.19311L62.8039 1.19666ZM58.9197 1.00039L58.9365 0.000527388C58.6061 -0.00502516 58.2751 -0.0078125 57.9434 -0.0078125C57.6116 -0.0078125 57.2806 -0.00502516 56.9502 0.000527389L56.967 1.00039L56.9838 2.00025C57.303 1.99488 57.6229 1.99219 57.9434 1.99219C58.2639 1.99219 58.5837 1.99488 58.9029 2.00025L58.9197 1.00039ZM55.0265 1.06558L54.9761 0.0668478C54.314 0.100248 53.6547 0.144765 52.9986 0.200215L53.0828 1.19666L53.167 2.19311C53.8006 2.13956 54.4373 2.09657 55.0769 2.06431L55.0265 1.06558ZM51.1483 1.39332L51.0302 0.400312C50.3742 0.478312 49.7214 0.567274 49.0723 0.66701L49.2241 1.65541L49.376 2.64382C50.0027 2.54753 50.6329 2.46164 51.2664 2.38633L51.1483 1.39332ZM47.3053 1.98398L47.1197 1.00136C46.4698 1.12415 45.8238 1.25779 45.1818 1.40208L45.4011 2.37774L45.6204 3.3534C46.2401 3.21412 46.8637 3.08512 47.491 2.96659L47.3053 1.98398ZM43.5133 2.83625L43.2607 1.8687C42.6207 2.03581 41.9851 2.2136 41.354 2.40185L41.6399 3.36012L41.9257 4.3184C42.5349 4.1367 43.1484 3.9651 43.766 3.8038L43.5133 2.83625ZM37.6039 3.66253C38.2202 3.43147 38.8415 3.2106 39.4675 3.00013L39.7862 3.948L40.1048 4.89587C39.5006 5.09902 38.9009 5.3122 38.306 5.53523L37.955 4.59888L37.6039 3.66253ZM36.1464 5.31269L35.7633 4.38896C35.153 4.64207 34.5479 4.90531 33.9483 5.17847L34.3628 6.08849L34.7774 6.99851C35.3562 6.73483 35.9403 6.48073 36.5295 6.23641L36.1464 5.31269ZM32.6078 6.92466L32.1622 6.02939C31.5712 6.32349 30.986 6.62739 30.4067 6.94088L30.8826 7.82037L31.3585 8.69985C31.9178 8.39722 32.4828 8.10384 33.0533 7.81993L32.6078 6.92466ZM29.1879 8.77528L28.6821 7.91259C28.1126 8.24644 27.5493 8.58975 26.9925 8.94228L27.5274 9.7872L28.0622 10.6321C28.5999 10.2917 29.1438 9.9603 29.6936 9.63797L29.1879 8.77528ZM25.9026 10.855L25.3392 10.0288C24.7939 10.4007 24.2552 10.7816 23.7234 11.1714L24.3146 11.9779L24.9058 12.7845C25.4193 12.4081 25.9394 12.0403 26.466 11.6812L25.9026 10.855ZM22.7658 13.1542L22.1476 12.3682C21.629 12.7762 21.1176 13.1928 20.6135 13.6178L21.2581 14.3823L21.9027 15.1468C22.3895 14.7364 22.8834 14.3341 23.3841 13.9402L22.7658 13.1542ZM19.7928 15.661L19.1226 14.9188C18.633 15.361 18.151 15.8114 17.6767 16.2698L18.3717 16.9888L19.0667 17.7078C19.5247 17.2651 19.9902 16.8301 20.463 16.4032L19.7928 15.661ZM16.9966 18.3639L16.2776 17.6689C15.8192 18.1431 15.3688 18.6252 14.9266 19.1148L15.6688 19.785L16.411 20.4552C16.838 19.9824 17.2729 19.5169 17.7156 19.0589L16.9966 18.3639ZM12.3761 22.1397C12.784 21.6212 13.2006 21.1097 13.6256 20.6057L14.3901 21.2503L15.1546 21.8949C14.7442 22.3817 14.3419 22.8755 13.948 23.3763L13.162 22.758L12.3761 22.1397ZM11.9857 24.3068L11.1792 23.7156C10.7894 24.2474 10.4085 24.7861 10.0366 25.3314L10.8628 25.8948L11.689 26.4582C12.0481 25.9316 12.4159 25.4115 12.7923 24.898L11.9857 24.3068ZM9.79502 27.5195L8.9501 26.9846C8.59756 27.5415 8.25426 28.1048 7.9204 28.6743L8.7831 29.18L9.64579 29.6858C9.96811 29.1359 10.2996 28.5921 10.6399 28.0544L9.79502 27.5195ZM7.82818 30.8748L6.94869 30.3989C6.63521 30.9782 6.33131 31.5634 6.0372 32.1544L6.93247 32.5999L7.82774 33.0455C8.11166 32.475 8.40503 31.91 8.70767 31.3507L7.82818 30.8748ZM6.09631 34.355L5.18628 33.9404C4.91312 34.5401 4.64988 35.1452 4.39678 35.7555L5.3205 36.1386L6.24423 36.5216C6.48854 35.9325 6.74264 35.3484 7.00633 34.7696L6.09631 34.355ZM4.6067 37.9472L3.67035 37.5961C3.43928 38.2124 3.21841 38.8336 3.00795 39.4597L3.95582 39.7783L4.90368 40.097C5.10683 39.4927 5.32002 38.8931 5.54305 38.2982L4.6067 37.9472ZM3.36794 41.6321L2.40966 41.3462C2.22141 41.9773 2.04363 42.6129 1.87651 43.2528L2.84406 43.5055L3.81161 43.7582C3.97292 43.1405 4.14452 42.527 4.32621 41.9179L3.36794 41.6321ZM2.38555 45.3933L1.40989 45.174C1.2656 45.816 1.13196 46.462 1.00918 47.1118L1.99179 47.2975L2.9744 47.4832C3.09293 46.8559 3.22193 46.2323 3.36121 45.6126L2.38555 45.3933ZM1.66322 49.2163L0.674822 49.0645C0.575086 49.7136 0.486124 50.3663 0.408124 51.0224L1.40113 51.1405L2.39414 51.2585C2.46945 50.6251 2.55534 49.9949 2.65163 49.3682L1.66322 49.2163ZM1.20448 53.075L0.208028 52.9908C0.152578 53.6469 0.108061 54.3062 0.0746603 54.9683L1.07339 55.0187L2.07212 55.0691C2.10438 54.4295 2.14738 53.7928 2.20092 53.1592L1.20448 53.075ZM0 57.9355C0 57.6038 0.00278734 57.2728 0.00833989 56.9424L1.0082 56.9592L2.00806 56.976C2.00269 57.2952 2 57.615 2 57.9355C2 58.2561 2.00269 58.5759 2.00806 58.8951L1.0082 58.9119L0.00833989 58.9287C0.00278734 58.5983 0 58.2673 0 57.9355ZM1.07339 60.8524L0.0746602 60.9028C0.108061 61.5649 0.152578 62.2242 0.208028 62.8803L1.20448 62.7961L2.20092 62.7119C2.14738 62.0783 2.10438 61.4416 2.07212 60.802L1.07339 60.8524ZM1.40113 64.7306L0.408124 64.8487C0.486124 65.5047 0.575086 66.1575 0.674822 66.8066L1.66322 66.6548L2.65163 66.5029C2.55534 65.8762 2.46945 65.246 2.39414 64.6126L1.40113 64.7306ZM1.99179 68.5736L1.00918 68.7593C1.13196 69.4091 1.2656 70.0551 1.40989 70.6971L2.38555 70.4778L3.36121 70.2585C3.22193 69.6388 3.09293 69.0152 2.9744 68.3879L1.99179 68.5736ZM2.84406 72.3656L1.87651 72.6182C2.04363 73.2582 2.22141 73.8938 2.40966 74.5249L3.36794 74.239L4.32621 73.9532C4.14451 73.344 3.97291 72.7305 3.81161 72.1129L2.84406 72.3656ZM3.95581 76.0927L3.00794 76.4114C3.21841 77.0375 3.43928 77.6587 3.67035 78.275L4.6067 77.9239L5.54305 77.5729C5.32001 76.978 5.10683 76.3783 4.90368 75.7741L3.95581 76.0927ZM5.3205 79.7325L4.39677 80.1156C4.64988 80.7259 4.91312 81.331 5.18628 81.9306L6.0963 81.5161L7.00632 81.1015C6.74264 80.5227 6.48854 79.9386 6.24423 79.3495L5.3205 79.7325ZM6.93247 83.2711L6.0372 83.7167C6.33131 84.3077 6.6352 84.8929 6.94869 85.4722L7.82818 84.9963L8.70767 84.5204C8.40503 83.9611 8.11165 83.3961 7.82774 82.8256L6.93247 83.2711ZM8.78309 86.691L7.9204 87.1968C8.25426 87.7663 8.59756 88.3296 8.95009 88.8864L9.79502 88.3516L10.6399 87.8167C10.2996 87.279 9.96811 86.7351 9.64579 86.1853L8.78309 86.691ZM10.8628 89.9763L10.0366 90.5397C10.4085 91.085 10.7894 91.6237 11.1792 92.1555L11.9857 91.5643L12.7923 90.9731C12.4159 90.4596 12.0481 89.9395 11.689 89.4129L10.8628 89.9763ZM13.162 93.1131L12.3761 93.7313C12.784 94.2499 13.2006 94.7613 13.6256 95.2654L14.3901 94.6208L15.1546 93.9762C14.7442 93.4894 14.3419 92.9955 13.948 92.4948L13.162 93.1131ZM16.2776 98.2022C15.8192 97.7279 15.3688 97.2459 14.9266 96.7563L15.6688 96.0861L16.411 95.4159C16.5209 95.5376 16.6313 95.6588 16.7423 95.7795L16.7423 97.753L16.2776 98.2022ZM106.092 88.3516L106.937 88.8865C107.289 88.3296 107.632 87.7663 107.966 87.1968L107.104 86.691L106.241 86.1853C105.919 86.7352 105.587 87.279 105.247 87.8167L106.092 88.3516ZM108.059 84.9963L108.938 85.4722C109.252 84.8929 109.555 84.3077 109.85 83.7167L108.954 83.2712L108.059 82.8256C107.775 83.3961 107.482 83.9611 107.179 84.5204L108.059 84.9963ZM109.79 81.5161L110.7 81.9307C110.974 81.331 111.237 80.7259 111.49 80.1156L110.566 79.7325L109.642 79.3495C109.398 79.9386 109.144 80.5227 108.88 81.1015L109.79 81.5161ZM111.28 77.9239L112.216 78.275C112.447 77.6587 112.668 77.0375 112.879 76.4114L111.931 76.0928L110.983 75.7741C110.78 76.3784 110.567 76.978 110.344 77.5729L111.28 77.9239ZM112.519 74.239L113.477 74.5249C113.665 73.8938 113.843 73.2582 114.01 72.6182L113.043 72.3656L112.075 72.1129C111.914 72.7306 111.742 73.344 111.561 73.9532L112.519 74.239ZM113.501 70.4778L114.477 70.6971C114.621 70.0551 114.755 69.4091 114.878 68.7593L113.895 68.5736L112.912 68.3879C112.794 69.0152 112.665 69.6388 112.526 70.2585L113.501 70.4778ZM114.223 66.6548L115.212 66.8066C115.312 66.1575 115.401 65.5047 115.479 64.8487L114.486 64.7306L113.493 64.6125C113.417 65.246 113.331 65.8762 113.235 66.5029L114.223 66.6548ZM114.682 62.7961L115.679 62.8803C115.734 62.2242 115.779 61.5649 115.812 60.9028L114.813 60.8524L113.815 60.802C113.782 61.4416 113.739 62.0783 113.686 62.7119L114.682 62.7961Z" fill="#C3911A"/>
</svg>
