<svg width="152" height="149" viewBox="0 0 152 149" fill="none" xmlns="http://www.w3.org/2000/svg">
<path fill-rule="evenodd" clip-rule="evenodd" d="M129.786 98.5783L130.717 98.9425C130.837 98.6373 130.954 98.3306 131.069 98.0225C131.183 97.7143 131.296 97.4058 131.405 97.097L130.462 96.7629L129.52 96.4289C129.414 96.7276 129.306 97.026 129.194 97.3242C129.083 97.6223 128.97 97.9189 128.855 98.2141L129.786 98.5783ZM131.077 94.9369L132.029 95.2404C132.229 94.6142 132.418 93.987 132.595 93.3588L131.633 93.0864L130.671 92.814C130.499 93.4213 130.317 94.0278 130.124 94.6334L131.077 94.9369ZM132.128 91.2229L133.099 91.4639C133.257 90.8277 133.404 90.1908 133.54 89.5535L132.562 89.3444L131.584 89.1354C131.452 89.7514 131.31 90.367 131.158 90.982L132.128 91.2229ZM132.935 87.4501L133.919 87.6269C134.035 86.9821 134.14 86.337 134.234 85.6918L133.244 85.5474L132.255 85.403C132.164 86.0265 132.062 86.65 131.95 87.2733L132.935 87.4501ZM133.491 83.6348L134.485 83.7466C134.558 83.095 134.621 82.4436 134.672 81.7927L133.675 81.7138L132.678 81.6349C132.629 82.2639 132.568 82.8934 132.498 83.5231L133.491 83.6348ZM133.796 79.7898L134.795 79.8357C134.825 79.1814 134.844 78.5277 134.852 77.875L133.852 77.862L132.853 77.8489C132.844 78.4797 132.826 79.1114 132.797 79.7438L133.796 79.7898ZM133.846 75.9324L134.846 75.9125C134.832 75.2579 134.809 74.6046 134.774 73.9527L133.776 74.0056L132.777 74.0584C132.81 74.6885 132.833 75.3199 132.846 75.9524L133.846 75.9324ZM133.642 72.0815L134.638 71.9958C134.582 71.3433 134.515 70.6926 134.438 70.0437L133.445 70.1621L132.452 70.2805C132.527 70.9076 132.591 71.5366 132.646 72.1672L133.642 72.0815ZM133.185 68.2511L134.174 68.1003C134.075 67.4533 133.966 66.8086 133.846 66.1663L132.863 66.3495L131.88 66.5327C131.996 67.1535 132.101 67.7767 132.197 68.402L133.185 68.2511ZM132.479 64.4587L133.455 64.2434C133.314 63.6045 133.163 62.9683 133.002 62.335L132.033 62.5821L131.064 62.8291C131.22 63.4412 131.366 64.0563 131.502 64.6739L132.479 64.4587ZM131.526 60.7209L132.486 60.4424C132.304 59.814 132.112 59.1888 131.909 58.5672L130.958 58.8768L130.007 59.1865C130.203 59.7875 130.389 60.3919 130.565 60.9995L131.526 60.7209ZM130.331 57.0525L131.271 56.7121C131.049 56.0971 130.816 55.4859 130.574 54.8787L129.645 55.2496L128.716 55.6204C128.951 56.2075 129.176 56.7984 129.391 57.393L130.331 57.0525ZM128.9 53.4697L129.816 53.0688C129.554 52.4697 129.282 51.8749 129.001 51.2847L128.098 51.7151L127.196 52.1456C127.468 52.7162 127.731 53.2913 127.984 53.8706L128.9 53.4697ZM127.24 49.9874L128.128 49.5278C127.827 48.9472 127.517 48.3713 127.198 47.8005L126.325 48.2887L125.453 48.777C125.761 49.3288 126.061 49.8856 126.352 50.447L127.24 49.9874ZM125.356 46.6207L126.213 46.1043C125.875 45.5445 125.528 44.9899 125.172 44.4409L124.333 44.9849L123.494 45.5289C123.838 46.0597 124.173 46.5958 124.5 47.1371L125.356 46.6207ZM122.932 41.2209C123.323 41.7455 123.705 42.2762 124.078 42.8126L123.257 43.3837L122.437 43.9548C122.076 43.4362 121.706 42.9233 121.328 42.4161L122.13 41.8185L122.932 41.2209ZM120.952 40.2905L121.734 39.667C121.326 39.1563 120.91 38.6517 120.486 38.1537L119.725 38.8025L118.964 39.4513C119.374 39.9327 119.776 40.4203 120.17 40.9141L120.952 40.2905ZM118.45 37.3557L119.189 36.6823C118.749 36.1992 118.301 35.7229 117.844 35.2535L117.127 35.9508L116.41 36.6481C116.852 37.1018 117.285 37.5622 117.71 38.0291L118.45 37.3557ZM115.76 34.5907L116.453 33.8702C115.983 33.4175 115.504 32.9719 115.018 32.5337L114.349 33.2767L113.679 34.0197C114.149 34.4431 114.612 34.8737 115.066 35.3112L115.76 34.5907ZM112.894 32.009L113.538 31.2444C113.039 30.8237 112.532 30.4105 112.018 30.0051L111.399 30.7906L110.78 31.576C111.277 31.9678 111.767 32.3671 112.249 32.7736L112.894 32.009ZM109.865 29.6226L110.458 28.8171C109.932 28.4301 109.399 28.051 108.858 27.68L108.292 28.5046L107.726 29.3292C108.249 29.6877 108.764 30.054 109.273 30.428L109.865 29.6226ZM106.684 27.4398L107.223 26.5971C106.673 26.2461 106.117 25.9034 105.553 25.569L105.043 26.429L104.533 27.289C105.077 27.6121 105.615 27.9434 106.146 28.2826L106.684 27.4398ZM103.367 25.4711L103.848 24.5949C103.277 24.2809 102.7 23.9753 102.115 23.6784L101.662 24.57L101.209 25.4615C101.774 25.7485 102.333 26.0439 102.885 26.3474L103.367 25.4711ZM99.9292 23.7249L100.353 22.819C99.7615 22.5425 99.1638 22.2746 98.5598 22.0157L98.1658 22.9348L97.7718 23.854C98.3559 24.1043 98.9339 24.3633 99.5056 24.6307L99.9292 23.7249ZM96.383 22.2044L96.7472 21.2731C96.4421 21.1538 96.1354 21.0367 95.8272 20.9218C95.5191 20.807 95.2106 20.6949 94.9017 20.5854L94.5677 21.528L94.2337 22.4706C94.5324 22.5764 94.8308 22.6849 95.1289 22.796C95.427 22.907 95.7237 23.0203 96.0188 23.1357L96.383 22.2044ZM92.7416 20.9138L93.0451 19.9609C92.419 19.7615 91.7917 19.5729 91.1636 19.3951L90.8912 20.3572L90.6188 21.3194C91.2261 21.4914 91.8326 21.6737 92.4381 21.8666L92.7416 20.9138ZM89.0277 19.8623L89.2686 18.8917C88.6325 18.7338 87.9956 18.5868 87.3583 18.4505L87.1492 19.4284L86.9401 20.4063C87.5562 20.538 88.1718 20.6802 88.7868 20.8328L89.0277 19.8623ZM85.2549 19.0558L85.4317 18.0716C84.7868 17.9557 84.1417 17.8508 83.4966 17.7566L83.3522 18.7462L83.2078 19.7357C83.8313 19.8267 84.4548 19.9281 85.078 20.0401L85.2549 19.0558ZM81.4396 18.4992L81.5513 17.5054C80.8997 17.4322 80.2484 17.3698 79.5974 17.3183L79.5186 18.3152L79.4397 19.3121C80.0687 19.3619 80.6982 19.4221 81.3279 19.4929L81.4396 18.4992ZM77.5945 18.1948L77.6405 17.1959C76.9861 17.1658 76.3325 17.1465 75.6797 17.138L75.6667 18.1379L75.6537 19.1379C76.2845 19.1461 76.9162 19.1647 77.5485 19.1938L77.5945 18.1948ZM73.7372 18.1447L73.7172 17.1449C73.0627 17.1579 72.4094 17.1818 71.7575 17.2163L71.8103 18.2149L71.8632 19.2135C72.4932 19.1802 73.1246 19.1571 73.7572 19.1445L73.7372 18.1447ZM69.8863 18.3486L69.8006 17.3522C69.1481 17.4083 68.4973 17.4751 67.8485 17.5525L67.9669 18.5455L68.0853 19.5384C68.7124 19.4637 69.3414 19.3991 69.972 19.3449L69.8863 18.3486ZM66.0559 18.8052L65.905 17.8166C65.2581 17.9154 64.6133 18.0246 63.9711 18.1443L64.1543 19.1274L64.3374 20.1105C64.9583 19.9948 65.5815 19.8892 66.2068 19.7937L66.0559 18.8052ZM62.2635 19.5118L62.0482 18.5353C61.4092 18.6761 60.773 18.8273 60.1398 18.9887L60.3868 19.9577L60.6339 20.9267C61.246 20.7707 61.861 20.6245 62.4787 20.4884L62.2635 19.5118ZM58.5257 20.4647L58.2472 19.5042C57.6188 19.6865 56.9936 19.8789 56.3719 20.0813L56.6816 21.0322L56.9913 21.983C57.5923 21.7873 58.1967 21.6013 58.8042 21.4251L58.5257 20.4647ZM54.8573 21.6593L54.5168 20.7191C53.9019 20.9417 53.2907 21.1744 52.6835 21.4168L53.0544 22.3455L53.4252 23.2742C54.0122 23.0398 54.6032 22.8149 55.1977 22.5996L54.8573 21.6593ZM51.2745 23.0901L50.8736 22.1739C50.2745 22.4361 49.6797 22.708 49.0894 22.9894L49.5199 23.8921L49.9503 24.7947C50.521 24.5225 51.0961 24.2597 51.6753 24.0062L51.2745 23.0901ZM47.7922 24.7508L47.3326 23.8626C46.7519 24.1631 46.1761 24.473 45.6053 24.7924L46.0935 25.6651L46.5817 26.5378C47.1336 26.2291 47.6903 25.9294 48.2517 25.6389L47.7922 24.7508ZM44.4255 26.6342L43.9091 25.7779C43.3492 26.1155 42.7947 26.4623 42.2456 26.8183L42.7896 27.6573L43.3337 28.4964C43.8644 28.1523 44.4006 27.817 44.9419 27.4906L44.4255 26.6342ZM41.1885 28.733L40.6174 27.9121C40.081 28.2853 39.5503 28.6674 39.0257 29.0585L39.6233 29.8603L40.2209 30.662C40.728 30.2841 41.241 29.9146 41.7596 29.5538L41.1885 28.733ZM38.0953 31.0385L37.4718 30.2567C36.961 30.664 36.4565 31.08 35.9585 31.5046L36.6073 32.2656L37.2561 33.0266C37.7374 32.6162 38.2251 32.214 38.7188 31.8203L38.0953 31.0385ZM35.1604 33.5407L34.487 32.8014C34.004 33.2414 33.5276 33.6898 33.0582 34.1465L33.7556 34.8633L34.4529 35.58C34.9065 35.1387 35.3669 34.7053 35.8338 34.28L35.1604 33.5407ZM32.3955 36.2308L31.6749 35.5373C31.2223 36.0077 30.7767 36.4861 30.3385 36.9725L31.0815 37.6418L31.8244 38.3112C32.2479 37.8411 32.6785 37.3788 33.116 36.9242L32.3955 36.2308ZM29.8138 39.0965L29.0492 38.452C28.6285 38.9512 28.2153 39.4581 27.8099 39.9726L28.5953 40.5915L29.3808 41.2104C29.7726 40.7132 30.1719 40.2233 30.5784 39.741L29.8138 39.0965ZM27.4273 42.1252L26.6219 41.5325C26.2349 42.0584 25.8558 42.5918 25.4848 43.1324L26.3094 43.6982L27.1339 44.264C27.4924 43.7415 27.8588 43.2261 28.2328 42.7179L27.4273 42.1252ZM25.2446 45.3061L24.4019 44.7678C24.0509 45.3172 23.7081 45.8737 23.3738 46.4372L24.2337 46.9475L25.0937 47.4578C25.4169 46.9133 25.7482 46.3754 26.0874 45.8444L25.2446 45.3061ZM23.2759 48.6238L22.3996 48.142C22.0856 48.713 21.7801 49.2908 21.4832 49.8753L22.3748 50.3282L23.2663 50.7811C23.5533 50.2161 23.8487 49.6576 24.1522 49.1056L23.2759 48.6238ZM21.5296 52.0612L20.6238 51.6375C20.3473 52.2289 20.0794 52.8266 19.8205 53.4306L20.7396 53.8246L21.6587 54.2186C21.9091 53.6345 22.1681 53.0565 22.4355 52.4848L21.5296 52.0612ZM18.7266 56.1632C18.8414 55.855 18.9585 55.5483 19.0779 55.2432L20.0092 55.6074L20.9405 55.9716C20.8251 56.2667 20.7118 56.5634 20.6007 56.8615C20.4897 57.1596 20.3812 57.458 20.2753 57.7567L19.3328 57.4227L18.3902 57.0887C18.4997 56.7799 18.6118 56.4713 18.7266 56.1632ZM18.7185 59.2488L17.7657 58.9453C17.5662 59.5714 17.3777 60.1987 17.1998 60.8268L18.162 61.0992L19.1242 61.3716C19.2961 60.7643 19.4785 60.1578 19.6714 59.5523L18.7185 59.2488ZM17.6671 62.9627L16.6965 62.7218C16.5386 63.358 16.3915 63.9948 16.2553 64.6321L17.2332 64.8412L18.2111 65.0503C18.3428 64.4342 18.4849 63.8186 18.6376 63.2036L17.6671 62.9627ZM16.8606 66.7355L15.8764 66.5587C15.7605 67.2036 15.6556 67.8487 15.5614 68.4938L16.5509 68.6382L17.5405 68.7826C17.6314 68.1591 17.7329 67.5357 17.8448 66.9124L16.8606 66.7355ZM16.3039 70.5508L15.3102 70.4391C15.2369 71.0907 15.1746 71.742 15.1231 72.393L16.12 72.4718L17.1169 72.5507C17.1666 71.9217 17.2269 71.2922 17.2977 70.6625L16.3039 70.5508ZM15.9996 74.3959L15.0007 74.3499C14.9705 75.0043 14.9513 75.658 14.9428 76.3107L15.9427 76.3237L16.9426 76.3367C16.9508 75.7059 16.9694 75.0742 16.9986 74.4419L15.9996 74.3959ZM15.9494 78.2532L14.9496 78.2732C14.9627 78.9277 14.9866 79.5811 15.0211 80.2329L16.0197 80.1801L17.0183 80.1272C16.9849 79.4972 16.9619 78.8658 16.9492 78.2332L15.9494 78.2532ZM16.1533 82.1041L15.157 82.1898C15.2131 82.8423 15.2799 83.4931 15.3573 84.1419L16.3502 84.0235L17.3432 83.9051C17.2684 83.278 17.2039 82.6491 17.1496 82.0184L16.1533 82.1041ZM16.6099 85.9345L15.6214 86.0854C15.7201 86.7323 15.8294 87.3771 15.9491 88.0193L16.9322 87.8362L17.9152 87.653C17.7996 87.0321 17.6939 86.4089 17.5985 85.7836L16.6099 85.9345ZM17.3166 89.727L16.34 89.9422C16.4809 90.5812 16.6321 91.2174 16.7935 91.8506L17.7625 91.6036L18.7315 91.3566C18.5755 90.7444 18.4293 90.1294 18.2932 89.5117L17.3166 89.727ZM18.2694 93.4647L17.309 93.7432C17.4912 94.3716 17.6836 94.9968 17.8861 95.6185L18.8369 95.3088L19.7878 94.9991C19.5921 94.3981 19.406 93.7937 19.2299 93.1862L18.2694 93.4647ZM19.4641 97.1331L18.5238 97.4736C18.7465 98.0885 18.9791 98.6998 19.2216 99.3069L20.1503 98.9361L21.079 98.5652C20.8445 97.9782 20.6196 97.3872 20.4044 96.7927L19.4641 97.1331ZM20.8948 100.716L19.9787 101.117C20.2409 101.716 20.5127 102.311 20.7942 102.901L21.6968 102.471L22.5995 102.04C22.3273 101.469 22.0644 100.894 21.811 100.315L20.8948 100.716ZM22.5971 106.385C22.2778 105.814 21.9679 105.238 21.6674 104.658L22.5555 104.198L23.4437 103.739C23.7342 104.3 24.0338 104.857 24.3426 105.409L23.4699 105.897L22.5971 106.385ZM24.439 107.565L23.5826 108.081C23.9202 108.641 24.2671 109.196 24.623 109.745L25.4621 109.201L26.3012 108.657C25.9571 108.126 25.6217 107.59 25.2953 107.049L24.439 107.565ZM26.5377 110.802L25.7169 111.373C26.0901 111.909 26.4722 112.44 26.8632 112.965L27.665 112.367L28.4668 111.77C28.0888 111.262 27.7194 110.749 27.3586 110.231L26.5377 110.802ZM29.3094 116.032C28.8848 115.534 28.4688 115.029 28.0614 114.519L28.8432 113.895L29.625 113.272C30.0188 113.765 30.4209 114.253 30.8314 114.734L30.0704 115.383L29.3094 116.032ZM31.3455 116.83L30.6062 117.503C30.758 117.67 30.9107 117.836 31.0645 118.001L33.0316 117.881L33.3848 117.538C32.9434 117.084 32.5101 116.623 32.0848 116.157L31.3455 116.83ZM115.847 119.125L114.912 119.02C115.056 118.882 115.2 118.744 115.342 118.606L115.847 119.125ZM117.4 117.955L118.12 118.648C118.573 118.178 119.018 117.7 119.457 117.213L118.714 116.544L117.971 115.874C117.547 116.345 117.117 116.807 116.679 117.261L117.4 117.955ZM119.981 115.089L120.746 115.734C121.167 115.234 121.58 114.728 121.985 114.213L121.2 113.594L120.414 112.975C120.023 113.472 119.623 113.962 119.217 114.445L119.981 115.089ZM122.368 112.06L123.173 112.653C123.56 112.127 123.939 111.594 124.31 111.053L123.486 110.487L122.661 109.922C122.303 110.444 121.936 110.96 121.562 111.468L122.368 112.06ZM126.421 107.748C126.087 108.312 125.744 108.868 125.393 109.418L124.551 108.88L123.708 108.341C124.047 107.81 124.378 107.272 124.701 106.728L125.561 107.238L126.421 107.748ZM126.519 105.562L127.396 106.044C127.71 105.473 128.015 104.895 128.312 104.31L127.42 103.857L126.529 103.405C126.242 103.97 125.947 104.528 125.643 105.08L126.519 105.562ZM128.266 102.124L129.171 102.548C129.448 101.957 129.716 101.359 129.975 100.755L129.056 100.361L128.136 99.9671C127.886 100.551 127.627 101.129 127.36 101.701L128.266 102.124Z" fill="#C3911A"/>
<path d="M57.8242 77.831C58.3704 69.2908 59.8055 65.0442 67.0543 59.8564C67.1184 59.8106 67.1918 59.7706 67.2648 59.7411C76.8396 55.867 77.7956 52.6358 78.6332 46.6953" stroke="black" stroke-width="1.5"/>
<path d="M57.8238 78.539C50.249 55.6794 58.1823 41.3885 75.7626 39.2656C93.7012 42.0961 97.3987 57.2776 94.0602 76.4161C91.2167 61.0954 86.0404 57.6506 72.5337 57.664" stroke="black" stroke-width="1.5"/>
<path d="M28.1328 93.9792V70.3047C28.1328 69.7524 28.5805 69.3047 29.1328 69.3047L54.953 69.3047M48.8737 98.6281H65.3234M85.3492 98.6281H121.182C121.734 98.6281 122.182 98.1804 122.182 97.6281V71.3775C122.182 70.8252 121.734 70.3775 121.182 70.3775H95.362" stroke="black" stroke-width="1.5"/>
<path d="M61.8963 81.1646L53.9263 87.3635C53.5634 87.6457 53.4397 88.139 53.6264 88.559L55.0308 91.719C55.2297 92.1664 55.7233 92.404 56.1971 92.2804L66.3739 89.6256C66.8758 89.4947 67.1971 89.0008 67.0944 88.4924C66.5451 85.7733 65.6906 83.9763 63.2276 81.2714C62.8818 80.8917 62.3016 80.8493 61.8963 81.1646Z" fill="#C3911A" stroke="#C3911A" stroke-width="1.5"/>
<path d="M29.5632 104.352L47.8009 95.4124L54.2378 93.2668L66.7013 89.8983C67.1508 89.7768 67.4586 89.3598 67.4322 88.895C67.1961 84.722 66.3246 82.4887 63.4245 79.8512C63.0772 79.5354 62.5539 79.5223 62.18 79.806L52.5071 87.1441C52.4689 87.173 52.4287 87.1992 52.3868 87.2224L46.5909 90.4285L28.1328 98.6308" stroke="black" stroke-width="1.5"/>
<path d="M52.0931 87.1875L54.4543 91.9098C54.7208 92.4429 54.4648 93.0893 53.9055 93.2954L49.0224 95.0944C48.5346 95.2741 47.9904 95.0501 47.7705 94.579L45.6562 90.0483" stroke="black" stroke-width="1.5"/>
<path d="M66.2266 92.3105C74.0693 101.145 78.1619 99.1699 85.3007 91.9516C88.8717 88.4811 90.7781 84.1798 94.1313 75.4453" stroke="black" stroke-width="1.5"/>
<path d="M64.25 72.8828C68.1206 74.7765 69.7698 74.3303 72.4748 72.8828" stroke="black" stroke-width="1.5"/>
<path d="M78.1992 72.8828C82.0698 74.7765 83.719 74.3303 86.4241 72.8828" stroke="black" stroke-width="1.5"/>
<path d="M70.3281 89.3359C75.3768 91.4883 77.5279 90.9812 81.0562 89.3359" stroke="black" stroke-width="1.5"/>
<path d="M73.1914 82.8984C75.884 85.0508 77.0313 84.5437 78.913 82.8984" stroke="black" stroke-width="1.5"/>
<path d="M33.4977 132.959C31.824 116.903 34.1606 111.436 44.8571 109.019C44.9118 109.007 44.9714 108.999 45.0275 108.996C64.7487 107.959 66.0006 102.975 66.3971 93.2656" stroke="black" stroke-width="1.5"/>
<path d="M83.5625 94.3359C87.5148 105.748 93.1536 107.541 104.661 109.355C114.352 112.204 116.34 114.563 117.163 119.284C117.172 119.339 117.177 119.396 117.177 119.453V132.599" stroke="black" stroke-width="1.5"/>
<path d="M47.4453 132.596C47.5387 127.733 48.6869 126.026 53.0661 125.107C53.1321 125.093 53.2009 125.086 53.2683 125.086H99.1793C99.2579 125.086 99.338 125.095 99.4143 125.114C102.568 125.9 103.151 127.242 103.577 130.017C103.585 130.067 103.589 130.118 103.589 130.168V132.596" stroke="black" stroke-width="1.5"/>
</svg>
