<svg width="169" height="30" viewBox="0 0 169 30" fill="none" xmlns="http://www.w3.org/2000/svg">
<path d="M64.8776 8.10156C64.1204 8.10156 63.5027 8.68499 63.5027 9.40052V19.495H53.3502V9.40052C53.3502 8.68499 52.7326 8.10156 51.9754 8.10156C51.2182 8.10156 50.5738 8.67399 50.5738 9.40052V19.495H50.3749C49.6295 19.495 49 20.0674 49 20.7417C49 21.4159 49.6176 22.0158 50.3749 22.0158H50.5738V25.8632C50.5738 26.5925 51.1885 27.1622 51.9754 27.1622C52.7623 27.1622 53.3502 26.5787 53.3502 25.8632V22.0158H63.5027V25.8632C63.5027 26.5787 64.1204 27.1622 64.8776 27.1622C65.6348 27.1622 66.2792 26.5925 66.2792 25.8632V9.40052C66.2792 8.67123 65.6645 8.10156 64.8776 8.10156Z" fill="#9C4322"/>
<path d="M92.201 10.6513C92.973 10.6513 93.6026 10.0789 93.6026 9.37709C93.6026 8.67532 92.9612 8.07812 92.201 8.07812L79.6878 8.10289C78.5505 8.10289 77.9269 8.68357 77.9269 9.73485V19.4963H77.2024C76.4303 19.4963 75.8008 20.055 75.8008 20.743C75.8008 21.431 76.4303 22.0172 77.2024 22.0172H77.9269V25.5563C77.9269 26.5911 78.5534 27.1635 79.6878 27.1635H91.6516C92.397 27.1635 93.0265 26.5911 93.0265 25.9168C93.0265 25.2426 92.4088 24.6426 91.6516 24.6426H80.7063V22.0199H91.9575C92.7295 22.0199 93.3591 21.4475 93.3591 20.7457C93.3591 20.044 92.7295 19.4991 91.9575 19.4991H80.7063V10.654H92.2069L92.201 10.6513Z" fill="#9C4322"/>
<path d="M105.268 8.10156C104.481 8.10156 103.863 8.67399 103.863 9.40052V25.8632C103.863 26.5925 104.481 27.1622 105.268 27.1622C106.055 27.1622 106.643 26.5787 106.643 25.8632V9.40052C106.643 8.68499 106.025 8.10156 105.268 8.10156Z" fill="#9C4322"/>
<path d="M131.019 18.5317L133.697 14.1257C133.84 13.8642 133.84 13.6496 133.84 13.523C133.84 12.8212 133.222 12.2488 132.465 12.2488C132.168 12.2488 131.616 12.3341 131.224 12.9423L129.448 15.9255L127.925 18.5785L125.133 23.3505L117.371 8.78123C117.131 8.33265 116.647 8.05469 116.109 8.05469C115.352 8.05469 114.734 8.62711 114.734 9.32888C114.734 9.60959 114.844 9.81874 114.901 9.92332L123.77 26.4906C124.02 27.0272 124.51 27.3492 125.086 27.3492C125.614 27.3492 126.039 27.0933 126.36 26.5704L129.475 21.2122L131.019 18.5344V18.5317Z" fill="#9C4322"/>
<path d="M128.016 18.5317L125.338 14.1257C125.195 13.8642 125.195 13.6496 125.195 13.523C125.195 12.8212 125.813 12.2488 126.57 12.2488C126.867 12.2488 127.419 12.3341 127.811 12.9423L129.587 15.9255L131.11 18.5785L133.902 23.3505L141.664 8.78123C141.904 8.33265 142.388 8.05469 142.926 8.05469C143.683 8.05469 144.301 8.62711 144.301 9.32888C144.301 9.60959 144.191 9.81874 144.134 9.92332L135.265 26.4906C135.015 27.0272 134.525 27.3492 133.949 27.3492C133.421 27.3492 132.996 27.0933 132.675 26.5704L129.56 21.2122L128.016 18.5344V18.5317Z" fill="#9C4322"/>
<path d="M168.483 25.6298C168.465 25.528 168.43 25.4289 168.379 25.3381L159.183 8.70203C158.895 8.16813 158.461 7.89844 157.894 7.89844C157.327 7.89844 156.893 8.16813 156.608 8.69377L150.61 19.4983H149.247C148.502 19.4983 147.872 20.0707 147.872 20.7449C147.872 21.4192 148.481 22.0109 149.229 22.0191L147.379 25.3408C147.323 25.4427 147.207 25.6546 147.207 25.9435C147.207 26.6453 147.825 27.2177 148.582 27.2177C149.143 27.2177 149.627 26.9343 149.853 26.4747L152.329 22.0219H163.429L165.906 26.4747C166.131 26.9287 166.612 27.2205 167.15 27.2205C167.907 27.2205 168.525 26.648 168.525 25.9463C168.525 25.8912 168.519 25.8389 168.51 25.7867L168.483 25.6325V25.6298ZM153.701 19.4983L157.864 11.9219L162.028 19.4983H153.698H153.701Z" fill="#9C4322"/>
<path d="M14.3326 26.4514L14.2138 25.9808L13.7328 25.3203L13.1211 25.9423L14.3326 26.4514Z" fill="#EFD8C4"/>
<path d="M7.375 13.4482C7.375 13.4482 9.15666 12.8015 10.1603 14.1472C11.2412 13.5115 11.2501 13.3546 11.2501 13.3546C11.2501 13.3546 10.582 12.3804 10.1603 12.4575C9.73867 12.5345 7.53832 12.3722 7.375 13.4482Z" fill="#EFD8C4"/>
<path d="M33.3274 11.9423C33.3927 11.9698 33.4521 12.0111 33.4966 12.0551C33.5115 12.0689 33.5263 12.0826 33.5412 12.0991C33.5471 12.1046 33.5501 12.1074 33.556 12.1129C33.5649 12.1184 33.5738 12.1239 33.5827 12.1294C33.5827 12.1294 33.5887 12.1294 33.5887 12.1322C33.5946 12.1322 33.6035 12.1349 33.6095 12.1377C33.6154 12.1377 33.6184 12.1377 33.6243 12.1377C33.6302 12.1377 33.6362 12.1349 33.6421 12.1322C33.651 12.1267 33.657 12.1239 33.6629 12.1212C33.6956 12.1046 33.7253 12.0881 33.755 12.0689C33.8411 12.0111 33.9212 11.9505 34.0163 11.9037C34.0252 11.8982 34.037 11.8955 34.0489 11.8927C34.04 11.8404 34.0341 11.7854 34.0252 11.7331C34.0103 11.6285 33.9895 11.5267 33.9717 11.4249C33.9688 11.4084 33.9658 11.3946 33.9628 11.3781C33.8767 10.9295 33.7639 10.4947 33.6391 10.0764C32.6028 6.67213 30.3728 4.34115 29.2266 3.71094C29.3542 3.85404 29.479 3.99715 29.6007 4.14301C29.6007 4.14301 29.6007 4.14576 29.6067 4.14851C31.1062 5.95935 32.1158 8.14171 32.4543 10.5222C32.4722 10.6378 32.487 10.7534 32.4989 10.8717C32.5048 10.9268 32.5108 10.9846 32.5167 11.0396C32.5583 11.0396 32.5998 11.0506 32.6325 11.0671C32.677 11.0919 32.7335 11.1469 32.7424 11.1965C32.7543 11.2598 32.7632 11.3258 32.7691 11.3891C33.0304 11.5845 33.2205 11.7992 33.3303 11.9395L33.3274 11.9423Z" fill="#EFD8C4"/>
<path d="M12.8054 24.5745L11.6829 25.5983C11.5018 25.4965 11.3207 25.3946 11.1395 25.2818C7.09813 22.5986 4.14057 17.7963 4.62162 15.8203C5.77376 19.775 8.82931 22.9976 12.8054 24.5745Z" fill="#EFD8C4"/>
<path d="M26.7505 25.5865C25.4884 26.0736 24.0275 26.5662 22.4388 26.9047C22.3973 26.8992 22.3676 26.8937 22.3498 26.8909L21.3906 25.3223C21.6282 25.2727 21.8657 25.2205 22.0974 25.1599C23.487 24.8049 24.7877 24.26 25.9725 23.5527C26.0259 23.5225 26.0794 23.4894 26.1328 23.4564C26.1477 23.4454 26.1655 23.4371 26.1803 23.4261C26.2605 23.3766 26.3407 23.3271 26.4179 23.2748C26.4298 23.2665 26.4446 23.2583 26.4565 23.25V23.4261L26.7505 25.5865Z" fill="#EFD8C4"/>
<path d="M34.1214 15.125C34.1095 15.2241 34.1006 15.3259 34.0857 15.425C34.0739 15.524 34.059 15.6259 34.0442 15.7249C34.0353 15.78 34.0263 15.835 34.0174 15.8901C33.9877 16.0634 33.9551 16.2396 33.9195 16.4185C33.9195 16.4185 33.9195 16.4185 33.9195 16.4212C33.9046 16.4983 33.8868 16.5753 33.869 16.6524C33.8333 16.8092 33.7947 16.9689 33.7532 17.1285C33.1593 19.3879 31.9121 21.8262 29.7118 24.3608C29.5603 24.4241 29.397 24.4929 29.2218 24.5645L28.7764 23.4224L28.913 23.4499L28.6279 23.0454L28.1914 21.9253C28.2746 21.851 28.3577 21.7767 28.4379 21.6996C30.172 20.0704 31.4578 18.0201 32.1051 15.7277C32.1348 15.6286 32.1615 15.5268 32.1853 15.4277C32.212 15.3287 32.2358 15.2268 32.2595 15.1278H34.1214V15.125Z" fill="#EFD8C4"/>
<path d="M20.0039 16.3856C20.0039 16.3856 20.9541 17.7396 22.5873 17.258C23.6949 16.9305 20.2058 18.5404 20.2058 18.5404L20.0069 16.3828L20.0039 16.3856Z" fill="#EFD8C4"/>
<path d="M31.0718 28.7452V29.3203H18.4309C18.4309 29.3203 18.2053 29.1937 17.8846 29.0039C17.7955 28.9516 17.6975 28.8938 17.5936 28.8305C16.8067 28.3571 15.7406 27.6774 15.7109 27.4379C15.7109 27.4379 15.7109 27.4324 15.7109 27.4297C15.7109 27.4297 16.973 28.3736 20.3997 28.3736C21.9557 28.3736 28.1796 28.6241 30.3354 28.7149C30.7986 28.7341 31.0748 28.7452 31.0748 28.7452H31.0718Z" fill="#EFD8C4"/>
<path d="M0.78125 16.5364L3.93479 14.1614L12.9203 17.9152L4.08326 12.0781L0.78125 16.5364Z" fill="#EFD8C4"/>
<path d="M13.6487 25.4217V25.4162L13.4764 25.6006L13.6635 25.4382L13.6487 25.4217ZM13.6487 25.4217V25.4162L13.4764 25.6006L13.6635 25.4382L13.6487 25.4217ZM34.0635 9.46815C33.2351 6.92802 31.6553 4.64383 29.4787 2.87152C29.6242 2.76419 29.7727 2.65962 29.9212 2.55229C29.9954 2.49725 30.0162 2.4257 29.9895 2.34314C29.9538 2.2248 29.7549 2.12847 29.6213 2.167C29.3659 2.24131 29.1105 2.31286 28.8522 2.38992C28.7007 2.27984 28.5463 2.16975 28.3919 2.06242C28.3533 2.02665 28.3088 1.99363 28.2672 1.96336C28.2494 1.94959 28.2345 1.93308 28.2137 1.91657C28.1098 1.83401 28.0059 1.75145 27.896 1.66889C27.8633 1.64412 27.8574 1.63036 27.896 1.60284C28.0148 1.51753 28.1306 1.42946 28.2494 1.34139C28.6146 1.06619 28.9799 0.790992 29.3451 0.513036C29.4401 0.441483 29.4609 0.320394 29.3867 0.237833C29.3599 0.210313 29.3243 0.191046 29.3006 0.166277C29.2174 0.0864684 29.1254 0.0782116 29.0185 0.113988C28.582 0.270854 28.1395 0.422216 27.703 0.587338C27.5813 0.634123 27.4922 0.636876 27.3882 0.554315C27.2843 0.471754 27.1358 0.49102 27.0378 0.581837C26.9636 0.650638 26.9072 0.73595 26.8419 0.813007C26.827 0.832271 26.8181 0.85704 26.8092 0.881808C26.7953 0.922171 26.7706 0.929506 26.735 0.90382C26.4707 0.730442 26.2094 0.554314 25.9451 0.380936C25.8501 0.320391 25.7521 0.270857 25.6422 0.237833C25.5917 0.213065 25.5383 0.202053 25.4819 0.191045C25.4789 0.191045 25.4759 0.191045 25.473 0.191045C25.2829 0.152516 25.0958 0.158023 24.9058 0.193799C24.7692 0.22132 24.7157 0.298378 24.7336 0.427724C24.7662 0.653391 24.8612 0.857039 25.0127 1.03592C25.1374 1.18178 25.3037 1.2836 25.467 1.38543C25.6749 1.51752 25.8916 1.64412 26.0965 1.78447C26.1322 1.80924 26.1351 1.823 26.0965 1.84502C26.0609 1.86428 26.0371 1.89455 26.0134 1.92758C25.9778 1.98262 25.9392 2.03766 25.9065 2.0927C25.8857 2.12022 25.8679 2.1505 25.8649 2.18077C25.8501 2.21104 25.8441 2.24131 25.8441 2.27158C25.8441 2.32387 25.8649 2.37065 25.8976 2.41744C25.9362 2.47248 25.9956 2.50275 26.052 2.53577C26.0817 2.55504 26.0936 2.57431 26.0936 2.60733C26.0847 3.08343 26.0758 3.56229 26.0668 4.03839C26.0668 4.10719 26.0817 4.16498 26.1322 4.21452C26.1648 4.25029 26.2153 4.2613 26.2569 4.28332C26.3875 4.36313 26.539 4.31909 26.5924 4.17874C26.6993 3.88978 26.8062 3.59806 26.9161 3.3091C27.0111 3.05316 27.1061 2.79997 27.1982 2.54403C27.2101 2.51376 27.216 2.50276 27.2516 2.52477C27.5842 2.70641 27.9198 2.87978 28.2672 3.03389C28.2999 3.04765 28.3117 3.06416 28.3147 3.10269C28.3266 3.33662 28.3474 3.57329 28.3474 3.80997C28.3474 3.95032 28.4216 4.03564 28.5434 4.09894C28.6384 4.15122 28.7958 4.12095 28.8165 4.04114C28.8344 3.97784 28.87 3.92556 28.8908 3.86777C28.9234 3.7742 28.9531 3.68613 28.9858 3.59531C29.1996 3.77144 29.4075 3.95583 29.6094 4.14572C29.6094 4.14572 29.6124 4.14572 29.6153 4.15123C31.6286 6.03086 32.9916 8.41412 33.5439 11.0175C33.5439 11.0258 33.5469 11.0368 33.5498 11.0451C33.5706 11.1221 33.5825 11.2047 33.6003 11.2845C33.6062 11.3148 33.6122 11.3478 33.6181 11.3781C33.6448 11.3781 33.6686 11.3808 33.6924 11.3836C33.7903 11.3891 33.8824 11.3891 33.9745 11.3836C34.1645 11.3698 34.3338 11.4771 34.4555 11.3891C34.4763 11.3726 34.5327 11.3726 34.5505 11.3533C34.4436 10.7699 34.2625 10.0323 34.0784 9.4709L34.0635 9.46815ZM13.6487 25.4217V25.4162L13.4764 25.6006L13.6635 25.4382L13.6487 25.4217ZM19.8221 8.82143L19.4866 9.3333C19.4509 9.38834 19.4123 9.44614 19.3737 9.50668L20.0686 9.09388C19.9231 8.93151 19.834 8.83243 19.8221 8.81867V8.82143ZM14.2901 26.0492L14.3524 26.0684C14.3524 26.0684 14.3346 26.0437 14.3227 26.0299C14.3197 26.0271 14.3168 26.0216 14.3138 26.0189C14.1356 25.7877 13.9723 25.5483 13.8238 25.3034C13.8238 25.3034 13.8238 25.3034 13.8238 25.3006L13.7556 25.3584L13.7466 25.3639L13.6605 25.4382V25.4437L13.7466 25.5455C13.8268 25.6446 13.91 25.7437 13.9961 25.84C14.002 25.8455 14.008 25.8538 14.0109 25.8593C14.0525 25.906 14.0941 25.9501 14.1356 25.9969C14.1356 25.9969 14.1386 26.0024 14.1416 26.0051C14.201 26.0684 14.2574 26.1317 14.3197 26.195C14.3316 26.2088 14.3435 26.2225 14.3583 26.2335H14.4563L14.2901 26.0492ZM13.6487 25.4217V25.4162L13.4764 25.6006L13.6635 25.4382L13.6487 25.4217ZM13.6487 25.4217V25.4162L13.4764 25.6006L13.6635 25.4382L13.6487 25.4217ZM13.6487 25.4217V25.4162L13.4764 25.6006L13.6635 25.4382L13.6487 25.4217ZM34.0131 15.8886C33.9893 15.8886 33.9655 15.8886 33.9418 15.8886C33.8408 15.8886 33.7428 15.8914 33.6419 15.8941C33.63 15.9685 33.6181 16.0428 33.6062 16.1171C33.5736 16.3207 33.535 16.5161 33.4934 16.7115C33.4756 16.7913 33.4607 16.8711 33.44 16.9482C32.8015 19.7277 31.3584 22.078 29.3065 23.5641L29.2501 23.4182H28.9353C28.7809 22.8403 28.6116 22.2651 28.4305 21.6927C27.8069 19.7057 27.0438 17.7518 26.2509 15.8198L24.3802 20.2919L24.3416 20.4075C24.8434 20.5286 25.3601 20.6469 25.8649 20.7597C26.0253 21.5991 26.2005 22.4385 26.4172 23.2696C26.4291 23.3191 26.444 23.3714 26.4558 23.421C26.3519 23.421 26.2599 23.421 26.1797 23.421C26.0757 23.421 25.9926 23.421 25.9421 23.421C25.9451 23.4402 25.954 23.4843 25.9688 23.5476C26.0282 23.842 26.1767 24.5713 26.3252 25.3061C24.79 25.9941 23.7032 26.0904 22.8361 26.0904C22.8272 26.0904 22.8183 26.0904 22.8094 26.0904C22.7975 26.0904 22.7143 26.0739 22.7054 26.0739C22.5481 25.8372 22.1234 25.196 22.1234 25.196C22.1116 25.1823 22.1026 25.1657 22.0908 25.1547C21.6513 24.5465 20.9832 24.0787 20.2319 23.8503C19.7924 23.7209 19.3411 23.6081 18.8897 23.5173L19.537 20.5699L19.5578 20.4708L19.5281 20.3745L19.1332 19.0342C19.3262 18.9737 19.5192 18.9131 19.5608 18.8994C19.5727 18.8994 19.8073 18.7893 20.122 18.7232L20.7931 19.4305C20.4754 19.6947 20.2735 20.0772 20.2735 20.5038C20.2735 21.2991 20.9713 21.9459 21.8295 21.9459C22.6876 21.9459 23.3854 21.2991 23.3854 20.5038C23.3854 19.9534 23.0529 19.4773 22.5659 19.2324L23.3736 18.7865C23.9823 18.448 24.11 17.2096 24.0001 16.4363L23.8398 16.3042C23.7507 16.2437 23.6646 16.1804 23.6646 16.1804C23.4062 16.0097 20.1844 13.7283 20.0448 13.643C19.9112 13.8934 19.5519 14.6117 19.3619 14.9805V14.986L19.3025 15.1704C19.3025 15.1704 18.1058 15.696 16.728 16.3868C15.6441 16.9289 14.4504 17.5784 13.6397 18.4838C13.6397 18.4838 13.6397 18.4838 13.6397 18.4866C12.4045 20.0415 11.9234 21.8743 12.4787 23.7127C12.3599 23.8475 12.3955 23.809 12.3332 23.8778L12.0184 24.2356L11.3622 24.9814C10.6436 24.5988 10.2457 24.3071 10.2368 24.2989C7.82261 22.5458 6.07658 20.1543 5.22732 17.4601C5.22732 17.4601 5.22732 17.4601 5.22732 17.4573C5.08479 17.0087 4.96899 16.5519 4.87693 16.0868C4.83239 15.8556 4.59187 15.7015 4.34243 15.7428C4.093 15.7841 3.92671 16.0042 3.97125 16.2354C4.64829 19.6892 6.67344 22.7907 9.66664 24.9621C9.68445 24.9786 10.0705 25.2648 10.7742 25.6474L10.6911 25.7437L7.78995 29.1342H7.20497H6.82785C6.69126 29.1397 6.5517 29.1342 6.41213 29.1287H6.40619C6.31117 29.1287 6.21318 29.1232 6.11519 29.1287C5.98453 29.1314 5.85388 29.1452 5.72322 29.1782C4.98977 29.291 4.25335 29.4094 3.52287 29.5607C4.25335 29.7149 4.98977 29.8332 5.72322 29.946C6.09143 30.0368 6.45964 29.9736 6.82488 29.9873H8.14332L8.29179 29.8194L9.15886 28.8315L9.38751 28.5728C9.46471 28.4847 9.54489 28.3939 9.62506 28.3031L10.7564 27.0151C10.9049 26.8472 11.0563 26.6766 11.2048 26.5032C11.2197 26.4867 11.2345 26.4702 11.2493 26.4537L11.9798 25.6226C12.3243 25.229 12.6687 24.8383 13.0043 24.4585L13.2775 24.1447L13.3666 24.0429L13.4141 23.9879C14.4237 22.8018 17.1704 19.2406 17.4466 18.7315C16.9418 19.1003 16.4518 19.4801 15.9708 19.8708C15.7332 20.0662 15.4689 20.2451 15.3026 20.4956C15.0324 20.8038 13.8417 22.155 13.034 23.0742C13.0607 23.0439 13.0132 22.8513 13.0102 22.8073C13.0013 22.6972 12.9983 22.5871 12.9954 22.477C12.9894 22.2569 12.9954 22.0367 13.0132 21.8193C13.132 20.3827 13.8892 18.9874 15.1423 18.1095C15.8104 17.6417 16.5914 17.3225 17.3248 16.9592C18.1652 16.5436 19.0055 16.1281 19.8429 15.7125C19.8696 15.6988 19.8963 15.685 19.926 15.6712L20.0597 15.6052L20.125 15.4786C20.125 15.4786 20.2586 15.2171 20.3922 14.9557L22.7648 16.6179L22.266 17.3142L22.1739 17.3417L20.6625 17.7875C20.6536 17.7875 20.6446 17.7931 20.6387 17.7931L20.5556 17.8178C20.5229 17.9004 20.4249 17.8894 20.3239 17.8756C20.3121 17.8756 20.2972 17.8756 20.2853 17.8729C20.3893 17.8508 20.419 17.8453 20.511 17.8261C20.511 17.8261 20.517 17.8261 20.5199 17.8261C20.5318 17.8261 20.5407 17.8206 20.5556 17.8178H20.5496L20.125 17.7215L20.1814 17.8563C20.1814 17.8563 20.226 17.8701 20.226 17.8729C20.2438 17.8646 20.1547 17.8729 20.1755 17.8756C20.1577 17.8784 20.1992 17.8508 20.1814 17.8563L20.2289 17.8591C20.223 17.8591 20.1398 17.8756 20.1398 17.8756C20.1398 17.8756 18.2839 18.393 18.0197 18.4756C18.0197 18.4756 18.0197 18.4783 18.0197 18.4811C18.0761 18.6654 18.3433 19.5736 18.5096 20.1488L13.9961 25.0309L13.8832 25.1547L13.8743 25.1658L13.7971 25.2483C13.7971 25.2483 13.7971 25.2483 13.7971 25.2456L13.7288 25.3171L13.6427 25.4052L13.6487 25.4162L13.7318 25.3254L13.7852 25.2648C13.809 25.2868 13.8001 25.2786 13.8268 25.3006L13.9189 25.2235L14.0406 25.119L14.1653 25.0116L18.4354 21.3432L17.9603 23.509L17.8712 24.1943C18.4087 24.2934 18.9788 24.4062 19.5014 24.541C19.8667 24.6346 20.2586 24.7447 20.5763 24.9456C20.8881 25.1327 21.1584 25.3832 21.3603 25.6721L22.0343 26.6904L22.1442 26.8582C22.1442 26.8582 27.5991 27.7086 27.7535 27.7224C27.7 27.4692 27.2665 25.3089 27.0557 24.2768H28.6116C28.7779 24.7089 29.9509 27.7306 30.3339 28.7214C30.3517 28.7654 30.3666 28.8039 30.3785 28.837C28.8314 28.8755 26.3074 28.9498 25.1463 28.9636C24.983 28.9691 24.8226 28.9773 24.6623 28.9828L19.5727 28.9333C19.3708 28.9333 19.1659 28.9113 18.9699 28.8727C17.6039 28.603 16.4993 28.0003 15.7094 27.4334C15.7094 27.4334 15.6857 27.4142 15.6708 27.4059C15.6708 27.4059 15.6619 27.3977 15.659 27.3949C15.5402 27.3068 15.4273 27.2215 15.3234 27.1362C15.0354 26.8555 14.7622 26.5665 14.5157 26.2638C14.5098 26.2556 14.5038 26.2501 14.4979 26.2446C14.4979 26.2446 14.4979 26.2418 14.492 26.239C14.492 26.239 14.492 26.2335 14.486 26.2308C14.4742 26.217 14.4623 26.2005 14.4504 26.1868C14.4148 26.1427 14.388 26.1097 14.3702 26.0877C14.3613 26.0767 14.3583 26.0684 14.3554 26.0684C14.3554 26.0684 14.3376 26.0437 14.3257 26.0299C14.3227 26.0271 14.3197 26.0216 14.3168 26.0189C14.1386 25.7877 13.9753 25.5483 13.8268 25.3034C13.8268 25.3034 13.8268 25.3034 13.8268 25.3006L13.7585 25.3584L13.7496 25.3639L13.6635 25.4382V25.4437L13.7496 25.5455C13.8298 25.6446 13.9129 25.7437 13.999 25.84C14.005 25.8455 14.0109 25.8538 14.0139 25.8593C14.0555 25.906 14.097 25.9501 14.1386 25.9969C14.1386 25.9969 14.1416 26.0024 14.1445 26.0051C14.2039 26.0684 14.2604 26.1317 14.3227 26.195C14.3346 26.2088 14.3465 26.2225 14.3613 26.2335C14.391 26.2638 14.4207 26.2941 14.4534 26.3244C14.59 26.4675 14.7325 26.6051 14.878 26.7399C14.9077 26.7702 14.9344 26.795 14.9641 26.8225C15.0324 26.8885 15.1037 26.9518 15.172 27.0151C15.0918 26.9463 15.0146 26.883 14.9463 26.8225C14.9404 26.817 14.9374 26.8142 14.9344 26.8087C14.7147 26.6106 14.5484 26.4454 14.4474 26.3354C14.4059 26.2913 14.3762 26.2583 14.3554 26.2335C14.3465 26.2225 14.3376 26.2143 14.3346 26.2088C14.3405 26.217 14.3465 26.2253 14.3524 26.2335C14.3791 26.2693 14.4059 26.3051 14.4326 26.3409C14.4326 26.3436 14.4385 26.3464 14.4415 26.3519C14.5632 26.5115 14.6939 26.6684 14.8305 26.8225C15.359 27.4087 15.9767 27.9343 16.5201 28.3471L16.6151 28.4187C16.6418 28.4407 16.6686 28.4599 16.6983 28.4819C16.8646 28.6058 17.0219 28.7159 17.1615 28.815C17.1853 28.8315 17.209 28.848 17.2328 28.8645C17.2595 28.8837 17.2832 28.9003 17.31 28.9168H17.2565L16.6804 28.9113L10.1833 28.848L9.15886 29.8249H22.94C23.6854 29.8442 24.4336 29.8552 25.179 29.836C25.2621 29.8332 25.3571 29.8277 25.4462 29.8249H31.7652L31.5455 29.3131C31.5098 29.2167 31.4653 29.1039 31.4653 29.1039L29.642 24.4062C29.6688 24.3952 29.6955 24.3814 29.7163 24.3649C32.2819 22.5871 34.0012 19.5984 34.5476 16.1033V16.0978C34.5476 16.095 34.5476 16.0895 34.5476 16.0868C34.5476 16.0785 34.5505 16.0703 34.5535 16.0565C34.5535 16.04 34.5594 16.0235 34.5624 16.007C34.5654 15.9795 34.5713 15.9492 34.5743 15.9107C34.5743 15.9024 34.5743 15.8969 34.5772 15.8886C34.3902 15.8886 34.2031 15.8942 34.016 15.8969L34.0131 15.8886ZM25.5739 26.5198C25.8679 26.4262 26.1737 26.3134 26.5004 26.173C26.536 26.3574 26.5716 26.528 26.6043 26.6794C26.3608 26.6408 26.0461 26.5913 25.5739 26.5198ZM28.772 23.421C28.3088 23.421 27.2546 23.421 26.5568 23.421C26.5806 22.3724 26.542 21.3239 26.4826 20.2809C26.1173 20.157 25.7521 20.0387 25.3839 19.9204C25.6571 19.2792 25.9184 18.6324 26.1767 17.9829C26.9191 19.6975 27.7119 21.3955 28.6265 23.0412C28.6948 23.1678 28.7661 23.2916 28.8373 23.4182H28.775L28.772 23.421ZM13.6487 25.4217V25.4162L13.4764 25.6006L13.6635 25.4382L13.6487 25.4217ZM14.2901 26.0492L14.3524 26.0684C14.3524 26.0684 14.3346 26.0437 14.3227 26.0299C14.3197 26.0271 14.3168 26.0216 14.3138 26.0189C14.1356 25.7877 13.9723 25.5483 13.8238 25.3034C13.8238 25.3034 13.8238 25.3034 13.8238 25.3006L13.7556 25.3584L13.7466 25.3639L13.6605 25.4382V25.4437L13.7466 25.5455C13.8268 25.6446 13.91 25.7437 13.9961 25.84C14.002 25.8455 14.008 25.8538 14.0109 25.8593C14.0525 25.906 14.0941 25.9501 14.1356 25.9969C14.1356 25.9969 14.1386 26.0024 14.1416 26.0051C14.201 26.0684 14.2574 26.1317 14.3197 26.195C14.3316 26.2088 14.3435 26.2225 14.3583 26.2335H14.4563L14.2901 26.0492ZM13.6487 25.4217V25.4162L13.4764 25.6006L13.6635 25.4382L13.6487 25.4217ZM25.9451 23.421C25.9481 23.4402 25.957 23.4843 25.9718 23.5476C26.0253 23.5173 26.0787 23.4843 26.1322 23.4512C26.147 23.4402 26.1648 23.432 26.1797 23.421C26.0757 23.421 25.9926 23.421 25.9421 23.421H25.9451ZM13.6487 25.4217V25.4162L13.4764 25.6006L13.6635 25.4382L13.6487 25.4217ZM14.4504 26.1868C14.4148 26.1427 14.388 26.1097 14.3702 26.0877C14.3613 26.0767 14.3583 26.0684 14.3554 26.0684C14.3554 26.0684 14.3376 26.0437 14.3257 26.0299C14.3227 26.0271 14.3197 26.0216 14.3168 26.0189C14.1386 25.7877 13.9753 25.5483 13.8268 25.3034C13.8268 25.3034 13.8268 25.3034 13.8268 25.3006L13.7585 25.3584L13.7496 25.3639L13.6635 25.4382V25.4437L13.7496 25.5455C13.8298 25.6446 13.9129 25.7437 13.999 25.84C14.005 25.8455 14.0109 25.8538 14.0139 25.8593C14.0555 25.906 14.097 25.9501 14.1386 25.9969C14.1386 25.9969 14.1416 26.0024 14.1445 26.0051C14.2039 26.0684 14.2604 26.1317 14.3227 26.195C14.3346 26.2088 14.3465 26.2225 14.3613 26.2335H14.486C14.4742 26.2198 14.4623 26.2033 14.4504 26.1895V26.1868ZM13.6487 25.4217V25.4162L13.4764 25.6006L13.6635 25.4382L13.6487 25.4217ZM13.61 17.3555L10.0467 15.1236L9.96952 15.074L9.80917 14.9722L9.25685 14.6255L7.39799 13.4614L7.37423 13.4476L6.85458 13.1228L4.17318 11.4414L0.134741 15.9354C-0.0434257 16.1005 -0.0463952 16.3703 0.134741 16.5381C0.312907 16.706 0.603912 16.706 0.782078 16.5381L0.788016 16.5326L4.11973 12.6853L12.9152 17.9141C13.0073 18.0105 13.1349 18.06 13.2597 18.06C13.3666 18.06 13.4764 18.0242 13.5625 17.9527C13.7556 17.7986 13.7734 17.5289 13.6041 17.3527L13.61 17.3555Z" fill="#9C4322"/>
<path d="M14.332 26.2031C14.332 26.2031 14.344 26.22 14.35 26.2284H14.353C14.353 26.2284 14.335 26.2087 14.332 26.2031Z" fill="#9C4322"/>
<path d="M14.332 26.2031C14.332 26.2031 14.344 26.22 14.35 26.2284H14.353C14.353 26.2284 14.335 26.2087 14.332 26.2031Z" fill="#9C4322"/>
<path d="M14.332 26.2031C14.332 26.2031 14.344 26.22 14.35 26.2284H14.353C14.353 26.2284 14.335 26.2087 14.332 26.2031Z" fill="#9C4322"/>
<path d="M15.7078 27.4358C15.7078 27.4358 15.6833 27.4151 15.668 27.4062C15.6741 27.4151 15.6802 27.421 15.6894 27.4269C15.6956 27.4328 15.7017 27.4387 15.7109 27.4446C15.7109 27.4446 15.7109 27.4387 15.7109 27.4358H15.7078Z" fill="#9C4322"/>
<path d="M20.2852 18.48L20.5138 18L20.9978 18.1076L21.0038 18.4L20.2852 18.48Z" fill="#9C4322"/>
<path d="M15.0823 26.9935C15.0823 26.9935 14.5626 26.5395 14.0162 25.8597C13.4699 25.1799 14.135 25.879 14.135 25.879L15.1743 27.0155L15.0852 26.9908L15.0823 26.9935Z" fill="#9C4322"/>
<path d="M11.252 26.4531C11.237 26.47 11.222 26.4869 11.207 26.5039L11.252 26.4531Z" fill="#9C4322"/>
<path d="M14.9141 24.2812L14.1629 25.0078L14.0382 25.1151L13.9194 25.2197L13.8273 25.2995L13.762 25.3573L13.7531 25.3656L13.6699 25.4399L13.3196 25.7453L13.3136 25.7508L13.2305 25.8224L13.3077 25.7453V25.7426L13.5334 25.5114L13.6373 25.4013L13.7264 25.3133L13.7947 25.2417L13.9966 25.0326L14.9141 24.2812Z" fill="#9C4322"/>
<path d="M20.2841 18.1881C20.2841 18.1881 19.7169 17.2387 20.002 16.3828C20.1475 16.9855 20.2871 17.4946 20.8245 17.9817C21.362 18.4689 20.2841 18.1881 20.2841 18.1881Z" fill="#9C4322"/>
<path d="M14.9644 26.8233H14.9466C14.9317 26.8233 14.9139 26.8233 14.8991 26.8233C14.8753 26.8233 14.8516 26.8233 14.8278 26.8233C14.81 26.8233 14.7892 26.8233 14.7714 26.8205C14.5932 26.8068 14.4061 26.7765 14.225 26.738C14.1389 26.7187 14.0528 26.6995 13.9696 26.6774C13.9221 26.6664 13.8746 26.6527 13.8271 26.6389C13.2659 26.4848 12.8086 26.2949 12.8086 26.2949L13.2332 25.8326L13.3075 25.75L13.3193 25.7528L14.133 26.0032H14.1448V26.0059L14.2874 26.05L14.3497 26.0692C14.3497 26.0692 14.3586 26.0802 14.3646 26.0913C14.3824 26.1105 14.4091 26.1463 14.4448 26.1903C14.4566 26.2041 14.4685 26.2206 14.4804 26.2344C14.4804 26.2344 14.4863 26.2399 14.4863 26.2426C14.4863 26.2426 14.4893 26.2454 14.4923 26.2481C14.4982 26.2564 14.5041 26.2619 14.5101 26.2674C14.5635 26.3334 14.6259 26.4105 14.6853 26.4875C14.6853 26.4875 14.6853 26.4875 14.6853 26.4903C14.6853 26.4903 14.6882 26.493 14.6912 26.4958C14.7862 26.6114 14.8813 26.7297 14.9585 26.826L14.9644 26.8233Z" fill="#9C4322"/>
<path d="M27.8987 13.3265C27.9522 13.2275 28.0532 13.1449 28.163 13.1036C28.2194 13.0816 28.2759 13.0596 28.3353 13.0403L28.2076 12.933L27.9463 12.7156L20.2554 6.32812L19.9199 6.60333L14.0582 11.4552L9.80596 14.975L9.71094 15.0548C9.75548 15.0851 9.80002 15.1154 9.84456 15.1484L9.96928 15.0768L10.5008 14.7604L14.0463 12.6605L19.3705 9.50948L20.0654 9.09667L20.1693 9.03613L24.8759 11.6891L27.4533 13.1422L27.7325 13.299L27.869 13.3761C27.878 13.3568 27.8839 13.3403 27.8958 13.321L27.8987 13.3265Z" fill="#EFD8C4"/>
<path d="M28.1104 13.1451C28.2292 13.09 28.3599 13.057 28.4935 13.035C28.6212 13.013 28.7518 12.9937 28.8825 12.9992C28.936 12.9992 28.9894 13.0075 29.0429 13.013L28.8587 12.8589L28.5024 12.5589L20.3454 5.69531L19.6119 6.28701L14.0709 10.7563L11.2411 13.0377L11.0956 13.1561L10.7511 13.434L10.0414 14.0065L9.26046 14.6367L8.66657 15.1128L8.625 15.1485C8.71111 15.1816 8.79723 15.2174 8.88037 15.2559C9.08823 15.3522 9.28125 15.4678 9.45644 15.6026L10.0474 15.132L10.5017 14.766L14.0531 11.9287L20.2652 6.96676L20.2919 6.94474L27.6056 12.9717L27.8491 13.1726L27.959 13.2634C27.9976 13.2166 28.0511 13.1781 28.1075 13.1533L28.1104 13.1451Z" fill="#9C4322"/>
<path d="M7.02451 13.9808L6.43359 13.7277C6.91167 12.7727 7.95394 12.1562 9.08827 12.1562C10.0563 12.1562 10.959 12.5993 11.5054 13.3396L10.9679 13.6781C10.5433 13.1002 9.83954 12.7562 9.08827 12.7562C8.20635 12.7562 7.39569 13.235 7.02154 13.9781L7.02451 13.9808Z" fill="#9C4322"/>
<path d="M33.5396 11.0429C33.5514 11.1117 33.5603 11.186 33.5722 11.2658C33.5871 11.3677 33.6019 11.4777 33.6168 11.5961C33.6286 11.6759 33.6375 11.7612 33.6494 11.8465C33.6583 11.9236 33.6672 12.0006 33.6762 12.0804C33.7355 12.0997 33.7831 12.1052 33.8454 12.1079C33.8751 12.1079 33.9018 12.1079 33.9315 12.1052C34.0087 12.0226 34.0978 11.9511 34.1899 11.8878C34.2968 11.8162 34.4393 11.7309 34.5848 11.7006C34.5818 11.6649 34.5789 11.6291 34.5729 11.5933C34.5729 11.5741 34.57 11.5548 34.567 11.5355C34.5343 11.4612 34.5017 11.3814 34.472 11.3016C34.4631 11.2796 34.4541 11.2576 34.4482 11.2356C34.1691 10.4512 34.0741 9.51278 34.0681 9.46875L33.6405 10.0769L33.4297 10.3797C33.4297 10.3797 33.4772 10.6191 33.5366 11.0154C33.5366 11.0236 33.5396 11.0347 33.5425 11.0429H33.5396Z" fill="#9C4322"/>
<path d="M34.6521 15.1278C34.6432 15.2378 34.6343 15.3369 34.6284 15.4277C34.6165 15.5433 34.6076 15.6424 34.5957 15.7277C34.5898 15.7855 34.5809 15.8378 34.5749 15.8846C34.5749 15.8928 34.5749 15.8983 34.572 15.9066C34.569 15.9451 34.5631 15.9754 34.5601 16.0029C34.5601 16.0222 34.5541 16.0387 34.5512 16.0552C34.5512 16.0689 34.5482 16.08 34.5452 16.0855C34.5423 16.091 34.5452 16.0965 34.5452 16.0965C34.5452 16.0965 34.5452 16.0992 34.5452 16.102C34.5126 16.1543 34.2928 16.4845 33.9098 16.6386C33.8979 16.6441 33.8831 16.6496 33.8682 16.6524C33.7583 16.6909 33.6366 16.7157 33.5 16.7157C33.5564 16.534 33.5831 16.3304 33.6128 16.124C33.6277 16.0057 33.6396 15.8928 33.6574 15.7772C33.6574 15.758 33.6633 15.7415 33.6663 15.7249C33.6811 15.6259 33.693 15.524 33.7049 15.425C33.7168 15.3259 33.7257 15.2241 33.7376 15.125H34.6581L34.6521 15.1278Z" fill="#9C4322"/>
<path d="M36.6567 12.8201L36.6478 12.8586C36.6478 12.8586 36.4221 11.8679 35.2848 11.6422C35.0057 11.5872 34.7681 11.5762 34.5692 11.5927C34.3346 11.6147 34.1564 11.6725 34.0228 11.7358C33.9337 11.7771 33.8654 11.8239 33.8179 11.8624C33.7526 11.9147 33.7199 11.9532 33.7199 11.9532C33.7199 11.9532 33.6961 11.9147 33.6457 11.8486C33.5299 11.689 33.2656 11.367 32.8736 11.0973C32.7578 11.0175 32.6331 10.9405 32.4935 10.8744C32.0125 10.6432 31.3978 10.5277 30.6644 10.7588C28.7312 11.3725 29.0074 12.8834 29.0074 12.8834C29.0074 12.8834 28.948 12.8669 28.853 12.8559C28.6986 12.8366 28.4521 12.8339 28.2057 12.9329C28.0809 12.9825 27.9592 13.0568 27.8493 13.1669C27.8078 13.2081 27.7692 13.2549 27.7335 13.3045C27.6474 13.4228 27.5732 13.5742 27.5197 13.7585C27.1753 14.9447 28.4402 15.4235 28.8352 15.4235H30.0675C29.8626 15.396 29.6547 15.3685 29.4469 15.3492C28.9124 15.3024 28.2769 15.2639 27.9325 14.8236C27.8345 14.6997 27.7899 14.5594 27.7513 14.4135C27.7098 14.2484 27.6474 14.0833 27.6415 13.9099C27.6296 13.5384 27.9354 13.2246 28.2858 13.087C28.4759 13.0127 28.6689 12.999 28.8738 12.9907C28.9777 12.988 29.0638 12.999 29.1202 12.9219C29.334 12.6164 29.245 12.2201 29.4112 11.9009C29.432 11.8624 29.4588 11.8349 29.4885 11.8156C29.6429 11.4688 29.9576 11.2019 30.3258 11.0533C30.7416 10.8854 31.1929 10.8579 31.6413 10.8937C31.9976 10.9212 32.4371 10.9625 32.6925 11.2294C32.74 11.279 32.7548 11.3312 32.7519 11.3835C32.9389 11.5211 33.0904 11.6697 33.2003 11.7936C33.2537 11.7688 33.3131 11.7633 33.3695 11.7771C33.4764 11.7991 33.5566 11.8596 33.6397 11.9202C33.708 11.967 33.7823 12.0055 33.8535 12.0468C33.999 11.9257 34.1891 11.8376 34.3672 11.7743C34.7117 11.6532 35.0948 11.6395 35.4422 11.7606C35.5996 11.8156 35.748 11.8927 35.8609 12.0082C35.9886 12.1376 36.0479 12.2945 36.1222 12.4513C36.2588 12.7513 36.4934 12.8669 36.8289 12.9164C37.2209 12.9742 37.5713 13.0953 37.8474 13.3733C38.0998 13.6264 38.2483 13.9182 38.1652 14.2677C38.0909 14.5786 37.8563 14.9034 37.5445 15.0465C37.3575 15.1318 37.1526 15.1703 36.9447 15.1951C36.7309 15.2226 36.529 15.2749 36.3182 15.3217C35.8876 15.4153 35.4303 15.385 34.9908 15.3822C34.8334 15.3822 34.6731 15.385 34.5098 15.3822C34.4118 15.396 34.3138 15.4098 34.2158 15.4208H37.0546C37.0546 15.4208 38.2602 15.3987 38.37 14.0723C38.4829 12.7045 36.6537 12.8146 36.6537 12.8146L36.6567 12.8201Z" fill="white"/>
<path d="M38.3086 13.0128C37.881 12.6138 37.2188 12.534 36.8684 12.5202C36.7021 12.1515 36.2894 11.5322 35.354 11.3479C35.0066 11.2791 34.7156 11.2736 34.4691 11.3038C34.2702 11.3286 34.1068 11.3754 33.9702 11.4304C33.9049 11.4579 33.8455 11.4855 33.7921 11.5157C33.7564 11.4717 33.7178 11.4277 33.6792 11.3864C33.6495 11.3534 33.6169 11.3203 33.5842 11.2873C33.5783 11.2818 33.5723 11.2763 33.5664 11.2708C33.2813 10.9873 32.9012 10.7066 32.4469 10.5277C31.9154 10.3186 31.277 10.2498 30.5584 10.4782C29.136 10.9295 28.7114 11.8845 28.6668 12.5505C28.6134 12.5505 28.554 12.5532 28.4946 12.5615C28.3224 12.578 28.1294 12.6248 27.9423 12.7211C27.8146 12.7872 27.7018 12.8697 27.6038 12.9716C27.5503 13.0266 27.4998 13.0871 27.4523 13.1532C27.3454 13.3046 27.2623 13.4834 27.2029 13.6871C27.0158 14.3311 27.2385 14.7824 27.4583 15.0466C27.8502 15.5199 28.4946 15.7346 28.8301 15.7346H37.0614C37.5811 15.7236 38.5877 15.3713 38.6916 14.1081C38.7273 13.6623 38.5966 13.2963 38.3026 13.0211L38.3086 13.0128ZM37.0585 15.1236H28.8361C28.6995 15.1236 28.2422 14.9888 27.9809 14.6723C27.7879 14.4411 27.7404 14.1659 27.8383 13.8357C27.8799 13.6871 27.9423 13.5605 28.0165 13.4587C28.0403 13.4256 28.07 13.3926 28.0997 13.3651C28.1501 13.3156 28.2036 13.2743 28.2659 13.2413C28.3402 13.2027 28.4174 13.178 28.4916 13.1642C28.5599 13.1504 28.6282 13.1449 28.6876 13.1449C28.8242 13.1449 28.9222 13.1697 28.9222 13.1697C29.0142 13.1945 29.1122 13.1807 29.1894 13.1312C29.2043 13.1229 29.2162 13.1147 29.228 13.1037C29.3112 13.0349 29.3528 12.9303 29.332 12.8285C29.3231 12.7762 29.1211 11.5625 30.7751 11.0396C31.4967 10.8112 32.0906 10.9708 32.533 11.2323C32.533 11.2323 33.4209 12.0634 33.4417 12.0992C33.4951 12.1845 33.5872 12.2423 33.6941 12.2505C33.6941 12.2505 33.7 12.2505 33.703 12.2505C33.8129 12.256 33.9138 12.212 33.9791 12.1322C33.9791 12.1322 33.9821 12.1294 33.9881 12.1239C34.0029 12.1102 34.0296 12.0854 34.0771 12.0551C34.1722 11.9918 34.3414 11.912 34.6057 11.89C34.772 11.8762 34.9739 11.8845 35.2204 11.9313C36.129 12.1102 36.328 12.8862 36.3339 12.9165C36.3725 13.0789 36.5447 13.1835 36.7199 13.1477C36.7556 13.1394 36.7882 13.1284 36.815 13.1119C37.0941 13.1202 37.584 13.1807 37.8483 13.4311C38.0057 13.5798 38.071 13.7807 38.0473 14.0476C37.9641 15.0548 37.1416 15.1154 37.0585 15.1181V15.1236Z" fill="#9C4322"/>
<path d="M18.0362 29.0218C17.9708 29.0025 17.9203 28.997 17.8817 29.0025C17.7422 29.008 17.7244 29.1016 17.5789 29.0658C17.5462 29.0576 17.5135 29.0438 17.469 29.0245C17.3948 28.9888 17.3235 28.9502 17.2493 28.909C17.2493 28.909 17.2374 28.9007 17.2285 28.898C16.3644 28.4219 15.4765 27.6403 14.7698 26.8147C14.6451 26.6716 14.5292 26.5257 14.4194 26.3826C14.3808 26.3331 14.3451 26.2835 14.3065 26.234C14.2679 26.1789 14.2293 26.1267 14.1907 26.0716C14.1907 26.0716 14.1907 26.0689 14.1878 26.0661C14.1729 26.0468 14.1581 26.0248 14.1432 26.0028C14.1432 26.0028 14.1432 25.9973 14.1373 25.9946C14.063 25.8872 13.9918 25.7771 13.9265 25.6698C13.8641 25.568 13.8077 25.4662 13.7542 25.3698C13.7542 25.3698 13.7542 25.3671 13.7542 25.3643C13.7453 25.3506 13.7394 25.3396 13.7334 25.3258C13.7334 25.3258 13.7334 25.3231 13.7305 25.3203C13.7305 25.3203 13.7334 25.3231 13.7364 25.3258C13.7453 25.3368 13.7542 25.3478 13.7631 25.3588C13.7631 25.3588 13.7631 25.3588 13.7631 25.3616C13.9443 25.5845 14.1284 25.8047 14.3184 26.0193C14.3184 26.0221 14.3214 26.0276 14.3273 26.0303C14.3867 26.0991 14.4431 26.1652 14.5055 26.2312C14.8024 26.5615 15.1113 26.8862 15.4379 27.1917C15.4884 27.2412 15.5389 27.288 15.5923 27.3348C15.6131 27.3568 15.6368 27.3761 15.6576 27.3953C15.6606 27.3953 15.6665 27.4008 15.6695 27.4064C15.6754 27.4146 15.6844 27.4201 15.6903 27.4256C15.6962 27.4311 15.7022 27.4366 15.7111 27.4421C16.2842 27.954 16.9078 28.4163 17.5967 28.7989C17.7422 28.8787 17.8907 28.9557 18.0391 29.03L18.0362 29.0218Z" fill="#9C4322"/>
</svg>
