<svg width="131" height="133" viewBox="0 0 131 133" fill="none" xmlns="http://www.w3.org/2000/svg">
<path d="M4.27252 40.3721C3.57111 71.5554 11.4657 80.277 41.3852 79.1067V64.9222C40.3807 56.2753 37.4591 53.6943 28.8324 52.3744C13.7799 50.1208 9.39875 47.046 4.27252 40.3721Z" fill="#C3911A"/>
<path d="M43.022 29.4609C53.5338 40.2773 57.1613 46.1887 44.3933 60.0122C40.8389 52.9199 34.5694 49.6465 34.5694 49.6465C34.5694 49.6465 35.3812 40.9176 43.022 29.4609Z" fill="#C3911A"/>
<path d="M4.27252 40.3721C3.57111 71.5554 11.4657 80.277 41.3852 79.1067V64.9222C40.3807 56.2753 37.4591 53.6943 28.8324 52.3744C13.7799 50.1208 9.39875 47.046 4.27252 40.3721Z" stroke="white"/>
<path d="M43.022 29.4609C53.5338 40.2773 57.1613 46.1887 44.3933 60.0122C40.8389 52.9199 34.5694 49.6465 34.5694 49.6465C34.5694 49.6465 35.3812 40.9176 43.022 29.4609Z" stroke="white"/>
<path d="M8.09235 68.7382C-0.197253 71.9759 -0.639529 75.8305 4.27297 78.0127C50.9483 89.0385 72.4416 87.397 106.878 78.0127C113.427 75.2849 107.675 71.3757 96.5076 67.1016" stroke="black" stroke-width="2"/>
<path d="M1 74.1953C4.01293 94.2633 7.42235 109.158 32.1091 126.023C48.4823 135.298 70.3133 132.57 81.2288 126.023C93.2358 120.568 104.986 100.862 109.609 75.832" stroke="black" stroke-width="2" stroke-linecap="round"/>
<path d="M65.9453 85.1033L96.5087 45.2778C94.928 43.1579 92.9637 42.597 96.5087 38.7312C100.054 34.8653 114.008 43.2566 110.699 48.0056C107.389 52.7546 107.7 50.9145 105.241 50.1878L86.6847 82.9211" stroke="black" stroke-width="2"/>
<path d="M76.8614 50.1875C54.8853 52.4048 46.8219 57.4016 46.8438 79.102C59.0507 80.7758 64.8313 79.2346 71.9494 69.282C72.4308 63.4407 73.7327 58.6918 76.8614 50.1875Z" fill="#C3911A" stroke="white"/>
<path d="M19.0156 63.2812C25.2046 73.5041 30.7316 76.2244 41.9381 79.1024" stroke="white"/>
<path d="M45.7623 43.6406C48.0461 49.48 47.2834 53.4314 44.125 61.0984" stroke="white"/>
<path d="M47.3945 80.1935C48.7639 71.4392 51.0649 67.8979 57.2185 63.2812" stroke="white"/>
<path d="M9.1875 85.1094C14.7759 107.797 23.296 114.7 41.9339 123.298" stroke="black"/>
<path fill-rule="evenodd" clip-rule="evenodd" d="M129.992 64.2675L130.991 64.2829C130.997 63.9508 130.999 63.618 130.999 63.2846C130.999 62.9512 130.997 62.6185 130.991 62.2863L129.992 62.3018L128.992 62.3172C128.997 62.6391 128.999 62.9615 128.999 63.2846C128.999 63.6077 128.997 63.9301 128.992 64.252L129.992 64.2675ZM130.807 58.3134C130.858 58.9732 130.899 59.6358 130.93 60.301L129.931 60.3474L128.932 60.3938C128.902 59.7493 128.862 59.1075 128.813 58.4684L129.81 58.3909L130.807 58.3134ZM129.628 56.4441L130.622 56.3355C130.55 55.6744 130.467 55.0163 130.375 54.3615L129.385 54.5013L128.394 54.6411C128.484 55.2752 128.564 55.9125 128.634 56.5527L129.628 56.4441ZM129.08 52.5673L130.066 52.3964C129.952 51.7425 129.829 51.092 129.695 50.4452L128.716 50.6471L127.737 50.849C127.866 51.4753 127.985 52.1051 128.095 52.7382L129.08 52.5673ZM128.29 48.7347L129.263 48.5019C129.108 47.856 128.943 47.2139 128.769 46.5758L127.804 46.8393L126.84 47.1028C127.009 47.7206 127.168 48.3422 127.318 48.9676L128.29 48.7347ZM127.259 44.9612L128.215 44.6673C128.02 44.032 127.815 43.4011 127.6 42.7745L126.654 43.0986L125.708 43.4226C125.916 44.0292 126.114 44.6401 126.304 45.255L127.259 44.9612ZM125.991 41.2581L126.926 40.9043C126.691 40.2834 126.447 39.6673 126.193 39.0559L125.27 39.4392L124.346 39.8224C124.592 40.4143 124.828 41.0109 125.056 41.612L125.991 41.2581ZM124.491 37.643L125.402 37.2307C125.129 36.6263 124.846 36.0269 124.554 35.4328L123.656 35.8736L122.759 36.3144C123.041 36.8897 123.315 37.47 123.58 38.0553L124.491 37.643ZM122.766 34.1305L123.649 33.6616C123.338 33.0755 123.018 32.4948 122.689 31.9198L121.821 32.4163L120.953 32.9128C121.271 33.4696 121.581 34.0319 121.883 34.5994L122.766 34.1305ZM120.823 30.7333L121.675 30.2098C121.328 29.6445 120.972 29.0851 120.607 28.5317L119.772 29.0817L118.937 29.6318C119.29 30.1677 119.635 30.7094 119.971 31.2569L120.823 30.7333ZM118.67 27.4641L119.487 26.8882C119.106 26.3461 118.715 25.8103 118.317 25.2809L117.518 25.8822L116.719 26.4834C117.105 26.9961 117.483 27.5151 117.853 28.0401L118.67 27.4641ZM116.317 24.3365L117.096 23.7105C116.681 23.1934 116.258 22.683 115.828 22.1793L115.068 22.8294L114.308 23.4794C114.725 23.9672 115.135 24.4616 115.537 24.9625L116.317 24.3365ZM113.772 21.3621L114.512 20.6886C114.065 20.1985 113.611 19.7154 113.149 19.2395L112.432 19.9357L111.714 20.6319C112.161 21.0928 112.601 21.5608 113.033 22.0355L113.772 21.3621ZM111.047 18.552L111.743 17.8338C111.267 17.3726 110.783 16.9187 110.293 16.4725L109.62 17.2122L108.947 17.9518C109.422 18.384 109.89 18.8236 110.351 19.2703L111.047 18.552ZM108.152 15.9177L108.801 15.1574C108.298 14.7269 107.787 14.3042 107.27 13.8894L106.644 14.6696L106.019 15.4498C106.52 15.8516 107.014 16.261 107.502 16.678L108.152 15.9177ZM105.098 13.4691L105.698 12.6697C105.169 12.2717 104.633 11.8818 104.091 11.5002L103.515 12.318L102.94 13.1358C103.465 13.5054 103.984 13.883 104.497 14.2685L105.098 13.4691ZM101.897 11.2168L102.446 10.3814C101.893 10.0172 101.333 9.66155 100.768 9.31449L100.245 10.1668L99.7215 11.0191C100.269 11.3552 100.811 11.6996 101.347 12.0523L101.897 11.2168ZM98.5611 9.16966L99.0572 8.30136C98.482 7.97277 97.9012 7.65295 97.3149 7.34206L96.8464 8.22554L96.3779 9.10903C96.9457 9.41007 97.5081 9.71977 98.0651 10.038L98.5611 9.16966ZM95.1029 7.33595L95.5433 6.43814C94.949 6.14665 94.3495 5.86419 93.7449 5.59094L93.3331 6.50219L92.9212 7.41344C93.5066 7.67801 94.0871 7.9515 94.6625 8.23376L95.1029 7.33595ZM91.5366 5.72416L91.9194 4.80035C91.308 4.54695 90.6917 4.30284 90.0707 4.06821L89.7173 5.00366L89.3638 5.93911C89.965 6.16627 90.5617 6.40262 91.1537 6.64797L91.5366 5.72416ZM87.8766 4.34121L88.2003 3.39505C87.5737 3.18067 86.9426 2.97585 86.3073 2.78075L86.0137 3.73668L85.7202 4.69262C86.3352 4.88151 86.9462 5.07982 87.5529 5.28737L87.8766 4.34121ZM84.1353 3.19217L84.3985 2.22743C83.7604 2.05335 83.1183 1.88899 82.4723 1.73453L82.2398 2.70711L82.0072 3.6797C82.6326 3.82924 83.2543 3.98837 83.8722 4.15692L84.1353 3.19217ZM80.3272 2.28168L80.5289 1.30223C79.882 1.16903 79.2316 1.0457 78.5777 0.932397L78.4069 1.91772L78.2362 2.90303C78.8694 3.01275 79.4992 3.13217 80.1256 3.26113L80.3272 2.28168ZM76.4729 1.61389L76.6125 0.623684C75.9576 0.531345 75.2996 0.44902 74.6385 0.37687L74.53 1.37097L74.4215 2.36507C75.0618 2.43494 75.6991 2.51467 76.3332 2.60409L76.4729 1.61389ZM72.5831 1.18922L72.6605 0.192223C72.0008 0.141 71.3382 0.0998852 70.6729 0.0690343L70.6266 1.06796L70.5803 2.06689C71.2248 2.09678 71.8666 2.1366 72.5057 2.18622L72.5831 1.18922ZM68.6722 1.00759L68.6876 0.00770824C68.3555 0.00257569 68.0227 0 67.6893 0C67.356 0 67.0232 0.00257565 66.6911 0.00770812L66.7065 1.00759L66.722 2.00747C67.0438 2.0025 67.3663 2 67.6893 2C68.0124 2 68.3349 2.0025 68.6567 2.00747L68.6722 1.00759ZM64.7521 1.06796L64.7058 0.0690343C64.0405 0.0998852 63.3779 0.141 62.7182 0.192223L62.7956 1.18922L62.873 2.18622C63.5121 2.13661 64.1539 2.09678 64.7984 2.06689L64.7521 1.06796ZM60.8487 1.37097L60.7402 0.37687C60.0791 0.44902 59.421 0.531345 58.7662 0.623684L58.9058 1.61389L59.0455 2.60409C59.6796 2.51467 60.3169 2.43494 60.9572 2.36507L60.8487 1.37097ZM56.9718 1.91772L56.801 0.932398C56.1471 1.0457 55.4966 1.16903 54.8498 1.30223L55.0514 2.28168L55.2531 3.26113C55.8794 3.13217 56.5093 3.01275 57.1425 2.90304L56.9718 1.91772ZM53.1389 2.70712L52.9064 1.73453C52.2604 1.88899 51.6183 2.05335 50.9801 2.22743L51.2433 3.19218L51.5065 4.15692C52.1243 3.98837 52.746 3.82925 53.3715 3.6797L53.1389 2.70712ZM49.3649 3.73669L49.0714 2.78075C48.4361 2.97585 47.805 3.18068 47.1784 3.39505L47.5021 4.34121L47.8258 5.28737C48.4325 5.07982 49.0434 4.88151 49.6585 4.69262L49.3649 3.73669ZM45.6614 5.00366L45.3079 4.06822C44.687 4.30285 44.0707 4.54695 43.4592 4.80036L43.8421 5.72417L44.225 6.64798C44.817 6.40262 45.4137 6.16628 46.0149 5.93911L45.6614 5.00366ZM42.0456 6.5022L41.6337 5.59095C41.0292 5.8642 40.4297 6.14666 39.8354 6.43816L40.2758 7.33596L40.7162 8.23377C41.2916 7.95151 41.8721 7.67802 42.4574 7.41345L42.0456 6.5022ZM38.5323 8.22556L38.0638 7.34208C37.4775 7.65297 36.8967 7.97279 36.3215 8.30137L36.8175 9.16967L37.3136 10.038C37.8706 9.71978 38.433 9.41008 39.0007 9.10904L38.5323 8.22556ZM35.1341 10.1668L34.611 9.31451C34.0455 9.66157 33.4859 10.0173 32.9323 10.3814L33.4819 11.2168L34.0314 12.0523C34.5675 11.6996 35.1095 11.3552 35.6571 11.0191L35.1341 10.1668ZM31.8636 12.318L31.2882 11.5002C30.7459 11.8818 30.2098 12.2717 29.6802 12.6697L30.281 13.4691L30.8818 14.2685C31.3947 13.8831 31.9139 13.5054 32.4391 13.1359L31.8636 12.318ZM28.7346 14.6696L28.1091 13.8894C27.5918 14.3042 27.0811 14.7269 26.5772 15.1574L27.2268 15.9177L27.8763 16.678C28.3644 16.261 28.859 15.8516 29.3601 15.4499L28.7346 14.6696ZM25.7587 17.2122L25.0857 16.4725C24.5953 16.9188 24.1119 17.3726 23.6358 17.8338L24.3316 18.5521L25.0273 19.2703C25.4885 18.8236 25.9567 18.384 26.4317 17.9518L25.7587 17.2122ZM22.9471 19.9357L22.2292 19.2395C21.7677 19.7154 21.3136 20.1985 20.8671 20.6886L21.6063 21.3621L22.3456 22.0355C22.7781 21.5608 23.2179 21.0928 23.6649 20.6319L22.9471 19.9357ZM20.311 22.8294L19.5511 22.1793C19.1203 22.683 18.6973 23.1934 18.2822 23.7105L19.0621 24.3365L19.8419 24.9625C20.2439 24.4616 20.6537 23.9672 21.0709 23.4794L20.311 22.8294ZM17.8607 25.8822L17.0616 25.2809C16.6633 25.8103 16.2731 26.3461 15.8912 26.8882L16.7087 27.4641L17.5262 28.0401C17.8961 27.5151 18.274 26.9961 18.6597 26.4834L17.8607 25.8822ZM15.6066 29.0817L14.7715 28.5317C14.407 29.0851 14.051 29.6445 13.7037 30.2098L14.5557 30.7333L15.4077 31.2568C15.7441 30.7094 16.0888 30.1677 16.4418 29.6318L15.6066 29.0817ZM13.5577 32.4163L12.6896 31.9198C12.3607 32.4948 12.0406 33.0755 11.7295 33.6616L12.6127 34.1305L13.496 34.5994C13.7973 34.0319 14.1072 33.4696 14.4257 32.9128L13.5577 32.4163ZM11.7223 35.8736L10.8247 35.4328C10.5329 36.0269 10.2502 36.6263 9.97664 37.2307L10.8877 37.643L11.7988 38.0552C12.0636 37.47 12.3374 36.8897 12.6199 36.3144L11.7223 35.8736ZM10.1089 39.4391L9.18526 39.0559C9.10432 39.2509 9.02434 39.4465 8.94531 39.6425L10.5819 40.9397C10.7285 40.5654 10.8788 40.193 11.0325 39.8224L10.1089 39.4391ZM93.1692 119.704L93.4619 118.908C93.8645 118.721 94.2647 118.531 94.6625 118.335L95.1029 119.233L95.5433 120.131C94.949 120.423 94.3495 120.705 93.745 120.978L93.3331 120.067L93.1692 119.704ZM96.8464 118.344L97.3149 119.227C97.9012 118.916 98.482 118.596 99.0572 118.268L98.5612 117.399L98.0651 116.531C97.5081 116.849 96.9457 117.159 96.378 117.46L96.8464 118.344ZM100.245 116.402L100.768 117.255C101.333 116.908 101.893 116.552 102.446 116.188L101.897 115.352L101.347 114.517C100.811 114.87 100.269 115.214 99.7216 115.55L100.245 116.402ZM103.515 114.251L104.091 115.069C104.633 114.687 105.169 114.297 105.698 113.899L105.098 113.1L104.497 112.301C103.984 112.686 103.465 113.064 102.94 113.433L103.515 114.251ZM106.644 111.9L107.27 112.68C107.787 112.265 108.298 111.842 108.801 111.412L108.152 110.651L107.502 109.891C107.014 110.308 106.52 110.718 106.019 111.119L106.644 111.9ZM109.62 109.357L110.293 110.097C110.783 109.65 111.267 109.197 111.743 108.735L111.047 108.017L110.351 107.299C109.89 107.746 109.422 108.185 108.947 108.617L109.62 109.357ZM112.432 106.633L113.149 107.33C113.611 106.854 114.065 106.371 114.512 105.881L113.772 105.207L113.033 104.534C112.601 105.008 112.161 105.476 111.714 105.937L112.432 106.633ZM115.068 103.74L115.828 104.39C116.258 103.886 116.681 103.376 117.096 102.859L116.317 102.233L115.537 101.607C115.135 102.108 114.725 102.602 114.308 103.09L115.068 103.74ZM117.518 100.687L118.317 101.288C118.715 100.759 119.106 100.223 119.487 99.681L118.67 99.1051L117.852 98.5291C117.483 99.0541 117.105 99.5731 116.719 100.086L117.518 100.687ZM121.675 96.3594C121.328 96.9247 120.972 97.4841 120.607 98.0375L119.772 97.4874L118.937 96.9374C119.29 96.4015 119.635 95.8598 119.971 95.3123L120.823 95.8358L121.675 96.3594ZM121.821 94.1529L122.689 94.6494C123.018 94.0744 123.338 93.4937 123.649 92.9076L122.766 92.4387L121.883 91.9698C121.581 92.5373 121.271 93.0996 120.953 93.6564L121.821 94.1529ZM123.656 90.6956L124.554 91.1364C124.846 90.5423 125.129 89.9429 125.402 89.3385L124.491 88.9262L123.58 88.5139C123.315 89.0992 123.041 89.6795 122.759 90.2548L123.656 90.6956ZM125.27 87.13L126.193 87.5133C126.447 86.9019 126.691 86.2858 126.926 85.6649L125.991 85.3111L125.056 84.9572C124.828 85.5583 124.592 86.1549 124.346 86.7468L125.27 87.13ZM126.654 83.4706L127.6 83.7947C127.815 83.1681 128.02 82.5372 128.215 81.9019L127.259 81.6081L126.304 81.3142C126.114 81.9291 125.916 82.54 125.708 83.1466L126.654 83.4706ZM127.804 79.7299L128.769 79.9934C128.943 79.3553 129.108 78.7132 129.263 78.0673L128.29 77.8345L127.318 77.6016C127.168 78.227 127.009 78.8487 126.84 79.4664L127.804 79.7299ZM128.716 75.9221L129.695 76.124C129.829 75.4772 129.952 74.8267 130.066 74.1728L129.08 74.0019L128.095 73.831C127.985 74.4641 127.866 75.0939 127.737 75.7202L128.716 75.9221ZM130.622 70.2337C130.55 70.8948 130.467 71.5529 130.375 72.2077L129.385 72.0679L128.394 71.9281C128.484 71.294 128.564 70.6568 128.634 70.0165L129.628 70.1251L130.622 70.2337ZM129.81 68.1783L130.807 68.2558C130.858 67.596 130.899 66.9335 130.93 66.2682L129.931 66.2218L128.932 66.1755C128.902 66.8199 128.862 67.4618 128.813 68.1008L129.81 68.1783Z" fill="#C3911A"/>
</svg>
