<svg width="57" height="57" viewBox="0 0 57 57" fill="none" xmlns="http://www.w3.org/2000/svg">
<path d="M50.5924 44.5706L42.7923 52.3707L34.9919 44.5706C33.0026 42.5813 33.0026 39.3562 34.9919 37.3669C36.9812 35.3776 40.2063 35.3776 42.1956 37.3669L42.6131 37.7868L42.7896 37.9643L42.9669 37.7875L43.3885 37.3671L43.3887 37.3669C45.378 35.3776 48.6031 35.3776 50.5924 37.3669C52.5817 39.3562 52.5817 42.5813 50.5924 44.5706ZM27.9158 33.5089L28.25 33.5038V37.7521C20.4404 37.8841 14.1341 44.1904 14.0021 52H9.75163C9.88289 41.9554 17.9127 33.8161 27.9139 33.509C27.9145 33.5089 27.9152 33.5089 27.9158 33.5089ZM27.9725 2.63475L28.5023 2.625C36.2363 2.62624 42.5 8.89071 42.5 16.625C42.5 24.1835 36.5179 30.3381 29.0275 30.6153L28.4978 30.625C20.7637 30.6238 14.5 24.3593 14.5 16.625C14.5 9.06656 20.4822 2.91178 27.9725 2.63475ZM28.5 6.875C23.1122 6.875 18.75 11.2372 18.75 16.625C18.75 22.0128 23.1122 26.375 28.5 26.375C33.8878 26.375 38.25 22.0128 38.25 16.625C38.25 11.2372 33.8878 6.875 28.5 6.875Z" fill="black" stroke="white" stroke-width="0.5"/>
</svg>
