<svg width="94" height="101" viewBox="0 0 94 101" fill="none" xmlns="http://www.w3.org/2000/svg">
<path d="M13.4005 41.6435C-1.92757 60.6979 12.1705 84.9475 34.5145 95.9516C56.9979 107.037 76.0075 96.9271 83.9203 75.8171C91.3897 54.8413 89.97 33.073 75.0761 23.901C60.5135 14.6821 28.8085 22.3266 13.4005 41.6435Z" fill="#EED7C5"/>
<path d="M34.6116 37.0862C47.5727 30.5658 55.5852 20.3213 52.5081 14.2047C49.4309 8.08802 36.4293 8.41537 23.4682 14.9358C10.5071 21.4563 2.49453 31.7007 5.57169 37.8174C8.64885 43.934 21.6505 43.6067 34.6116 37.0862Z" fill="#EED7C5"/>
<g clip-path="url(#clip0_3640_1555)">
<mask id="path-3-inside-1_3640_1555" fill="white">
<path d="M66.9996 35.9933L66.6591 37.0584L66.6077 37.1493L66.5627 37.2078C66.1433 37.3179 65.7108 37.3682 65.2777 37.3572C65.6759 36.183 65.8098 34.9339 65.6696 33.7008C65.6562 33.533 65.6851 33.3646 65.7536 33.2112C65.8222 33.0579 65.9281 32.9246 66.0615 32.824C66.7847 32.2681 67.3191 31.4988 67.5907 30.6224L67.8027 28.9273C67.7865 28.6962 67.7456 28.4676 67.6806 28.2454C67.6806 28.1675 67.6292 28.109 67.6099 28.0571H67.4429C67.1934 28.0422 66.9589 27.9319 66.7871 27.7485C66.6152 27.5651 66.5189 27.3225 66.5177 27.0699C66.5498 23.8746 66.2157 21.8743 65.6375 20.491C64.6609 18.8219 63.1511 17.9776 61.3521 17.0684C61.0373 16.932 60.7097 16.7826 60.3884 16.6138C54.5225 22.8095 49.6654 14.8408 42.7073 26.8426H42.4696C42.3796 27.0504 42.2832 27.2582 42.1933 27.492L42.1419 27.596C42.0115 27.8242 41.7968 27.9907 41.545 28.0589C41.2932 28.1271 41.0249 28.0914 40.7991 27.9596C40.6406 27.8687 40.5507 27.8298 40.5293 27.8427C40.4907 27.8427 40.4457 27.9467 40.3879 28.083C40.2628 28.4 40.1911 28.7358 40.1759 29.0767C40.1052 30.4795 40.555 32.3239 41.4609 33.2137C41.5536 33.3027 41.628 33.4093 41.6798 33.5274C41.7316 33.6456 41.7599 33.7729 41.7628 33.9021C41.8656 38.1884 43.7481 39.8251 46.0353 41.8189L46.9991 42.6631C49.2927 44.7284 51.7149 45.7935 54.0664 45.7935C56.4179 45.7935 58.6858 44.7933 60.8189 42.7151H62.3737H62.5407C62.8556 42.7151 63.2539 42.7151 63.7036 42.7151L63.1832 43.2152L62.2323 44.1244C59.6624 46.5988 56.9254 47.7938 54.1114 47.7938C51.2973 47.7938 48.3804 46.5533 45.7141 44.1569L44.7761 43.3256C42.521 41.3772 40.6064 39.6952 40.0089 36.0453L36.9121 36.2986C36.3185 36.3871 35.7142 36.2377 35.2281 35.8822C34.742 35.5267 34.4125 34.9932 34.31 34.3957L33.1086 24.7968C33.0767 24.4928 33.1049 24.1854 33.1917 23.8925C33.2784 23.5996 33.4219 23.327 33.6138 23.0907C33.8058 22.8544 34.0423 22.659 34.3096 22.516C34.5769 22.3729 34.8697 22.2851 35.1709 22.2575L36.1796 22.1731C36.1193 22.0402 36.0844 21.8969 36.0769 21.7509C35.4729 11.7819 39.7262 5.51473 45.4764 2.50779C48.4154 1.03669 51.6793 0.354227 54.9546 0.525963C58.2298 0.697698 61.4064 1.71786 64.1791 3.48845C69.4346 6.91104 72.8654 13.1717 71.3235 21.8808C71.2985 22.0019 71.2597 22.1196 71.2078 22.2315L72.7434 22.4069C73.068 22.4406 73.3827 22.5396 73.669 22.6981C73.9552 22.8566 74.2072 23.0714 74.4102 23.3298C74.6131 23.5881 74.7629 23.8849 74.8507 24.2027C74.9385 24.5204 74.9625 24.8527 74.9214 25.18L73.7328 34.3112C73.6311 34.9688 73.2793 35.5602 72.7524 35.9594C72.2255 36.3585 71.5652 36.5338 70.9123 36.4479C70.7373 37.1375 70.5228 37.8163 70.2698 38.4807C70.0515 39.045 69.7239 39.5595 69.3061 39.9939C68.0211 41.3318 63.8707 41.3318 62.3994 41.3318H58.5445C58.1015 41.772 57.5731 42.1147 56.9925 42.3383C56.412 42.5618 55.7919 42.6614 55.1715 42.6307C53.0384 42.6307 51.3166 41.4876 51.3166 40.0783C51.3166 38.669 53.0384 37.526 55.1715 37.526C55.7709 37.5135 56.3669 37.6213 56.925 37.8432C57.483 38.065 57.9919 38.3965 58.4224 38.8184H62.3737C63.5302 38.8184 66.961 38.8184 67.5521 38.2144C67.7306 38.0278 67.8704 37.807 67.9633 37.565L68.4002 36.1881L66.9996 36.0258V35.9933ZM38.8909 18.1465C41.0754 7.84625 52.9549 1.42321 64.2305 7.96315C65.2452 8.55164 66.1694 9.28678 66.9739 10.1453C65.885 8.30446 64.3843 6.7474 62.5921 5.59916C60.2645 4.10217 57.5926 3.24069 54.8374 3.09878C52.0807 2.92607 49.3279 3.49291 46.8577 4.74189C42.6302 6.92403 39.3535 11.3143 38.8909 18.1465ZM43.247 47.9107L49.1707 63.6208L52.1518 55.0546L50.6933 53.444C49.5947 51.8204 49.9738 49.9824 51.9783 49.6512C52.7107 49.5803 53.4474 49.5651 54.182 49.6057C54.9906 49.5528 55.8024 49.5854 56.6042 49.7032C58.4931 50.1188 58.6923 51.9697 57.7478 53.444L56.3151 55.0546L59.2898 63.6273L64.6545 47.9107C68.5094 51.4307 82.1365 52.1386 86.3961 54.535C92.2941 57.8732 92.1335 64.2768 93.4249 70.2517H14.4766C15.7615 64.3352 15.6266 57.8212 21.5053 54.535C26.7416 51.5801 38.9616 51.8074 43.247 47.9107Z"/>
</mask>
<path d="M66.9996 35.9933L66.6591 37.0584L66.6077 37.1493L66.5627 37.2078C66.1433 37.3179 65.7108 37.3682 65.2777 37.3572C65.6759 36.183 65.8098 34.9339 65.6696 33.7008C65.6562 33.533 65.6851 33.3646 65.7536 33.2112C65.8222 33.0579 65.9281 32.9246 66.0615 32.824C66.7847 32.2681 67.3191 31.4988 67.5907 30.6224L67.8027 28.9273C67.7865 28.6962 67.7456 28.4676 67.6806 28.2454C67.6806 28.1675 67.6292 28.109 67.6099 28.0571H67.4429C67.1934 28.0422 66.9589 27.9319 66.7871 27.7485C66.6152 27.5651 66.5189 27.3225 66.5177 27.0699C66.5498 23.8746 66.2157 21.8743 65.6375 20.491C64.6609 18.8219 63.1511 17.9776 61.3521 17.0684C61.0373 16.932 60.7097 16.7826 60.3884 16.6138C54.5225 22.8095 49.6654 14.8408 42.7073 26.8426H42.4696C42.3796 27.0504 42.2832 27.2582 42.1933 27.492L42.1419 27.596C42.0115 27.8242 41.7968 27.9907 41.545 28.0589C41.2932 28.1271 41.0249 28.0914 40.7991 27.9596C40.6406 27.8687 40.5507 27.8298 40.5293 27.8427C40.4907 27.8427 40.4457 27.9467 40.3879 28.083C40.2628 28.4 40.1911 28.7358 40.1759 29.0767C40.1052 30.4795 40.555 32.3239 41.4609 33.2137C41.5536 33.3027 41.628 33.4093 41.6798 33.5274C41.7316 33.6456 41.7599 33.7729 41.7628 33.9021C41.8656 38.1884 43.7481 39.8251 46.0353 41.8189L46.9991 42.6631C49.2927 44.7284 51.7149 45.7935 54.0664 45.7935C56.4179 45.7935 58.6858 44.7933 60.8189 42.7151H62.3737H62.5407C62.8556 42.7151 63.2539 42.7151 63.7036 42.7151L63.1832 43.2152L62.2323 44.1244C59.6624 46.5988 56.9254 47.7938 54.1114 47.7938C51.2973 47.7938 48.3804 46.5533 45.7141 44.1569L44.7761 43.3256C42.521 41.3772 40.6064 39.6952 40.0089 36.0453L36.9121 36.2986C36.3185 36.3871 35.7142 36.2377 35.2281 35.8822C34.742 35.5267 34.4125 34.9932 34.31 34.3957L33.1086 24.7968C33.0767 24.4928 33.1049 24.1854 33.1917 23.8925C33.2784 23.5996 33.4219 23.327 33.6138 23.0907C33.8058 22.8544 34.0423 22.659 34.3096 22.516C34.5769 22.3729 34.8697 22.2851 35.1709 22.2575L36.1796 22.1731C36.1193 22.0402 36.0844 21.8969 36.0769 21.7509C35.4729 11.7819 39.7262 5.51473 45.4764 2.50779C48.4154 1.03669 51.6793 0.354227 54.9546 0.525963C58.2298 0.697698 61.4064 1.71786 64.1791 3.48845C69.4346 6.91104 72.8654 13.1717 71.3235 21.8808C71.2985 22.0019 71.2597 22.1196 71.2078 22.2315L72.7434 22.4069C73.068 22.4406 73.3827 22.5396 73.669 22.6981C73.9552 22.8566 74.2072 23.0714 74.4102 23.3298C74.6131 23.5881 74.7629 23.8849 74.8507 24.2027C74.9385 24.5204 74.9625 24.8527 74.9214 25.18L73.7328 34.3112C73.6311 34.9688 73.2793 35.5602 72.7524 35.9594C72.2255 36.3585 71.5652 36.5338 70.9123 36.4479C70.7373 37.1375 70.5228 37.8163 70.2698 38.4807C70.0515 39.045 69.7239 39.5595 69.3061 39.9939C68.0211 41.3318 63.8707 41.3318 62.3994 41.3318H58.5445C58.1015 41.772 57.5731 42.1147 56.9925 42.3383C56.412 42.5618 55.7919 42.6614 55.1715 42.6307C53.0384 42.6307 51.3166 41.4876 51.3166 40.0783C51.3166 38.669 53.0384 37.526 55.1715 37.526C55.7709 37.5135 56.3669 37.6213 56.925 37.8432C57.483 38.065 57.9919 38.3965 58.4224 38.8184H62.3737C63.5302 38.8184 66.961 38.8184 67.5521 38.2144C67.7306 38.0278 67.8704 37.807 67.9633 37.565L68.4002 36.1881L66.9996 36.0258V35.9933ZM38.8909 18.1465C41.0754 7.84625 52.9549 1.42321 64.2305 7.96315C65.2452 8.55164 66.1694 9.28678 66.9739 10.1453C65.885 8.30446 64.3843 6.7474 62.5921 5.59916C60.2645 4.10217 57.5926 3.24069 54.8374 3.09878C52.0807 2.92607 49.3279 3.49291 46.8577 4.74189C42.6302 6.92403 39.3535 11.3143 38.8909 18.1465ZM43.247 47.9107L49.1707 63.6208L52.1518 55.0546L50.6933 53.444C49.5947 51.8204 49.9738 49.9824 51.9783 49.6512C52.7107 49.5803 53.4474 49.5651 54.182 49.6057C54.9906 49.5528 55.8024 49.5854 56.6042 49.7032C58.4931 50.1188 58.6923 51.9697 57.7478 53.444L56.3151 55.0546L59.2898 63.6273L64.6545 47.9107C68.5094 51.4307 82.1365 52.1386 86.3961 54.535C92.2941 57.8732 92.1335 64.2768 93.4249 70.2517H14.4766C15.7615 64.3352 15.6266 57.8212 21.5053 54.535C26.7416 51.5801 38.9616 51.8074 43.247 47.9107Z" fill="white" stroke="#9C4322" stroke-width="2" mask="url(#path-3-inside-1_3640_1555)"/>
</g>
<defs>
<clipPath id="clip0_3640_1555">
<rect width="78.9483" height="69.7377" fill="white" transform="translate(14.4766 0.5)"/>
</clipPath>
</defs>
</svg>
