<svg width="130" height="120" viewBox="0 0 130 120" fill="none" xmlns="http://www.w3.org/2000/svg">
<path d="M58.9166 92.0277C59.0731 93.5271 58.1657 97.0257 53.285 99.025C48.4043 101.024 37.1724 104.523 32.1666 106.022C29.9765 106.522 25.6902 105.722 26.0657 98.5252C26.6913 97.3589 27.4733 94.7266 25.5961 93.5271L23.2496 92.0277L24.6575 90.0285L21.8417 87.5294L23.7189 83.0312C23.5625 82.3648 22.7803 80.7321 20.9031 79.5325C18.5567 78.0331 17.1488 77.5333 20.4339 72.5353C23.0619 68.5368 25.5963 64.2052 26.5349 62.5391C27.0042 61.8727 27.3797 59.9402 25.127 57.5411C22.8744 55.142 24.5013 50.5438 25.5963 48.5446C26.5349 43.5465 30.0077 32.7507 36.3902 29.552C44.3683 25.5535 55.6315 22.5547 62.671 23.0545C68.3026 23.4543 70.3362 23.8876 70.6491 24.0543M70.6491 24.0543L73.4648 23.0545C74.247 23.2212 76.0929 24.2542 77.2192 27.0531C78.6271 30.5518 81.4429 38.0488 78.1578 44.0465C78.7836 40.2147 82.9447 32.451 94.5833 32.0512C95.6783 35.883 94.8649 45.0461 82.8508 51.0438C87.0745 48.2116 97.1175 44.9462 103.5 54.5424C101.936 57.8745 95.4281 63.339 81.9122 58.5409C87.231 60.2069 97.2114 66.2379 94.5833 77.0337C90.6725 77.5335 81.6307 75.4343 76.7499 63.0391C79.4093 66.871 82.5693 76.8338 73.9341 86.0302C70.4926 82.3649 64.9236 72.6354 70.1798 63.0391C69.2412 67.704 64.5482 77.0337 53.285 77.0337C52.8157 71.5358 54.7867 59.8404 66.4254 57.0415C60.9502 59.8737 48.9674 63.339 44.8376 54.5424C46.8712 50.7106 54.0359 44.5463 66.4254 50.544C61.2631 48.7114 51.4079 42.4471 53.285 32.0512C57.5087 31.718 66.9885 34.0504 71.1183 46.0457C69.554 44.0465 67.2701 36.8493 70.6491 24.0543Z" stroke="black" stroke-width="1.5"/>
<path d="M87.0724 76.5312C83.4744 81.8625 78.625 96.7234 88.011 113.517H51.8749C50.7798 110.518 47.9328 104.021 45.3047 102.021" stroke="black" stroke-width="1.5"/>
<path d="M31.6953 49.5401C32.4775 44.2088 36.2006 33.2464 44.8357 32.0469" stroke="black" stroke-width="1.5"/>
<path d="M81.6291 54.5434C81.6291 59.143 78.1391 62.7899 73.9318 62.7899C69.7244 62.7899 66.2344 59.143 66.2344 54.5434C66.2344 49.9438 69.7244 46.2969 73.9318 46.2969C78.1391 46.2969 81.6291 49.9438 81.6291 54.5434Z" stroke="#C3911A" stroke-width="1.5"/>
<path d="M81.4795 51.9112L83.2867 50.7746" stroke="black" stroke-width="1.5"/>
<path d="M73.9211 37.9725L75.0768 35.0289" stroke="black" stroke-width="1.5"/>
<circle cx="25.5" cy="43" r="1" fill="black"/>
<path fill-rule="evenodd" clip-rule="evenodd" d="M122.492 62.4942L123.492 62.5103C123.497 62.1742 123.5 61.8374 123.5 61.5C123.5 61.1626 123.497 60.8258 123.492 60.4897L122.492 60.5058L121.492 60.5219C121.497 60.8473 121.5 61.1733 121.5 61.5C121.5 61.8267 121.497 62.1527 121.492 62.4781L122.492 62.4942ZM122.428 58.5294L123.427 58.4811C123.395 57.8076 123.351 57.1371 123.297 56.4695L122.3 56.5502L121.304 56.6309C121.356 57.2769 121.398 57.9259 121.43 58.5776L122.428 58.5294ZM122.109 54.5805L123.102 54.4674C123.026 53.7992 122.939 53.1342 122.842 52.4727L121.853 52.6182L120.863 52.7638C120.958 53.4037 121.042 54.0471 121.115 54.6936L122.109 54.5805ZM121.532 50.6627L122.516 50.4848C122.397 49.8233 122.266 49.1655 122.126 48.5115L121.148 48.7217L120.171 48.9319C120.307 49.5645 120.433 50.2008 120.548 50.8407L121.532 50.6627ZM121.151 44.6059C121.334 45.2501 121.508 45.8987 121.671 46.5514L120.7 46.7937L119.73 47.0359C119.573 46.4046 119.405 45.7773 119.227 45.1542L120.189 44.88L121.151 44.6059ZM119.615 42.9863L120.567 42.6806C120.362 42.0407 120.146 41.4054 119.92 40.7748L118.979 41.1118L118.037 41.4487C118.256 42.0586 118.464 42.6731 118.663 43.292L119.615 42.9863ZM118.281 39.2583L119.211 38.8905C118.964 38.266 118.707 37.6464 118.44 37.032L117.523 37.4302L116.606 37.8284C116.864 38.4227 117.112 39.022 117.351 39.6261L118.281 39.2583ZM116.705 35.6275L117.608 35.1994C117.321 34.5922 117.023 33.9905 116.717 33.3944L115.828 33.852L114.938 34.3097C115.235 34.8863 115.523 35.4684 115.801 36.0557L116.705 35.6275ZM114.893 32.1071L115.767 31.6205C115.44 31.0339 115.104 30.4532 114.759 29.8786L113.901 30.3935L113.044 30.9084C113.378 31.4644 113.703 32.0262 114.019 32.5937L114.893 32.1071ZM112.854 28.7127L113.694 28.1701C113.33 27.6062 112.956 27.0487 112.574 26.4978L111.753 27.0676L110.931 27.6374C111.301 28.1705 111.662 28.7099 112.014 29.2554L112.854 28.7127ZM110.598 25.4592L111.401 24.8629C111.001 24.324 110.592 23.7919 110.174 23.2668L109.391 23.8889L108.609 24.5111C109.012 25.0192 109.408 25.5341 109.795 26.0555L110.598 25.4592ZM108.134 22.359L108.897 21.7117C108.462 21.2003 108.02 20.696 107.569 20.1991L106.828 20.8709L106.088 21.5427C106.524 22.0235 106.952 22.5114 107.372 23.0064L108.134 22.359ZM105.474 19.4258L106.193 18.7303C105.726 18.2482 105.252 17.7738 104.77 17.3072L104.074 18.0257L103.379 18.7442C103.845 19.1957 104.304 19.6548 104.756 20.1213L105.474 19.4258ZM102.629 16.6717L103.301 15.9309C102.804 15.4803 102.3 15.0377 101.788 14.6033L101.141 15.3656L100.494 16.1278C100.989 16.5481 101.477 16.9764 101.957 17.4124L102.629 16.6717ZM99.6111 14.1086L100.233 13.3257C99.7081 12.9084 99.176 12.4994 98.6371 12.0991L98.0408 12.9019L97.4445 13.7046C97.9659 14.092 98.4808 14.4876 98.9889 14.8915L99.6111 14.1086ZM96.4324 11.7473L97.0023 10.9256C96.4513 10.5435 95.8938 10.1703 95.33 9.80597L94.7873 10.6459L94.2446 11.4859C94.7901 11.8383 95.3295 12.1995 95.8626 12.5691L96.4324 11.7473ZM93.1065 9.59854L93.6214 8.74129C93.0468 8.39616 92.4661 8.06015 91.8795 7.73345L91.3929 8.60711L90.9064 9.48076C91.4739 9.79681 92.0357 10.1219 92.5916 10.4558L93.1065 9.59854ZM88.3006 5.89152C88.9078 6.17921 89.5096 6.47655 90.1056 6.78334L89.648 7.67248L89.1904 8.56162C88.6137 8.26484 88.0316 7.97721 87.4443 7.69892L87.8725 6.79522L88.3006 5.89152ZM86.0698 5.97714L86.468 5.05984C85.8536 4.79314 85.2341 4.53617 84.6095 4.28913L84.2417 5.21904L83.8739 6.14894C84.478 6.38789 85.0773 6.63645 85.6716 6.89443L86.0698 5.97714ZM82.3882 4.52108L82.7252 3.57955C82.0946 3.35389 81.4593 3.13824 80.8194 2.93279L80.5137 3.88491L80.208 4.83704C80.8269 5.03576 81.4414 5.24434 82.0513 5.4626L82.3882 4.52108ZM78.62 3.31115L78.8941 2.34947C78.2499 2.16581 77.6013 1.9924 76.9486 1.82941L76.7064 2.79962L76.4641 3.76983C77.0954 3.92747 77.7227 4.09521 78.3458 4.27284L78.62 3.31115ZM74.7783 2.35176L74.9885 1.3741C74.3345 1.23351 73.6767 1.10331 73.0152 0.983696L72.8373 1.96774L72.6593 2.95178C73.2992 3.06749 73.9355 3.19343 74.5681 3.32942L74.7783 2.35176ZM70.8818 1.64721L71.0273 0.657855C70.3658 0.560547 69.7008 0.473772 69.0326 0.397706L68.9195 1.39129L68.8064 2.38487C69.4529 2.45847 70.0963 2.54242 70.7362 2.63656L70.8818 1.64721ZM66.9498 1.19952L67.0305 0.202782C66.3629 0.148737 65.6923 0.105353 65.0189 0.0728009L64.9706 1.07163L64.9224 2.07047C65.5741 2.10197 66.2231 2.14396 66.8691 2.19626L66.9498 1.19952ZM62.9942 1.008L63.0103 0.00813033C62.6742 0.002717 62.3374 0 62 0C61.6626 0 61.3258 0.00271703 60.9897 0.00813039L61.0058 1.008L61.0219 2.00787C61.3473 2.00263 61.6733 2 62 2C62.3267 2 62.6527 2.00263 62.9781 2.00787L62.9942 1.008ZM59.0294 1.07164L58.9811 0.0728012C58.3076 0.105353 57.6371 0.148737 56.9695 0.202782L57.0502 1.19952L57.1309 2.19626C57.7769 2.14396 58.4259 2.10197 59.0776 2.07047L59.0294 1.07164ZM55.0805 1.39129L54.9674 0.397706C54.2992 0.473773 53.6342 0.560548 52.9727 0.657856L53.1182 1.64721L53.2638 2.63656C53.9037 2.54242 54.5471 2.45847 55.1936 2.38487L55.0805 1.39129ZM51.1627 1.96774L50.9848 0.983697C50.3233 1.10331 49.6655 1.23351 49.0115 1.3741L49.2217 2.35176L49.4319 3.32942C50.0645 3.19343 50.7008 3.06749 51.3407 2.95178L51.1627 1.96774ZM47.2937 2.79962L47.0514 1.82941C46.3987 1.9924 45.7501 2.16581 45.1059 2.34947L45.38 3.31115L45.6542 4.27284C46.2773 4.09521 46.9046 3.92747 47.5359 3.76983L47.2937 2.79962ZM43.4863 3.88491L43.1806 2.93279C42.5407 3.13824 41.9054 3.35389 41.2748 3.57955L41.6118 4.52108L41.9487 5.4626C42.5586 5.24434 43.1731 5.03576 43.792 4.83704L43.4863 3.88491ZM39.7583 5.21903L39.3905 4.28913C38.766 4.53617 38.1464 4.79313 37.532 5.05984L37.9302 5.97713L38.3284 6.89443C38.9227 6.63645 39.522 6.38789 40.1261 6.14894L39.7583 5.21903ZM36.1275 6.79521L35.6994 5.89152C35.0922 6.1792 34.4905 6.47654 33.8944 6.78333L34.352 7.67247L34.8097 8.56161C35.3863 8.26483 35.9684 7.9772 36.5557 7.69891L36.1275 6.79521ZM32.6071 8.6071L32.1205 7.73344C31.5339 8.06013 30.9532 8.39615 30.3786 8.74128L30.8935 9.59853L31.4084 10.4558C31.9644 10.1219 32.5262 9.7968 33.0937 9.48075L32.6071 8.6071ZM29.2127 10.6459L28.6701 9.80596C28.1062 10.1702 27.5487 10.5435 26.9978 10.9255L27.5676 11.7473L28.1374 12.5691C28.6705 12.1994 29.2099 11.8383 29.7554 11.4858L29.2127 10.6459ZM25.9592 12.9019L25.3629 12.0991C24.824 12.4994 24.2919 12.9083 23.7668 13.3257L24.3889 14.1086L25.0111 14.8914C25.5192 14.4876 26.0341 14.0919 26.5555 13.7046L25.9592 12.9019ZM22.859 15.3655L22.2117 14.6033C21.7003 15.0377 21.196 15.4803 20.6991 15.9309L21.3709 16.6717L22.0427 17.4124C22.5235 16.9764 23.0114 16.5481 23.5064 16.1278L22.859 15.3655ZM17.8072 18.7303C18.2738 18.2482 18.7482 17.7738 19.2303 17.3071L19.9258 18.0256L20.6213 18.7442C20.1548 19.1957 19.6957 19.6548 19.2442 20.1213L18.5257 19.4258L17.8072 18.7303ZM17.1717 20.8709L16.4309 20.1991C15.9803 20.696 15.5377 21.2002 15.1033 21.7117L15.8656 22.359L16.6278 23.0063C17.0481 22.5114 17.4764 22.0235 17.9124 21.5426L17.1717 20.8709ZM14.6086 23.8889L13.8257 23.2667C13.4084 23.7919 12.9994 24.324 12.5991 24.8629L13.4019 25.4592L14.2046 26.0555C14.592 25.5341 14.9876 25.0192 15.3915 24.5111L14.6086 23.8889ZM12.2473 27.0676L11.4256 26.4977C11.0435 27.0487 10.6703 27.6062 10.306 28.17L11.1459 28.7127L11.9859 29.2554C12.3383 28.7099 12.6995 28.1705 13.0691 27.6374L12.2473 27.0676ZM10.0985 30.3935L9.24129 29.8786C8.89616 30.4532 8.56015 31.0339 8.23346 31.6205L9.10711 32.1071L9.98076 32.5936C10.2968 32.0261 10.6219 31.4643 10.9558 30.9084L10.0985 30.3935ZM8.17248 33.852L7.28334 33.3944C6.97655 33.9904 6.67921 34.5922 6.39152 35.1994L7.29522 35.6275L8.19892 36.0557C8.47721 35.4683 8.76484 34.8863 9.06162 34.3096L8.17248 33.852ZM6.47714 37.4302L5.55985 37.032C5.29314 37.6464 5.03617 38.266 4.78913 38.8905L5.71904 39.2583L6.64894 39.6261C6.88789 39.022 7.13645 38.4227 7.39443 37.8284L6.47714 37.4302ZM5.02108 41.1118L4.07955 40.7748C3.85389 41.4054 3.63824 42.0407 3.43279 42.6806L4.38491 42.9863L5.33704 43.292C5.53576 42.6731 5.74434 42.0586 5.9626 41.4487L5.02108 41.1118ZM3.81115 44.88L2.84947 44.6059C2.66581 45.2501 2.4924 45.8987 2.32941 46.5514L3.29962 46.7937L4.26983 47.0359C4.42747 46.4046 4.59521 45.7773 4.77284 45.1542L3.81115 44.88ZM2.85176 48.7217L1.8741 48.5115C1.73351 49.1655 1.60331 49.8233 1.4837 50.4848L2.46774 50.6627L3.45178 50.8407C3.56749 50.2008 3.69343 49.5645 3.82942 48.9319L2.85176 48.7217ZM2.14721 52.6182L1.15786 52.4727C1.06055 53.1342 0.973772 53.7992 0.897705 54.4674L1.89129 54.5805L2.88487 54.6936C2.95847 54.0471 3.04242 53.4037 3.13656 52.7638L2.14721 52.6182ZM1.69952 56.5502L0.702781 56.4695C0.648736 57.1371 0.605353 57.8077 0.572801 58.4811L1.57163 58.5294L2.57047 58.5776C2.60197 57.9259 2.64396 57.2769 2.69626 56.6309L1.69952 56.5502ZM0.5 61.5C0.5 61.1626 0.502717 60.8258 0.50813 60.4897L1.508 60.5058L2.50787 60.5219C2.50263 60.8473 2.5 61.1733 2.5 61.5C2.5 61.8267 2.50263 62.1527 2.50787 62.4781L1.508 62.4942L0.50813 62.5103C0.502717 62.1742 0.5 61.8374 0.5 61.5ZM1.57164 64.4706L0.572801 64.5189C0.605353 65.1924 0.648737 65.8629 0.702782 66.5305L1.69952 66.4498L2.69626 66.3691C2.64396 65.7231 2.60197 65.0742 2.57047 64.4224L1.57164 64.4706ZM1.89129 68.4195L0.897706 68.5326C0.973773 69.2008 1.06055 69.8658 1.15786 70.5273L2.14721 70.3818L3.13656 70.2362C3.04242 69.5963 2.95847 68.9529 2.88487 68.3064L1.89129 68.4195ZM2.46774 72.3373L1.4837 72.5152C1.60331 73.1767 1.73351 73.8345 1.8741 74.4885L2.85176 74.2783L3.82942 74.0681C3.69343 73.4355 3.56749 72.7992 3.45178 72.1593L2.46774 72.3373ZM3.29962 76.2063L2.32941 76.4486C2.4924 77.1013 2.66581 77.7499 2.84947 78.3941L3.81115 78.12L4.77284 77.8458C4.59521 77.2227 4.42747 76.5954 4.26983 75.9641L3.29962 76.2063ZM4.38491 80.0137L3.43279 80.3194C3.63824 80.9593 3.85389 81.5946 4.07955 82.2252L5.02108 81.8882L5.9626 81.5513C5.74434 80.9414 5.53576 80.3269 5.33704 79.708L4.38491 80.0137ZM5.71903 83.7417L4.78913 84.1095C5.03617 84.734 5.29313 85.3536 5.55984 85.968L6.47713 85.5698L7.39443 85.1716C7.13645 84.5773 6.88789 83.978 6.64894 83.3739L5.71903 83.7417ZM7.29521 87.3725L6.39152 87.8006C6.6792 88.4078 6.97654 89.0095 7.28333 89.6056L8.17247 89.148L9.06161 88.6903C8.76483 88.1137 8.4772 87.5316 8.19891 86.9443L7.29521 87.3725ZM9.1071 90.8929L8.23344 91.3795C8.56013 91.9661 8.89615 92.5468 9.24128 93.1214L10.0985 92.6065L10.9558 92.0916C10.6219 91.5356 10.2968 90.9738 9.98075 90.4063L9.1071 90.8929ZM11.1459 94.2873L10.306 94.8299C10.6702 95.3938 11.0435 95.9513 11.4255 96.5022L12.2473 95.9324L13.0691 95.3626C12.6994 94.8295 12.3383 94.2901 11.9858 93.7446L11.1459 94.2873ZM13.4019 97.5408L12.5991 98.1371C12.9994 98.676 13.4083 99.2081 13.8257 99.7332L14.6086 99.1111L15.3914 98.4889C14.9876 97.9808 14.5919 97.4659 14.2046 96.9445L13.4019 97.5408ZM15.8655 100.641L15.1033 101.288C15.5377 101.8 15.9803 102.304 16.4309 102.801L17.1717 102.129L17.9124 101.457C17.4764 100.977 17.0481 100.489 16.6278 99.9936L15.8655 100.641ZM18.5256 103.574L17.8071 104.27C18.2738 104.752 18.7482 105.226 19.2303 105.693L19.9258 104.974L20.6213 104.256C20.1548 103.804 19.6957 103.345 19.2442 102.879L18.5256 103.574ZM21.3709 106.328L20.6991 107.069C21.196 107.52 21.7002 107.962 22.2117 108.397L22.859 107.634L23.5063 106.872C23.0114 106.452 22.5235 106.024 22.0426 105.588L21.3709 106.328ZM24.3889 108.891L23.7667 109.674C24.2919 110.092 24.824 110.501 25.3629 110.901L25.9592 110.098L26.5555 109.295C26.0341 108.908 25.5192 108.512 25.0111 108.109L24.3889 108.891ZM27.5676 111.253L26.9977 112.074C27.5487 112.456 28.1062 112.83 28.67 113.194L29.2127 112.354L29.7554 111.514C29.2099 111.162 28.6705 110.801 28.1374 110.431L27.5676 111.253ZM94.7873 112.354L95.3299 113.194C95.8938 112.83 96.4513 112.456 97.0022 112.074L96.4324 111.253L95.8626 110.431C95.3295 110.801 94.7901 111.162 94.2446 111.514L94.7873 112.354ZM98.0408 110.098L98.6371 110.901C99.176 110.501 99.7081 110.092 100.233 109.674L99.6111 108.891L98.9889 108.109C98.4808 108.512 97.9659 108.908 97.4445 109.295L98.0408 110.098ZM101.141 107.634L101.788 108.397C102.3 107.962 102.804 107.52 103.301 107.069L102.629 106.328L101.957 105.588C101.477 106.024 100.989 106.452 100.494 106.872L101.141 107.634ZM104.074 104.974L104.77 105.693C105.252 105.226 105.726 104.752 106.193 104.27L105.474 103.574L104.756 102.879C104.304 103.345 103.845 103.804 103.379 104.256L104.074 104.974ZM106.828 102.129L107.569 102.801C108.02 102.304 108.462 101.8 108.897 101.288L108.134 100.641L107.372 99.9937C106.952 100.489 106.524 100.977 106.088 101.457L106.828 102.129ZM109.391 99.1111L110.174 99.7333C110.592 99.2081 111.001 98.676 111.401 98.1371L110.598 97.5408L109.795 96.9445C109.408 97.4659 109.012 97.9808 108.609 98.4889L109.391 99.1111ZM111.753 95.9324L112.574 96.5023C112.956 95.9513 113.33 95.3938 113.694 94.83L112.854 94.2873L112.014 93.7446C111.662 94.2901 111.301 94.8295 110.931 95.3626L111.753 95.9324ZM113.901 92.6065L114.759 93.1214C115.104 92.5468 115.44 91.9661 115.767 91.3795L114.893 90.8929L114.019 90.4064C113.703 90.9739 113.378 91.5357 113.044 92.0916L113.901 92.6065ZM115.828 89.148L116.717 89.6056C117.023 89.0096 117.321 88.4078 117.608 87.8006L116.705 87.3725L115.801 86.9443C115.523 87.5316 115.235 88.1137 114.938 88.6904L115.828 89.148ZM117.523 85.5698L118.44 85.968C118.707 85.3536 118.964 84.7341 119.211 84.1095L118.281 83.7417L117.351 83.3739C117.112 83.978 116.864 84.5773 116.606 85.1716L117.523 85.5698ZM118.979 81.8882L119.92 82.2252C120.146 81.5946 120.362 80.9593 120.567 80.3194L119.615 80.0137L118.663 79.708C118.464 80.3269 118.256 80.9414 118.037 81.5513L118.979 81.8882ZM120.189 78.12L121.151 78.3941C121.334 77.7499 121.508 77.1013 121.671 76.4486L120.7 76.2064L119.73 75.9641C119.573 76.5954 119.405 77.2227 119.227 77.8458L120.189 78.12ZM122.516 72.5152C122.397 73.1767 122.266 73.8345 122.126 74.4885L121.148 74.2783L120.171 74.0681C120.307 73.4355 120.433 72.7992 120.548 72.1593L121.532 72.3373L122.516 72.5152ZM121.853 70.3818L122.842 70.5273C122.939 69.8658 123.026 69.2008 123.102 68.5326L122.109 68.4195L121.115 68.3064C121.042 68.9529 120.958 69.5963 120.863 70.2362L121.853 70.3818ZM122.3 66.4498L123.297 66.5305C123.351 65.8629 123.395 65.1923 123.427 64.5189L122.428 64.4706L121.43 64.4224C121.398 65.0741 121.356 65.7231 121.304 66.3691L122.3 66.4498Z" fill="#C3911A"/>
</svg>
