<svg width="123" height="115" viewBox="0 0 123 115" fill="none" xmlns="http://www.w3.org/2000/svg">
<path d="M58.4166 92.0199C58.5731 93.5193 57.6657 97.0179 52.785 99.0172C47.9043 101.016 36.6724 104.515 31.6666 106.014C29.4765 106.514 25.1902 105.715 25.5657 98.5173C26.1913 97.3511 26.9733 94.7188 25.0961 93.5193L22.7496 92.0199L24.1575 90.0206L21.3417 87.5216L23.2189 83.0234C23.0625 82.357 22.2803 80.7243 20.4031 79.5247C18.0567 78.0253 16.6488 77.5255 19.9339 72.5274C22.5619 68.529 25.0963 64.1974 26.0349 62.5313C26.5042 61.8649 26.8797 59.9323 24.627 57.5333C22.3744 55.1342 24.0013 50.536 25.0963 48.5368C26.0349 43.5387 29.5077 32.7429 35.8902 29.5442C43.8683 25.5457 55.1315 22.5469 62.171 23.0467C67.8026 23.4465 69.8362 23.8798 70.1491 24.0465M70.1491 24.0465L72.9648 23.0467C73.747 23.2133 75.5929 24.2464 76.7192 27.0453C78.1271 30.5439 80.9429 38.041 77.6578 44.0387C78.2836 40.2068 82.4447 32.4432 94.0833 32.0434C95.1783 35.8752 94.3649 45.0383 82.3508 51.036C86.5745 48.2037 96.6175 44.9383 103 54.5346C101.436 57.8666 94.9281 63.3312 81.4122 58.5331C86.731 60.1991 96.7114 66.2301 94.0833 77.0259C90.1725 77.5257 81.1307 75.4265 76.2499 63.0313C78.9093 66.8632 82.0693 76.8259 73.4341 86.0224C69.9926 82.3571 64.4236 72.6276 69.6798 63.0313C68.7412 67.6962 64.0482 77.0259 52.785 77.0259C52.3157 71.528 54.2867 59.8326 65.9254 57.0336C60.4502 59.8659 48.4674 63.3312 44.3376 54.5346C46.3712 50.7028 53.5359 44.5385 65.9254 50.5362C60.7631 48.7035 50.9079 42.4393 52.785 32.0434C57.0087 31.7102 66.4885 34.0426 70.6183 46.0379C69.054 44.0387 66.7701 36.8415 70.1491 24.0465Z" stroke="black" stroke-width="1.5"/>
<path d="M86.5724 76.5234C82.9744 81.8547 78.125 96.7156 87.511 113.509H51.3749C50.2798 110.51 47.4328 104.013 44.8047 102.014" stroke="black" stroke-width="1.5"/>
<path d="M31.1953 49.5401C31.9775 44.2088 35.7006 33.2464 44.3357 32.0469" stroke="black" stroke-width="1.5"/>
<path d="M81.1331 54.5356C81.1331 59.1352 77.643 62.7821 73.4357 62.7821C69.2283 62.7821 65.7383 59.1352 65.7383 54.5356C65.7383 49.936 69.2283 46.2891 73.4357 46.2891C77.643 46.2891 81.1331 49.936 81.1331 54.5356Z" stroke="#C3911A" stroke-width="1.5"/>
<path d="M80.9795 51.9034L82.7867 50.7668" stroke="black" stroke-width="1.5"/>
<path fill-rule="evenodd" clip-rule="evenodd" d="M121.992 62.4864L122.992 62.5025C122.997 62.1664 123 61.8296 123 61.4922C123 61.1548 122.997 60.818 122.992 60.4819L121.992 60.498L120.992 60.5141C120.997 60.8395 121 61.1655 121 61.4922C121 61.8189 120.997 62.1449 120.992 62.4703L121.992 62.4864ZM121.928 58.5215L122.927 58.4733C122.895 57.7998 122.851 57.1292 122.797 56.4617L121.8 56.5424L120.804 56.6231C120.856 57.2691 120.898 57.918 120.93 58.5698L121.928 58.5215ZM121.609 54.5727L122.602 54.4596C122.526 53.7914 122.439 53.1264 122.342 52.4649L121.353 52.6104L120.363 52.7559C120.458 53.3959 120.542 54.0393 120.615 54.6858L121.609 54.5727ZM121.032 50.6549L122.016 50.477C121.897 49.8155 121.766 49.1577 121.626 48.5037L120.648 48.7139L119.671 48.9241C119.807 49.5567 119.933 50.193 120.048 50.8328L121.032 50.6549ZM120.651 44.5981C120.834 45.2423 121.008 45.8909 121.171 46.5436L120.2 46.7858L119.23 47.0281C119.073 46.3968 118.905 45.7695 118.727 45.1464L119.689 44.8722L120.651 44.5981ZM119.115 42.9785L120.067 42.6728C119.862 42.0329 119.646 41.3976 119.42 40.767L118.479 41.104L117.537 41.4409C117.756 42.0508 117.964 42.6653 118.163 43.2842L119.115 42.9785ZM117.781 39.2505L118.711 38.8827C118.464 38.2581 118.207 37.6386 117.94 37.0242L117.023 37.4224L116.106 37.8206C116.364 38.4149 116.612 39.0142 116.851 39.6183L117.781 39.2505ZM116.205 35.6197L117.108 35.1916C116.821 34.5844 116.523 33.9826 116.217 33.3866L115.328 33.8442L114.438 34.3018C114.735 34.8785 115.023 35.4605 115.301 36.0479L116.205 35.6197ZM114.393 32.0993L115.267 31.6127C114.94 31.0261 114.604 30.4454 114.259 29.8708L113.401 30.3857L112.544 30.9006C112.878 31.4565 113.203 32.0183 113.519 32.5858L114.393 32.0993ZM112.354 28.7049L113.194 28.1622C112.83 27.5984 112.456 27.0409 112.074 26.49L111.253 27.0598L110.431 27.6296C110.801 28.1627 111.162 28.7021 111.514 29.2476L112.354 28.7049ZM110.098 25.4514L110.901 24.8551C110.501 24.3162 110.092 23.7841 109.674 23.2589L108.891 23.8811L108.109 24.5033C108.512 25.0114 108.908 25.5263 109.295 26.0477L110.098 25.4514ZM107.634 22.3512L108.397 21.7039C107.962 21.1924 107.52 20.6882 107.069 20.1913L106.328 20.8631L105.588 21.5348C106.024 22.0157 106.452 22.5036 106.872 22.9986L107.634 22.3512ZM104.974 19.418L105.693 18.7225C105.226 18.2404 104.752 17.766 104.27 17.2993L103.574 18.0179L102.879 18.7364C103.345 19.1879 103.804 19.647 104.256 20.1135L104.974 19.418ZM102.129 16.6639L102.801 15.9231C102.304 15.4725 101.8 15.0299 101.288 14.5955L100.641 15.3578L99.9937 16.12C100.489 16.5403 100.977 16.9686 101.457 17.4046L102.129 16.6639ZM99.1111 14.1008L99.7333 13.3179C99.2081 12.9005 98.676 12.4916 98.1371 12.0913L97.5408 12.8941L96.9445 13.6968C97.4659 14.0842 97.9808 14.4798 98.4889 14.8837L99.1111 14.1008ZM95.9324 11.7395L96.5023 10.9177C95.9513 10.5357 95.3938 10.1624 94.83 9.79816L94.2873 10.6381L93.7446 11.478C94.2901 11.8305 94.8295 12.1916 95.3626 12.5613L95.9324 11.7395ZM92.6065 9.59073L93.1214 8.73348C92.5468 8.38835 91.9661 8.05233 91.3795 7.72564L90.8929 8.59929L90.4064 9.47295C90.9739 9.78899 91.5357 10.1141 92.0916 10.448L92.6065 9.59073ZM87.8006 5.88371C88.4078 6.17139 89.0096 6.46873 89.6056 6.77553L89.148 7.66467L88.6904 8.55381C88.1137 8.25702 87.5316 7.96939 86.9443 7.6911L87.3725 6.78741L87.8006 5.88371ZM85.5698 5.96933L85.968 5.05203C85.3536 4.78533 84.7341 4.52836 84.1095 4.28132L83.7417 5.21122L83.3739 6.14113C83.978 6.38008 84.5773 6.62864 85.1716 6.88662L85.5698 5.96933ZM81.8882 4.51326L82.2252 3.57174C81.5946 3.34608 80.9593 3.13043 80.3194 2.92497L80.0137 3.8771L79.708 4.82923C80.3269 5.02795 80.9414 5.23653 81.5513 5.45479L81.8882 4.51326ZM78.12 3.30334L78.3941 2.34165C77.7499 2.158 77.1013 1.98459 76.4486 1.8216L76.2064 2.79181L75.9641 3.76202C76.5954 3.91966 77.2227 4.08739 77.8458 4.26503L78.12 3.30334ZM74.2783 2.34395L74.4885 1.36629C73.8345 1.22569 73.1767 1.0955 72.5152 0.975884L72.3373 1.95993L72.1593 2.94397C72.7992 3.05968 73.4355 3.18562 74.0681 3.32161L74.2783 2.34395ZM70.3818 1.6394L70.5273 0.650042C69.8658 0.552735 69.2008 0.46596 68.5326 0.389893L68.4195 1.38348L68.3064 2.37706C68.9529 2.45066 69.5963 2.53461 70.2362 2.62875L70.3818 1.6394ZM66.4498 1.19171L66.5305 0.194969C65.8629 0.140924 65.1923 0.0975404 64.5189 0.0649884L64.4706 1.06382L64.4224 2.06266C65.0741 2.09416 65.7231 2.13615 66.3691 2.18845L66.4498 1.19171ZM62.4942 1.00019L62.5103 0.000317825C62.1742 -0.0050955 61.8374 -0.0078125 61.5 -0.0078125C61.1626 -0.0078125 60.8258 -0.00509547 60.4897 0.000317888L60.5058 1.00019L60.5219 2.00006C60.8473 1.99482 61.1733 1.99219 61.5 1.99219C61.8267 1.99219 62.1527 1.99482 62.4781 2.00006L62.4942 1.00019ZM58.5294 1.06382L58.4811 0.0649887C57.8076 0.0975407 57.1371 0.140924 56.4695 0.194969L56.5502 1.19171L56.6309 2.18845C57.2769 2.13615 57.9259 2.09416 58.5776 2.06266L58.5294 1.06382ZM54.5805 1.38348L54.4674 0.389894C53.7992 0.46596 53.1342 0.552736 52.4727 0.650043L52.6182 1.6394L52.7638 2.62875C53.4037 2.53461 54.0471 2.45066 54.6936 2.37706L54.5805 1.38348ZM50.6627 1.95993L50.4848 0.975884C49.8233 1.0955 49.1655 1.22569 48.5115 1.36629L48.7217 2.34395L48.9319 3.32161C49.5645 3.18562 50.2008 3.05968 50.8407 2.94397L50.6627 1.95993ZM46.7937 2.79181L46.5514 1.8216C45.8987 1.98459 45.2501 2.158 44.6059 2.34165L44.88 3.30334L45.1542 4.26503C45.7773 4.08739 46.4046 3.91966 47.0359 3.76202L46.7937 2.79181ZM42.9863 3.8771L42.6806 2.92497C42.0407 3.13043 41.4054 3.34608 40.7748 3.57174L41.1118 4.51326L41.4487 5.45479C42.0586 5.23653 42.6731 5.02795 43.292 4.82923L42.9863 3.8771ZM39.2583 5.21122L38.8905 4.28132C38.266 4.52835 37.6464 4.78532 37.032 5.05203L37.4302 5.96932L37.8284 6.88661C38.4227 6.62863 39.022 6.38007 39.6261 6.14113L39.2583 5.21122ZM35.6275 6.7874L35.1994 5.8837C34.5922 6.17139 33.9905 6.46873 33.3944 6.77552L33.852 7.66466L34.3097 8.5538C34.8863 8.25702 35.4684 7.96939 36.0557 7.6911L35.6275 6.7874ZM32.1071 8.59928L31.6205 7.72563C31.0339 8.05232 30.4532 8.38833 29.8786 8.73347L30.3935 9.59071L30.9084 10.448C31.4644 10.1141 32.0262 9.78898 32.5937 9.47294L32.1071 8.59928ZM28.7127 10.6381L28.1701 9.79815C27.6062 10.1624 27.0487 10.5357 26.4978 10.9177L27.0676 11.7395L27.6374 12.5613C28.1705 12.1916 28.7099 11.8305 29.2554 11.478L28.7127 10.6381ZM25.4592 12.894L24.8629 12.0913C24.324 12.4916 23.7919 12.9005 23.2668 13.3179L23.8889 14.1007L24.5111 14.8836C25.0192 14.4798 25.5341 14.0841 26.0555 13.6968L25.4592 12.894ZM22.359 15.3577L21.7117 14.5955C21.2003 15.0299 20.696 15.4725 20.1991 15.9231L20.8709 16.6638L21.5427 17.4046C22.0235 16.9686 22.5114 16.5403 23.0064 16.12L22.359 15.3577ZM17.3072 18.7225C17.7738 18.2404 18.2482 17.766 18.7303 17.2993L19.4258 18.0178L20.1213 18.7363C19.6548 19.1879 19.1957 19.647 18.7442 20.1135L18.0257 19.418L17.3072 18.7225ZM16.6717 20.8631L15.9309 20.1913C15.4803 20.6881 15.0377 21.1924 14.6033 21.7039L15.3656 22.3512L16.1278 22.9985C16.5481 22.5036 16.9764 22.0156 17.4124 21.5348L16.6717 20.8631ZM14.1086 23.8811L13.3257 23.2589C12.9084 23.7841 12.4994 24.3162 12.0991 24.8551L12.9019 25.4514L13.7046 26.0477C14.092 25.5263 14.4876 25.0114 14.8915 24.5033L14.1086 23.8811ZM11.7473 27.0597L10.9256 26.4899C10.5435 27.0409 10.1703 27.5984 9.80597 28.1622L10.6459 28.7049L11.4859 29.2476C11.8383 28.7021 12.1995 28.1626 12.5691 27.6296L11.7473 27.0597ZM9.59854 30.3857L8.74129 29.8708C8.39616 30.4454 8.06015 31.0261 7.73346 31.6127L8.60711 32.0993L9.48076 32.5858C9.79681 32.0183 10.1219 31.4565 10.4558 30.9006L9.59854 30.3857ZM7.67248 33.8442L6.78334 33.3866C6.47655 33.9826 6.17921 34.5844 5.89152 35.1916L6.79522 35.6197L7.69892 36.0479C7.97721 35.4605 8.26484 34.8785 8.56162 34.3018L7.67248 33.8442ZM5.97714 37.4224L5.05985 37.0242C4.79314 37.6386 4.53617 38.2581 4.28913 38.8827L5.21904 39.2505L6.14894 39.6183C6.38789 39.0142 6.63645 38.4149 6.89443 37.8206L5.97714 37.4224ZM4.52108 41.104L3.57955 40.767C3.35389 41.3976 3.13824 42.0329 2.93279 42.6728L3.88491 42.9785L4.83704 43.2842C5.03576 42.6653 5.24434 42.0508 5.4626 41.4409L4.52108 41.104ZM3.31115 44.8722L2.34947 44.5981C2.16581 45.2423 1.9924 45.8909 1.82941 46.5436L2.79962 46.7858L3.76983 47.0281C3.92747 46.3968 4.09521 45.7695 4.27284 45.1464L3.31115 44.8722ZM2.35176 48.7139L1.3741 48.5037C1.23351 49.1577 1.10331 49.8155 0.983697 50.477L1.96774 50.6549L2.95178 50.8328C3.06749 50.193 3.19343 49.5567 3.32942 48.9241L2.35176 48.7139ZM1.64721 52.6104L0.657856 52.4649C0.560548 53.1264 0.473772 53.7914 0.397705 54.4596L1.39129 54.5727L2.38487 54.6858C2.45847 54.0393 2.54242 53.3959 2.63656 52.7559L1.64721 52.6104ZM1.19952 56.5424L0.202781 56.4617C0.148736 57.1292 0.105353 57.7998 0.0728011 58.4733L1.07163 58.5216L2.07047 58.5698C2.10197 57.918 2.14396 57.2691 2.19626 56.6231L1.19952 56.5424ZM0 61.4922C0 61.1548 0.002717 60.818 0.00813033 60.4819L1.008 60.498L2.00787 60.5141C2.00263 60.8395 2 61.1655 2 61.4922C2 61.8189 2.00263 62.1449 2.00787 62.4703L1.008 62.4864L0.00813039 62.5025C0.00271702 62.1664 0 61.8296 0 61.4922ZM1.07164 64.4628L0.0728011 64.5111C0.105353 65.1845 0.148737 65.8551 0.202782 66.5227L1.19952 66.442L2.19626 66.3613C2.14396 65.7153 2.10197 65.0663 2.07047 64.4145L1.07164 64.4628ZM1.39129 68.4117L0.397706 68.5248C0.473773 69.193 0.560548 69.858 0.657856 70.5195L1.64721 70.374L2.63656 70.2284C2.54242 69.5884 2.45847 68.9451 2.38487 68.2986L1.39129 68.4117ZM1.96774 72.3295L0.983696 72.5074C1.10331 73.1689 1.23351 73.8267 1.3741 74.4806L2.35176 74.2705L3.32942 74.0603C3.19343 73.4277 3.06749 72.7914 2.95178 72.1515L1.96774 72.3295ZM2.79962 76.1985L1.82941 76.4408C1.9924 77.0935 2.16581 77.7421 2.34947 78.3863L3.31115 78.1121L4.27284 77.838C4.09521 77.2149 3.92747 76.5876 3.76983 75.9563L2.79962 76.1985ZM3.88491 80.0059L2.93279 80.3116C3.13824 80.9515 3.35389 81.5868 3.57955 82.2174L4.52108 81.8804L5.4626 81.5435C5.24434 80.9336 5.03576 80.3191 4.83704 79.7001L3.88491 80.0059ZM5.21903 83.7338L4.28913 84.1016C4.53617 84.7262 4.79313 85.3458 5.05984 85.9602L5.97713 85.562L6.89443 85.1637C6.63645 84.5695 6.38789 83.9702 6.14894 83.3661L5.21903 83.7338ZM6.79521 87.3646L5.89152 87.7928C6.1792 88.4 6.47654 89.0017 6.78333 89.5978L7.67247 89.1402L8.56161 88.6825C8.26483 88.1059 7.9772 87.5238 7.69891 86.9365L6.79521 87.3646ZM8.6071 90.8851L7.73344 91.3716C8.06013 91.9583 8.39615 92.539 8.74128 93.1136L9.59853 92.5986L10.4558 92.0837C10.1219 91.5278 9.7968 90.966 9.48075 90.3985L8.6071 90.8851ZM10.6459 94.2794L9.80596 94.8221C10.1702 95.386 10.5435 95.9435 10.9255 96.4944L11.7473 95.9246L12.5691 95.3548C12.1994 94.8217 11.8383 94.2823 11.4858 93.7368L10.6459 94.2794ZM12.9019 97.533L12.0991 98.1293C12.4994 98.6682 12.9083 99.2003 13.3257 99.7254L14.1086 99.1033L14.8914 98.4811C14.4876 97.973 14.0919 97.4581 13.7046 96.9366L12.9019 97.533ZM15.3655 100.633L14.6033 101.28C15.0377 101.792 15.4803 102.296 15.9309 102.793L16.6717 102.121L17.4124 101.45C16.9764 100.969 16.5481 100.481 16.1278 99.9858L15.3655 100.633ZM18.0256 103.566L17.3071 104.262C17.7738 104.744 18.2482 105.218 18.7303 105.685L19.4258 104.967L20.1213 104.248C19.6548 103.796 19.1957 103.337 18.7442 102.871L18.0256 103.566ZM20.8709 106.321L20.1991 107.061C20.696 107.512 21.2002 107.954 21.7117 108.389L22.359 107.627L23.0063 106.864C22.5114 106.444 22.0235 106.016 21.5426 105.58L20.8709 106.321ZM23.8889 108.884L23.2667 109.666C23.7919 110.084 24.324 110.493 24.8629 110.893L25.4592 110.09L26.0555 109.288C25.5341 108.9 25.0192 108.505 24.5111 108.101L23.8889 108.884ZM27.0676 111.245L26.4977 112.067C27.0487 112.449 27.6062 112.822 28.17 113.186L28.7127 112.346L29.2554 111.506C28.7099 111.154 28.1705 110.793 27.6374 110.423L27.0676 111.245ZM94.2873 112.346L94.8299 113.186C95.3938 112.822 95.9513 112.449 96.5022 112.067L95.9324 111.245L95.3626 110.423C94.8295 110.793 94.2901 111.154 93.7446 111.506L94.2873 112.346ZM97.5408 110.09L98.1371 110.893C98.676 110.493 99.2081 110.084 99.7332 109.667L99.1111 108.884L98.4889 108.101C97.9808 108.505 97.4659 108.9 96.9445 109.288L97.5408 110.09ZM100.641 107.627L101.288 108.389C101.8 107.954 102.304 107.512 102.801 107.061L102.129 106.321L101.457 105.58C100.977 106.016 100.489 106.444 99.9936 106.864L100.641 107.627ZM103.574 104.967L104.27 105.685C104.752 105.218 105.226 104.744 105.693 104.262L104.974 103.566L104.256 102.871C103.804 103.337 103.345 103.796 102.879 104.248L103.574 104.967ZM106.328 102.121L107.069 102.793C107.52 102.296 107.962 101.792 108.397 101.28L107.634 100.633L106.872 99.9858C106.452 100.481 106.024 100.969 105.588 101.45L106.328 102.121ZM108.891 99.1033L109.674 99.7254C110.092 99.2003 110.501 98.6682 110.901 98.1293L110.098 97.533L109.295 96.9367C108.908 97.4581 108.512 97.973 108.109 98.4811L108.891 99.1033ZM111.253 95.9246L112.074 96.4944C112.456 95.9435 112.83 95.386 113.194 94.8222L112.354 94.2795L111.514 93.7368C111.162 94.2823 110.801 94.8217 110.431 95.3548L111.253 95.9246ZM113.401 92.5987L114.259 93.1136C114.604 92.539 114.94 91.9583 115.267 91.3717L114.393 90.8851L113.519 90.3986C113.203 90.9661 112.878 91.5279 112.544 92.0838L113.401 92.5987ZM115.328 89.1402L116.217 89.5978C116.523 89.0017 116.821 88.4 117.108 87.7928L116.205 87.3646L115.301 86.9365C115.023 87.5238 114.735 88.1059 114.438 88.6825L115.328 89.1402ZM117.023 85.562L117.94 85.9602C118.207 85.3458 118.464 84.7262 118.711 84.1017L117.781 83.7339L116.851 83.3661C116.612 83.9702 116.364 84.5695 116.106 85.1637L117.023 85.562ZM118.479 81.8804L119.42 82.2174C119.646 81.5868 119.862 80.9515 120.067 80.3116L119.115 80.0059L118.163 79.7001C117.964 80.3191 117.756 80.9336 117.537 81.5435L118.479 81.8804ZM119.689 78.1121L120.651 78.3863C120.834 77.7421 121.008 77.0935 121.171 76.4408L120.2 76.1985L119.23 75.9563C119.073 76.5876 118.905 77.2149 118.727 77.838L119.689 78.1121ZM122.016 72.5074C121.897 73.1689 121.766 73.8267 121.626 74.4807L120.648 74.2705L119.671 74.0603C119.807 73.4277 119.933 72.7914 120.048 72.1515L121.032 72.3295L122.016 72.5074ZM121.353 70.374L122.342 70.5195C122.439 69.858 122.526 69.193 122.602 68.5248L121.609 68.4117L120.615 68.2986C120.542 68.9451 120.458 69.5884 120.363 70.2284L121.353 70.374ZM121.8 66.442L122.797 66.5227C122.851 65.8551 122.895 65.1845 122.927 64.5111L121.928 64.4628L120.93 64.4145C120.898 65.0663 120.856 65.7153 120.804 66.3613L121.8 66.442Z" fill="#C3911A"/>
</svg>
