<svg width="126" height="123" viewBox="0 0 126 123" fill="none" xmlns="http://www.w3.org/2000/svg">
<g filter="url(#filter0_d_3843_331)">
<line x1="46.5625" y1="77.8828" x2="78.7431" y2="77.8828" stroke="#C3911A" stroke-width="2"/>
<path fill-rule="evenodd" clip-rule="evenodd" d="M120.217 59.5925L121.217 59.6093C121.222 59.2751 121.225 58.9402 121.225 58.6047C121.225 58.2691 121.222 57.9343 121.217 57.6001L120.217 57.6169L119.217 57.6337C119.222 57.9567 119.225 58.2803 119.225 58.6047C119.225 58.929 119.222 59.2527 119.217 59.5757L120.217 59.5925ZM120.151 55.6536L121.149 55.6032C121.116 54.9334 121.071 54.2665 121.015 53.6028L120.018 53.687L119.022 53.7712C119.076 54.4124 119.119 55.0567 119.152 55.704L120.151 55.6536ZM119.819 51.7298L120.812 51.6117C120.733 50.9481 120.643 50.2878 120.542 49.6311L119.554 49.783L118.566 49.9349C118.663 50.5691 118.75 51.2068 118.826 51.8478L119.819 51.7298ZM119.222 47.8416L120.204 47.656C120.08 46.9986 119.945 46.3452 119.799 45.6958L118.823 45.9151L117.847 46.1344C117.988 46.7615 118.119 47.3925 118.239 48.0273L119.222 47.8416ZM118.359 44.0051L119.327 43.7524C119.158 43.1051 118.978 42.4622 118.787 41.8238L117.829 42.1096L116.871 42.3955C117.055 43.0119 117.228 43.6327 117.392 44.2578L118.359 44.0051ZM117.234 40.2341L118.182 39.9155C117.969 39.2822 117.746 38.6537 117.512 38.0303L116.576 38.3814L115.64 38.7325C115.865 39.3344 116.081 39.9413 116.287 40.5528L117.234 40.2341ZM115.854 36.5516L116.777 36.1685C116.521 35.5511 116.255 34.939 115.979 34.3325L115.069 34.747L114.159 35.1616C114.426 35.7473 114.683 36.3384 114.93 36.9346L115.854 36.5516ZM114.223 32.9714L115.118 32.5258C114.821 31.928 114.513 31.336 114.196 30.75L113.317 31.2259L112.437 31.7018C112.743 32.2678 113.04 32.8395 113.328 33.4169L114.223 32.9714ZM112.35 29.5113L113.213 29.0055C112.875 28.4295 112.528 27.8597 112.172 27.2964L111.327 27.8312L110.482 28.3661C110.826 28.9102 111.162 29.4606 111.488 30.017L112.35 29.5113ZM110.246 26.1874L111.072 25.624C110.696 25.0724 110.311 24.5275 109.917 23.9896L109.11 24.5808L108.304 25.172C108.684 25.6916 109.057 26.2179 109.42 26.7508L110.246 26.1874ZM107.92 23.0138L108.706 22.3955C108.293 21.871 107.872 21.3536 107.442 20.8437L106.678 21.4883L105.913 22.1329C106.328 22.6255 106.735 23.1253 107.134 23.6321L107.92 23.0138ZM105.384 20.0059L106.126 19.3356C105.679 18.8404 105.223 18.3528 104.759 17.873L104.04 18.568L103.321 19.2631C103.769 19.7265 104.21 20.1976 104.642 20.6761L105.384 20.0059ZM102.649 17.1767L103.344 16.4577C102.864 15.994 102.377 15.5384 101.882 15.0912L101.211 15.8334L100.541 16.5755C101.02 17.0076 101.491 17.4478 101.954 17.8957L102.649 17.1767ZM99.7288 14.5397L100.373 13.7752C99.8636 13.3452 99.3462 12.9238 98.8217 12.5112L98.2034 13.2971L97.5851 14.0831C98.0918 14.4817 98.5916 14.8888 99.0842 15.3042L99.7288 14.5397ZM96.6364 12.107L97.2276 11.3005C96.6897 10.9062 96.1448 10.5209 95.5931 10.1447L95.0298 10.9709L94.4664 11.7971C94.9992 12.1605 95.5256 12.5327 96.0452 12.9136L96.6364 12.107ZM93.3859 9.89056L93.9208 9.04564C93.3575 8.68903 92.7877 8.34176 92.2116 8.00405L91.7059 8.86674L91.2002 9.72944C91.7566 10.0556 92.3069 10.391 92.851 10.7355L93.3859 9.89056ZM89.9912 7.90061L90.4672 7.02112C89.8812 6.70401 89.2891 6.3966 88.6913 6.0991L88.2458 6.99437L87.8003 7.88964C88.3776 8.17695 88.9494 8.47384 89.5153 8.7801L89.9912 7.90061ZM86.4701 6.14838L86.8847 5.23836C86.2781 4.96204 85.666 4.69576 85.0486 4.43973L84.6656 5.36346L84.2825 6.28718C84.8787 6.53442 85.4698 6.79156 86.0556 7.0584L86.4701 6.14838ZM82.8358 4.64127L83.1868 3.70492C82.5634 3.47118 81.935 3.24776 81.3017 3.03487L80.983 3.98274L80.6644 4.9306C81.2759 5.13618 81.8827 5.35192 82.4847 5.57762L82.8358 4.64127ZM79.1075 3.38795L79.3934 2.42967C78.755 2.23925 78.1121 2.05941 77.4647 1.89037L77.2121 2.85791L76.9594 3.82546C77.5844 3.9887 78.2053 4.16235 78.8217 4.34623L79.1075 3.38795ZM75.3021 2.39402L75.5214 1.41836C74.872 1.2724 74.2185 1.13722 73.5612 1.01302L73.3755 1.99563L73.1899 2.97824C73.8247 3.09819 74.4557 3.22873 75.0828 3.36968L75.3021 2.39402ZM71.4342 1.66321L71.586 0.674803C70.9294 0.573915 70.2691 0.483925 69.6054 0.405025L69.4874 1.39803L69.3693 2.39104C70.0104 2.46725 70.6481 2.55417 71.2823 2.65161L71.4342 1.66321ZM67.5301 1.19907L67.6143 0.202618C66.9506 0.146527 66.2838 0.101496 65.614 0.06771L65.5636 1.06644L65.5132 2.06517C66.1604 2.09782 66.8047 2.14133 67.4459 2.19551L67.5301 1.19907ZM63.6003 1.00048L63.6171 0.000623666C63.2829 -0.00499298 62.948 -0.0078125 62.6125 -0.0078125C62.277 -0.0078125 61.9421 -0.00499298 61.6079 0.000623666L61.6247 1.00048L61.6415 2.00034C61.9645 1.99491 62.2882 1.99219 62.6125 1.99219C62.9368 1.99219 63.2605 1.99491 63.5835 2.00034L63.6003 1.00048ZM59.6614 1.06644L59.611 0.0677098C58.9412 0.101496 58.2743 0.146527 57.6106 0.202618L57.6948 1.19907L57.7791 2.19551C58.4202 2.14133 59.0645 2.09782 59.7118 2.06517L59.6614 1.06644ZM55.7376 1.39803L55.6195 0.405025C54.9559 0.483926 54.2956 0.573915 53.639 0.674803L53.7908 1.66321L53.9427 2.65161C54.5769 2.55417 55.2146 2.46725 55.8557 2.39104L55.7376 1.39803ZM51.8495 1.99563L51.6638 1.01302C51.0064 1.13722 50.353 1.2724 49.7036 1.41836L49.9229 2.39402L50.1422 3.36968C50.7693 3.22873 51.4003 3.09819 52.0351 2.97824L51.8495 1.99563ZM48.0129 2.85792L47.7602 1.89037C47.1129 2.05941 46.47 2.23925 45.8316 2.42967L46.1174 3.38795L46.4033 4.34623C47.0197 4.16236 47.6405 3.9887 48.2656 3.82547L48.0129 2.85792ZM44.2419 3.98274L43.9233 3.03487C43.29 3.24777 42.6616 3.47119 42.0382 3.70492L42.3892 4.64127L42.7403 5.57762C43.3423 5.35192 43.9491 5.13618 44.5606 4.93061L44.2419 3.98274ZM40.5594 5.36346L40.1763 4.43974C39.5589 4.69577 38.9468 4.96205 38.3403 5.23836L38.7549 6.14838L39.1694 7.0584C39.7552 6.79156 40.3462 6.53442 40.9424 6.28719L40.5594 5.36346ZM36.9792 6.99438L36.5336 6.09911C35.9358 6.39661 35.3438 6.70402 34.7578 7.02112L35.2337 7.90061L35.7096 8.7801C36.2756 8.47384 36.8474 8.17695 37.4247 7.88964L36.9792 6.99438ZM33.5191 8.86675L33.0134 8.00405C32.4373 8.34177 31.8675 8.68903 31.3042 9.04564L31.8391 9.89056L32.3739 10.7355C32.918 10.391 33.4684 10.0556 34.0248 9.72944L33.5191 8.86675ZM30.1952 10.9709L29.6318 10.1447C29.0802 10.5209 28.5353 10.9062 27.9974 11.3005L28.5886 12.107L29.1798 12.9136C29.6994 12.5327 30.2257 12.1605 30.7586 11.7971L30.1952 10.9709ZM27.0216 13.2971L26.4033 12.5112C25.8788 12.9238 25.3614 13.3452 24.8515 13.7752L25.4961 14.5397L26.1408 15.3042C26.6334 14.8888 27.1331 14.4817 27.6399 14.0831L27.0216 13.2971ZM24.0137 15.8334L23.3435 15.0912C22.8482 15.5385 22.3606 15.994 21.8809 16.4577L22.5759 17.1768L23.2709 17.8958C23.7343 17.4478 24.2054 17.0076 24.6839 16.5756L24.0137 15.8334ZM21.1846 18.5681L20.4656 17.873C20.0018 18.3528 19.5463 18.8404 19.099 19.3357L19.8412 20.0059L20.5834 20.6761C21.0154 20.1976 21.4556 19.7265 21.9036 19.2631L21.1846 18.5681ZM18.5475 21.4883L17.783 20.8437C17.353 21.3536 16.9316 21.871 16.519 22.3955L17.3049 23.0138L18.0909 23.6321C18.4895 23.1253 18.8966 22.6255 19.312 22.1329L18.5475 21.4883ZM16.1148 24.5808L15.3083 23.9896C14.914 24.5275 14.5287 25.0724 14.1525 25.624L14.9787 26.1874L15.8049 26.7508C16.1683 26.2179 16.5405 25.6916 16.9214 25.172L16.1148 24.5808ZM13.8984 27.8313L13.0534 27.2964C12.6968 27.8597 12.3496 28.4295 12.0119 29.0056L12.8746 29.5113L13.7372 30.017C14.0634 29.4606 14.3988 28.9102 14.7433 28.3661L13.8984 27.8313ZM11.9084 31.2259L11.0289 30.75C10.7118 31.336 10.4044 31.928 10.1069 32.5258L11.0022 32.9714L11.8975 33.4169C12.1848 32.8396 12.4817 32.2678 12.7879 31.7018L11.9084 31.2259ZM10.1562 34.7471L9.24617 34.3325C8.96985 34.939 8.70358 35.5511 8.44755 36.1685L9.37127 36.5516L10.295 36.9346C10.5422 36.3384 10.7994 35.7474 11.0662 35.1616L10.1562 34.7471ZM8.64908 38.3814L7.71273 38.0303C7.479 38.6538 7.25558 39.2822 7.04268 39.9155L7.99055 40.2341L8.93842 40.5528C9.14399 39.9413 9.35973 39.3345 9.58543 38.7325L8.64908 38.3814ZM7.39576 42.1096L6.43748 41.8238C6.24706 42.4622 6.06723 43.1051 5.89818 43.7524L6.86573 44.0051L7.83328 44.2578C7.99651 43.6327 8.17017 43.0119 8.35404 42.3955L7.39576 42.1096ZM6.40183 45.9151L5.42617 45.6958C5.28021 46.3452 5.14503 46.9986 5.02083 47.656L6.00344 47.8416L6.98606 48.0273C7.106 47.3925 7.23655 46.7615 7.37749 46.1344L6.40183 45.9151ZM5.67102 49.783L4.68262 49.6311C4.58173 50.2878 4.49174 50.9481 4.41284 51.6117L5.40584 51.7298L6.39885 51.8478C6.47506 51.2068 6.56198 50.5691 6.65942 49.9348L5.67102 49.783ZM5.20688 53.687L4.21043 53.6028C4.15434 54.2665 4.10931 54.9334 4.07552 55.6032L5.07425 55.6536L6.07298 55.7039C6.10563 55.0567 6.14914 54.4124 6.20333 53.7712L5.20688 53.687ZM4 58.6047C4 58.2691 4.00282 57.9343 4.00844 57.6001L5.00829 57.6169L6.00815 57.6337C6.00273 57.9567 6 58.2803 6 58.6047C6 58.929 6.00273 59.2527 6.00815 59.5757L5.00829 59.5925L4.00844 59.6093C4.00282 59.2751 4 58.9402 4 58.6047ZM5.07425 61.5558L4.07552 61.6062C4.10931 62.276 4.15434 62.9428 4.21043 63.6065L5.20688 63.5223L6.20333 63.4381C6.14914 62.7969 6.10563 62.1526 6.07298 61.5054L5.07425 61.5558ZM5.40584 65.4796L4.41284 65.5976C4.49174 66.2613 4.58173 66.9215 4.68262 67.5782L5.67102 67.4264L6.65942 67.2745C6.56198 66.6403 6.47506 66.0026 6.39885 65.3615L5.40584 65.4796ZM6.00344 69.3677L5.02083 69.5534C5.14503 70.2107 5.28021 70.8642 5.42617 71.5136L6.40183 71.2943L7.37749 71.075C7.23655 70.4479 7.106 69.8169 6.98606 69.1821L6.00344 69.3677ZM6.86573 73.2043L5.89818 73.4569C6.06723 74.1042 6.24706 74.7472 6.43749 75.3856L7.39576 75.0997L8.35404 74.8139C8.17017 74.1975 7.99651 73.5766 7.83328 72.9516L6.86573 73.2043ZM7.99055 76.9752L7.04268 77.2939C7.25558 77.9272 7.479 78.5556 7.71273 79.179L8.64908 78.8279L9.58543 78.4769C9.35973 77.8749 9.144 77.2681 8.93842 76.6566L7.99055 76.9752ZM9.37127 80.6578L8.44755 81.0408C8.70358 81.6582 8.96986 82.2703 9.24617 82.8769L10.1562 82.4623L11.0662 82.0478C10.7994 81.462 10.5422 80.8709 10.295 80.2747L9.37127 80.6578ZM11.0022 84.238L10.1069 84.6835C10.4044 85.2813 10.7118 85.8734 11.0289 86.4594L11.9084 85.9834L12.7879 85.5075C12.4817 84.9416 12.1848 84.3698 11.8975 83.7925L11.0022 84.238ZM12.8746 87.6981L12.0119 88.2038C12.3496 88.7799 12.6968 89.3497 13.0535 89.913L13.8984 89.3781L14.7433 88.8432C14.3988 88.2991 14.0634 87.7488 13.7373 87.1924L12.8746 87.6981ZM14.9787 91.0219L14.1525 91.5853C14.5287 92.137 14.914 92.6819 15.3083 93.2198L16.1148 92.6286L16.9214 92.0374C16.5405 91.5178 16.1683 90.9914 15.8049 90.4586L14.9787 91.0219ZM17.3049 94.1956L16.519 94.8139C16.9316 95.3384 17.353 95.8558 17.783 96.3657L18.5475 95.721L19.312 95.0764C18.8966 94.5838 18.4895 94.084 18.0909 93.5773L17.3049 94.1956ZM20.4656 99.3363C20.0019 98.8566 19.5463 98.369 19.099 97.8737L19.8412 97.2035L20.5834 96.5333C21.0154 97.0118 21.4556 97.4829 21.9036 97.9463L21.1846 98.6413L20.4656 99.3363ZM22.5759 100.033L21.8809 100.752C22.3606 101.215 22.8482 101.671 23.3435 102.118L24.0137 101.376L24.6839 100.634C24.2054 100.202 23.7343 99.7616 23.2709 99.3136L22.5759 100.033ZM25.4961 102.67L24.8515 103.434C25.3614 103.864 25.8788 104.286 26.4033 104.698L27.0216 103.912L27.6399 103.126C27.1331 102.728 26.6334 102.321 26.1408 101.905L25.4961 102.67ZM28.5886 105.102L27.9974 105.909C28.5353 106.303 29.0802 106.688 29.6318 107.065L30.1952 106.238L30.7586 105.412C30.2257 105.049 29.6994 104.677 29.1798 104.296L28.5886 105.102ZM31.8391 107.319L31.3042 108.164C31.8675 108.52 32.4373 108.868 33.0134 109.205L33.5191 108.343L34.0248 107.48C33.4684 107.154 32.9181 106.818 32.374 106.474L31.8391 107.319ZM35.2337 109.309L34.7578 110.188C35.3438 110.505 35.9358 110.813 36.5336 111.11L36.9792 110.215L37.4247 109.32C36.8474 109.032 36.2756 108.736 35.7097 108.429L35.2337 109.309ZM38.7549 111.061L38.3403 111.971C38.9468 112.247 39.5589 112.514 40.1763 112.77L40.5594 111.846L40.9425 110.922C40.3462 110.675 39.7552 110.418 39.1694 110.151L38.7549 111.061ZM42.3892 112.568L42.0382 113.504C42.6616 113.738 43.29 113.962 43.9233 114.174L44.2419 113.227L44.5606 112.279C43.9491 112.073 43.3423 111.857 42.7403 111.632L42.3892 112.568ZM46.5625 114.993C46.3182 114.923 46.0746 114.852 45.8316 114.78L46.1174 113.821L46.4033 112.863C46.4563 112.879 46.5094 112.895 46.5625 112.91V114.993ZM79.0673 114.876C79.1761 114.844 79.2848 114.812 79.3934 114.78L79.1076 113.821L78.8642 113.005L79.0673 114.876ZM80.9831 113.227L81.3017 114.174C81.935 113.962 82.5634 113.738 83.1868 113.504L82.8358 112.568L82.4847 111.632C81.8827 111.857 81.2759 112.073 80.6644 112.279L80.9831 113.227ZM84.6656 111.846L85.0486 112.77C85.6661 112.514 86.2781 112.247 86.8847 111.971L86.4701 111.061L86.0556 110.151C85.4698 110.418 84.8787 110.675 84.2825 110.922L84.6656 111.846ZM88.2458 110.215L88.6913 111.11C89.2892 110.813 89.8812 110.505 90.4672 110.188L89.9913 109.309L89.5153 108.429C88.9494 108.736 88.3776 109.032 87.8003 109.32L88.2458 110.215ZM91.7059 108.343L92.2116 109.205C92.7877 108.868 93.3575 108.52 93.9208 108.164L93.3859 107.319L92.851 106.474C92.3069 106.818 91.7566 107.154 91.2002 107.48L91.7059 108.343ZM95.0298 106.238L95.5931 107.065C96.1448 106.688 96.6897 106.303 97.2276 105.909L96.6364 105.102L96.0452 104.296C95.5256 104.677 94.9992 105.049 94.4664 105.412L95.0298 106.238ZM98.2034 103.912L98.8217 104.698C99.3462 104.286 99.8636 103.864 100.373 103.434L99.7288 102.67L99.0842 101.905C98.5916 102.321 98.0919 102.728 97.5851 103.126L98.2034 103.912ZM101.211 101.376L101.882 102.118C102.377 101.671 102.864 101.215 103.344 100.752L102.649 100.033L101.954 99.3136C101.491 99.7616 101.02 100.202 100.541 100.634L101.211 101.376ZM104.04 98.6413L104.759 99.3363C105.223 98.8566 105.679 98.369 106.126 97.8737L105.384 97.2035L104.642 96.5333C104.21 97.0118 103.769 97.4828 103.321 97.9463L104.04 98.6413ZM106.678 95.721L107.442 96.3656C107.872 95.8557 108.293 95.3384 108.706 94.8138L107.92 94.1956L107.134 93.5773C106.735 94.084 106.328 94.5838 105.913 95.0764L106.678 95.721ZM109.11 92.6286L109.917 93.2198C110.311 92.6819 110.696 92.137 111.072 91.5853L110.246 91.0219L109.42 90.4586C109.057 90.9914 108.684 91.5178 108.304 92.0374L109.11 92.6286ZM111.327 89.3781L112.172 89.913C112.528 89.3497 112.875 88.7799 113.213 88.2038L112.35 87.6981L111.488 87.1923C111.162 87.7488 110.826 88.2991 110.482 88.8432L111.327 89.3781ZM113.317 85.9834L114.196 86.4594C114.513 85.8733 114.821 85.2813 115.118 84.6835L114.223 84.238L113.328 83.7925C113.04 84.3698 112.743 84.9416 112.437 85.5075L113.317 85.9834ZM115.069 82.4623L115.979 82.8769C116.255 82.2703 116.521 81.6582 116.777 81.0408L115.854 80.6578L114.93 80.2747C114.683 80.8709 114.426 81.462 114.159 82.0477L115.069 82.4623ZM116.576 78.8279L117.512 79.179C117.746 78.5556 117.969 77.9272 118.182 77.2939L117.234 76.9752L116.287 76.6566C116.081 77.2681 115.865 77.8749 115.64 78.4769L116.576 78.8279ZM117.829 75.0997L118.787 75.3856C118.978 74.7472 119.158 74.1042 119.327 73.4569L118.359 73.2043L117.392 72.9516C117.228 73.5766 117.055 74.1975 116.871 74.8139L117.829 75.0997ZM118.823 71.2943L119.799 71.5136C119.945 70.8642 120.08 70.2107 120.204 69.5534L119.222 69.3677L118.239 69.1821C118.119 69.8169 117.988 70.4479 117.847 71.075L118.823 71.2943ZM120.812 65.5976C120.733 66.2613 120.643 66.9215 120.542 67.5782L119.554 67.4264L118.566 67.2745C118.663 66.6403 118.75 66.0026 118.826 65.3615L119.819 65.4796L120.812 65.5976ZM120.018 63.5223L121.015 63.6065C121.071 62.9428 121.116 62.276 121.149 61.6062L120.151 61.5558L119.152 61.5054C119.119 62.1526 119.076 62.7969 119.022 63.4381L120.018 63.5223Z" fill="#C3911A"/>
<rect x="21.25" y="36.6094" width="82.7713" height="56.052" rx="7.75" stroke="black" stroke-width="1.5"/>
<path d="M57.362 91.9141C55.4168 100.901 53.9556 105.955 46.8594 114.18H79.1452C72.9114 104.865 71.262 100.1 69.8096 91.9141" stroke="black" stroke-width="1.5"/>
<path d="M58.2931 69.8393L58.2932 69.8394C61.2233 70.8178 64.3993 70.8178 67.3294 69.8394C68.2319 69.5381 69.1445 69.3199 70.0732 69.3199H70.447C73.0815 69.3199 75.6074 70.3502 77.4691 72.1828C79.3307 74.0153 80.3758 76.4999 80.3758 79.0897C80.3758 79.6865 80.135 80.2596 79.7051 80.6828C79.275 81.1061 78.6909 81.3446 78.0811 81.3446H47.5447C46.9348 81.3446 46.3508 81.1061 45.9207 80.6828C45.4908 80.2596 45.25 79.6865 45.25 79.0897C45.2504 76.5002 46.2957 74.016 48.1572 72.1839C50.0189 70.3516 52.5445 69.3215 55.1788 69.3215H55.5557C56.4822 69.3215 57.3924 69.5381 58.2931 69.8393ZM47.2947 79.0894L47.2944 79.3397L47.5447 79.3397L78.0811 79.3381L78.3314 79.3381L78.3311 79.0879C78.3289 77.028 77.4966 75.0538 76.0182 73.5985C74.5398 72.1433 72.5362 71.3255 70.4472 71.3233H70.447H70.0732C69.4861 71.3233 68.8197 71.4587 67.9871 71.7362L67.9869 71.7362C64.6304 72.8567 60.9922 72.8567 57.6357 71.7362L57.6356 71.7362C56.8085 71.4603 56.1436 71.3249 55.5557 71.3249H55.1788H55.1785C53.0895 71.327 51.0859 72.1448 49.6076 73.6001C48.1292 75.0554 47.2969 77.0295 47.2947 79.0894ZM75.7864 57.798V57.7977V56.5453C75.7864 49.4977 69.9627 43.7706 62.8129 43.7706C55.6631 43.7706 49.8394 49.4977 49.8394 56.5453V57.7977C49.8394 58.0623 49.7327 58.3169 49.5414 58.5052C49.3499 58.6936 49.0895 58.8002 48.817 58.8002C48.5446 58.8002 48.2842 58.6936 48.0927 58.5052C47.9014 58.3169 47.7947 58.0623 47.7947 57.7977V56.5453C47.7947 48.3988 54.5275 41.7656 62.8129 41.7656C71.0983 41.7656 77.8311 48.3988 77.8311 56.5453V57.7974C77.8282 60.0543 76.9162 62.2187 75.2938 63.8158C73.6713 65.413 71.4706 66.3122 69.1743 66.315H61.5405C60.9307 66.315 60.3466 66.0765 59.9166 65.6532C59.4866 65.23 59.2458 64.6568 59.2458 64.0601C59.2458 63.4633 59.4866 62.8902 59.9166 62.467C60.3466 62.0436 60.9307 61.8051 61.5405 61.8051H64.0852C64.6951 61.8051 65.2792 62.0436 65.7092 62.467C66.1392 62.8902 66.3799 63.4633 66.3799 64.0601V64.3101H66.6299H69.1746H69.1749C70.9265 64.3081 72.6066 63.6224 73.8464 62.402C75.0863 61.1815 75.7844 59.5258 75.7864 57.798ZM56.2104 63.7822C54.1805 61.9946 52.8841 59.4302 52.8841 56.5453C52.8841 53.9554 53.9292 51.4709 55.7908 49.6384C57.6525 47.8058 60.1784 46.7755 62.8129 46.7755C65.4474 46.7755 67.9733 47.8058 69.835 49.6384C71.6966 51.4709 72.7417 53.9554 72.7417 56.5453C72.7417 57.6412 72.5148 58.6825 72.1726 59.6781C71.8553 60.1707 71.4176 60.578 70.8988 60.8624C70.3716 61.1514 69.7781 61.3038 69.1741 61.3051H69.0056C69.8359 60.2705 70.3857 59.0411 70.5982 57.7326C70.8388 56.2508 70.6364 54.7322 70.0158 53.3619C69.3952 51.9917 68.3834 50.8294 67.1042 50.0162C65.8255 49.2032 64.3345 48.774 62.8129 48.7804C61.2888 48.7734 59.7954 49.2034 58.5149 50.0184C57.2341 50.8337 56.2217 51.9989 55.602 53.3722C54.9823 54.7456 54.7823 56.2672 55.0268 57.7509C55.2613 59.1738 55.8947 60.5022 56.8533 61.5874C56.4765 62.2632 56.257 63.013 56.2104 63.7822Z" fill="black" stroke="#F5F3EF" stroke-width="0.5"/>
<rect x="59.5312" y="63.0859" width="5.70945" height="2.07616" rx="1.03808" fill="#C3911A"/>
</g>
<defs>
<filter id="filter0_d_3843_331" x="0" y="-0.0078125" width="125.227" height="123" filterUnits="userSpaceOnUse" color-interpolation-filters="sRGB">
<feFlood flood-opacity="0" result="BackgroundImageFix"/>
<feColorMatrix in="SourceAlpha" type="matrix" values="0 0 0 0 0 0 0 0 0 0 0 0 0 0 0 0 0 0 127 0" result="hardAlpha"/>
<feOffset dy="4"/>
<feGaussianBlur stdDeviation="2"/>
<feComposite in2="hardAlpha" operator="out"/>
<feColorMatrix type="matrix" values="0 0 0 0 0 0 0 0 0 0 0 0 0 0 0 0 0 0 0.25 0"/>
<feBlend mode="normal" in2="BackgroundImageFix" result="effect1_dropShadow_3843_331"/>
<feBlend mode="normal" in="SourceGraphic" in2="effect1_dropShadow_3843_331" result="shape"/>
</filter>
</defs>
</svg>
