<svg width="91" height="100" viewBox="0 0 91 100" fill="none" xmlns="http://www.w3.org/2000/svg">
<path d="M13.7616 39.5561C-1.9805 59.1253 12.4984 84.0299 35.446 95.3313C58.5368 106.716 78.0599 96.3332 86.1865 74.6529C93.8577 53.1104 92.3996 30.754 77.1034 21.3343C62.1474 11.8663 29.5859 19.7174 13.7616 39.5561Z" fill="#EED7C5"/>
<path d="M35.5466 34.8735C48.8579 28.1769 57.0868 17.6557 53.9266 11.3738C50.7663 5.0919 37.4134 5.4281 24.1022 12.1247C10.7909 18.8213 2.56192 29.3425 5.7222 35.6244C8.88249 41.9063 22.2353 41.5701 35.5466 34.8735Z" fill="#EED7C5"/>
<rect x="30.3672" y="29.6875" width="33.619" height="42.4434" rx="16.8095" fill="#9C4322"/>
<rect x="30.3672" y="29.6875" width="33.619" height="42.4434" rx="16.8095" stroke="black"/>
<path d="M47.3829 37.7349L47.1727 37.4278L46.9679 37.7387C46.0705 39.101 45.3226 40.5787 44.8597 42.1499L44.7652 42.4705H45.0995H49.2538H49.5899L49.4932 42.1486C49.0212 40.5768 48.3093 39.0879 47.3829 37.7349ZM44.5844 38.4718L44.8815 37.915L44.2838 38.1172C42.236 38.81 40.4979 40.2404 39.4715 42.0997L39.2667 42.4705H39.6903H42.8493H43.0372L43.0895 42.29C43.4759 40.9535 43.9462 39.6679 44.5844 38.4718ZM50.0502 38.118L49.4459 37.907L49.7473 38.4718C50.3865 39.6697 50.8782 40.9562 51.2639 42.29L51.3161 42.4705H51.504H54.663H55.0866L54.8819 42.0997C53.8541 40.238 52.0935 38.8315 50.0502 38.118ZM38.8032 44.1427H38.6078L38.5606 44.3323C38.3836 45.043 38.2719 45.7804 38.2719 46.5649C38.2719 47.3493 38.3836 48.0867 38.5606 48.7974L38.6078 48.987H38.8032H42.4598H42.7418L42.708 48.7071C42.622 47.9947 42.5584 47.2891 42.5584 46.5649C42.5584 45.8406 42.622 45.135 42.708 44.4227L42.7418 44.1427H42.4598H38.8032ZM44.6452 44.1427H44.4311L44.3981 44.3542C44.2882 45.0606 44.2221 45.812 44.2221 46.5649C44.2221 47.3182 44.2883 48.0477 44.398 48.7743L44.4301 48.987H44.6452H49.7082H49.9298L49.9564 48.767L49.9572 48.7602C50.0432 48.0478 50.1313 47.3185 50.1313 46.5649C50.1313 45.8089 50.0427 45.0562 49.9563 44.3618L49.929 44.1427H49.7082H44.6452ZM51.8935 44.1427H51.6115L51.6453 44.4227C51.7313 45.135 51.795 45.8406 51.795 46.5649C51.795 47.2891 51.7313 47.9947 51.6453 48.7071L51.6115 48.987H51.8935H55.5501H55.7455L55.7927 48.7974C55.9697 48.0867 56.0814 47.3493 56.0814 46.5649C56.0814 45.7804 55.9697 45.043 55.7927 44.3323L55.7455 44.1427H55.5501H51.8935ZM39.6903 50.6592H39.2667L39.4715 51.03C40.4986 52.8907 42.2371 54.2978 44.2815 55.0117L44.8858 55.2227L44.5844 54.658C43.9459 53.4613 43.4758 52.1972 43.0897 50.8408L43.0381 50.6592H42.8493H39.6903ZM45.0995 50.6592H44.7666L44.8595 50.9789C45.3226 52.5731 46.0711 54.0296 46.9679 55.3911L47.1742 55.7042L47.3839 55.3934C48.3048 54.0286 49.0312 52.5715 49.4939 50.9789L49.5868 50.6592H49.2538H45.0995ZM51.504 50.6592H51.3153L51.2636 50.8408C50.8783 52.1946 50.3869 53.4594 49.7473 54.658L49.4459 55.2227L50.0502 55.0117C52.0935 54.2982 53.8541 52.8917 54.8819 51.03L55.0866 50.6592H54.663H51.504ZM34.1946 28.9375C32.9802 28.9375 31.8159 29.4218 30.9575 30.2835C30.0992 31.1452 29.6172 32.3137 29.6172 33.5318V68.2866C29.6172 69.5047 30.0992 70.6732 30.9575 71.5349C31.8159 72.3966 32.9802 72.8809 34.1946 72.8809H60.1588C61.3731 72.8809 62.5375 72.3966 63.3958 71.5349C64.2541 70.6732 64.7361 69.5047 64.7361 68.2866V33.5318C64.7361 32.3137 64.2541 31.1452 63.3958 30.2835C62.5375 29.4218 61.3731 28.9375 60.1588 28.9375H34.1946ZM47.1767 35.954C49.9793 35.954 52.6673 37.0717 54.6493 39.0615C56.6314 41.0514 57.7451 43.7504 57.7451 46.5649C57.7451 49.3794 56.6314 52.0784 54.6493 54.0682C52.6673 56.058 49.9793 57.1757 47.1767 57.1757C44.3741 57.1757 41.686 56.058 39.704 54.0682C37.7219 52.0784 36.6082 49.3794 36.6082 46.5649C36.6082 43.7504 37.7219 41.0514 39.704 39.0615C41.686 37.0717 44.3741 35.954 47.1767 35.954ZM57.7451 62.0201V65.8644H36.6082V62.0201H57.7451Z" fill="white" stroke="#9C4322" stroke-width="0.5"/>
<path d="M76.2259 55.6636L76.2259 55.6637L76.229 55.6668C77.2631 56.7008 77.2609 58.3622 76.2305 59.375L76.229 59.3766L68.7732 66.8324L68.6752 66.9304L68.7063 67.0654L72.7387 84.5451L70.3742 86.9263L63.0957 72.9884L62.9381 72.6866L62.6973 72.9274L55.2223 80.4024L55.1336 80.4911L55.1517 80.6152L55.8235 85.2245L54.097 86.9349L50.8837 81.1289L50.849 81.0662L50.7862 81.0314L44.9592 77.7982L46.6717 76.0534L51.3375 76.744L51.4619 76.7624L51.5509 76.6734L58.9684 69.2559L59.2084 69.016L58.908 68.8579L44.9686 61.5224L47.3507 59.1571L64.8304 63.1894L64.9654 63.2206L65.0634 63.1226L72.5192 55.6668L72.5193 55.6668L72.5223 55.6636C73.4973 54.6538 75.2509 54.6538 76.2259 55.6636Z" fill="white" stroke="#9C4322" stroke-width="0.5"/>
</svg>
