<svg width="71" height="57" viewBox="0 0 71 57" fill="none" xmlns="http://www.w3.org/2000/svg">
<g clip-path="url(#clip0_1153_66)">
<path d="M48.3688 1.95938C46.7713 0.567773 44.9741 0 43.2213 0C40.6919 0 38.2734 1.19121 36.7203 2.8166L35.5 4.11914L34.2686 2.82773C32.7488 1.22461 30.3192 0 27.7566 0C26.0148 0 24.2288 0.567773 22.6202 1.95938C18.7041 5.36602 18.4933 11.4891 21.9989 15.174L34.08 27.8766C34.8566 28.7004 36.1213 28.7004 36.9089 27.8766L48.99 15.174C52.4956 11.4891 52.2959 5.36602 48.3688 1.95938ZM46.4828 12.7025L35.5 24.2584L24.5172 12.7025C22.6645 10.7543 22.2541 6.95801 24.8944 4.67578C25.8041 3.88535 26.8136 3.57363 27.812 3.57363C29.3541 3.57363 30.8406 4.3418 31.7614 5.31035L35.5 9.2291L39.2386 5.29922C40.1483 4.3418 41.6459 3.5625 43.188 3.5625C44.1753 3.5625 45.1959 3.87422 46.0945 4.66465C48.7459 6.96914 48.3355 10.7432 46.4828 12.7025ZM24.4063 27.6984C22.8531 25.5609 18.9592 24.2027 16.1414 27.2643C14.4108 29.1346 14.3775 32.0291 15.8641 34.0887L19.0369 38.4639C19.758 39.4547 18.3158 40.5902 17.5281 39.6551L10.65 31.4947V16.2316C10.65 13.3371 8.29813 10.7432 5.41375 10.6986C2.42953 10.643 0 13.0477 0 16.0312V35.0016C0 36.215 0.410469 37.3951 1.16484 38.3414L13.0352 53.226C13.6342 53.983 14.0225 55.1742 14.1556 56.2318C14.2111 56.6772 14.5994 57 15.0431 57H16.8181C17.3506 57 17.7611 56.5658 17.7056 56.0314C17.5281 54.2502 16.8736 52.3242 15.8086 50.9994L3.93828 36.1148C3.68313 35.8031 3.55 35.4023 3.55 35.0016V16.0312C3.55 13.6934 7.1 13.6266 7.1 16.1092V32.775L14.2666 41.4029C18.3602 46.3236 25.0053 41.1023 22.1209 36.6826C22.0988 36.6492 22.0766 36.627 22.0655 36.5936L18.6708 31.8955C18.1494 31.1719 18.2048 30.0363 19.0591 29.4129C19.8356 28.8451 20.9561 28.9898 21.5441 29.8025L26.2478 36.3041C27.6567 38.1855 28.4111 40.4678 28.4111 42.7611V56.1205C28.4111 56.6104 28.8105 57.0111 29.2986 57.0111H31.0736C31.5617 57.0111 31.9611 56.6104 31.9611 56.1205V42.7611C31.9611 39.6773 30.9627 36.6826 29.1211 34.2111L24.4063 27.6984ZM71 16.0312C71 13.0477 68.5705 10.643 65.5863 10.6875C62.7019 10.732 60.35 13.326 60.35 16.2205V31.4836L53.4719 39.6439C52.6842 40.5791 51.242 39.4547 51.9631 38.4527L55.1359 34.0775C56.6225 32.018 56.5892 29.1123 54.8586 27.2531C52.0297 24.2027 48.1358 25.5498 46.5938 27.6873L41.89 34.1889C40.0484 36.6604 39.05 39.6662 39.05 42.75V56.1094C39.05 56.5992 39.4494 57 39.9375 57H41.7125C42.2006 57 42.6 56.5992 42.6 56.1094V42.75C42.6 40.4566 43.3544 38.1744 44.7633 36.293L49.467 29.7914C50.055 28.9787 51.1644 28.8229 51.952 29.4018C52.8173 30.0252 52.8728 31.1607 52.3403 31.8844L48.9456 36.5824C48.9234 36.6158 48.9013 36.6381 48.8902 36.6715C45.9947 41.0912 52.6509 46.3236 56.7445 41.3918L63.9111 32.7639V16.098C63.9111 13.6154 67.4611 13.6822 67.4611 16.0201V34.9904C67.4611 35.3912 67.328 35.792 67.0728 36.1037L55.2025 50.9883C54.1486 52.3131 53.483 54.2391 53.3055 56.0203C53.25 56.5547 53.6605 56.9889 54.193 56.9889H55.968C56.4117 56.9889 56.8 56.666 56.8555 56.2207C56.9886 55.152 57.3658 53.9719 57.9759 53.2148L69.8463 38.3303C70.6006 37.384 71.0111 36.2039 71.0111 34.9904L71 16.0312Z" fill="black"/>
</g>
<defs>
<clipPath id="clip0_1153_66">
<rect width="71" height="57" fill="white"/>
</clipPath>
</defs>
</svg>
